<svg><symbol xmlns="http://www.w3.org/2000/svg" id="add_documents" fill="none" viewBox="0 0 160 162"><g clip-path="url(#clip0_24298_1972)"><mask id="mask0_24298_1972" width="160" height="162" x="0" y="0" maskUnits="userSpaceOnUse" style="mask-type:luminance"><path fill="#fff" d="M160 0H0v161.667h160z"/></mask><g mask="url(#mask0_24298_1972)"><path fill="#0B41CD" d="M20 75a3.33 3.33 0 0 1-3.333-3.333v-45c0-5.517 4.483-10 10-10h22.741a9.97 9.97 0 0 1 7.517 3.441L75.25 41.142a3.327 3.327 0 0 1-.325 4.7 3.327 3.327 0 0 1-4.7-.325L51.892 24.475a3.36 3.36 0 0 0-2.5-1.15H26.667a3.33 3.33 0 0 0-3.334 3.333v45A3.33 3.33 0 0 1 20 74.992z"/><path fill="#0B41CD" d="M85.833 143.333H30c-7.35 0-13.333-5.983-13.333-13.333V54.167c0-7.35 5.983-13.334 13.333-13.334h100c7.35 0 13.333 5.984 13.333 13.334V85A3.33 3.33 0 0 1 140 88.333 3.33 3.33 0 0 1 136.667 85V54.167A6.676 6.676 0 0 0 130 47.5H30a6.676 6.676 0 0 0-6.667 6.667V130A6.676 6.676 0 0 0 30 136.667h55.833A3.33 3.33 0 0 1 89.167 140a3.33 3.33 0 0 1-3.334 3.333"/><path fill="#1482FA" d="M123.333 153.333c-16.541 0-30-13.458-30-30 0-16.541 13.459-30 30-30 16.542 0 30 13.459 30 30 0 16.542-13.458 30-30 30m0-53.333C110.467 100 100 110.467 100 123.333c0 12.867 10.467 23.334 23.333 23.334 12.867 0 23.334-10.467 23.334-23.334S136.2 100 123.333 100"/><path fill="#1482FA" d="M123.333 136.667a3.333 3.333 0 0 1-3.333-3.334v-6.666h-6.667a3.333 3.333 0 1 1 0-6.667H120v-6.667a3.333 3.333 0 1 1 6.667 0V120h6.666a3.333 3.333 0 1 1 0 6.667h-6.666v6.666a3.333 3.333 0 0 1-3.334 3.334"/></g></g><defs><clipPath id="clip0_24298_1972"><path fill="#fff" d="M0 0h160v161.667H0z"/></clipPath></defs></symbol><symbol xmlns="http://www.w3.org/2000/svg" id="authorisation" fill="none" viewBox="0 0 160 160"><g clip-path="url(#clip0_24298_1977)"><mask id="mask0_24298_1977" width="160" height="160" x="0" y="0" maskUnits="userSpaceOnUse" style="mask-type:luminance"><path fill="#fff" d="M160 0H0v160h160z"/></mask><g mask="url(#mask0_24298_1977)"><path fill="#1482FA" d="M113.333 72.5A3.333 3.333 0 0 1 110 69.167v-25c0-17.292-13.175-30.834-30-30.834S50 26.875 50 44.167v25a3.332 3.332 0 1 1-6.666 0v-25c0-21.025 16.108-37.5 36.666-37.5s36.667 16.475 36.667 37.5v25a3.333 3.333 0 0 1-3.334 3.333"/><path fill="#0B41CD" d="M78.333 153.333H40c-7.35 0-13.333-5.983-13.333-13.333V79.167c0-7.35 5.983-13.334 13.333-13.334h80c7.35 0 13.333 5.984 13.333 13.334V87.5A3.33 3.33 0 0 1 130 90.833a3.33 3.33 0 0 1-3.333-3.333v-8.333A6.676 6.676 0 0 0 120 72.5H40a6.676 6.676 0 0 0-6.667 6.667V140A6.676 6.676 0 0 0 40 146.667h38.333A3.33 3.33 0 0 1 81.667 150a3.33 3.33 0 0 1-3.334 3.333"/><path fill="#1482FA" d="M80 128.333A3.33 3.33 0 0 1 76.667 125v-13.333a3.333 3.333 0 1 1 6.666 0V125A3.33 3.33 0 0 1 80 128.333"/><path fill="#1482FA" d="M80 115c-7.35 0-13.333-5.983-13.333-13.333S72.65 88.333 80 88.333s13.333 5.984 13.333 13.334S87.35 115 80 115m0-20a6.676 6.676 0 0 0-6.667 6.667A6.675 6.675 0 0 0 80 108.333a6.675 6.675 0 0 0 6.667-6.666A6.676 6.676 0 0 0 80 95"/><path fill="#0B41CD" d="M146.842 153.333H94.833c-1.275 0-2.45-.308-3.483-.925a6.9 6.9 0 0 1-3.208-4.216 6.76 6.76 0 0 1 .717-5.184l25.866-44.4c.033-.075.075-.141.117-.216a7.1 7.1 0 0 1 2.483-2.475c.033-.017.058-.034.092-.05 3.333-1.85 7.458-.734 9.375 2.533l26.033 44.608s.033.05.042.075a7 7 0 0 1 .875 3.367c0 3.783-3.092 6.867-6.9 6.867zm-52.117-6.675s.034.009.109.009h52.008c.133 0 .233-.109.233-.2a.4.4 0 0 0-.042-.142l-25.991-44.542c-.067-.116-.225-.141-.359-.091-.025.025-.05.041-.075.066 0 0-.008.017-.016.025l-25.983 44.6c-.025.05-.034.075-.025.125.008.042.041.109.133.159z"/><path fill="#1482FA" d="M120.833 132.508a3.34 3.34 0 0 1-3.341-3.341v-15a3.34 3.34 0 0 1 3.341-3.342 3.337 3.337 0 0 1 3.342 3.342v15a3.34 3.34 0 0 1-3.342 3.341m-.008 10.409c-1.975 0-3.75-1.775-3.75-3.75 0-2.175 1.775-3.75 3.75-3.75 2.175 0 3.75 1.575 3.75 3.75s-1.775 3.75-3.75 3.75"/></g></g><defs><clipPath id="clip0_24298_1977"><path fill="#fff" d="M0 0h160v160H0z"/></clipPath></defs></symbol><symbol xmlns="http://www.w3.org/2000/svg" id="drag_and_drop" fill="none" viewBox="0 0 160 160"><g clip-path="url(#clip0_24298_1979)"><path fill="#1482FA" d="M88.334 108.333a3.3 3.3 0 0 1-2.209-.841L39.3 66.008c-2.825-2.458-7.125-2.458-9.975.025L12.2 81.025a3.32 3.32 0 0 1-4.7-.317 3.32 3.32 0 0 1 .317-4.7l17.133-15c5.358-4.65 13.417-4.65 18.759 0l46.85 41.5a3.336 3.336 0 0 1-2.217 5.834zm-1.942-44.166c-9.192 0-16.667-7.475-16.667-16.667S77.2 30.833 86.392 30.833c9.191 0 16.666 7.475 16.666 16.667s-7.475 16.667-16.666 16.667m0-26.667c-5.517 0-10 4.483-10 10s4.483 10 10 10c5.516 0 10-4.483 10-10s-4.484-10-10-10"/><path fill="#0B41CD" d="M89.167 109.167H20c-7.35 0-13.333-5.984-13.333-13.334V29.167c0-7.35 5.983-13.334 13.333-13.334h87.5c7.35 0 13.333 5.984 13.333 13.334v54.166a3.33 3.33 0 0 1-3.333 3.334 3.33 3.33 0 0 1-3.333-3.334V29.167A6.676 6.676 0 0 0 107.5 22.5H20a6.676 6.676 0 0 0-6.667 6.667v66.666A6.676 6.676 0 0 0 20 102.5h69.167a3.333 3.333 0 1 1 0 6.667"/><path fill="#1482FA" d="M140 144.167H52.5c-7.35 0-13.333-5.984-13.333-13.334v-11.666a3.333 3.333 0 1 1 6.666 0v11.666A6.676 6.676 0 0 0 52.5 137.5H140a6.676 6.676 0 0 0 6.667-6.667V64.167A6.676 6.676 0 0 0 140 57.5h-9.167a3.333 3.333 0 1 1 0-6.667H140c7.35 0 13.333 5.984 13.333 13.334v66.666c0 7.35-5.983 13.334-13.333 13.334"/><path fill="#0B41CD" d="M125.533 121.617c-.85 0-1.708-.325-2.358-.975L94.892 92.358a3.34 3.34 0 0 1 0-4.716 3.34 3.34 0 0 1 4.716 0l28.284 28.283a3.34 3.34 0 0 1 0 4.717c-.65.65-1.5.975-2.359.975"/><path fill="#0B41CD" d="M127.5 124.167h-24.542a3.333 3.333 0 1 1 0-6.667h21.209V95.708a3.33 3.33 0 0 1 3.333-3.333 3.33 3.33 0 0 1 3.333 3.333v25.125a3.33 3.33 0 0 1-3.333 3.334"/></g><defs><clipPath id="clip0_24298_1979"><path fill="#fff" d="M0 0h160v160H0z"/></clipPath></defs></symbol><symbol xmlns="http://www.w3.org/2000/svg" id="empty_box" fill="none" viewBox="0 0 160 160"><g clip-path="url(#clip0_24298_1969)"><path fill="#0B41CD" d="M80.008 144.342a3.32 3.32 0 0 1-1.991-.659c-.059-.033-.109-.058-.167-.091l-47.483-26.834a4.44 4.44 0 0 1-2.267-3.891V86.058a3.332 3.332 0 1 1 6.667 0v25.534l41.908 23.683V87.017a3.332 3.332 0 1 1 6.667 0v48.308l41.991-23.733v-25.55a3.333 3.333 0 1 1 6.667 0v26.833c0 1.608-.875 3.1-2.275 3.892L82.233 143.6c-.141.075-.275.15-.425.208a3.3 3.3 0 0 1-1.8.525zm46.442-33.384h-.017zm-92.817-.016h.017z"/><path fill="#1482FA" d="M31.425 62.892a3.3 3.3 0 0 1-1.642-.434l-21.708-12.3c-2.125-1.183-2.9-3.9-1.708-6.05.4-.725 1-1.325 1.733-1.733l46.242-26.117a4.46 4.46 0 0 1 4.425.017l21.241 11.95 21.275-11.975c1.342-.775 3.042-.775 4.417.017L151.933 42.4a4.42 4.42 0 0 1 2.1 2.658 4.43 4.43 0 0 1-.391 3.392c-.4.725-1 1.325-1.734 1.733l-21.641 12.259a3.34 3.34 0 0 1-3.284 0L80.008 35.867 33.075 62.433a3.3 3.3 0 0 1-1.642.434zm55.358-30.825 41.834 23.658 16.641-9.425-41.791-23.625-16.684 9.383zM14.75 46.275l16.675 9.45 41.792-23.658-16.684-9.392zm133.892 1.933s.016.009.025.017zm-137.259-.033-.025.017s.017-.009.025-.017m137.259-3.8-.034.017zm-137.3-.033.033.016zm44.116-22.275s.034.016.042.025zm46.925 0s.025.016.034.016zm2.192-.017-.05.025zm-46.933 0-.034.017s.025-.017.034-.017"/><path fill="#1482FA" d="M56.517 103.408a4.43 4.43 0 0 1-2.159-.558L8.075 76.683A4.47 4.47 0 0 1 5.967 74a4.45 4.45 0 0 1 .408-3.4c.4-.708.983-1.3 1.7-1.7l21.717-12.25a3.33 3.33 0 0 1 3.275 0l46.925 26.525L126.933 56.6a3.34 3.34 0 0 1 3.284 0l21.666 12.275a4.4 4.4 0 0 1 2.1 2.683 4.45 4.45 0 0 1-.408 3.4 4.44 4.44 0 0 1-1.7 1.7l-46.25 26.15c-1.392.767-3.008.767-4.367.017L79.992 90.833l-21.284 12c-.7.384-1.45.575-2.208.575zM14.75 72.8l41.783 23.625 16.692-9.417-41.792-23.616zm72.033 14.208 16.659 9.392 41.791-23.625-16.641-9.433z"/></g><defs><clipPath id="clip0_24298_1969"><path fill="#fff" d="M0 0h160v160H0z"/></clipPath></defs></symbol><symbol xmlns="http://www.w3.org/2000/svg" id="error" fill="none" viewBox="0 0 160 160"><g clip-path="url(#clip0_24298_1974)"><path fill="#0B41CD" d="M94.1 49.308a3.33 3.33 0 0 1-3.333-3.333 3.33 3.33 0 0 1 3.325-3.333h.008a3.332 3.332 0 1 1 0 6.666m43.933 94.859H22.8c-5.575 0-10.1-4.659-10.1-10.384S17.233 123.4 22.8 123.4h115.233c5.575 0 10.1 4.658 10.1 10.383s-4.533 10.384-10.1 10.384M22.8 130.075c-1.892 0-3.433 1.667-3.433 3.717s1.541 3.716 3.433 3.716h115.233c1.892 0 3.434-1.666 3.434-3.716s-1.542-3.717-3.434-3.717z"/><path fill="#1482FA" d="M115.942 102.942h-71.5a3.333 3.333 0 1 1 0-6.667h71.5a3.333 3.333 0 1 1 0 6.667m-10.925-26.825h-49.65a3.332 3.332 0 1 1 0-6.667h49.65a3.333 3.333 0 1 1 0 6.667M94.1 49.308H66.283a3.33 3.33 0 0 1-3.333-3.333 3.33 3.33 0 0 1 3.333-3.333H94.1a3.332 3.332 0 1 1 0 6.666"/><path fill="#0B41CD" d="M126.867 130.042a3.34 3.34 0 0 1-3.092-2.092l-10.917-27.108-31.633-77.617c-.258-.625-.758-.725-1.042-.725-.341 0-.791.125-1.033.717l-31.617 77.65-10.916 27.091a3.333 3.333 0 0 1-4.342 1.842 3.333 3.333 0 0 1-1.842-4.342L41.35 98.35l31.633-77.642a7.76 7.76 0 0 1 7.209-4.875c3.175 0 6.008 1.917 7.216 4.875l31.625 77.634 10.925 27.116a3.34 3.34 0 0 1-1.841 4.342 3.3 3.3 0 0 1-1.242.242z"/></g><defs><clipPath id="clip0_24298_1974"><path fill="#fff" d="M0 0h160v160H0z"/></clipPath></defs></symbol><symbol xmlns="http://www.w3.org/2000/svg" id="file" fill="none" viewBox="0 0 160 160"><g clip-path="url(#clip0_24298_1970)"><mask id="mask0_24298_1970" width="160" height="160" x="0" y="0" maskUnits="userSpaceOnUse" style="mask-type:luminance"><path fill="#fff" d="M160 0H0v160h160z"/></mask><g mask="url(#mask0_24298_1970)"><path fill="#1482FA" d="M127.5 44.167h-16.667c-7.35 0-13.333-5.984-13.333-13.334V11.667a3.333 3.333 0 1 1 6.667 0v19.166a6.675 6.675 0 0 0 6.666 6.667H127.5a3.33 3.33 0 0 1 3.333 3.333 3.33 3.33 0 0 1-3.333 3.334"/><path fill="#0B41CD" d="M120 153.333H40c-7.35 0-13.333-5.983-13.333-13.333V20c0-7.35 5.983-13.333 13.333-13.333h60.3a9.98 9.98 0 0 1 7.517 3.441l23.033 26.559a10 10 0 0 1 2.483 6.541V140c0 7.35-5.983 13.333-13.333 13.333m-19.717-140H40A6.676 6.676 0 0 0 33.333 20v120A6.676 6.676 0 0 0 40 146.667h80a6.676 6.676 0 0 0 6.667-6.667V43.233c0-.8-.3-1.575-.834-2.175l-23.05-26.583a3.3 3.3 0 0 0-2.5-1.142"/><path fill="#1482FA" d="M81.667 96.667a3.33 3.33 0 0 1-3.334-3.334v-25a3.332 3.332 0 1 1 6.667 0v25a3.33 3.33 0 0 1-3.333 3.334"/><path fill="#1482FA" d="M94.167 84.167h-25a3.33 3.33 0 0 1-3.334-3.334 3.33 3.33 0 0 1 3.334-3.333h25a3.33 3.33 0 0 1 3.333 3.333 3.33 3.33 0 0 1-3.333 3.334"/></g></g><defs><clipPath id="clip0_24298_1970"><path fill="#fff" d="M0 0h160v160H0z"/></clipPath></defs></symbol><symbol xmlns="http://www.w3.org/2000/svg" id="folder" fill="none" viewBox="0 0 160 160"><g clip-path="url(#clip0_24298_1968)"><mask id="mask0_24298_1968" width="160" height="160" x="0" y="0" maskUnits="userSpaceOnUse" style="mask-type:luminance"><path fill="#fff" d="M160 0H0v160h160z"/></mask><g mask="url(#mask0_24298_1968)"><path fill="#1482FA" d="M20 130.833a3.33 3.33 0 0 1-3.333-3.333V26.667c0-5.517 4.483-10 10-10h22.75c2.825 0 5.558 1.258 7.5 3.458l15.35 17.6A6.77 6.77 0 0 0 77.333 40h36c7.35 0 13.334 5.983 13.334 13.333v3.334a3.333 3.333 0 1 1-6.667 0v-3.334a6.676 6.676 0 0 0-6.667-6.666h-36c-3.85 0-7.525-1.659-10.083-4.542l-15.35-17.6c-.65-.742-1.592-1.192-2.492-1.192h-22.75a3.33 3.33 0 0 0-3.333 3.334V127.5a3.33 3.33 0 0 1-3.333 3.333z"/><path fill="#0B41CD" d="M121.333 143.333h-91.5a13.36 13.36 0 0 1-10.058-4.558 13.4 13.4 0 0 1-3.158-10.642l8.833-63.341c1-6.55 6.675-11.459 13.217-11.459h91.5c3.858 0 7.525 1.667 10.058 4.559a13.4 13.4 0 0 1 3.158 10.641l-8.833 63.342c-1 6.55-6.683 11.458-13.217 11.458M38.667 60c-3.275 0-6.125 2.475-6.625 5.75l-8.825 63.292c-.267 1.966.291 3.866 1.583 5.341 1.283 1.467 3.067 2.275 5.033 2.275h91.5c3.275 0 6.125-2.475 6.625-5.75l8.825-63.291c.267-1.967-.291-3.867-1.583-5.342-1.283-1.467-3.067-2.275-5.033-2.275z"/></g></g><defs><clipPath id="clip0_24298_1968"><path fill="#fff" d="M0 0h160v160H0z"/></clipPath></defs></symbol><symbol xmlns="http://www.w3.org/2000/svg" id="forbidden" fill="none" viewBox="0 0 160 160"><g clip-path="url(#clip0_24298_1975)"><mask id="mask0_24298_1975" width="160" height="160" x="0" y="0" maskUnits="userSpaceOnUse" style="mask-type:luminance"><path fill="#fff" d="M160 0H0v160h160z"/></mask><g mask="url(#mask0_24298_1975)"><path fill="#1482FA" d="M80 125a3.333 3.333 0 0 1-3.333-3.333c0-13.325-10.842-24.167-24.167-24.167a3.332 3.332 0 1 1 0-6.667c17 0 30.833 13.834 30.833 30.834A3.333 3.333 0 0 1 80 125"/><path fill="#0B41CD" d="M110 153.333a3.32 3.32 0 0 1-2.467-1.091 3.335 3.335 0 0 1 .217-4.709c6.725-6.125 14.742-16.45 14.742-30.866v-57.5a5.84 5.84 0 0 0-5.834-5.834 5.84 5.84 0 0 0-5.833 5.834v20a3.333 3.333 0 1 1-6.667 0V35a5.84 5.84 0 0 0-5.833-5.833A5.84 5.84 0 0 0 92.492 35v43.333a3.332 3.332 0 1 1-6.667 0V19.167a5.84 5.84 0 0 0-5.833-5.834 5.84 5.84 0 0 0-5.834 5.834v60a3.33 3.33 0 0 1-3.333 3.333 3.33 3.33 0 0 1-3.333-3.333V30a5.84 5.84 0 0 0-5.834-5.833A5.84 5.84 0 0 0 55.825 30v64.167a3.33 3.33 0 0 1-3.333 3.333 3.33 3.33 0 0 1-3.334-3.333V75.833c0-5.516-4.483-10-10-10h-1.666v50a42.9 42.9 0 0 0 13.916 31.709 3.332 3.332 0 1 1-4.5 4.916 49.58 49.58 0 0 1-16.083-36.633V65.833a6.675 6.675 0 0 1 6.667-6.666h1.666a16.55 16.55 0 0 1 10 3.341V30c0-6.892 5.609-12.5 12.5-12.5 2.109 0 4.092.525 5.834 1.45.116-6.792 5.675-12.283 12.5-12.283s12.5 5.608 12.5 12.5v4.783a12.4 12.4 0 0 1 5.833-1.45c6.892 0 12.5 5.608 12.5 12.5v13.117a12.4 12.4 0 0 1 5.833-1.45c6.892 0 12.5 5.608 12.5 12.5v57.5c0 13.15-6.008 25.858-16.925 35.8a3.3 3.3 0 0 1-2.241.866z"/><path fill="#1482FA" d="M113.333 86.667a3.3 3.3 0 0 1-.633-.059 182.3 182.3 0 0 0-32.733-3.275c-4.45 0-9.084.375-13.567.734l-1.142.091a3.34 3.34 0 0 1-3.591-3.058 3.327 3.327 0 0 1 3.058-3.583l1.133-.092c4.609-.367 9.384-.75 14.125-.75 11.375.1 22.792 1.242 33.967 3.392a3.33 3.33 0 0 1 2.642 3.9 3.33 3.33 0 0 1-3.267 2.7z"/></g></g><defs><clipPath id="clip0_24298_1975"><path fill="#fff" d="M0 0h160v160H0z"/></clipPath></defs></symbol><symbol xmlns="http://www.w3.org/2000/svg" id="microscope" fill="none" viewBox="0 0 160 160"><mask id="mask0_24298_2012" width="160" height="160" x="0" y="0" maskUnits="userSpaceOnUse" style="mask-type:luminance"><path fill="#fff" d="M160 0H0v160h160z"/></mask><g mask="url(#mask0_24298_2012)"><path fill="#0B41CD" d="M104.167 132.6a3.328 3.328 0 0 1-1.767-6.158c12.583-7.85 20.1-21.4 20.1-36.267 0-11.658-4.842-22.95-13.275-30.992a3.34 3.34 0 0 1-.117-4.716 3.34 3.34 0 0 1 4.717-.117c9.75 9.292 15.342 22.35 15.342 35.825 0 17.175-8.684 32.85-23.234 41.917a3.33 3.33 0 0 1-1.758.508zM86.25 121.35h-57.5a3.333 3.333 0 1 1 0-6.667h57.5a3.333 3.333 0 1 1 0 6.667"/><path fill="#0B41CD" d="M80 121.35a3.333 3.333 0 1 1 0-6.667c13.783 0 25-10.666 25-23.783 0-7.225-3.35-14.008-9.2-18.592a3.34 3.34 0 0 1-.567-4.683 3.34 3.34 0 0 1 4.683-.567c7.467 5.859 11.75 14.55 11.75 23.842 0 16.792-14.208 30.45-31.666 30.45"/><path fill="#0B41CD" d="M110.141 144.267a3.34 3.34 0 0 1-3.116-2.15c-4.175-11-15.325-18.684-27.109-18.684-11.783 0-22.158 6.942-26.708 17.675a3.333 3.333 0 0 1-4.367 1.767 3.334 3.334 0 0 1-1.766-4.367 35.61 35.61 0 0 1 32.841-21.741c14.35 0 28.2 9.45 33.342 22.983a3.334 3.334 0 0 1-3.117 4.517"/><path fill="#1482FA" d="M60.833 109.167h-27.5a3.333 3.333 0 1 1 0-6.667h27.5a3.333 3.333 0 1 1 0 6.667m65.484-74.4c-.85 0-1.709-.325-2.359-.975l-13.616-13.617a3.34 3.34 0 0 1 0-4.717c1.3-1.3 3.416-1.3 4.716 0l13.617 13.617a3.34 3.34 0 0 1 0 4.717c-.65.65-1.5.975-2.358.975M58.683 77.942a3.332 3.332 0 0 1-2.358-5.692l9.808-9.817a3.34 3.34 0 0 1 4.717 0 3.34 3.34 0 0 1 0 4.717l-9.808 9.817c-.65.65-1.509.975-2.359.975M68.7 87.958a3.332 3.332 0 0 1-2.359-5.691l9.809-9.817a3.34 3.34 0 0 1 4.716 0 3.34 3.34 0 0 1 0 4.717l-9.808 9.816c-.65.65-1.508.975-2.358.975"/><path fill="#1482FA" d="M67.708 88.942c-.85 0-1.708-.325-2.358-.975L55.333 77.95a3.34 3.34 0 0 1 0-4.717 3.34 3.34 0 0 1 4.717 0L70.066 83.25a3.34 3.34 0 0 1 0 4.717c-.65.65-1.5.975-2.358.975"/><path fill="#0B41CD" d="M83.767 82.9c-.884 0-1.734-.35-2.359-.975L61.375 61.892a3.34 3.34 0 0 1 0-4.717l35.65-35.65a3.337 3.337 0 0 1 4.717 0l20.033 20.033a3.34 3.34 0 0 1 0 4.717l-35.65 35.65a3.34 3.34 0 0 1-2.358.975M68.45 59.533 83.767 74.85 114.7 43.917 99.383 28.6zm69.883 85.984H21.667a3.333 3.333 0 1 1 0-6.667h116.666a3.333 3.333 0 1 1 0 6.667"/></g></symbol><symbol xmlns="http://www.w3.org/2000/svg" id="no_connection" fill="none" viewBox="0 0 160 160"><g clip-path="url(#clip0_24298_1976)"><mask id="mask0_24298_1976" width="160" height="160" x="0" y="0" maskUnits="userSpaceOnUse" style="mask-type:luminance"><path fill="#fff" d="M160 0H0v160h160z"/></mask><g mask="url(#mask0_24298_1976)"><path fill="#1482FA" d="M110.833 76.05h-22.5a3.332 3.332 0 1 1 0-6.667h22.5a3.333 3.333 0 1 1 0 6.667m-4.483-23.5a3.33 3.33 0 0 1-3.333-3.333V18.575a3.99 3.99 0 0 0-3.992-3.983 3.983 3.983 0 0 0-3.983 3.983v30.642a3.332 3.332 0 1 1-6.667 0V18.575c0-5.875 4.775-10.65 10.65-10.65s10.658 4.775 10.658 10.65v30.642a3.33 3.33 0 0 1-3.333 3.333m-38.017 0A3.33 3.33 0 0 1 65 49.217V18.575c0-2.2-1.783-3.983-3.983-3.983a3.997 3.997 0 0 0-3.992 3.991v30.634a3.332 3.332 0 1 1-6.667 0V18.575c.009-5.875 4.792-10.65 10.659-10.65 5.866 0 10.65 4.775 10.65 10.65v30.642a3.33 3.33 0 0 1-3.334 3.333"/><path fill="#0B41CD" d="M88.783 152.075a3.333 3.333 0 0 1-3.333-3.333v-12.884a3.333 3.333 0 1 1 6.667 0v12.884a3.333 3.333 0 0 1-3.334 3.333m-17.566 0a3.333 3.333 0 0 1-3.334-3.333v-11.709a3.333 3.333 0 1 1 6.667 0v11.709a3.333 3.333 0 0 1-3.333 3.333M80 125.683c-20.925 0-35.533-12.183-35.533-29.633V74.025l-7.792-7.708a3.34 3.34 0 0 1-.992-2.367V49.217a3.33 3.33 0 0 1 3.334-3.334h81.966a3.333 3.333 0 0 1 3.334 3.334V63.95c0 .892-.359 1.742-.992 2.367l-7.792 7.708V96.05c0 13.658-9.15 24.475-23.866 28.233a3.333 3.333 0 0 1-4.05-2.408 3.327 3.327 0 0 1 2.408-4.05c11.8-3.008 18.85-11.15 18.85-21.767V72.642c0-.892.358-1.742.992-2.367l7.791-7.708V52.558H42.35v10.009l7.792 7.708c.633.625.991 1.483.991 2.367v23.416c0 13.734 11.6 22.967 28.867 22.967a3.333 3.333 0 1 1 0 6.667z"/><path fill="#0B41CD" d="M80 140.367c-11.917 0-20.9-5.209-20.9-12.117v-8.783a3.333 3.333 0 1 1 6.667 0v8.783c0 1.925 5.4 5.45 14.233 5.45a3.333 3.333 0 1 1 0 6.667m8.783-1.175a3.333 3.333 0 0 1-.925-6.534c4.142-1.2 6.375-3.166 6.375-4.408v-8.783a3.333 3.333 0 1 1 6.667 0v8.783c0 4.742-4.183 8.783-11.192 10.808a3.3 3.3 0 0 1-.925.134"/><path fill="#1482FA" d="M142.292 145.625c-.85 0-1.709-.325-2.359-.975L15.35 20.067a3.34 3.34 0 0 1 0-4.717 3.34 3.34 0 0 1 4.717 0L144.65 139.933a3.34 3.34 0 0 1 0 4.717c-.65.65-1.5.975-2.358.975"/></g></g><defs><clipPath id="clip0_24298_1976"><path fill="#fff" d="M0 0h160v160H0z"/></clipPath></defs></symbol><symbol xmlns="http://www.w3.org/2000/svg" id="not_found" fill="none" viewBox="0 0 160 160"><g clip-path="url(#clip0_24298_1978)"><path fill="#0B41CD" d="M17.625 149.167c-1.783 0-3.533-.475-5.075-1.375-4.817-2.817-6.475-9.059-3.7-13.917L33.1 91.092c.3-.534.467-1.159.458-1.784V71.292h-.066a3.332 3.332 0 1 1 0-6.667h22.65a3.332 3.332 0 1 1 0 6.667h-.067v17.983c0 .625.15 1.225.442 1.767l20.491 33.908a3.33 3.33 0 0 1-1.125 4.575 3.34 3.34 0 0 1-4.575-1.125L50.783 94.442l-.05-.092a10.4 10.4 0 0 1-1.325-5.083V71.292h-9.191V89.3c0 1.767-.45 3.525-1.325 5.067l-24.259 42.8c-.975 1.708-.408 3.891 1.267 4.866a3.4 3.4 0 0 0 1.717.467H72.5a3.333 3.333 0 1 1 0 6.667z"/><path fill="#1482FA" d="M109.167 132.5h-60a3.333 3.333 0 1 1 0-6.667h60a3.333 3.333 0 1 1 0 6.667"/><path fill="#1482FA" d="M92.5 149.167H65.833c-7.35 0-13.333-5.984-13.333-13.334v-6.666a3.333 3.333 0 0 1 3.333-3.334H102.5a3.33 3.33 0 0 1 3.333 3.334v6.666c0 7.35-5.983 13.334-13.333 13.334M59.167 132.5v3.333a6.676 6.676 0 0 0 6.666 6.667H92.5a6.676 6.676 0 0 0 6.667-6.667V132.5z"/><path fill="#0B41CD" d="M127.675 129.608c-1.108 0-2.2-.558-2.833-1.566a3.33 3.33 0 0 1 1.066-4.592c12.692-7.917 20.267-21.583 20.267-36.575 0-11.758-4.883-23.15-13.383-31.258a3.34 3.34 0 0 1-.117-4.717 3.34 3.34 0 0 1 4.717-.117c9.825 9.359 15.45 22.517 15.45 36.084 0 17.3-8.75 33.091-23.409 42.225a3.33 3.33 0 0 1-1.758.508zm-18.058-11.341H83.158a3.333 3.333 0 1 1 0-6.667h26.459a3.333 3.333 0 1 1 0 6.667"/><path fill="#0B41CD" d="M103.317 118.267a3.333 3.333 0 1 1 0-6.667c13.908 0 25.225-10.767 25.225-24 0-7.292-3.384-14.133-9.284-18.758a3.34 3.34 0 0 1-.566-4.684 3.34 3.34 0 0 1 4.683-.566c7.517 5.9 11.833 14.65 11.833 24.008 0 16.908-14.308 30.667-31.891 30.667"/><path fill="#0B41CD" d="M133.558 139.383a3.335 3.335 0 0 1-3.116-2.15c-4.084-10.741-15.842-18.85-27.35-18.85a3.33 3.33 0 0 1-3.334-3.333 3.33 3.33 0 0 1 3.334-3.333c14.133 0 28.566 9.95 33.583 23.15a3.33 3.33 0 0 1-3.117 4.516"/><path fill="#1482FA" d="M150 31c-.85 0-1.708-.325-2.358-.975L133.917 16.3a3.34 3.34 0 0 1 0-4.717c1.3-1.3 3.416-1.3 4.716 0l13.725 13.725a3.34 3.34 0 0 1 0 4.717c-.65.65-1.5.975-2.358.975M81.833 74.517a3.332 3.332 0 0 1-2.358-5.692l9.883-9.892a3.33 3.33 0 0 1 4.717 0 3.34 3.34 0 0 1 0 4.717l-9.883 9.892c-.65.65-1.509.975-2.359.975m10.092 10.1a3.332 3.332 0 0 1-2.358-5.692l9.883-9.892a3.34 3.34 0 0 1 4.717 0 3.34 3.34 0 0 1 0 4.717l-9.884 9.892c-.65.65-1.508.975-2.358.975"/><path fill="#1482FA" d="M90.933 85.608c-.85 0-1.708-.325-2.358-.975l-10.1-10.091a3.34 3.34 0 0 1 0-4.717 3.34 3.34 0 0 1 4.717 0l10.1 10.092a3.34 3.34 0 0 1 0 4.716c-.65.65-1.5.975-2.359.975"/><path fill="#0B41CD" d="M107.117 79.517c-.884 0-1.734-.35-2.359-.975L84.567 58.35a3.34 3.34 0 0 1 0-4.717L120.5 17.7a3.34 3.34 0 0 1 4.717 0l20.191 20.192a3.34 3.34 0 0 1 0 4.716l-35.933 35.934a3.34 3.34 0 0 1-2.358.975M91.642 55.992l15.475 15.475 31.216-31.217-15.475-15.475z"/></g><defs><clipPath id="clip0_24298_1978"><path fill="#fff" d="M0 0h160v160H0z"/></clipPath></defs></symbol><symbol xmlns="http://www.w3.org/2000/svg" id="search" fill="none" viewBox="0 0 160 160"><g clip-path="url(#clip0_24298_1966)"><mask id="mask0_24298_1966" width="160" height="160" x="0" y="0" maskUnits="userSpaceOnUse" style="mask-type:luminance"><path fill="#fff" d="M160 0H0v160h160z"/></mask><g mask="url(#mask0_24298_1966)"><path fill="#0B41CD" d="M73.333 123.333C43.925 123.333 20 99.408 20 70s23.925-53.333 53.333-53.333c29.409 0 53.334 23.925 53.334 53.333s-23.925 53.333-53.334 53.333m0-100C47.6 23.333 26.667 44.267 26.667 70s20.933 46.667 46.666 46.667C99.067 116.667 120 95.733 120 70S99.067 23.333 73.333 23.333"/><path fill="#0B41CD" d="M136.317 143.333a3.32 3.32 0 0 1-2.517-1.15l-28.967-33.325a3.335 3.335 0 0 1 .325-4.7 3.33 3.33 0 0 1 4.7.334l28.967 33.325a3.335 3.335 0 0 1-.325 4.7 3.3 3.3 0 0 1-2.183.816"/><path fill="#1482FA" d="M72.983 93.017c-21.175 0-37.766-21.009-38.466-21.9a3.34 3.34 0 0 1-.017-4.067c.692-.917 17.283-22.367 38.483-22.367s37.792 21.45 38.484 22.367a3.34 3.34 0 0 1-.017 4.067c-.692.891-17.283 21.9-38.467 21.9M41.517 69.042C46 74 58.608 86.35 72.983 86.35s26.992-12.342 31.467-17.3c-4.467-5.05-17.083-17.7-31.467-17.7-14.383 0-27 12.642-31.466 17.692"/><path fill="#1482FA" d="M72.983 83.842c-8.266 0-15-6.725-15-15s6.734-15 15-15 15 6.725 15 15-6.733 15-15 15m0-23.334c-4.591 0-8.333 3.742-8.333 8.334s3.742 8.333 8.333 8.333 8.334-3.742 8.334-8.333-3.742-8.334-8.334-8.334"/></g></g><defs><clipPath id="clip0_24298_1966"><path fill="#fff" d="M0 0h160v160H0z"/></clipPath></defs></symbol><symbol xmlns="http://www.w3.org/2000/svg" id="speech_bubble" fill="none" viewBox="0 0 160 160"><g clip-path="url(#clip0_24298_1973)"><mask id="mask0_24298_1973" width="160" height="160" x="0" y="0" maskUnits="userSpaceOnUse" style="mask-type:luminance"><path fill="#fff" d="M160 0H0v160h160z"/></mask><g mask="url(#mask0_24298_1973)"><path fill="#1482FA" d="M47.292 139.167c-.167 0-.342-.017-.509-.042a3.33 3.33 0 0 1-2.55-1.975l-9.791-22.733a3.34 3.34 0 0 1 1.741-4.384 3.34 3.34 0 0 1 4.384 1.742l7.691 17.85 16.734-19.317a3.33 3.33 0 0 1 4.7-.333 3.33 3.33 0 0 1 .333 4.7l-20.208 23.333a3.34 3.34 0 0 1-2.517 1.15z"/><path fill="#0B41CD" d="M130.7 115.833H29.308c-7.433 0-13.475-6.066-13.475-13.525v-67.95c0-7.458 6.042-13.525 13.475-13.525H130.7c7.433 0 13.475 6.067 13.475 13.525v67.95c0 7.459-6.042 13.525-13.475 13.525M29.308 27.5c-3.75 0-6.808 3.075-6.808 6.858v67.95c0 3.784 3.058 6.859 6.808 6.859H130.7c3.75 0 6.808-3.075 6.808-6.859v-67.95c0-3.783-3.058-6.858-6.808-6.858z"/><path fill="#1482FA" d="M65.417 71.667a3.745 3.745 0 0 0 3.75-3.75 3.745 3.745 0 0 0-3.75-3.75 3.745 3.745 0 0 0-3.75 3.75 3.745 3.745 0 0 0 3.75 3.75m15 0a3.745 3.745 0 0 0 3.75-3.75 3.745 3.745 0 0 0-3.75-3.75 3.745 3.745 0 0 0-3.75 3.75 3.745 3.745 0 0 0 3.75 3.75m14.166 0a3.745 3.745 0 0 0 3.75-3.75 3.745 3.745 0 0 0-3.75-3.75 3.745 3.745 0 0 0-3.75 3.75 3.745 3.745 0 0 0 3.75 3.75"/></g></g><defs><clipPath id="clip0_24298_1973"><path fill="#fff" d="M0 0h160v160H0z"/></clipPath></defs></symbol><symbol xmlns="http://www.w3.org/2000/svg" id="unknown" fill="none" viewBox="0 0 160 160"><g clip-path="url(#clip0_24298_1967)"><path fill="#1482FA" d="M140 119.167a3.33 3.33 0 0 1-3.333-3.334V59.167A6.676 6.676 0 0 0 130 52.5h-5.833a3.333 3.333 0 1 1 0-6.667H130c7.35 0 13.333 5.984 13.333 13.334v56.666a3.33 3.33 0 0 1-3.333 3.334m-116.667 0A3.333 3.333 0 0 1 20 115.833V59.167c0-7.35 5.983-13.334 13.333-13.334h5.834a3.332 3.332 0 1 1 0 6.667h-5.834a6.675 6.675 0 0 0-6.666 6.667v56.666a3.333 3.333 0 0 1-3.334 3.334"/><path fill="#0B41CD" d="M130 143.333H33.333C25.983 143.333 20 137.35 20 130V73.333C20 65.983 25.983 60 33.333 60H130c7.35 0 13.333 5.983 13.333 13.333V130c0 7.35-5.983 13.333-13.333 13.333M33.333 66.667a6.675 6.675 0 0 0-6.666 6.666V130a6.676 6.676 0 0 0 6.666 6.667H130a6.676 6.676 0 0 0 6.667-6.667V73.333A6.676 6.676 0 0 0 130 66.667z"/><path fill="#1482FA" d="M54.167 46.667H40.833a3.332 3.332 0 1 1 0-6.667h13.334a6.675 6.675 0 0 0 6.666-6.667V20a3.33 3.33 0 0 1 3.334-3.333A3.33 3.33 0 0 1 67.5 20v13.333c0 7.35-5.983 13.334-13.333 13.334"/><path fill="#0B41CD" d="M123.333 66.667A3.333 3.333 0 0 1 120 63.333v-35a6.676 6.676 0 0 0-6.667-6.666H64.5c-.9 0-1.775.375-2.4 1.025L44.267 41.217c-.6.625-.934 1.45-.934 2.316v19.809a3.332 3.332 0 1 1-6.666 0V43.533c0-2.6.991-5.066 2.8-6.941L57.3 18.067A10.07 10.07 0 0 1 64.5 15h48.833c7.35 0 13.334 5.983 13.334 13.333v35a3.333 3.333 0 0 1-3.334 3.334"/><path fill="#1482FA" d="M82.475 114.133a3.33 3.33 0 0 1-3.333-3.333v-3.942c.091-3.116 1.975-5.983 4.808-7.316 1.708-.759 4.717-3.5 4.717-5.817V93.3A6.15 6.15 0 0 0 86.75 89a6.3 6.3 0 0 0-4.475-1.733 6.18 6.18 0 0 0-4.367 1.916 6.27 6.27 0 0 0-1.733 4.475 3.333 3.333 0 0 1-3.267 3.4c-1.825.059-3.366-1.425-3.4-3.266a12.9 12.9 0 0 1 3.575-9.217c2.384-2.5 5.6-3.908 9.059-3.983a12.93 12.93 0 0 1 9.216 3.575c2.5 2.383 3.909 5.6 3.984 9.058v.5c0 6.1-5.809 10.642-8.625 11.883-.5.234-.875.792-.9 1.4v3.792a3.33 3.33 0 0 1-3.334 3.333zM82.5 125a3.333 3.333 0 1 0 0-6.666 3.333 3.333 0 0 0 0 6.666"/></g><defs><clipPath id="clip0_24298_1967"><path fill="#fff" d="M0 0h160v160H0z"/></clipPath></defs></symbol><symbol xmlns="http://www.w3.org/2000/svg" id="upload" fill="none" viewBox="0 0 160 160"><g clip-path="url(#clip0_24298_1971)"><mask id="mask0_24298_1971" width="160" height="160" x="0" y="0" maskUnits="userSpaceOnUse" style="mask-type:luminance"><path fill="#fff" d="M160 0H0v160h160z"/></mask><g mask="url(#mask0_24298_1971)"><path fill="#0B41CD" d="M121.667 105c-1.592 0-3-1.15-3.284-2.775a3.34 3.34 0 0 1 2.725-3.85A30.71 30.71 0 0 0 146.667 68.3c0-17.017-13.692-30.875-30.517-30.875-2 0-4 .2-5.95.583a3.33 3.33 0 0 1-3.892-2.5c-1.775-7.483-6.358-13.833-12.9-17.866-6.55-4.042-14.275-5.284-21.766-3.509-13.034 3.092-22.142 14.6-22.15 27.992 0 .85 0 1.658.091 2.375 0 .05.017.1.017.158.267 3.084-2.025 5.817-5.108 6.084-.6.041-1.15 0-1.684-.109a24.3 24.3 0 0 0-7.758-.45C23.483 51.35 13.333 62.558 13.333 74.167c0 14 10.167 24.166 24.167 24.166a3.333 3.333 0 1 1 0 6.667C19.925 105 6.667 91.742 6.667 74.167c0-15.084 12.691-29.1 27.708-30.617a30.6 30.6 0 0 1 8.467.3c-.025-.583-.025-1.158-.025-1.717.008-16.491 11.225-30.666 27.283-34.475C79.317 5.467 88.842 7 96.908 11.975 104.092 16.4 109.35 23.083 111.958 31a37 37 0 0 1 4.2-.242c20.5 0 37.184 16.85 37.184 37.567-.142 18.167-13.217 33.558-31.109 36.617a3.4 3.4 0 0 1-.566.05z"/><path fill="#1482FA" d="M80 153.333A3.33 3.33 0 0 1 76.667 150V92.317l-28.034 24.366a3.334 3.334 0 0 1-4.7-.325 3.335 3.335 0 0 1 .325-4.7l33.55-29.166a3.33 3.33 0 0 1 4.375 0l33.55 29.166a3.327 3.327 0 0 1 .325 4.7 3.327 3.327 0 0 1-4.7.325L83.325 92.317V150a3.33 3.33 0 0 1-3.333 3.333z"/></g></g><defs><clipPath id="clip0_24298_1971"><path fill="#fff" d="M0 0h160v160H0z"/></clipPath></defs></symbol><symbol xmlns="http://www.w3.org/2000/svg" id="work_in_progress" fill="none" viewBox="0 0 160 160"><g clip-path="url(#clip0_24298_2013)"><mask id="mask0_24298_2013" width="160" height="160" x="0" y="0" maskUnits="userSpaceOnUse" style="mask-type:luminance"><path fill="#fff" d="M160 0H0v160h160z"/></mask><g mask="url(#mask0_24298_2013)"><path fill="#0B41CD" d="M32.242 138.7c-4.284 0-8.55-1.75-11.625-5.183a15.52 15.52 0 0 1-3.959-11.259 15.47 15.47 0 0 1 5.159-10.758l.258-.225s.042-.042.067-.058L67.25 72.05a3.327 3.327 0 0 1 4.7.333 3.33 3.33 0 0 1-.333 4.7l-45.325 39.359c-1.8 1.616-2.85 3.8-2.975 6.183a8.9 8.9 0 0 0 2.266 6.45c3.284 3.667 8.934 3.967 12.6.683l45.225-39.316a3.335 3.335 0 0 1 4.7.325 3.335 3.335 0 0 1-.325 4.7L42.6 134.75a15.48 15.48 0 0 1-10.35 3.95z"/><path fill="#1482FA" d="M117.825 77.658a3.3 3.3 0 0 1-1.125-.2l-20.833-7.5a3.32 3.32 0 0 1-2.142-2.508l-4.167-21.667a3.34 3.34 0 0 1 1.017-3.083l20.833-19.167a3.326 3.326 0 0 1 4.709.2 3.325 3.325 0 0 1-.2 4.709L96.45 46.35l3.458 17.975 17.234 6.208 20.2-17.091a3.33 3.33 0 0 1 4.7.391 3.33 3.33 0 0 1-.392 4.7l-21.667 18.334a3.33 3.33 0 0 1-2.15.791z"/><path fill="#0B41CD" d="M103.058 100.908c-10.866 0-21.6-4.583-29.408-13.566C66.7 79.35 63.242 69.35 63.9 59.2c.667-10.192 5.425-19.617 13.408-26.558 11.275-9.809 25.225-13.484 37.317-9.842a3.336 3.336 0 0 1 2.233 4.15 3.336 3.336 0 0 1-4.15 2.233c-9.883-2.975-21.475.2-31.016 8.492-6.625 5.767-10.584 13.558-11.134 21.958-.55 8.392 2.334 16.675 8.125 23.334 11.95 13.741 32.192 15.066 46.075 3 8.834-7.7 13.109-18.725 11.45-29.475a3.33 3.33 0 0 1 2.784-3.8 3.33 3.33 0 0 1 3.8 2.783C144.808 68.5 139.7 81.775 129.133 91c-7.65 6.642-16.908 9.908-26.066 9.908z"/></g></g><defs><clipPath id="clip0_24298_2013"><path fill="#fff" d="M0 0h160v160H0z"/></clipPath></defs></symbol></svg>