<svg xmlns="http://www.w3.org/2000/svg" id="add_documents" width="160" height="162" fill="none" viewBox="0 0 160 162"><g clip-path="url(#clip0_24298_1972)"><mask id="mask0_24298_1972" width="160" height="162" x="0" y="0" maskUnits="userSpaceOnUse" style="mask-type:luminance"><path fill="#fff" d="M160 0H0v161.667h160z"/></mask><g mask="url(#mask0_24298_1972)"><path fill="#0B41CD" d="M20 75a3.33 3.33 0 0 1-3.333-3.333v-45c0-5.517 4.483-10 10-10h22.741a9.97 9.97 0 0 1 7.517 3.441L75.25 41.142a3.327 3.327 0 0 1-.325 4.7 3.327 3.327 0 0 1-4.7-.325L51.892 24.475a3.36 3.36 0 0 0-2.5-1.15H26.667a3.33 3.33 0 0 0-3.334 3.333v45A3.33 3.33 0 0 1 20 74.992z"/><path fill="#0B41CD" d="M85.833 143.333H30c-7.35 0-13.333-5.983-13.333-13.333V54.167c0-7.35 5.983-13.334 13.333-13.334h100c7.35 0 13.333 5.984 13.333 13.334V85A3.33 3.33 0 0 1 140 88.333 3.33 3.33 0 0 1 136.667 85V54.167A6.676 6.676 0 0 0 130 47.5H30a6.676 6.676 0 0 0-6.667 6.667V130A6.676 6.676 0 0 0 30 136.667h55.833A3.33 3.33 0 0 1 89.167 140a3.33 3.33 0 0 1-3.334 3.333"/><path fill="#1482FA" d="M123.333 153.333c-16.541 0-30-13.458-30-30 0-16.541 13.459-30 30-30 16.542 0 30 13.459 30 30 0 16.542-13.458 30-30 30m0-53.333C110.467 100 100 110.467 100 123.333c0 12.867 10.467 23.334 23.333 23.334 12.867 0 23.334-10.467 23.334-23.334S136.2 100 123.333 100"/><path fill="#1482FA" d="M123.333 136.667a3.333 3.333 0 0 1-3.333-3.334v-6.666h-6.667a3.333 3.333 0 1 1 0-6.667H120v-6.667a3.333 3.333 0 1 1 6.667 0V120h6.666a3.333 3.333 0 1 1 0 6.667h-6.666v6.666a3.333 3.333 0 0 1-3.334 3.334"/></g></g><defs><clipPath id="clip0_24298_1972"><path fill="#fff" d="M0 0h160v161.667H0z"/></clipPath></defs></svg>