<svg xmlns="http://www.w3.org/2000/svg" id="authorisation" width="160" height="160" fill="none" viewBox="0 0 160 160"><g clip-path="url(#clip0_24298_1977)"><mask id="mask0_24298_1977" width="160" height="160" x="0" y="0" maskUnits="userSpaceOnUse" style="mask-type:luminance"><path fill="#fff" d="M160 0H0v160h160z"/></mask><g mask="url(#mask0_24298_1977)"><path fill="#1482FA" d="M113.333 72.5A3.333 3.333 0 0 1 110 69.167v-25c0-17.292-13.175-30.834-30-30.834S50 26.875 50 44.167v25a3.332 3.332 0 1 1-6.666 0v-25c0-21.025 16.108-37.5 36.666-37.5s36.667 16.475 36.667 37.5v25a3.333 3.333 0 0 1-3.334 3.333"/><path fill="#0B41CD" d="M78.333 153.333H40c-7.35 0-13.333-5.983-13.333-13.333V79.167c0-7.35 5.983-13.334 13.333-13.334h80c7.35 0 13.333 5.984 13.333 13.334V87.5A3.33 3.33 0 0 1 130 90.833a3.33 3.33 0 0 1-3.333-3.333v-8.333A6.676 6.676 0 0 0 120 72.5H40a6.676 6.676 0 0 0-6.667 6.667V140A6.676 6.676 0 0 0 40 146.667h38.333A3.33 3.33 0 0 1 81.667 150a3.33 3.33 0 0 1-3.334 3.333"/><path fill="#1482FA" d="M80 128.333A3.33 3.33 0 0 1 76.667 125v-13.333a3.333 3.333 0 1 1 6.666 0V125A3.33 3.33 0 0 1 80 128.333"/><path fill="#1482FA" d="M80 115c-7.35 0-13.333-5.983-13.333-13.333S72.65 88.333 80 88.333s13.333 5.984 13.333 13.334S87.35 115 80 115m0-20a6.676 6.676 0 0 0-6.667 6.667A6.675 6.675 0 0 0 80 108.333a6.675 6.675 0 0 0 6.667-6.666A6.676 6.676 0 0 0 80 95"/><path fill="#0B41CD" d="M146.842 153.333H94.833c-1.275 0-2.45-.308-3.483-.925a6.9 6.9 0 0 1-3.208-4.216 6.76 6.76 0 0 1 .717-5.184l25.866-44.4c.033-.075.075-.141.117-.216a7.1 7.1 0 0 1 2.483-2.475c.033-.017.058-.034.092-.05 3.333-1.85 7.458-.734 9.375 2.533l26.033 44.608s.033.05.042.075a7 7 0 0 1 .875 3.367c0 3.783-3.092 6.867-6.9 6.867zm-52.117-6.675s.034.009.109.009h52.008c.133 0 .233-.109.233-.2a.4.4 0 0 0-.042-.142l-25.991-44.542c-.067-.116-.225-.141-.359-.091-.025.025-.05.041-.075.066 0 0-.008.017-.016.025l-25.983 44.6c-.025.05-.034.075-.025.125.008.042.041.109.133.159z"/><path fill="#1482FA" d="M120.833 132.508a3.34 3.34 0 0 1-3.341-3.341v-15a3.34 3.34 0 0 1 3.341-3.342 3.337 3.337 0 0 1 3.342 3.342v15a3.34 3.34 0 0 1-3.342 3.341m-.008 10.409c-1.975 0-3.75-1.775-3.75-3.75 0-2.175 1.775-3.75 3.75-3.75 2.175 0 3.75 1.575 3.75 3.75s-1.775 3.75-3.75 3.75"/></g></g><defs><clipPath id="clip0_24298_1977"><path fill="#fff" d="M0 0h160v160H0z"/></clipPath></defs></svg>