<svg xmlns="http://www.w3.org/2000/svg" id="drag_and_drop" width="160" height="160" fill="none" viewBox="0 0 160 160"><g clip-path="url(#clip0_24298_1979)"><path fill="#1482FA" d="M88.334 108.333a3.3 3.3 0 0 1-2.209-.841L39.3 66.008c-2.825-2.458-7.125-2.458-9.975.025L12.2 81.025a3.32 3.32 0 0 1-4.7-.317 3.32 3.32 0 0 1 .317-4.7l17.133-15c5.358-4.65 13.417-4.65 18.759 0l46.85 41.5a3.336 3.336 0 0 1-2.217 5.834zm-1.942-44.166c-9.192 0-16.667-7.475-16.667-16.667S77.2 30.833 86.392 30.833c9.191 0 16.666 7.475 16.666 16.667s-7.475 16.667-16.666 16.667m0-26.667c-5.517 0-10 4.483-10 10s4.483 10 10 10c5.516 0 10-4.483 10-10s-4.484-10-10-10"/><path fill="#0B41CD" d="M89.167 109.167H20c-7.35 0-13.333-5.984-13.333-13.334V29.167c0-7.35 5.983-13.334 13.333-13.334h87.5c7.35 0 13.333 5.984 13.333 13.334v54.166a3.33 3.33 0 0 1-3.333 3.334 3.33 3.33 0 0 1-3.333-3.334V29.167A6.676 6.676 0 0 0 107.5 22.5H20a6.676 6.676 0 0 0-6.667 6.667v66.666A6.676 6.676 0 0 0 20 102.5h69.167a3.333 3.333 0 1 1 0 6.667"/><path fill="#1482FA" d="M140 144.167H52.5c-7.35 0-13.333-5.984-13.333-13.334v-11.666a3.333 3.333 0 1 1 6.666 0v11.666A6.676 6.676 0 0 0 52.5 137.5H140a6.676 6.676 0 0 0 6.667-6.667V64.167A6.676 6.676 0 0 0 140 57.5h-9.167a3.333 3.333 0 1 1 0-6.667H140c7.35 0 13.333 5.984 13.333 13.334v66.666c0 7.35-5.983 13.334-13.333 13.334"/><path fill="#0B41CD" d="M125.533 121.617c-.85 0-1.708-.325-2.358-.975L94.892 92.358a3.34 3.34 0 0 1 0-4.716 3.34 3.34 0 0 1 4.716 0l28.284 28.283a3.34 3.34 0 0 1 0 4.717c-.65.65-1.5.975-2.359.975"/><path fill="#0B41CD" d="M127.5 124.167h-24.542a3.333 3.333 0 1 1 0-6.667h21.209V95.708a3.33 3.33 0 0 1 3.333-3.333 3.33 3.33 0 0 1 3.333 3.333v25.125a3.33 3.33 0 0 1-3.333 3.334"/></g><defs><clipPath id="clip0_24298_1979"><path fill="#fff" d="M0 0h160v160H0z"/></clipPath></defs></svg>