<svg xmlns="http://www.w3.org/2000/svg" id="empty_box" width="160" height="160" fill="none" viewBox="0 0 160 160"><g clip-path="url(#clip0_24298_1969)"><path fill="#0B41CD" d="M80.008 144.342a3.32 3.32 0 0 1-1.991-.659c-.059-.033-.109-.058-.167-.091l-47.483-26.834a4.44 4.44 0 0 1-2.267-3.891V86.058a3.332 3.332 0 1 1 6.667 0v25.534l41.908 23.683V87.017a3.332 3.332 0 1 1 6.667 0v48.308l41.991-23.733v-25.55a3.333 3.333 0 1 1 6.667 0v26.833c0 1.608-.875 3.1-2.275 3.892L82.233 143.6c-.141.075-.275.15-.425.208a3.3 3.3 0 0 1-1.8.525zm46.442-33.384h-.017zm-92.817-.016h.017z"/><path fill="#1482FA" d="M31.425 62.892a3.3 3.3 0 0 1-1.642-.434l-21.708-12.3c-2.125-1.183-2.9-3.9-1.708-6.05.4-.725 1-1.325 1.733-1.733l46.242-26.117a4.46 4.46 0 0 1 4.425.017l21.241 11.95 21.275-11.975c1.342-.775 3.042-.775 4.417.017L151.933 42.4a4.42 4.42 0 0 1 2.1 2.658 4.43 4.43 0 0 1-.391 3.392c-.4.725-1 1.325-1.734 1.733l-21.641 12.259a3.34 3.34 0 0 1-3.284 0L80.008 35.867 33.075 62.433a3.3 3.3 0 0 1-1.642.434zm55.358-30.825 41.834 23.658 16.641-9.425-41.791-23.625-16.684 9.383zM14.75 46.275l16.675 9.45 41.792-23.658-16.684-9.392zm133.892 1.933s.016.009.025.017zm-137.259-.033-.025.017s.017-.009.025-.017m137.259-3.8-.034.017zm-137.3-.033.033.016zm44.116-22.275s.034.016.042.025zm46.925 0s.025.016.034.016zm2.192-.017-.05.025zm-46.933 0-.034.017s.025-.017.034-.017"/><path fill="#1482FA" d="M56.517 103.408a4.43 4.43 0 0 1-2.159-.558L8.075 76.683A4.47 4.47 0 0 1 5.967 74a4.45 4.45 0 0 1 .408-3.4c.4-.708.983-1.3 1.7-1.7l21.717-12.25a3.33 3.33 0 0 1 3.275 0l46.925 26.525L126.933 56.6a3.34 3.34 0 0 1 3.284 0l21.666 12.275a4.4 4.4 0 0 1 2.1 2.683 4.45 4.45 0 0 1-.408 3.4 4.44 4.44 0 0 1-1.7 1.7l-46.25 26.15c-1.392.767-3.008.767-4.367.017L79.992 90.833l-21.284 12c-.7.384-1.45.575-2.208.575zM14.75 72.8l41.783 23.625 16.692-9.417-41.792-23.616zm72.033 14.208 16.659 9.392 41.791-23.625-16.641-9.433z"/></g><defs><clipPath id="clip0_24298_1969"><path fill="#fff" d="M0 0h160v160H0z"/></clipPath></defs></svg>