<svg xmlns="http://www.w3.org/2000/svg" id="error" width="160" height="160" fill="none" viewBox="0 0 160 160"><g clip-path="url(#clip0_24298_1974)"><path fill="#0B41CD" d="M94.1 49.308a3.33 3.33 0 0 1-3.333-3.333 3.33 3.33 0 0 1 3.325-3.333h.008a3.332 3.332 0 1 1 0 6.666m43.933 94.859H22.8c-5.575 0-10.1-4.659-10.1-10.384S17.233 123.4 22.8 123.4h115.233c5.575 0 10.1 4.658 10.1 10.383s-4.533 10.384-10.1 10.384M22.8 130.075c-1.892 0-3.433 1.667-3.433 3.717s1.541 3.716 3.433 3.716h115.233c1.892 0 3.434-1.666 3.434-3.716s-1.542-3.717-3.434-3.717z"/><path fill="#1482FA" d="M115.942 102.942h-71.5a3.333 3.333 0 1 1 0-6.667h71.5a3.333 3.333 0 1 1 0 6.667m-10.925-26.825h-49.65a3.332 3.332 0 1 1 0-6.667h49.65a3.333 3.333 0 1 1 0 6.667M94.1 49.308H66.283a3.33 3.33 0 0 1-3.333-3.333 3.33 3.33 0 0 1 3.333-3.333H94.1a3.332 3.332 0 1 1 0 6.666"/><path fill="#0B41CD" d="M126.867 130.042a3.34 3.34 0 0 1-3.092-2.092l-10.917-27.108-31.633-77.617c-.258-.625-.758-.725-1.042-.725-.341 0-.791.125-1.033.717l-31.617 77.65-10.916 27.091a3.333 3.333 0 0 1-4.342 1.842 3.333 3.333 0 0 1-1.842-4.342L41.35 98.35l31.633-77.642a7.76 7.76 0 0 1 7.209-4.875c3.175 0 6.008 1.917 7.216 4.875l31.625 77.634 10.925 27.116a3.34 3.34 0 0 1-1.841 4.342 3.3 3.3 0 0 1-1.242.242z"/></g><defs><clipPath id="clip0_24298_1974"><path fill="#fff" d="M0 0h160v160H0z"/></clipPath></defs></svg>