<svg xmlns="http://www.w3.org/2000/svg" id="file" width="160" height="160" fill="none" viewBox="0 0 160 160"><g clip-path="url(#clip0_24298_1970)"><mask id="mask0_24298_1970" width="160" height="160" x="0" y="0" maskUnits="userSpaceOnUse" style="mask-type:luminance"><path fill="#fff" d="M160 0H0v160h160z"/></mask><g mask="url(#mask0_24298_1970)"><path fill="#1482FA" d="M127.5 44.167h-16.667c-7.35 0-13.333-5.984-13.333-13.334V11.667a3.333 3.333 0 1 1 6.667 0v19.166a6.675 6.675 0 0 0 6.666 6.667H127.5a3.33 3.33 0 0 1 3.333 3.333 3.33 3.33 0 0 1-3.333 3.334"/><path fill="#0B41CD" d="M120 153.333H40c-7.35 0-13.333-5.983-13.333-13.333V20c0-7.35 5.983-13.333 13.333-13.333h60.3a9.98 9.98 0 0 1 7.517 3.441l23.033 26.559a10 10 0 0 1 2.483 6.541V140c0 7.35-5.983 13.333-13.333 13.333m-19.717-140H40A6.676 6.676 0 0 0 33.333 20v120A6.676 6.676 0 0 0 40 146.667h80a6.676 6.676 0 0 0 6.667-6.667V43.233c0-.8-.3-1.575-.834-2.175l-23.05-26.583a3.3 3.3 0 0 0-2.5-1.142"/><path fill="#1482FA" d="M81.667 96.667a3.33 3.33 0 0 1-3.334-3.334v-25a3.332 3.332 0 1 1 6.667 0v25a3.33 3.33 0 0 1-3.333 3.334"/><path fill="#1482FA" d="M94.167 84.167h-25a3.33 3.33 0 0 1-3.334-3.334 3.33 3.33 0 0 1 3.334-3.333h25a3.33 3.33 0 0 1 3.333 3.333 3.33 3.33 0 0 1-3.333 3.334"/></g></g><defs><clipPath id="clip0_24298_1970"><path fill="#fff" d="M0 0h160v160H0z"/></clipPath></defs></svg>