<svg xmlns="http://www.w3.org/2000/svg" id="folder" width="160" height="160" fill="none" viewBox="0 0 160 160"><g clip-path="url(#clip0_24298_1968)"><mask id="mask0_24298_1968" width="160" height="160" x="0" y="0" maskUnits="userSpaceOnUse" style="mask-type:luminance"><path fill="#fff" d="M160 0H0v160h160z"/></mask><g mask="url(#mask0_24298_1968)"><path fill="#1482FA" d="M20 130.833a3.33 3.33 0 0 1-3.333-3.333V26.667c0-5.517 4.483-10 10-10h22.75c2.825 0 5.558 1.258 7.5 3.458l15.35 17.6A6.77 6.77 0 0 0 77.333 40h36c7.35 0 13.334 5.983 13.334 13.333v3.334a3.333 3.333 0 1 1-6.667 0v-3.334a6.676 6.676 0 0 0-6.667-6.666h-36c-3.85 0-7.525-1.659-10.083-4.542l-15.35-17.6c-.65-.742-1.592-1.192-2.492-1.192h-22.75a3.33 3.33 0 0 0-3.333 3.334V127.5a3.33 3.33 0 0 1-3.333 3.333z"/><path fill="#0B41CD" d="M121.333 143.333h-91.5a13.36 13.36 0 0 1-10.058-4.558 13.4 13.4 0 0 1-3.158-10.642l8.833-63.341c1-6.55 6.675-11.459 13.217-11.459h91.5c3.858 0 7.525 1.667 10.058 4.559a13.4 13.4 0 0 1 3.158 10.641l-8.833 63.342c-1 6.55-6.683 11.458-13.217 11.458M38.667 60c-3.275 0-6.125 2.475-6.625 5.75l-8.825 63.292c-.267 1.966.291 3.866 1.583 5.341 1.283 1.467 3.067 2.275 5.033 2.275h91.5c3.275 0 6.125-2.475 6.625-5.75l8.825-63.291c.267-1.967-.291-3.867-1.583-5.342-1.283-1.467-3.067-2.275-5.033-2.275z"/></g></g><defs><clipPath id="clip0_24298_1968"><path fill="#fff" d="M0 0h160v160H0z"/></clipPath></defs></svg>