<svg xmlns="http://www.w3.org/2000/svg" id="forbidden" width="160" height="160" fill="none" viewBox="0 0 160 160"><g clip-path="url(#clip0_24298_1975)"><mask id="mask0_24298_1975" width="160" height="160" x="0" y="0" maskUnits="userSpaceOnUse" style="mask-type:luminance"><path fill="#fff" d="M160 0H0v160h160z"/></mask><g mask="url(#mask0_24298_1975)"><path fill="#1482FA" d="M80 125a3.333 3.333 0 0 1-3.333-3.333c0-13.325-10.842-24.167-24.167-24.167a3.332 3.332 0 1 1 0-6.667c17 0 30.833 13.834 30.833 30.834A3.333 3.333 0 0 1 80 125"/><path fill="#0B41CD" d="M110 153.333a3.32 3.32 0 0 1-2.467-1.091 3.335 3.335 0 0 1 .217-4.709c6.725-6.125 14.742-16.45 14.742-30.866v-57.5a5.84 5.84 0 0 0-5.834-5.834 5.84 5.84 0 0 0-5.833 5.834v20a3.333 3.333 0 1 1-6.667 0V35a5.84 5.84 0 0 0-5.833-5.833A5.84 5.84 0 0 0 92.492 35v43.333a3.332 3.332 0 1 1-6.667 0V19.167a5.84 5.84 0 0 0-5.833-5.834 5.84 5.84 0 0 0-5.834 5.834v60a3.33 3.33 0 0 1-3.333 3.333 3.33 3.33 0 0 1-3.333-3.333V30a5.84 5.84 0 0 0-5.834-5.833A5.84 5.84 0 0 0 55.825 30v64.167a3.33 3.33 0 0 1-3.333 3.333 3.33 3.33 0 0 1-3.334-3.333V75.833c0-5.516-4.483-10-10-10h-1.666v50a42.9 42.9 0 0 0 13.916 31.709 3.332 3.332 0 1 1-4.5 4.916 49.58 49.58 0 0 1-16.083-36.633V65.833a6.675 6.675 0 0 1 6.667-6.666h1.666a16.55 16.55 0 0 1 10 3.341V30c0-6.892 5.609-12.5 12.5-12.5 2.109 0 4.092.525 5.834 1.45.116-6.792 5.675-12.283 12.5-12.283s12.5 5.608 12.5 12.5v4.783a12.4 12.4 0 0 1 5.833-1.45c6.892 0 12.5 5.608 12.5 12.5v13.117a12.4 12.4 0 0 1 5.833-1.45c6.892 0 12.5 5.608 12.5 12.5v57.5c0 13.15-6.008 25.858-16.925 35.8a3.3 3.3 0 0 1-2.241.866z"/><path fill="#1482FA" d="M113.333 86.667a3.3 3.3 0 0 1-.633-.059 182.3 182.3 0 0 0-32.733-3.275c-4.45 0-9.084.375-13.567.734l-1.142.091a3.34 3.34 0 0 1-3.591-3.058 3.327 3.327 0 0 1 3.058-3.583l1.133-.092c4.609-.367 9.384-.75 14.125-.75 11.375.1 22.792 1.242 33.967 3.392a3.33 3.33 0 0 1 2.642 3.9 3.33 3.33 0 0 1-3.267 2.7z"/></g></g><defs><clipPath id="clip0_24298_1975"><path fill="#fff" d="M0 0h160v160H0z"/></clipPath></defs></svg>