<svg xmlns="http://www.w3.org/2000/svg" id="microscope" width="160" height="160" fill="none" viewBox="0 0 160 160"><mask id="mask0_24298_2012" width="160" height="160" x="0" y="0" maskUnits="userSpaceOnUse" style="mask-type:luminance"><path fill="#fff" d="M160 0H0v160h160z"/></mask><g mask="url(#mask0_24298_2012)"><path fill="#0B41CD" d="M104.167 132.6a3.328 3.328 0 0 1-1.767-6.158c12.583-7.85 20.1-21.4 20.1-36.267 0-11.658-4.842-22.95-13.275-30.992a3.34 3.34 0 0 1-.117-4.716 3.34 3.34 0 0 1 4.717-.117c9.75 9.292 15.342 22.35 15.342 35.825 0 17.175-8.684 32.85-23.234 41.917a3.33 3.33 0 0 1-1.758.508zM86.25 121.35h-57.5a3.333 3.333 0 1 1 0-6.667h57.5a3.333 3.333 0 1 1 0 6.667"/><path fill="#0B41CD" d="M80 121.35a3.333 3.333 0 1 1 0-6.667c13.783 0 25-10.666 25-23.783 0-7.225-3.35-14.008-9.2-18.592a3.34 3.34 0 0 1-.567-4.683 3.34 3.34 0 0 1 4.683-.567c7.467 5.859 11.75 14.55 11.75 23.842 0 16.792-14.208 30.45-31.666 30.45"/><path fill="#0B41CD" d="M110.141 144.267a3.34 3.34 0 0 1-3.116-2.15c-4.175-11-15.325-18.684-27.109-18.684-11.783 0-22.158 6.942-26.708 17.675a3.333 3.333 0 0 1-4.367 1.767 3.334 3.334 0 0 1-1.766-4.367 35.61 35.61 0 0 1 32.841-21.741c14.35 0 28.2 9.45 33.342 22.983a3.334 3.334 0 0 1-3.117 4.517"/><path fill="#1482FA" d="M60.833 109.167h-27.5a3.333 3.333 0 1 1 0-6.667h27.5a3.333 3.333 0 1 1 0 6.667m65.484-74.4c-.85 0-1.709-.325-2.359-.975l-13.616-13.617a3.34 3.34 0 0 1 0-4.717c1.3-1.3 3.416-1.3 4.716 0l13.617 13.617a3.34 3.34 0 0 1 0 4.717c-.65.65-1.5.975-2.358.975M58.683 77.942a3.332 3.332 0 0 1-2.358-5.692l9.808-9.817a3.34 3.34 0 0 1 4.717 0 3.34 3.34 0 0 1 0 4.717l-9.808 9.817c-.65.65-1.509.975-2.359.975M68.7 87.958a3.332 3.332 0 0 1-2.359-5.691l9.809-9.817a3.34 3.34 0 0 1 4.716 0 3.34 3.34 0 0 1 0 4.717l-9.808 9.816c-.65.65-1.508.975-2.358.975"/><path fill="#1482FA" d="M67.708 88.942c-.85 0-1.708-.325-2.358-.975L55.333 77.95a3.34 3.34 0 0 1 0-4.717 3.34 3.34 0 0 1 4.717 0L70.066 83.25a3.34 3.34 0 0 1 0 4.717c-.65.65-1.5.975-2.358.975"/><path fill="#0B41CD" d="M83.767 82.9c-.884 0-1.734-.35-2.359-.975L61.375 61.892a3.34 3.34 0 0 1 0-4.717l35.65-35.65a3.337 3.337 0 0 1 4.717 0l20.033 20.033a3.34 3.34 0 0 1 0 4.717l-35.65 35.65a3.34 3.34 0 0 1-2.358.975M68.45 59.533 83.767 74.85 114.7 43.917 99.383 28.6zm69.883 85.984H21.667a3.333 3.333 0 1 1 0-6.667h116.666a3.333 3.333 0 1 1 0 6.667"/></g></svg>