<svg xmlns="http://www.w3.org/2000/svg" id="no_connection" width="160" height="160" fill="none" viewBox="0 0 160 160"><g clip-path="url(#clip0_24298_1976)"><mask id="mask0_24298_1976" width="160" height="160" x="0" y="0" maskUnits="userSpaceOnUse" style="mask-type:luminance"><path fill="#fff" d="M160 0H0v160h160z"/></mask><g mask="url(#mask0_24298_1976)"><path fill="#1482FA" d="M110.833 76.05h-22.5a3.332 3.332 0 1 1 0-6.667h22.5a3.333 3.333 0 1 1 0 6.667m-4.483-23.5a3.33 3.33 0 0 1-3.333-3.333V18.575a3.99 3.99 0 0 0-3.992-3.983 3.983 3.983 0 0 0-3.983 3.983v30.642a3.332 3.332 0 1 1-6.667 0V18.575c0-5.875 4.775-10.65 10.65-10.65s10.658 4.775 10.658 10.65v30.642a3.33 3.33 0 0 1-3.333 3.333m-38.017 0A3.33 3.33 0 0 1 65 49.217V18.575c0-2.2-1.783-3.983-3.983-3.983a3.997 3.997 0 0 0-3.992 3.991v30.634a3.332 3.332 0 1 1-6.667 0V18.575c.009-5.875 4.792-10.65 10.659-10.65 5.866 0 10.65 4.775 10.65 10.65v30.642a3.33 3.33 0 0 1-3.334 3.333"/><path fill="#0B41CD" d="M88.783 152.075a3.333 3.333 0 0 1-3.333-3.333v-12.884a3.333 3.333 0 1 1 6.667 0v12.884a3.333 3.333 0 0 1-3.334 3.333m-17.566 0a3.333 3.333 0 0 1-3.334-3.333v-11.709a3.333 3.333 0 1 1 6.667 0v11.709a3.333 3.333 0 0 1-3.333 3.333M80 125.683c-20.925 0-35.533-12.183-35.533-29.633V74.025l-7.792-7.708a3.34 3.34 0 0 1-.992-2.367V49.217a3.33 3.33 0 0 1 3.334-3.334h81.966a3.333 3.333 0 0 1 3.334 3.334V63.95c0 .892-.359 1.742-.992 2.367l-7.792 7.708V96.05c0 13.658-9.15 24.475-23.866 28.233a3.333 3.333 0 0 1-4.05-2.408 3.327 3.327 0 0 1 2.408-4.05c11.8-3.008 18.85-11.15 18.85-21.767V72.642c0-.892.358-1.742.992-2.367l7.791-7.708V52.558H42.35v10.009l7.792 7.708c.633.625.991 1.483.991 2.367v23.416c0 13.734 11.6 22.967 28.867 22.967a3.333 3.333 0 1 1 0 6.667z"/><path fill="#0B41CD" d="M80 140.367c-11.917 0-20.9-5.209-20.9-12.117v-8.783a3.333 3.333 0 1 1 6.667 0v8.783c0 1.925 5.4 5.45 14.233 5.45a3.333 3.333 0 1 1 0 6.667m8.783-1.175a3.333 3.333 0 0 1-.925-6.534c4.142-1.2 6.375-3.166 6.375-4.408v-8.783a3.333 3.333 0 1 1 6.667 0v8.783c0 4.742-4.183 8.783-11.192 10.808a3.3 3.3 0 0 1-.925.134"/><path fill="#1482FA" d="M142.292 145.625c-.85 0-1.709-.325-2.359-.975L15.35 20.067a3.34 3.34 0 0 1 0-4.717 3.34 3.34 0 0 1 4.717 0L144.65 139.933a3.34 3.34 0 0 1 0 4.717c-.65.65-1.5.975-2.358.975"/></g></g><defs><clipPath id="clip0_24298_1976"><path fill="#fff" d="M0 0h160v160H0z"/></clipPath></defs></svg>