<svg xmlns="http://www.w3.org/2000/svg" id="not_found" width="160" height="160" fill="none" viewBox="0 0 160 160"><g clip-path="url(#clip0_24298_1978)"><path fill="#0B41CD" d="M17.625 149.167c-1.783 0-3.533-.475-5.075-1.375-4.817-2.817-6.475-9.059-3.7-13.917L33.1 91.092c.3-.534.467-1.159.458-1.784V71.292h-.066a3.332 3.332 0 1 1 0-6.667h22.65a3.332 3.332 0 1 1 0 6.667h-.067v17.983c0 .625.15 1.225.442 1.767l20.491 33.908a3.33 3.33 0 0 1-1.125 4.575 3.34 3.34 0 0 1-4.575-1.125L50.783 94.442l-.05-.092a10.4 10.4 0 0 1-1.325-5.083V71.292h-9.191V89.3c0 1.767-.45 3.525-1.325 5.067l-24.259 42.8c-.975 1.708-.408 3.891 1.267 4.866a3.4 3.4 0 0 0 1.717.467H72.5a3.333 3.333 0 1 1 0 6.667z"/><path fill="#1482FA" d="M109.167 132.5h-60a3.333 3.333 0 1 1 0-6.667h60a3.333 3.333 0 1 1 0 6.667"/><path fill="#1482FA" d="M92.5 149.167H65.833c-7.35 0-13.333-5.984-13.333-13.334v-6.666a3.333 3.333 0 0 1 3.333-3.334H102.5a3.33 3.33 0 0 1 3.333 3.334v6.666c0 7.35-5.983 13.334-13.333 13.334M59.167 132.5v3.333a6.676 6.676 0 0 0 6.666 6.667H92.5a6.676 6.676 0 0 0 6.667-6.667V132.5z"/><path fill="#0B41CD" d="M127.675 129.608c-1.108 0-2.2-.558-2.833-1.566a3.33 3.33 0 0 1 1.066-4.592c12.692-7.917 20.267-21.583 20.267-36.575 0-11.758-4.883-23.15-13.383-31.258a3.34 3.34 0 0 1-.117-4.717 3.34 3.34 0 0 1 4.717-.117c9.825 9.359 15.45 22.517 15.45 36.084 0 17.3-8.75 33.091-23.409 42.225a3.33 3.33 0 0 1-1.758.508zm-18.058-11.341H83.158a3.333 3.333 0 1 1 0-6.667h26.459a3.333 3.333 0 1 1 0 6.667"/><path fill="#0B41CD" d="M103.317 118.267a3.333 3.333 0 1 1 0-6.667c13.908 0 25.225-10.767 25.225-24 0-7.292-3.384-14.133-9.284-18.758a3.34 3.34 0 0 1-.566-4.684 3.34 3.34 0 0 1 4.683-.566c7.517 5.9 11.833 14.65 11.833 24.008 0 16.908-14.308 30.667-31.891 30.667"/><path fill="#0B41CD" d="M133.558 139.383a3.335 3.335 0 0 1-3.116-2.15c-4.084-10.741-15.842-18.85-27.35-18.85a3.33 3.33 0 0 1-3.334-3.333 3.33 3.33 0 0 1 3.334-3.333c14.133 0 28.566 9.95 33.583 23.15a3.33 3.33 0 0 1-3.117 4.516"/><path fill="#1482FA" d="M150 31c-.85 0-1.708-.325-2.358-.975L133.917 16.3a3.34 3.34 0 0 1 0-4.717c1.3-1.3 3.416-1.3 4.716 0l13.725 13.725a3.34 3.34 0 0 1 0 4.717c-.65.65-1.5.975-2.358.975M81.833 74.517a3.332 3.332 0 0 1-2.358-5.692l9.883-9.892a3.33 3.33 0 0 1 4.717 0 3.34 3.34 0 0 1 0 4.717l-9.883 9.892c-.65.65-1.509.975-2.359.975m10.092 10.1a3.332 3.332 0 0 1-2.358-5.692l9.883-9.892a3.34 3.34 0 0 1 4.717 0 3.34 3.34 0 0 1 0 4.717l-9.884 9.892c-.65.65-1.508.975-2.358.975"/><path fill="#1482FA" d="M90.933 85.608c-.85 0-1.708-.325-2.358-.975l-10.1-10.091a3.34 3.34 0 0 1 0-4.717 3.34 3.34 0 0 1 4.717 0l10.1 10.092a3.34 3.34 0 0 1 0 4.716c-.65.65-1.5.975-2.359.975"/><path fill="#0B41CD" d="M107.117 79.517c-.884 0-1.734-.35-2.359-.975L84.567 58.35a3.34 3.34 0 0 1 0-4.717L120.5 17.7a3.34 3.34 0 0 1 4.717 0l20.191 20.192a3.34 3.34 0 0 1 0 4.716l-35.933 35.934a3.34 3.34 0 0 1-2.358.975M91.642 55.992l15.475 15.475 31.216-31.217-15.475-15.475z"/></g><defs><clipPath id="clip0_24298_1978"><path fill="#fff" d="M0 0h160v160H0z"/></clipPath></defs></svg>