<svg xmlns="http://www.w3.org/2000/svg" id="search" width="160" height="160" fill="none" viewBox="0 0 160 160"><g clip-path="url(#clip0_24298_1966)"><mask id="mask0_24298_1966" width="160" height="160" x="0" y="0" maskUnits="userSpaceOnUse" style="mask-type:luminance"><path fill="#fff" d="M160 0H0v160h160z"/></mask><g mask="url(#mask0_24298_1966)"><path fill="#0B41CD" d="M73.333 123.333C43.925 123.333 20 99.408 20 70s23.925-53.333 53.333-53.333c29.409 0 53.334 23.925 53.334 53.333s-23.925 53.333-53.334 53.333m0-100C47.6 23.333 26.667 44.267 26.667 70s20.933 46.667 46.666 46.667C99.067 116.667 120 95.733 120 70S99.067 23.333 73.333 23.333"/><path fill="#0B41CD" d="M136.317 143.333a3.32 3.32 0 0 1-2.517-1.15l-28.967-33.325a3.335 3.335 0 0 1 .325-4.7 3.33 3.33 0 0 1 4.7.334l28.967 33.325a3.335 3.335 0 0 1-.325 4.7 3.3 3.3 0 0 1-2.183.816"/><path fill="#1482FA" d="M72.983 93.017c-21.175 0-37.766-21.009-38.466-21.9a3.34 3.34 0 0 1-.017-4.067c.692-.917 17.283-22.367 38.483-22.367s37.792 21.45 38.484 22.367a3.34 3.34 0 0 1-.017 4.067c-.692.891-17.283 21.9-38.467 21.9M41.517 69.042C46 74 58.608 86.35 72.983 86.35s26.992-12.342 31.467-17.3c-4.467-5.05-17.083-17.7-31.467-17.7-14.383 0-27 12.642-31.466 17.692"/><path fill="#1482FA" d="M72.983 83.842c-8.266 0-15-6.725-15-15s6.734-15 15-15 15 6.725 15 15-6.733 15-15 15m0-23.334c-4.591 0-8.333 3.742-8.333 8.334s3.742 8.333 8.333 8.333 8.334-3.742 8.334-8.333-3.742-8.334-8.334-8.334"/></g></g><defs><clipPath id="clip0_24298_1966"><path fill="#fff" d="M0 0h160v160H0z"/></clipPath></defs></svg>