<svg xmlns="http://www.w3.org/2000/svg" id="speech_bubble" width="160" height="160" fill="none" viewBox="0 0 160 160"><g clip-path="url(#clip0_24298_1973)"><mask id="mask0_24298_1973" width="160" height="160" x="0" y="0" maskUnits="userSpaceOnUse" style="mask-type:luminance"><path fill="#fff" d="M160 0H0v160h160z"/></mask><g mask="url(#mask0_24298_1973)"><path fill="#1482FA" d="M47.292 139.167c-.167 0-.342-.017-.509-.042a3.33 3.33 0 0 1-2.55-1.975l-9.791-22.733a3.34 3.34 0 0 1 1.741-4.384 3.34 3.34 0 0 1 4.384 1.742l7.691 17.85 16.734-19.317a3.33 3.33 0 0 1 4.7-.333 3.33 3.33 0 0 1 .333 4.7l-20.208 23.333a3.34 3.34 0 0 1-2.517 1.15z"/><path fill="#0B41CD" d="M130.7 115.833H29.308c-7.433 0-13.475-6.066-13.475-13.525v-67.95c0-7.458 6.042-13.525 13.475-13.525H130.7c7.433 0 13.475 6.067 13.475 13.525v67.95c0 7.459-6.042 13.525-13.475 13.525M29.308 27.5c-3.75 0-6.808 3.075-6.808 6.858v67.95c0 3.784 3.058 6.859 6.808 6.859H130.7c3.75 0 6.808-3.075 6.808-6.859v-67.95c0-3.783-3.058-6.858-6.808-6.858z"/><path fill="#1482FA" d="M65.417 71.667a3.745 3.745 0 0 0 3.75-3.75 3.745 3.745 0 0 0-3.75-3.75 3.745 3.745 0 0 0-3.75 3.75 3.745 3.745 0 0 0 3.75 3.75m15 0a3.745 3.745 0 0 0 3.75-3.75 3.745 3.745 0 0 0-3.75-3.75 3.745 3.745 0 0 0-3.75 3.75 3.745 3.745 0 0 0 3.75 3.75m14.166 0a3.745 3.745 0 0 0 3.75-3.75 3.745 3.745 0 0 0-3.75-3.75 3.745 3.745 0 0 0-3.75 3.75 3.745 3.745 0 0 0 3.75 3.75"/></g></g><defs><clipPath id="clip0_24298_1973"><path fill="#fff" d="M0 0h160v160H0z"/></clipPath></defs></svg>