<svg xmlns="http://www.w3.org/2000/svg" id="unknown" width="160" height="160" fill="none" viewBox="0 0 160 160"><g clip-path="url(#clip0_24298_1967)"><path fill="#1482FA" d="M140 119.167a3.33 3.33 0 0 1-3.333-3.334V59.167A6.676 6.676 0 0 0 130 52.5h-5.833a3.333 3.333 0 1 1 0-6.667H130c7.35 0 13.333 5.984 13.333 13.334v56.666a3.33 3.33 0 0 1-3.333 3.334m-116.667 0A3.333 3.333 0 0 1 20 115.833V59.167c0-7.35 5.983-13.334 13.333-13.334h5.834a3.332 3.332 0 1 1 0 6.667h-5.834a6.675 6.675 0 0 0-6.666 6.667v56.666a3.333 3.333 0 0 1-3.334 3.334"/><path fill="#0B41CD" d="M130 143.333H33.333C25.983 143.333 20 137.35 20 130V73.333C20 65.983 25.983 60 33.333 60H130c7.35 0 13.333 5.983 13.333 13.333V130c0 7.35-5.983 13.333-13.333 13.333M33.333 66.667a6.675 6.675 0 0 0-6.666 6.666V130a6.676 6.676 0 0 0 6.666 6.667H130a6.676 6.676 0 0 0 6.667-6.667V73.333A6.676 6.676 0 0 0 130 66.667z"/><path fill="#1482FA" d="M54.167 46.667H40.833a3.332 3.332 0 1 1 0-6.667h13.334a6.675 6.675 0 0 0 6.666-6.667V20a3.33 3.33 0 0 1 3.334-3.333A3.33 3.33 0 0 1 67.5 20v13.333c0 7.35-5.983 13.334-13.333 13.334"/><path fill="#0B41CD" d="M123.333 66.667A3.333 3.333 0 0 1 120 63.333v-35a6.676 6.676 0 0 0-6.667-6.666H64.5c-.9 0-1.775.375-2.4 1.025L44.267 41.217c-.6.625-.934 1.45-.934 2.316v19.809a3.332 3.332 0 1 1-6.666 0V43.533c0-2.6.991-5.066 2.8-6.941L57.3 18.067A10.07 10.07 0 0 1 64.5 15h48.833c7.35 0 13.334 5.983 13.334 13.333v35a3.333 3.333 0 0 1-3.334 3.334"/><path fill="#1482FA" d="M82.475 114.133a3.33 3.33 0 0 1-3.333-3.333v-3.942c.091-3.116 1.975-5.983 4.808-7.316 1.708-.759 4.717-3.5 4.717-5.817V93.3A6.15 6.15 0 0 0 86.75 89a6.3 6.3 0 0 0-4.475-1.733 6.18 6.18 0 0 0-4.367 1.916 6.27 6.27 0 0 0-1.733 4.475 3.333 3.333 0 0 1-3.267 3.4c-1.825.059-3.366-1.425-3.4-3.266a12.9 12.9 0 0 1 3.575-9.217c2.384-2.5 5.6-3.908 9.059-3.983a12.93 12.93 0 0 1 9.216 3.575c2.5 2.383 3.909 5.6 3.984 9.058v.5c0 6.1-5.809 10.642-8.625 11.883-.5.234-.875.792-.9 1.4v3.792a3.33 3.33 0 0 1-3.334 3.333zM82.5 125a3.333 3.333 0 1 0 0-6.666 3.333 3.333 0 0 0 0 6.666"/></g><defs><clipPath id="clip0_24298_1967"><path fill="#fff" d="M0 0h160v160H0z"/></clipPath></defs></svg>