<svg xmlns="http://www.w3.org/2000/svg" id="upload" width="160" height="160" fill="none" viewBox="0 0 160 160"><g clip-path="url(#clip0_24298_1971)"><mask id="mask0_24298_1971" width="160" height="160" x="0" y="0" maskUnits="userSpaceOnUse" style="mask-type:luminance"><path fill="#fff" d="M160 0H0v160h160z"/></mask><g mask="url(#mask0_24298_1971)"><path fill="#0B41CD" d="M121.667 105c-1.592 0-3-1.15-3.284-2.775a3.34 3.34 0 0 1 2.725-3.85A30.71 30.71 0 0 0 146.667 68.3c0-17.017-13.692-30.875-30.517-30.875-2 0-4 .2-5.95.583a3.33 3.33 0 0 1-3.892-2.5c-1.775-7.483-6.358-13.833-12.9-17.866-6.55-4.042-14.275-5.284-21.766-3.509-13.034 3.092-22.142 14.6-22.15 27.992 0 .85 0 1.658.091 2.375 0 .05.017.1.017.158.267 3.084-2.025 5.817-5.108 6.084-.6.041-1.15 0-1.684-.109a24.3 24.3 0 0 0-7.758-.45C23.483 51.35 13.333 62.558 13.333 74.167c0 14 10.167 24.166 24.167 24.166a3.333 3.333 0 1 1 0 6.667C19.925 105 6.667 91.742 6.667 74.167c0-15.084 12.691-29.1 27.708-30.617a30.6 30.6 0 0 1 8.467.3c-.025-.583-.025-1.158-.025-1.717.008-16.491 11.225-30.666 27.283-34.475C79.317 5.467 88.842 7 96.908 11.975 104.092 16.4 109.35 23.083 111.958 31a37 37 0 0 1 4.2-.242c20.5 0 37.184 16.85 37.184 37.567-.142 18.167-13.217 33.558-31.109 36.617a3.4 3.4 0 0 1-.566.05z"/><path fill="#1482FA" d="M80 153.333A3.33 3.33 0 0 1 76.667 150V92.317l-28.034 24.366a3.334 3.334 0 0 1-4.7-.325 3.335 3.335 0 0 1 .325-4.7l33.55-29.166a3.33 3.33 0 0 1 4.375 0l33.55 29.166a3.327 3.327 0 0 1 .325 4.7 3.327 3.327 0 0 1-4.7.325L83.325 92.317V150a3.33 3.33 0 0 1-3.333 3.333z"/></g></g><defs><clipPath id="clip0_24298_1971"><path fill="#fff" d="M0 0h160v160H0z"/></clipPath></defs></svg>