<svg xmlns="http://www.w3.org/2000/svg" id="work_in_progress" width="160" height="160" fill="none" viewBox="0 0 160 160"><g clip-path="url(#clip0_24298_2013)"><mask id="mask0_24298_2013" width="160" height="160" x="0" y="0" maskUnits="userSpaceOnUse" style="mask-type:luminance"><path fill="#fff" d="M160 0H0v160h160z"/></mask><g mask="url(#mask0_24298_2013)"><path fill="#0B41CD" d="M32.242 138.7c-4.284 0-8.55-1.75-11.625-5.183a15.52 15.52 0 0 1-3.959-11.259 15.47 15.47 0 0 1 5.159-10.758l.258-.225s.042-.042.067-.058L67.25 72.05a3.327 3.327 0 0 1 4.7.333 3.33 3.33 0 0 1-.333 4.7l-45.325 39.359c-1.8 1.616-2.85 3.8-2.975 6.183a8.9 8.9 0 0 0 2.266 6.45c3.284 3.667 8.934 3.967 12.6.683l45.225-39.316a3.335 3.335 0 0 1 4.7.325 3.335 3.335 0 0 1-.325 4.7L42.6 134.75a15.48 15.48 0 0 1-10.35 3.95z"/><path fill="#1482FA" d="M117.825 77.658a3.3 3.3 0 0 1-1.125-.2l-20.833-7.5a3.32 3.32 0 0 1-2.142-2.508l-4.167-21.667a3.34 3.34 0 0 1 1.017-3.083l20.833-19.167a3.326 3.326 0 0 1 4.709.2 3.325 3.325 0 0 1-.2 4.709L96.45 46.35l3.458 17.975 17.234 6.208 20.2-17.091a3.33 3.33 0 0 1 4.7.391 3.33 3.33 0 0 1-.392 4.7l-21.667 18.334a3.33 3.33 0 0 1-2.15.791z"/><path fill="#0B41CD" d="M103.058 100.908c-10.866 0-21.6-4.583-29.408-13.566C66.7 79.35 63.242 69.35 63.9 59.2c.667-10.192 5.425-19.617 13.408-26.558 11.275-9.809 25.225-13.484 37.317-9.842a3.336 3.336 0 0 1 2.233 4.15 3.336 3.336 0 0 1-4.15 2.233c-9.883-2.975-21.475.2-31.016 8.492-6.625 5.767-10.584 13.558-11.134 21.958-.55 8.392 2.334 16.675 8.125 23.334 11.95 13.741 32.192 15.066 46.075 3 8.834-7.7 13.109-18.725 11.45-29.475a3.33 3.33 0 0 1 2.784-3.8 3.33 3.33 0 0 1 3.8 2.783C144.808 68.5 139.7 81.775 129.133 91c-7.65 6.642-16.908 9.908-26.066 9.908z"/></g></g><defs><clipPath id="clip0_24298_2013"><path fill="#fff" d="M0 0h160v160H0z"/></clipPath></defs></svg>