<svg xmlns="http://www.w3.org/2000/svg" id="administration" width="24" height="24" viewBox="0 0 24 24"><path fill-rule="evenodd" d="m21.289 4.681-.01-.02zm0 0L18.67 7.3l-2.12-2.12 2.62-2.62c-1.46-.62-3.2-.34-4.39.85a3.99 3.99 0 0 0-1.03 3.83L3.59 17.41c-.38.38-.59.88-.59 1.41v.17c0 1.1.9 2 2 2h.17c.53 0 1.04-.21 1.41-.59l10.25-10.25a3.99 3.99 0 0 0 3.6-1.1 3.99 3.99 0 0 0 .859-4.369M9.84 8.36 7.71 6.24V4.82L4 3 3 4l1.89 3.65H6.3l2.12 2.12zm9.89 9.9-4.24-4.24.01-.01 1.41-1.41 4.24 4.24c.78.78.78 2.05 0 2.83l-1.41 1.41c-.78.78-2.05.78-2.83 0l-4.24-4.24 1.41-1.41 1.41-1.41zl-1.41 1.41z" clip-rule="evenodd"/></svg>