<svg xmlns="http://www.w3.org/2000/svg" id="autoqc_pack" width="24" height="24" viewBox="0 0 24 24"><path fill-rule="evenodd" d="M16 2H8v2h8zM4 6h16a2 2 0 0 1 2 2v12a2 2 0 0 1-2 2H4a2 2 0 0 1-2-2V8a2 2 0 0 1 2-2m16 14V8H4v12zM8.39 17.94A.86.86 0 0 1 8 18a1 1 0 0 1-1-1v-4h2v4a.86.86 0 0 1-.06.39.87.87 0 0 1-.55.55M12 18a.86.86 0 0 0 .39-.06.87.87 0 0 0 .55-.55A.86.86 0 0 0 13 17v-4h-2v4a1 1 0 0 0 1 1m4.39-.06A.86.86 0 0 1 16 18a.86.86 0 0 1-.39-.06.87.87 0 0 1-.55-.55A.86.86 0 0 1 15 17v-4h2v4a.86.86 0 0 1-.06.39.87.87 0 0 1-.55.55M9 12v-2H7v2zm4-2h-2v2h2zm2 2v-2h2v2z" clip-rule="evenodd"/></svg>