<svg xmlns="http://www.w3.org/2000/svg" id="book_research" width="24" height="24" viewBox="0 0 24 24"><path fill-rule="evenodd" d="M9.18 3.004H19c1.1 0 2 .9 2 2v11c0 1.1-.9 2-2 2H9.29c-.57 0-1.16-.18-1.51-.62a.99.99 0 0 0-.78-.38c-.55 0-1 .45-1 1 0 1.1.9 2 2 2h9v2H8c-2.21 0-4-1.79-4-4v-13a3.003 3.003 0 0 1 3.16-3c.81.05 1.51.43 2.02 1M6 15.184c.31-.11.65-.18 1-.18s.69.07 1 .18V5.004c0-.55-.45-1-1-1s-1 .45-1 1zm4 .82h9v-11h-9zm4-3c0 .55-.45 1-1 1s-1-.45-1-1v-4h2zm3 0c0 .55-.45 1-1 1s-1-.45-1-1v-4h2zm-5-6h2v1h-2zm3 0h2v1h-2z" clip-rule="evenodd"/></svg>