<svg xmlns="http://www.w3.org/2000/svg" id="brightness_down" width="24" height="24" viewBox="0 0 24 24"><path d="M12 6.994c.26 0 .52-.1.71-.29.18-.19.29-.45.29-.71 0-.13-.02-.26-.08-.38q-.075-.18-.21-.33c-.38-.37-1.04-.37-1.42 0q-.135.15-.21.33c-.05.12-.08.25-.08.38 0 .26.11.52.29.71.19.19.45.29.71.29m0 8a3.001 3.001 0 0 0 2.121-5.121A3 3 0 1 0 12 14.994m-1 3c0-.26.11-.52.29-.71.38-.37 1.05-.37 1.42 0 .18.19.29.45.29.71s-.11.52-.29.71c-.19.18-.45.29-.71.29s-.52-.11-.71-.29c-.18-.19-.29-.45-.29-.71m7.71-6.71c-.37-.37-1.05-.37-1.42 0-.18.19-.29.45-.29.71 0 .13.03.26.08.38q.075.18.21.33c.19.18.45.29.71.29s.52-.11.71-.29q.135-.15.21-.33c.06-.12.08-.25.08-.38 0-.26-.11-.52-.29-.71m-12 0c.18.19.29.45.29.71 0 .13-.02.26-.08.38q-.075.18-.21.33l-.05.042a.8.8 0 0 1-.28.168c-.06.03-.12.06-.18.06-.07.02-.13.02-.2.02-.26 0-.52-.11-.71-.29q-.135-.15-.21-.33a1 1 0 0 1-.08-.38c0-.06.01-.13.02-.19.01-.07.03-.13.06-.19q.03-.09.09-.18l.12-.15c.24-.23.58-.34.91-.27q.09.015.18.06.09.03.18.09zm8.83-2.83c.18.19.44.3.7.3s.52-.11.71-.3c.09-.09.17-.2.22-.32s.07-.25.07-.38c0-.26-.1-.52-.29-.71-.38-.37-1.04-.37-1.41 0-.1.09-.17.2-.22.33-.05.12-.08.25-.08.38a1 1 0 0 0 .3.7m-7.98 6.8c.33-.07.67.04.9.28a1 1 0 0 1 .3.7c0 .13-.03.26-.08.38-.05.13-.12.24-.22.33-.18.19-.44.29-.7.29-.07 0-.13 0-.2-.02q-.068-.013-.144-.037l-.046-.013c-.06-.03-.11-.06-.17-.1a.8.8 0 0 1-.15-.12c-.09-.09-.16-.2-.22-.33a1 1 0 0 1-.07-.38c0-.13.02-.26.07-.38.06-.12.13-.23.22-.32.05-.05.1-.09.15-.13a.7.7 0 0 1 .17-.09l.026-.01a.4.4 0 0 1 .164-.05m9.39.28c-.37-.38-1.04-.38-1.42 0-.09.09-.16.2-.21.32s-.08.25-.08.38.03.26.08.38q.075.195.21.33a1.01 1.01 0 0 0 1.269.121c.165-.11.295-.267.371-.45.05-.12.07-.25.07-.38s-.02-.26-.07-.38-.13-.23-.22-.32m-8.64-8.61c.06.03.15.12.15.12.1.09.17.2.22.33.05.12.08.25.08.38a1 1 0 0 1-.3.7c-.04.05-.09.09-.15.13-.05.04-.11.07-.17.09-.06.03-.12.05-.19.06-.06.02-.13.02-.19.02-.26 0-.52-.11-.71-.3-.09-.09-.17-.2-.22-.32a1 1 0 0 1-.07-.38 1 1 0 0 1 .29-.71c.23-.23.58-.34.9-.27.07.01.13.03.19.06.06.02.12.05.17.09"/></svg>