<svg xmlns="http://www.w3.org/2000/svg" id="call_comment" width="24" height="24" viewBox="0 0 24 24"><path fill-rule="evenodd" d="M13.8 3h6.4c.44 0 .8.36.8.8v4.8c0 .44-.36.8-.8.8h-3.72l-2.28 2v-2h-.4c-.44 0-.8-.36-.8-.8V3.8c0-.44.36-.8.8-.8M15 7.4h4V5h-4zm-.1 6.65H19c1.1 0 2 .9 2 2v3.4c0 .9-.7 1.6-1.6 1.5-5.9-.5-10.9-3.8-13.8-8.6-1.4-2.3-2.3-4.9-2.6-7.7v-.1c0-.8.6-1.5 1.5-1.5h3.6c1.1 0 2 .9 2 2v3.8c0 .8-.4 1.5-1.1 1.8l-1.6.9c1.3 2.1 3.1 3.9 5.2 5.2l1-1.9c.3-.5.8-.8 1.3-.8m-9.45-6.9c.025.075.05.15.05.2q.3 1.2.9 2.4l1.6-.9v-3.8H5.1v.2c.05.3.1.575.15.85s.1.55.15.85c0 .05.025.125.05.2M17.8 18.772c.4.09.8.178 1.2.178v-2.9h-3.8l-.8 1.6q1.2.6 2.4.9c.05 0 .125.025.2.05s.15.05.2.05c.2.033.4.078.6.122" clip-rule="evenodd"/></svg>