<svg xmlns="http://www.w3.org/2000/svg" id="call_add" width="24" height="24" viewBox="0 0 24 24"><path fill-rule="evenodd" d="M14.9 14H19c1.1 0 2 .9 2 2v3.4c0 .9-.7 1.6-1.6 1.5-5.9-.5-10.9-3.8-13.8-8.6C4.2 10 3.3 7.4 3 4.6v-.1C3 3.7 3.6 3 4.5 3h3.6c1.1 0 2 .9 2 2v3.8c0 .8-.4 1.5-1.1 1.8l-1.6.9c1.3 2.1 3.1 3.9 5.2 5.2l1-1.9c.3-.5.8-.8 1.3-.8M5.45 7.1c.025.075.05.15.05.2q.3 1.2.9 2.4L8 8.8V5H5.1v.2c.05.3.1.575.15.85s.1.55.15.85c0 .05.025.125.05.2M17 18.55c.075.025.15.05.2.05.2.033.4.078.6.122.4.09.8.178 1.2.178V16h-3.8l-.8 1.6q1.2.6 2.4.9c.05 0 .125.025.2.05M15 7V5h2V3h2v2h2v2h-2v2h-2V7z" clip-rule="evenodd"/></svg>