<svg xmlns="http://www.w3.org/2000/svg" id="chat_recommendation" width="24" height="24" viewBox="0 0 24 24"><path fill-rule="evenodd" d="M16.55 16.73c1 0 1.82-.82 1.82-1.82V5.82c0-1-.82-1.82-1.82-1.82H3.82C2.82 4 2 4.82 2 5.82v9.09c0 1 .82 1.82 1.82 1.82h.91v3.64l5.45-3.64zM3.83 14.9V5.82h12.73v9.09H9.64l-.45.31-2.63 1.74V14.9zm16.36-5.45v9.09h-10c0 1 .82 1.82 1.82 1.82h8.18c1 0 1.82-.82 1.82-1.82v-7.27c0-1-.82-1.82-1.82-1.82m-8.76 1.19.34 1.96-1.76-.93-1.76.93.34-1.96-1.42-1.38 1.96-.29.88-1.78.88 1.78 1.96.29z" clip-rule="evenodd"/></svg>