<svg xmlns="http://www.w3.org/2000/svg" id="cleaning" width="24" height="24" viewBox="0 0 24 24"><path fill-rule="evenodd" d="M16.6 2.805a21.6 21.6 0 0 0 4.5-.4 24.9 24.9 0 0 1-.02 9.62 31 31 0 0 0-.4 6.4c.032 1.044.166 2.082.4 3.1l-2.7.4q-.946.13-1.9.1a32 32 0 0 1-3.18-.17l1.88-1.88c.44.05.88.05 1.3.05q1.154.035 2.3-.1c0-.24-.023-.463-.047-.693a7 7 0 0 1-.053-.807v-1.92a37 37 0 0 1 .43-4.95l.12-.85a25 25 0 0 0 .18-6.25q-1.443.197-2.9.2c-.86 0-1.65-.04-2.59-.13s-1.87-.21-2.81-.37h-.34a25.4 25.4 0 0 0-4.38-.32q-1.154-.035-2.3.1c0 .15.016.308.033.47.018.172.037.35.037.53a4.46 4.46 0 0 0-1.76 1v-.33a16 16 0 0 0-.4-3.1l2.7-.4a11.5 11.5 0 0 1 1.9-.1 32 32 0 0 1 5 .4 32 32 0 0 0 5 .4m.13 8.3q.305.165.56.4a2.52 2.52 0 0 1 0 3.49l-6.38 6.37a2 2 0 0 1-2.83 0l-4.79-4.79-.08-.07a4.13 4.13 0 0 1-1.09-3.88l.87-3.92a2.49 2.49 0 0 1 4.9.18l2.13-2.13a2.5 2.5 0 0 1 3.54 0c.245.253.435.552.56.88a2.49 2.49 0 0 1 2.61 3.47m-5.85 7.52 5-5a.51.51 0 0 0 .02-.71.5.5 0 0 0-.71 0l-2.32 2.33a1.004 1.004 0 1 1-1.42-1.42l2.32-2.32 1.39-1.37a.5.5 0 0 0-.35-.852.5.5 0 0 0-.35.142l-.9.9-2.84 2.83a.93.93 0 0 1-.56.27.94.94 0 0 1-.72-.18.87.87 0 0 1-.36-1.13 1 1 0 0 1 .23-.37l.24-.24 2.55-2.61a.5.5 0 0 0-.355-.853.5.5 0 0 0-.355.143l-2.52 2.53-.56.56-1 1-.22.23a1 1 0 0 1-.75.31 1 1 0 0 1-.65-.28 1 1 0 0 1-.29-.77l.16-.72.31-1.44v-.23a.5.5 0 0 0-.894-.398.5.5 0 0 0-.076.178l-.15.66-.66 3a1 1 0 0 0 0 .16 2.68 2.68 0 0 0 .75 2.37l2.21 2.28 1 1 .71.7a1 1 0 0 0 1.41 0z" clip-rule="evenodd"/></svg>