<svg xmlns="http://www.w3.org/2000/svg" id="click_link" width="24" height="24" viewBox="0 0 24 24"><g filter="url(#filter0_d_9614_53)"><path d="M16.714 9.378c0 .15.074-.414.308-.786a1.065 1.065 0 0 1 2.018.68v2.412a13 13 0 0 1-.255 1.849 6.4 6.4 0 0 1-.7 1.466 7.7 7.7 0 0 0-1.265 1.934c-.084.348-.12.705-.107 1.062 0 .33.044.659.128.978a6 6 0 0 1-1.307 0c-.414-.064-.935-.893-1.062-1.148a.404.404 0 0 0-.733 0c-.234.404-.744 1.137-1.116 1.18-.701.085-2.178 0-3.326 0 0 0 .192-1.063-.244-1.445s-.882-.83-1.222-1.127l-.882-.977a4.76 4.76 0 0 1-1.317-2.125c-.223-.999-.202-1.488 0-1.88a1.58 1.58 0 0 1 .945-.649c.309-.054.626-.032.925.064.208.087.388.23.52.414.245.33.319.489.234.128A28 28 0 0 0 7.82 9.76c-.18-.584-.36-.914-.499-1.307-.138-.393-.319-.765-.531-1.254q-.29-.75-.478-1.53a1.52 1.52 0 0 1 .265-1.243 1.49 1.49 0 0 1 1.445-.372c.401.174.739.467.967.84a7.7 7.7 0 0 1 .765 1.636c.35.912.6 1.86.744 2.826-.026-.57.02-1.141.138-1.7a1.2 1.2 0 0 1 .733-.733c.316-.101.652-.123.978-.064.325.073.612.262.807.532a6.1 6.1 0 0 1 .415 1.944c.03-.57.13-1.133.297-1.679.178-.25.437-.43.733-.51a3 3 0 0 1 1.063 0c.287.098.539.279.722.52.225.564.361 1.16.404 1.765"/><path stroke="#000" stroke-linejoin="round" stroke-width=".75" d="M16.714 9.378c0 .15.074-.414.308-.786a1.065 1.065 0 0 1 2.018.68v2.412a13 13 0 0 1-.255 1.849 6.4 6.4 0 0 1-.7 1.466 7.7 7.7 0 0 0-1.265 1.934c-.084.348-.12.705-.107 1.062 0 .33.044.659.128.978a6 6 0 0 1-1.307 0c-.414-.064-.935-.893-1.062-1.148a.404.404 0 0 0-.733 0c-.234.404-.744 1.137-1.116 1.18-.701.085-2.178 0-3.326 0 0 0 .192-1.063-.244-1.445s-.882-.83-1.222-1.127l-.882-.977a4.76 4.76 0 0 1-1.317-2.125c-.223-.999-.202-1.488 0-1.88a1.58 1.58 0 0 1 .945-.649c.309-.054.626-.032.925.064.208.087.388.23.52.414.245.33.319.489.234.128A28 28 0 0 0 7.82 9.76c-.18-.584-.36-.914-.499-1.307-.138-.393-.319-.765-.531-1.254q-.29-.75-.478-1.53a1.52 1.52 0 0 1 .265-1.243 1.49 1.49 0 0 1 1.445-.372c.401.174.739.467.967.84a7.7 7.7 0 0 1 .765 1.636c.35.912.6 1.86.744 2.826-.026-.57.02-1.141.138-1.7a1.2 1.2 0 0 1 .733-.733c.316-.101.652-.123.978-.064.325.073.612.262.807.532a6.1 6.1 0 0 1 .415 1.944c.03-.57.13-1.133.297-1.679.178-.25.437-.43.733-.51a3 3 0 0 1 1.063 0c.287.098.539.279.722.52.194.552.305 1.128.33 1.711Z"/><path stroke="#000" stroke-linecap="round" stroke-width=".75" d="M15.683 15.838v-3.676m-2.146 3.687-.011-3.687m-2.104.032.022 3.634"/></g><defs><filter id="filter0_d_9614_53" width="18.374" height="19.793" x="3.097" y="3.625" color-interpolation-filters="sRGB" filterUnits="userSpaceOnUse"><feFlood flood-opacity="0" result="BackgroundImageFix"/><feColorMatrix in="SourceAlpha" result="hardAlpha" values="0 0 0 0 0 0 0 0 0 0 0 0 0 0 0 0 0 0 127 0"/><feOffset dy="2"/><feGaussianBlur stdDeviation="1"/><feColorMatrix values="0 0 0 0 0 0 0 0 0 0 0 0 0 0 0 0 0 0 0.25 0"/><feBlend in2="BackgroundImageFix" result="effect1_dropShadow_9614_53"/><feBlend in="SourceGraphic" in2="effect1_dropShadow_9614_53" result="shape"/></filter></defs></svg>