<svg xmlns="http://www.w3.org/2000/svg" id="clock_programmable_timer" width="24" height="24" viewBox="0 0 24 24"><path fill-rule="evenodd" d="M13 4.05v-2a10 10 0 0 1 5.33 2.19L16.9 5.67A7.94 7.94 0 0 0 13 4.05M7.1 5.69A7.94 7.94 0 0 1 11 4.07v-2a10 10 0 0 0-5.33 2.19zm8.61 8.6L13 11.59V6h-2v6.41l3.29 3.3zM4.07 11a7.94 7.94 0 0 1 1.62-3.9L4.26 5.67A10 10 0 0 0 2.05 11zm0 2a7.94 7.94 0 0 0 1.62 3.9l-1.41 1.43A10 10 0 0 1 2.07 13zm15.86 0a7.94 7.94 0 0 1-1.62 3.9l1.43 1.43A10 10 0 0 0 22 13zm0-2a7.94 7.94 0 0 0-1.62-3.9l1.41-1.43A10 10 0 0 1 21.93 11zm-3.03 7.31a7.94 7.94 0 0 1-3.9 1.62v2a10 10 0 0 0 5.33-2.21zm-9.8 0a7.94 7.94 0 0 0 3.9 1.62V22a10 10 0 0 1-5.33-2.26z" clip-rule="evenodd"/></svg>