<svg xmlns="http://www.w3.org/2000/svg" id="clock_time_remaining" width="24" height="24" viewBox="0 0 24 24"><path fill-rule="evenodd" d="M13 2.05a10 10 0 0 1 5.33 2.21L16.9 5.67A7.94 7.94 0 0 0 13 4.05zm2.71 12.24L13 11.59V6h-2v6.41l3.29 3.3zm2.6 2.61 1.43 1.43A10 10 0 0 0 22 13h-2a7.94 7.94 0 0 1-1.69 3.9m1.62-5.9h2a10 10 0 0 0-2.21-5.33L18.31 7.1a7.94 7.94 0 0 1 1.62 3.9M11 21.94a10 10 0 0 1-5.33-2.2l1.43-1.42a7.94 7.94 0 0 0 3.9 1.62zm2-2.01v2a10 10 0 0 0 5.33-2.2l-1.43-1.42a7.94 7.94 0 0 1-3.9 1.62M11 4.07a8.06 8.06 0 0 0-4.66 2.27 8 8 0 0 0-.65 10.56l-1.43 1.43A10 10 0 0 1 11 2.07z" clip-rule="evenodd"/></svg>