<svg xmlns="http://www.w3.org/2000/svg" id="cloud" width="24" height="24" viewBox="0 0 24 24"><path d="M18.54 19H6.66c-.61 0-1.2-.09-1.77-.28C2.56 17.98 1 15.89 1 13.52c0-2.77 2.14-5.07 4.9-5.43 1.04-2.81 4.24-4.56 7.48-3.97 1.79.33 3.37 1.34 4.32 2.77.63.96.96 2.04.96 3.14 2.41.06 4.34 2.05 4.34 4.48 0 2.48-2 4.49-4.46 4.49M12.09 6C9.96 6 8.06 7.33 7.63 9.25c-.1.46-.51.78-.98.78C4.64 10.04 3 11.6 3 13.52c0 1.5 1 2.83 2.49 3.3q.57.18 1.17.18h11.88C19.9 17 21 15.88 21 14.51s-1.11-2.49-2.46-2.49h-.99c-.3 0-.59-.14-.78-.37s-.26-.55-.2-.84c.22-.96.02-1.96-.54-2.81-.65-.98-1.75-1.68-3.01-1.91Q12.555 6 12.09 6"/></svg>