<svg xmlns="http://www.w3.org/2000/svg" id="cloud_storage" width="24" height="24" viewBox="0 0 24 24"><path fill-rule="evenodd" d="M12.12 2A6.58 6.58 0 0 0 5.9 6.09 5.55 5.55 0 0 0 1 11.52a5.48 5.48 0 0 0 3.89 5.2H5v-2.11a3.45 3.45 0 0 1-2-3.09 3.56 3.56 0 0 1 3.16-3.45l1.2-.15.42-1.14A4.6 4.6 0 0 1 12.12 4a4.6 4.6 0 0 1 .9.08A4.6 4.6 0 0 1 16 6a3.74 3.74 0 0 1 .63 2v2h1.95a2.41 2.41 0 0 1 1.86 1h2.25a4.45 4.45 0 0 0-4.06-3 5.7 5.7 0 0 0-1-3.14 6.62 6.62 0 0 0-4.32-2.77A7 7 0 0 0 12.12 2M21 13H9a2 2 0 0 0-2 2v5a2 2 0 0 0 2 2h12a2 2 0 0 0 2-2v-5a2 2 0 0 0-2-2M9 20v-5h12v5zm7.667-3.747a1.5 1.5 0 1 1 1.667 2.495 1.5 1.5 0 0 1-1.667-2.495" clip-rule="evenodd"/></svg>