<svg xmlns="http://www.w3.org/2000/svg" id="cloud_upload" width="24" height="24" viewBox="0 0 24 24"><path fill-rule="evenodd" d="M18 19h.54C21 19 23 16.99 23 14.51c0-2.43-1.93-4.42-4.34-4.48 0-1.1-.33-2.18-.96-3.14-.95-1.43-2.53-2.44-4.32-2.77-3.25-.59-6.44 1.16-7.48 3.97-2.76.36-4.9 2.66-4.9 5.43 0 2.37 1.56 4.46 3.88 5.2q.54.18 1.11.24v-2.02a4 4 0 0 1-.5-.12C4 16.35 3 15.02 3 13.52c0-1.92 1.64-3.48 3.65-3.48.47 0 .88-.32.98-.78.49-2.2 2.91-3.62 5.39-3.17 1.26.23 2.36.93 3.01 1.91.56.85.76 1.85.54 2.81-.06.29.01.61.2.84s.48.37.78.37h.99c1.35 0 2.46 1.12 2.46 2.49S19.9 17 18.54 17H18zm-5.98-9L16 13.98h-3.01V21h-2v-7.02H7.98z" clip-rule="evenodd"/></svg>