<svg xmlns="http://www.w3.org/2000/svg" id="cloud_done" width="24" height="24" viewBox="0 0 24 24"><path fill-rule="evenodd" d="M17.7 6.89c.63.96.96 2.04.96 3.14 2.41.06 4.34 2 4.34 4.48S21 19 18.54 19H6.66c-.61 0-1.2-.09-1.77-.28C2.56 17.98 1 15.89 1 13.52c0-2.77 2.14-5.07 4.9-5.43.91-2.44 3.44-4.08 6.22-4.08.41 0 .84.03 1.26.11 1.79.33 3.37 1.34 4.32 2.77M6.66 17h11.88v-.01c1.36 0 2.46-1.16 2.46-2.49s-1.07-2.45-2.39-2.48l-1.95-.05v-1.95c0-.7-.22-1.41-.63-2.04-.64-.97-1.74-1.67-3.01-1.9-.29-.05-.6-.08-.9-.08-1.95 0-3.73 1.14-4.34 2.78l-.42 1.13-1.2.16C4.36 10.31 3 11.79 3 13.52c0 1.49 1.01 2.82 2.5 3.29.38.13.75.19 1.16.19m1.82-6L10 12.52l4-4L15.48 10l-4 4L10 15.48 8.52 14 7 12.48z" clip-rule="evenodd"/></svg>