<svg xmlns="http://www.w3.org/2000/svg" id="code_manage" width="24" height="24" viewBox="0 0 24 24"><path fill-rule="evenodd" d="M8.41 15.59 4.83 12l3.58-3.59L7 7l-5 5 5 5zm7.18 0L17 17l5-5-5-5-1.41 1.41L19.17 12zm-1.12-3.44.21.14a.52.52 0 0 1 .2.78l-.55 1a.53.53 0 0 1-.74.19l-.22-.14-.27.17v.24a.55.55 0 0 1-.55.55h-1.1a.55.55 0 0 1-.55-.55v-.24l-.27-.17-.22.14a.54.54 0 0 1-.74-.19l-.55-1a.56.56 0 0 1 .2-.74l.21-.14v-.3l-.21-.14a.52.52 0 0 1-.2-.74l.55-1a.53.53 0 0 1 .74-.19l.22.14.27-.17v-.24a.55.55 0 0 1 .55-.55h1.1a.55.55 0 0 1 .55.55v.23c.031.024.067.04.104.059a.5.5 0 0 1 .166.111l.22-.14a.53.53 0 0 1 .74.19l.55 1a.54.54 0 0 1-.2.74l-.21.14zm-3.164.864c.206.136.448.208.694.206A1.23 1.23 0 0 0 13.23 12a1.24 1.24 0 1 0-1.924 1.014" clip-rule="evenodd"/></svg>