<svg xmlns="http://www.w3.org/2000/svg" id="colour_reset" width="24" height="24" viewBox="0 0 24 24"><path fill-rule="evenodd" d="M15.94 13.11c-.37-3.02-2.52-5.79-3.94-7.32h-.01c-.46.5-1 1.13-1.53 1.85L9.03 6.21C10.52 4.23 12 3 12 3s6 5 6 11c0 .37-.04.72-.1 1.07zM9.36 9.36l9.71 9.71.01.01-1.41 1.41-1.86-1.86a5.97 5.97 0 0 1-3.8 1.37c-3.31 0-6-2.69-6-6 0-1.49.38-2.92.94-4.23L3.53 6.35l1.41-1.41L7.9 7.9zM8 14c0 2.21 1.79 4 4 4l.01.01c.89 0 1.71-.3 2.37-.8l-5.89-5.89C8.19 12.18 8 13.08 8 14" clip-rule="evenodd"/></svg>