<svg xmlns="http://www.w3.org/2000/svg" id="columns_settings" width="24" height="24" viewBox="0 0 24 24"><path fill-rule="evenodd" d="M4 3h16a2 2 0 0 1 2 2v7h-2V5h-4v7h-2V5h-4v12h3v2H4a2 2 0 0 1-2-2V5a2 2 0 0 1 2-2m0 14h4V5H4zm16.84-.399a.5.5 0 0 1-.16.139l-.22.15v.31l.22.14a.53.53 0 0 1 .19.74l-.55 1a.53.53 0 0 1-.74.19l-.22-.14h-.06l-.21.12v.25a.55.55 0 0 1-.55.55h-1.1a.55.55 0 0 1-.55-.55v-.25l-.13-.08-.14-.08-.22.14a.53.53 0 0 1-.74-.19l-.55-1a.55.55 0 0 1 .19-.74l.22-.14v-.3l-.22-.14a.53.53 0 0 1-.19-.74l.55-1a.53.53 0 0 1 .74-.19l.22.14h.06q.098-.072.21-.12v-.25a.55.55 0 0 1 .55-.55h1.1a.55.55 0 0 1 .55.55v.27h.09q.103.041.18.12l.22-.14a.53.53 0 0 1 .74.19l.55 1a.53.53 0 0 1-.03.601m-3.523 1.412a1.23 1.23 0 1 0 1.366-2.044 1.23 1.23 0 0 0-1.366 2.044" clip-rule="evenodd"/></svg>