<svg xmlns="http://www.w3.org/2000/svg" id="data_share" width="24" height="24" viewBox="0 0 24 24"><path fill-rule="evenodd" d="M19 12h-2.05l-3.28-.02a2.64 2.64 0 0 0-2.06 1H11a16.1 16.1 0 0 1-6-1v1.72c.58.48 2.73 1.28 6 1.28v2a16.1 16.1 0 0 1-6-1v1.74c.58.48 2.73 1.28 6 1.28v2c-4.42 0-8-1.34-8-3V6c0-1.66 3.58-3 8-3s8 1.34 8 3zm-2.5-6a13.4 13.4 0 0 0-5.55-1A13.2 13.2 0 0 0 5.4 6a13.4 13.4 0 0 0 5.55 1c1.9.07 3.794-.271 5.55-1M4.95 9.72c.58.48 2.73 1.28 6 1.28s5.42-.79 6-1.28V7.98a16.1 16.1 0 0 1-6 1 16.1 16.1 0 0 1-6-1zm14.47 9.26c.28 0 .554.08.79.23l-.01.01q.12.077.22.18a1.42 1.42 0 1 1-2.43 1q.002-.178.05-.35l-2.16-1.23a1.4 1.4 0 0 1-.93.36 1.44 1.44 0 0 1-1.42-1.42 1.43 1.43 0 0 1 1.43-1.43c.345.003.677.135.93.37l2.16-1.24a1.3 1.3 0 0 1-.05-.34 1.43 1.43 0 0 1 .88-1.32c.26-.102.544-.13.82-.08a1.42 1.42 0 0 1-.28 2.82 1.4 1.4 0 0 1-.95-.38l-2.15 1.23c.08.24.08.5 0 .74l2.15 1.22a1.4 1.4 0 0 1 .95-.37m.431-4.292a.6.6 0 0 0-.431-.178h-.01a.6.6 0 0 0-.59.61.4.4 0 0 0 0 .16.6.6 0 0 0 .68.52.61.61 0 0 0 .53-.68.6.6 0 0 0-.179-.431m-5.332 3.503a.6.6 0 0 0 .431.179.63.63 0 0 0 .61-.61.61.61 0 1 0-1.041.431M18.81 20.4a.62.62 0 0 0 .6.61h.01a.62.62 0 0 0 .6-.61.4.4 0 0 0 0-.16.6.6 0 0 0-.68-.52.61.61 0 0 0-.53.68" clip-rule="evenodd"/></svg>