<svg xmlns="http://www.w3.org/2000/svg" id="data_maintenance" width="24" height="24" viewBox="0 0 24 24"><path d="M11 19c-3.27 0-5.42-.8-6-1.28v-1.74C6.47 16.6 8.61 17 11 17v-2c-3.27 0-5.42-.8-6-1.28v-1.74C6.47 12.6 8.61 13 11 13c.21 0 .41 0 .61-.01.49-.6 1.22-.99 2.06-.99h3.28s.04-.01.05-.02V12h2V6c0-1.66-3.58-3-8-3S3 4.34 3 6v12c0 1.66 3.58 3 8 3zm0-14c2.69 0 4.62.54 5.55 1-.92.46-2.86 1-5.55 1s-4.62-.54-5.55-1c.92-.46 2.86-1 5.55-1M5 7.98C6.47 8.6 8.61 9 11 9s4.53-.4 6-1.02v1.74c-.58.49-2.73 1.28-6 1.28s-5.42-.8-6-1.28zm9.88 13.55 3.01-3.01c.9.35 1.95.17 2.68-.56s.91-1.78.56-2.68l-1.62 1.62-1.41-1.41 1.62-1.62c-.9-.35-1.95-.17-2.68.56s-.91 1.78-.56 2.68l-3.01 3.01a.997.997 0 0 0 1.41 1.41"/></svg>