<svg xmlns="http://www.w3.org/2000/svg" id="data_science" width="24" height="24" viewBox="0 0 24 24"><path fill-rule="evenodd" d="M18.601 2.337a5.6 5.6 0 0 1 1.9 1.163c1.9 1.9 1.96 5.16.5 8.48 1.5 3.34 1.4 6.6-.5 8.5A5.64 5.64 0 0 1 16.4 22a11.3 11.3 0 0 1-4.4-1 11.25 11.25 0 0 1-4.4 1 5.64 5.64 0 0 1-4.1-1.5C1.6 18.6 1.54 15.34 3 12c-1.46-3.34-1.4-6.6.5-8.5A5.64 5.64 0 0 1 7.6 2 11.1 11.1 0 0 1 12 3a11.25 11.25 0 0 1 4.4-1 5.6 5.6 0 0 1 2.2.337m-.762 1.858A3.7 3.7 0 0 0 16.4 4a7.7 7.7 0 0 0-2.09.3 18 18 0 0 1 3 2.41c.902.899 1.71 1.887 2.41 2.95l.1-.34c.27-1.11.5-3.15-.73-4.39a3.7 3.7 0 0 0-1.251-.735M15.9 15.9a16.5 16.5 0 0 0 2.89-3.9 16.5 16.5 0 0 0-2.89-3.9A16 16 0 0 0 12 5.22 16 16 0 0 0 8.1 8.1 16.5 16.5 0 0 0 5.21 12a16.5 16.5 0 0 0 2.89 3.9 16 16 0 0 0 3.9 2.88 16 16 0 0 0 3.9-2.88M4.91 4.91c-1.23 1.24-.98 3.28-.73 4.39l.08.41a18.7 18.7 0 0 1 2.41-3 18 18 0 0 1 3-2.41A7.7 7.7 0 0 0 7.6 4a3.68 3.68 0 0 0-2.69.91m1.252 14.896c.462.16.95.226 1.438.194a7.7 7.7 0 0 0 2.09-.3 18 18 0 0 1-3-2.41 18.7 18.7 0 0 1-2.41-2.95l-.1.34c-.27 1.11-.5 3.15.73 4.39.364.326.79.576 1.252.736m12.928-.716c1.23-1.24.98-3.28.73-4.39l-.08-.36a18.7 18.7 0 0 1-2.41 2.95 18 18 0 0 1-3 2.41c.673.194 1.37.294 2.07.3a3.68 3.68 0 0 0 2.69-.91M15 8.83c0 .674-1.343 1.22-3 1.22s-3-.546-3-1.22 1.343-1.22 3-1.22 3 .546 3 1.22M12 11c-1.66 0-3-.55-3-1.22v1.95c0 .69 1.34 1.27 3 1.27s3-.55 3-1.22V9.8c0 .67-1.34 1.2-3 1.2m-3 1.72c0 .68 1.34 1.22 3 1.22s3-.54 3-1.22v1.95c0 .68-1.34 1.22-3 1.22s-3-.54-3-1.22z" clip-rule="evenodd"/></svg>