<svg xmlns="http://www.w3.org/2000/svg" id="data" width="24" height="24" viewBox="0 0 24 24"><path d="M20 6c0-1.66-3.58-3-8-3S4 4.34 4 6v12c0 1.66 3.58 3 8 3s8-1.34 8-3zm-8-1a13.35 13.35 0 0 1 5.55 1A13.35 13.35 0 0 1 12 7a13.35 13.35 0 0 1-5.55-1A13.35 13.35 0 0 1 12 5m6 12.72c-.58.48-2.73 1.28-6 1.28s-5.42-.8-6-1.28V16a16.1 16.1 0 0 0 6 1 16.1 16.1 0 0 0 6-1zm0-4c-.58.48-2.73 1.28-6 1.28s-5.42-.8-6-1.28V12a16.1 16.1 0 0 0 6 1 16.1 16.1 0 0 0 6-1zM12 11c-3.27 0-5.42-.8-6-1.28V8a16.1 16.1 0 0 0 6 1 16.1 16.1 0 0 0 6-1v1.72c-.58.48-2.73 1.28-6 1.28"/></svg>