<svg xmlns="http://www.w3.org/2000/svg" id="data_integration" width="24" height="24" viewBox="0 0 24 24"><path fill-rule="evenodd" d="M20 6v8.1a5.5 5.5 0 0 0-1-.1 5 5 0 0 0-4.5 2.85q-1.245.154-2.5.15a16.1 16.1 0 0 1-6-1v1.72c.58.48 2.73 1.28 6 1.28q1.003.002 2-.11V19a5.1 5.1 0 0 0 .37 1.87q-1.181.127-2.37.13c-4.42 0-8-1.34-8-3V6c0-1.66 3.58-3 8-3s8 1.34 8 3m-2.45 0A13.35 13.35 0 0 0 12 5a13.35 13.35 0 0 0-5.55 1A13.35 13.35 0 0 0 12 7a13.35 13.35 0 0 0 5.55-1M12 15c3.27 0 5.42-.8 6-1.28V12a16.1 16.1 0 0 1-6 1 16.1 16.1 0 0 1-6-1v1.72c.58.48 2.73 1.28 6 1.28m0-4c3.27 0 5.42-.8 6-1.28V8a16.1 16.1 0 0 1-6 1 16.1 16.1 0 0 1-6-1v1.72c.58.48 2.73 1.28 6 1.28m9.47 8.15.21.14a.52.52 0 0 1 .2.74l-.55 1a.53.53 0 0 1-.74.19l-.22-.14-.27.17v.24a.55.55 0 0 1-.55.55h-1.1a.55.55 0 0 1-.55-.55v-.24l-.27-.17-.22.14a.54.54 0 0 1-.74-.19l-.55-1a.56.56 0 0 1 .2-.74l.21-.14v-.3l-.21-.14a.52.52 0 0 1-.2-.74l.55-1a.53.53 0 0 1 .74-.19l.22.14.27-.17v-.24a.55.55 0 0 1 .55-.55h1.1a.55.55 0 0 1 .55.55v.27q.047.032.104.059a.5.5 0 0 1 .166.111l.22-.14a.53.53 0 0 1 .74.19l.55 1a.54.54 0 0 1-.2.74l-.21.14zm-3.164.864c.206.136.447.208.694.206A1.23 1.23 0 0 0 20.23 19a1.24 1.24 0 1 0-1.924 1.014" clip-rule="evenodd"/></svg>