<svg xmlns="http://www.w3.org/2000/svg" id="drug_and_syringe" width="24" height="24" viewBox="0 0 24 24"><path fill-rule="evenodd" d="M3.214 11.7a4 4 0 0 1 0-5.658l2.828-2.828A4 4 0 1 1 11.7 8.871l-2.828 2.828a4 4 0 0 1-5.657 0m1.414-4.243a2 2 0 1 0 2.829 2.828l.707-.707-2.83-2.827zm5.657 0-.707.707L6.75 5.335l.707-.707a2 2 0 1 1 2.828 2.829m10.286 5.753-2.3-2.29-1.58 1.59 1.79 1.8-1.41 1.41-4.265 4.306a2 2 0 0 1-1.42.6 2 2 0 0 1-1.41-.59l-.4-.4L7.52 21.68 6.1 20.26l2.076-2.035-.42-.42a2 2 0 0 1 0-2.83l4.305-4.266 1.41-1.41 1.8 1.79 1.59-1.58-2.29-2.3 1.41-1.41 6 6zM9.156 16.386l2.24 2.24L15.16 14.8l-2.18-2.18z" clip-rule="evenodd"/></svg>