<svg xmlns="http://www.w3.org/2000/svg" id="face_id_ios" width="24" height="24" viewBox="0 0 24 24"><path fill-rule="evenodd" d="M11.71 13.71c-.2.19-.45.29-.71.29h.01a.996.996 0 0 1-.71-1.7l.41-.41c.18-.19.29-.45.29-.71V9.01c0-.55.45-1 1-1s1 .45 1 1v2.17c0 .8-.31 1.55-.88 2.12zM5 8c0 .55-.45 1-1 1s-1-.45-1-1V4c0-.55.45-1 1-1h4c.55 0 1 .45 1 1s-.45 1-1 1H5zm0 11h3c.55 0 1 .45 1 1s-.45 1-1 1H4c-.55 0-1-.45-1-1v-4c0-.55.45-1 1-1s1 .45 1 1zm14-3c0-.55.45-1 1-1s1 .45 1 1v4c0 .55-.45 1-1 1h-4c-.55 0-1-.45-1-1s.45-1 1-1h3zM16 3h4c.55 0 1 .45 1 1v4c0 .55-.45 1-1 1s-1-.45-1-1V5h-3c-.55 0-1-.45-1-1s.45-1 1-1M7 9c0-.55.45-1 1-1s1 .45 1 1v1c0 .55-.45 1-1 1s-1-.45-1-1zm10 1c0 .55-.45 1-1 1s-1-.45-1-1V9c0-.55.45-1 1-1s1 .45 1 1zm-.41 4.2c.44.33.52.96.19 1.4h.02c-1.16 1.53-2.89 2.4-4.78 2.4s-3.63-.88-4.78-2.4a.99.99 0 0 1 .19-1.4c.44-.33 1.07-.24 1.4.2a3.96 3.96 0 0 0 6.36 0 .995.995 0 0 1 1.4-.2" clip-rule="evenodd"/></svg>