<svg xmlns="http://www.w3.org/2000/svg" id="file_search" width="24" height="24" viewBox="0 0 24 24"><path fill-rule="evenodd" d="M12 4.003H5v16h8v2H5a2 2 0 0 1-2-2v-16a2 2 0 0 1 2-2h7.6a1.69 1.69 0 0 1 1.4.6l4.4 4.5a2 2 0 0 1 .6 1.4v5.5h-2v-5h-5zm7.81 14.44a2.25 2.25 0 0 1-.23 1l1.42 1.47-1.09 1.09-1.49-1.42a2.5 2.5 0 0 1-1 .23 2.41 2.41 0 1 1 0-4.81 2.41 2.41 0 0 1 2.39 2.44m-2.758.755a.8.8 0 0 0 .348.035.85.85 0 0 0 .83-.84.83.83 0 0 0-.83-.83.84.84 0 0 0-.348 1.635" clip-rule="evenodd"/></svg>