<svg xmlns="http://www.w3.org/2000/svg" id="file_powerpoint" width="24" height="24" viewBox="0 0 24 24"><path fill-rule="evenodd" d="m15 2.6 4.4 4.5a2 2 0 0 1 .6 1.4V20a2 2 0 0 1-2 2H6a2 2 0 0 1-2-2V4a2 2 0 0 1 2-2h7.6a1.68 1.68 0 0 1 1.4.6M6 20h12V9h-5V4H6zm8.375-7.513a2.87 2.87 0 0 0-1.786-.481H10V18h1.27v-2.12h1.24c.453.01.9-.077 1.31-.252a2 2 0 0 0 .87-.707 1.8 1.8 0 0 0 .306-1.041 1.66 1.66 0 0 0-.621-1.393m-2.013 2.478H11.27v-2.032h1.134q1.253 0 1.253.991a.94.94 0 0 1-.327.776c-.276.194-.62.288-.967.265" clip-rule="evenodd"/></svg>