<svg xmlns="http://www.w3.org/2000/svg" id="file_pdf" width="24" height="24" viewBox="0 0 24 24"><path fill-rule="evenodd" d="m15 2.6 4.4 4.5a2 2 0 0 1 .6 1.4V20a2 2 0 0 1-2 2H6a2 2 0 0 1-2-2V4a2 2 0 0 1 2-2h7.6a1.68 1.68 0 0 1 1.4.6M6 20h12V9h-5V4H6zm6-9.21s1 .26.07 2.33q.178.235.39.44.282.322.61.6a5.1 5.1 0 0 1 1.64-.37h.13c.183.009.363.053.53.13s.318.19.44.33q.183.209.28.47c.061.173.088.356.08.54-.33-.74-1.32-.81-2.41-.61a3.4 3.4 0 0 0 2.3.55c-.11.89-1.52.98-3.11-.37q-1.138.327-2.23.79c-1.32 2.03-2.49 3.02-2.74 1.83-.34-1.51 1.66-1.71 1.66-1.71-1.12.44-1.26 1.72-1 1.44a17.1 17.1 0 0 0 2.81-4.09c-1.04-1.85-.98-4.12.23-3.65l.15.06a.9.9 0 0 1 .26.21.9.9 0 0 1 .16.3 1 1 0 0 1 0 .34.9.9 0 0 1-.1.32s-.13-1.07-.72-.9a3.66 3.66 0 0 0 .26 2.66 3.9 3.9 0 0 0 .31-1.64m-.45 3.32-.55.94.194-.09c.367-.172.784-.368 1.216-.52-.14-.14-.28-.29-.41-.44l-.23-.3z" clip-rule="evenodd"/></svg>