<svg xmlns="http://www.w3.org/2000/svg" id="file_word" width="24" height="24" viewBox="0 0 24 24"><path fill-rule="evenodd" d="m15 2.6 4.4 4.5a2 2 0 0 1 .6 1.4V20a2 2 0 0 1-2 2H6a2 2 0 0 1-2-2V4a2 2 0 0 1 2-2h7.6a1.68 1.68 0 0 1 1.4.6M6 20h12V9h-5V4H6zm5.85-8h.3c.44 0 .55.22.69.55.23.93.94 3.11 1 3.27H14c.074-.265.255-.855.444-1.469.246-.8.505-1.64.556-1.861.09-.39.28-.5.68-.5h1a259 259 0 0 1-.678 2.1c-.374 1.152-.814 2.51-1.082 3.35a.66.66 0 0 1-.77.54h-.49a.62.62 0 0 1-.42-.1.58.58 0 0 1-.24-.37 52 52 0 0 0-.747-2.373L12 14.37q-.21.662-.41 1.274c-.208.643-.407 1.254-.59 1.866a.58.58 0 0 1-.24.37.62.62 0 0 1-.42.1h-.49a.66.66 0 0 1-.77-.54c-.268-.84-.708-2.198-1.082-3.35a259 259 0 0 1-.678-2.1h1.023c.384 0 .559 0 .657.5.083.424.587 2.02.864 2.898l.136.432h.15l.055-.142c.044-.113.09-.228.125-.348.3-.92.59-1.85.87-2.78.1-.34.21-.55.65-.55" clip-rule="evenodd"/></svg>