<svg xmlns="http://www.w3.org/2000/svg" id="file_google_drive" width="24" height="24" viewBox="0 0 24 24"><path fill-rule="evenodd" d="m15 2.6 4.4 4.5a2 2 0 0 1 .6 1.4V20a2 2 0 0 1-2 2H6a2 2 0 0 1-2-2V4a2 2 0 0 1 2-2h7.6a1.68 1.68 0 0 1 1.4.6M6 20h12V9h-5V4H6zm5.19-4.67H9l1.69-2.98a.7.7 0 0 1 .25-.26.73.73 0 0 1 .35-.09h1.42a.73.73 0 0 1 .35.09L12 13.92zm-2.55.75h3.74L13.49 18h-3.44a.7.7 0 0 1-.35-.09.7.7 0 0 1-.25-.26l-.3-.51-.42-.72a.7.7 0 0 1-.09-.34m6.62-.35a.73.73 0 0 1 .09.35l-.02.02a.67.67 0 0 1-.09.34l-.59 1-.13.21a.7.7 0 0 1-.25.26l-1.87-3.24.22-.37.89-1.55.75 1.29z" clip-rule="evenodd"/></svg>