<svg xmlns="http://www.w3.org/2000/svg" id="file_appendix" width="24" height="24" viewBox="0 0 24 24"><path fill-rule="evenodd" d="M17 14h2c1.1 0 2 .9 2 2v4c0 1.1-.9 2-2 2H9c-1.1 0-2-.9-2-2v-2H5c-1.1 0-2-.9-2-2V4c0-1.1.9-2 2-2h5.6c.6 0 1.1.2 1.4.6l4.4 4.5c.4.4.6.9.6 1.4zM5 4v12h10V9h-5V4zm4 14v2h10v-4h-2c0 1.1-.9 2-2 2zm-1.293-3.293a1 1 0 1 1-1.414-1.414 1 1 0 0 1 1.414 1.414m3 0a1 1 0 1 1-1.414-1.414 1 1 0 0 1 1.414 1.414m3 0a1 1 0 1 1-1.414-1.414 1 1 0 0 1 1.414 1.414" clip-rule="evenodd"/></svg>