<svg xmlns="http://www.w3.org/2000/svg" id="file_figma" width="24" height="24" viewBox="0 0 24 24"><path fill-rule="evenodd" d="m15 2.604 4.4 4.5a2 2 0 0 1 .6 1.4v11.5a2 2 0 0 1-2 2H6a2 2 0 0 1-2-2v-16a2 2 0 0 1 2-2h7.6a1.68 1.68 0 0 1 1.4.6m-9 17.4h12v-11h-5v-5H6zm7.918-6.288c-.088.14-.207.26-.348.348h-.04a1.12 1.12 0 0 1 .06 1.838 1.15 1.15 0 0 1-1.45-.078v1.05a1.13 1.13 0 1 1-1.76-.93 1.12 1.12 0 0 1 0-1.88 1.12 1.12 0 0 1 .62-2.06h2a1.13 1.13 0 0 1 1.082 1.248 1.1 1.1 0 0 1-.164.464M13 12.374h-.82l.04 1.51H13a.76.76 0 1 0 0-1.51m-2.494.219a.76.76 0 0 0-.226.53.76.76 0 0 0 .72.76h.82v-1.51h-.78a.76.76 0 0 0-.534.22m-.168 2.121a.76.76 0 0 0 .662 1.05h.82v-1.51h-.78a.75.75 0 0 0-.702.46m1.42 2.454a.8.8 0 0 0 .062-.294v-.75h-.78a.759.759 0 0 0-.78 1.066.76.76 0 0 0 .78.444.77.77 0 0 0 .718-.466m.866-1.435a.8.8 0 0 0 .316.03.76.76 0 0 0 .537-.222.75.75 0 0 0-.537-1.287.759.759 0 0 0-.78 1.066.76.76 0 0 0 .464.413" clip-rule="evenodd"/></svg>