<svg xmlns="http://www.w3.org/2000/svg" id="file_google_forms" width="24" height="24" viewBox="0 0 24 24"><path fill-rule="evenodd" d="m15 2.6 4.4 4.5a2 2 0 0 1 .6 1.4V20a2 2 0 0 1-2 2H6a2 2 0 0 1-2-2V4a2 2 0 0 1 2-2h7.6a1.68 1.68 0 0 1 1.4.6M6 20h12V9h-5V4H6zm9.81-2.23h-5.08v-.92h5.08zm-5.08-4.62v-.92h5.08v.92zm-1.263-.068a.7.7 0 0 0 .06-.658A.69.69 0 0 0 8.88 12a.701.701 0 1 0 .587 1.082m0 2.31a.7.7 0 0 0 .06-.658.69.69 0 0 0-.647-.424.701.701 0 1 0 .587 1.082m0 2.31a.7.7 0 0 0 .06-.658.69.69 0 0 0-.647-.424.701.701 0 1 0 .587 1.082m6.343-2.242h-5.08v-.92h5.08z" clip-rule="evenodd"/></svg>