<svg xmlns="http://www.w3.org/2000/svg" id="filter_settings" width="24" height="24" viewBox="0 0 24 24"><path fill-rule="evenodd" d="M3 4h18v2H3zm18.46 12.16.22.14a.53.53 0 0 1 .19.79l-.55 1a.53.53 0 0 1-.74.19l-.22-.14h-.06l-.21.12v.25a.55.55 0 0 1-.55.55h-1.1a.55.55 0 0 1-.55-.55v-.25l-.13-.08-.14-.08-.22.14a.53.53 0 0 1-.74-.19l-.55-1a.55.55 0 0 1 .19-.74l.22-.14v-.3l-.22-.14a.53.53 0 0 1-.19-.74l.55-1a.53.53 0 0 1 .74-.19l.22.14h.06a1 1 0 0 1 .21-.12v-.25a.55.55 0 0 1 .55-.55h1.1a.55.55 0 0 1 .55.55v.27h.09q.103.041.18.12l.22-.14a.53.53 0 0 1 .74.19l.55 1a.53.53 0 0 1-.19.74l-.22.14zm-3.143.852a1.23 1.23 0 1 0 1.366-2.045 1.23 1.23 0 0 0-1.366 2.045M14 14h-4v2h4zM6 9h12v2H6z" clip-rule="evenodd"/></svg>