<svg xmlns="http://www.w3.org/2000/svg" id="fluid_pack" width="22" height="24" viewBox="0 0 22 24"><path fill-rule="evenodd" d="M14.667 2H7.334v2h7.333zm4.959 4.59A1.76 1.76 0 0 0 18.333 6H3.668c-.486 0-.953.21-1.297.586A2.1 2.1 0 0 0 1.833 8v12c.037.518.238 1.006.569 1.38.342.361.79.58 1.265.62h14.667c.477-.03.927-.252 1.264-.62.338-.369.54-.86.569-1.38V8a2.1 2.1 0 0 0-.541-1.41M18.333 8v12H3.668V8zm-6.315 9.78a2.47 2.47 0 0 1-2.035 0 2.7 2.7 0 0 1-.863-.63 2.9 2.9 0 0 1-.576-.94 3.1 3.1 0 0 1-.202-1.11C8.342 12.9 11 9.7 11 9.7s2.659 3.2 2.659 5.4c0 .38-.07.758-.203 1.11s-.33.671-.576.94c-.247.27-.54.484-.863.63" clip-rule="evenodd"/></svg>