<svg xmlns="http://www.w3.org/2000/svg" id="folder_shared" width="24" height="24" viewBox="0 0 24 24"><path d="M19 7h-3.4l-1.2-2.3c-.5-1-1.5-1.7-2.7-1.7H4c-1.1 0-2 .9-2 2v15c0 1.1.9 2 2 2h16c1.1 0 2-.9 2-2V10c0-1.7-1.3-3-3-3M4 7V5h7.8q.6 0 .9.6l.7 1.4zm16 2v11H4V9z"/><path d="M14.5 14.77h-.065a1.874 1.874 0 0 1-1.82-1.853v-.065A1.87 1.87 0 0 1 14.5 11h.065a1.87 1.87 0 0 1 1.82 1.852v.124A1.874 1.874 0 0 1 14.5 14.77m-1.572 1.076h3.182a1.45 1.45 0 0 1 1.26.792L18 18h-7l.668-1.362a1.38 1.38 0 0 1 1.26-.792"/></svg>