<svg xmlns="http://www.w3.org/2000/svg" id="group_work" width="24" height="24" viewBox="0 0 24 24"><path fill-rule="evenodd" d="M8.76 4.69a8 8 0 0 1 6.48 0 4 4 0 0 1 1.7-1.37 9.9 9.9 0 0 0-9.88 0 4 4 0 0 1 1.7 1.37M8.07 19a3.3 3.3 0 0 0-.68.8l-.39.83A10 10 0 0 1 2.2 14h2.06a8.06 8.06 0 0 0 3.81 5m10.303-2.124A8.1 8.1 0 0 0 19.74 14h2.06a10 10 0 0 1-4.75 6.63l-.39-.78v-.05A3.2 3.2 0 0 0 16 19a8.1 8.1 0 0 0 2.373-2.124m-8.675 3.312A1.4 1.4 0 0 1 10.43 20h3.18a1.49 1.49 0 0 1 1.26.73L15.5 22h-7l.67-1.27a1.4 1.4 0 0 1 .528-.542M12 19a2 2 0 1 0 0-4 2 2 0 0 0 0 4m9.37-8.27a1.46 1.46 0 0 0-1.26-.73h-3.18a1.4 1.4 0 0 0-1.26.73L15 12h7zM20.5 7a2 2 0 1 1-4 0 2 2 0 0 1 4 0M3.198 10.188A1.4 1.4 0 0 1 3.93 10h3.18a1.46 1.46 0 0 1 1.26.73L9 12H2l.67-1.27a1.4 1.4 0 0 1 .528-.542M5.5 9a2 2 0 1 0 0-4 2 2 0 0 0 0 4" clip-rule="evenodd"/></svg>