<svg xmlns="http://www.w3.org/2000/svg" id="guide_me" width="24" height="24" viewBox="0 0 24 24"><path fill-rule="evenodd" d="M5 2h14a2 2 0 0 1 2 2v14a2 2 0 0 1-2 2h-4l-3 3-3-3H5a2 2 0 0 1-2-2V4a2 2 0 0 1 2-2m9.17 16H19V4H5v14h4.83l.58.59L12 20.17l1.59-1.58zM10 8.4a1 1 0 0 1 1-.9h2a.92.92 0 0 1 1 .9V9a1.15 1.15 0 0 1-.6.9l-1.4.7a1.94 1.94 0 0 0-1 1.7v1.2h2v-.9a.6.6 0 0 1 .3-.6l1.3-.6A2.54 2.54 0 0 0 16 9.1v-.7a3 3 0 0 0-3-2.9h-2.1A2.9 2.9 0 0 0 8 8.4v1.1h2zm1 6.6v2h2v-2z" clip-rule="evenodd"/></svg>