<svg xmlns="http://www.w3.org/2000/svg" id="hand_volunteers" width="24" height="24" viewBox="0 0 24 24"><path fill-rule="evenodd" d="M20 10.352a4.5 4.5 0 0 1-2.5.758 4.49 4.49 0 0 1-4.5-4.5 4.5 4.5 0 1 1 7 3.742M16.5 5.61H15v2h1.5v1.5h2v-1.5H20v-2h-1.5v-1.5h-2zm3.86 9.82c1.5 1.04 1.64 3.38 1.64 3.64v.8l-8 2.29-6-1.71v1.67H2v-11h6l2.24-.02 3.89 1a3.89 3.89 0 0 1 3.76 3 2.84 2.84 0 0 1 2.47.33M4 20.07h2v-7H4zm4-1.71 6 1.71 5.89-1.7a2.28 2.28 0 0 0-.67-1.31.2.2 0 0 1-.064-.019c-.116-.045-.364-.14-.836.02-1.385.546-2.839.9-4.32 1.05h-.12l-3.15-1.05.63-1.9 2.81.94q.929-.147 1.83-.41a1.88 1.88 0 0 0-2-1.58h-.24l-3.88-1H8z" clip-rule="evenodd"/></svg>