<svg xmlns="http://www.w3.org/2000/svg" id="heart" width="24" height="24" viewBox="0 0 24 24"><path fill-rule="evenodd" d="M16.198 3a5.96 5.96 0 0 0-4.168 1.676l-.03.029-.03-.029A5.96 5.96 0 0 0 7.8 3a5.93 5.93 0 0 0-4.047 1.569c-2.412 2.239-2.286 6.132.067 8.433L12.001 21l8.178-7.998c2.352-2.301 2.48-6.194.066-8.433A5.93 5.93 0 0 0 16.198 3m0 2a3.93 3.93 0 0 1 2.687 1.036c.706.654 1.101 1.571 1.114 2.581a4.07 4.07 0 0 1-1.218 2.955l-6.78 6.631-6.782-6.631A4.08 4.08 0 0 1 4 8.617c.013-1.01.41-1.927 1.115-2.581A3.93 3.93 0 0 1 7.801 5c1.051 0 2.037.395 2.8 1.135l1.423 1.332 1.398-1.356A3.96 3.96 0 0 1 16.198 5" clip-rule="evenodd"/></svg>