<svg xmlns="http://www.w3.org/2000/svg" id="image_slideshow" width="24" height="24" viewBox="0 0 24 24"><path d="M9.5 11a1.5 1.5 0 1 0 0-3 1.5 1.5 0 0 0 0 3"/><path fill-rule="evenodd" d="M19 3H5c-1.1 0-2 .9-2 2v14c0 1.1.9 2 2 2h14c1.1 0 2-.9 2-2V5c0-1.1-.9-2-2-2M5 14V5h14v6h-3c-.9 0-1.8.4-2.4 1.2L11.5 15l-.2-.2c-.6-.5-1.3-.8-2.1-.8zm0 4.5V16h4.2c.3 0 .5.1.7.3l2.7 2.7H5.5c-.3 0-.5-.2-.5-.5m13.5.5h-3.1l-2.5-2.5 2.3-3.1c.2-.3.5-.4.8-.4h3v5.5c0 .3-.2.5-.5.5" clip-rule="evenodd"/><path d="M1 6h1v12H0V6zm22 0h1v12h-2V6z"/></svg>