<svg xmlns="http://www.w3.org/2000/svg" id="images" width="24" height="24" viewBox="0 0 24 24"><path d="M7.5 13a1.5 1.5 0 1 0 0-3 1.5 1.5 0 0 0 0 3"/><path fill-rule="evenodd" d="m8.005.75 13.7 2.886a2.006 2.006 0 0 1 1.545 2.37l-2.886 13.699a2 2 0 0 1-1.374 1.5A2.007 2.007 0 0 1 17 23H3c-1.1 0-2-.9-2-2V7c0-1.1.9-2 2-2h2.066l.57-2.705A2.006 2.006 0 0 1 8.006.75M7.11 5H17c1.1 0 2 .9 2 2v4.242l1.056.222 1.237-5.87-13.7-2.887zM17 10.823V13h-3c-.9 0-1.8.4-2.4 1.2L9.5 17l-.2-.2c-.6-.5-1.3-.8-2.1-.8H3V7h14zm2 2.463.643.136L19 16.477zM17 15h-3c-.3 0-.6.1-.8.4l-2.3 3.1 2.5 2.5h3.1c.298 0 .498-.198.5-.495zM3 20.5V18h4.2c.3 0 .5.1.7.3l2.7 2.7H3.5c-.3 0-.5-.2-.5-.5" clip-rule="evenodd"/></svg>