<svg xmlns="http://www.w3.org/2000/svg" id="image_photo_library" width="24" height="24" viewBox="0 0 24 24"><path d="M6 1v2h15v15h2V3a2 2 0 0 0-2-2zm2.5 11a1.5 1.5 0 1 0 0-3 1.5 1.5 0 0 0 0 3"/><path fill-rule="evenodd" d="M18 4H4c-1.1 0-2 .9-2 2v14c0 1.1.9 2 2 2h14c1.1 0 2-.9 2-2V6c0-1.1-.9-2-2-2M4 15V6h14v6h-3c-.9 0-1.8.4-2.4 1.2L10.5 16l-.2-.2c-.6-.5-1.3-.8-2.1-.8zm0 4.5V17h4.2c.3 0 .5.1.7.3l2.7 2.7H4.5c-.3 0-.5-.2-.5-.5m13.5.5h-3.1l-2.5-2.5 2.3-3.1c.2-.3.5-.4.8-.4h3v5.5c0 .3-.2.5-.5.5" clip-rule="evenodd"/></svg>