<svg xmlns="http://www.w3.org/2000/svg" id="incoming_shipment" width="24" height="24" viewBox="0 0 24 24"><path fill-rule="evenodd" d="M21.99 16.204A2 2 0 0 1 20 18h-.17a3.001 3.001 0 0 1-5.66 0H9.83a3.001 3.001 0 0 1-5.66 0H4l-.204-.01A2 2 0 0 1 2 16v-3.172a2 2 0 0 1 .586-1.414l1.828-1.828A2 2 0 0 1 5.828 9H8V7a2 2 0 0 1 2-2h10a2 2 0 0 1 2 2v9zM6 17a1 1 0 1 0 2 0 1 1 0 0 0-2 0m12 0a1 1 0 1 1-2 0 1 1 0 0 1 2 0m-1-3c1.306 0 2.418.835 2.83 2H20V7H10v9h4.17A3 3 0 0 1 17 14m-9-3v3.17A3 3 0 0 0 4.17 16H4v-3.172L5.828 11z" clip-rule="evenodd"/></svg>