<svg xmlns="http://www.w3.org/2000/svg" id="keyboard_hide" width="24" height="24" viewBox="0 0 24 24"><path fill-rule="evenodd" d="M2 3.41 3.41 2l19 19L21 22.41l-2-2.05H3.82A1.81 1.81 0 0 1 2 18.54V5.82a1.85 1.85 0 0 1 .86-1.55zm1.82 2.41v12.72h13.34l-1.82-1.81H7.49v-1.82h6l-2.4-2.4v.58H9.27v-1.82h.59l-2.4-2.4v.59H5.64V7.64h.58L4.4 5.82zm16.36 10.12V5.82H10.06L8.24 4h11.94A1.81 1.81 0 0 1 22 5.82v11.94zm-5.45-6.48H13.7l-.79-.79V7.64h1.82zm3.64-1.82h-1.82v1.82h1.82zm-1.04 5.45-.78-.79v-1.03h1.81v1.82zm-9.87-1.82H5.64v1.82h1.82z" clip-rule="evenodd"/></svg>