<svg xmlns="http://www.w3.org/2000/svg" id="language_off" width="24" height="24" viewBox="0 0 24 24"><path d="m14.67 11.947 1.43 1.43.02-.06.04.12 3.15 3.15-2.14-5.71h-2.1zm-5.59-5.59h3c-.27.7-.6 1.38-.97 2.03l1.15 1.15c.09-.14.18-.28.26-.42.49-.9.89-1.82 1.19-2.75h2.3v-1.62h-5.69v-1.62H8.7v1.62H7.47l1.62 1.62zm11.41 14.24L3.51 3.617 2.1 5.027l.9.9v.42h.42l4.09 4.09c.3.41.61.81.96 1.21l-4.14 4.14 1.12 1.12 4.06-4.06 2.58 2.48.09-.23.97.97-1.88 5.04h2.15l.72-2.05h2.01l2.95 2.95.9-.9h1.03l-.28-.75-.23.23z"/></svg>