<svg xmlns="http://www.w3.org/2000/svg" id="language" width="24" height="24" viewBox="0 0 24 24"><path d="M21 21.107h-2.15l-.72-2.05h-4.02l-.72 2.05h-2.15l3.81-10.23h2.1l3.83 10.23zm-4.88-7.79-1.42 4.06h2.85zm-10.68 3.6-1.12-1.12 4.14-4.14c-.51-.6-.97-1.2-1.37-1.8s-.75-1.23-1.05-1.88h1.77c.23.45.48.87.76 1.27s.59.81.94 1.23c.61-.64 1.12-1.3 1.52-1.98.41-.68.75-1.4 1.04-2.14H3v-1.62h5.69v-1.62h1.62v1.62H16v1.62h-2.3c-.3.93-.69 1.85-1.19 2.75s-1.1 1.76-1.82 2.57l1.99 2.01-.61 1.65-2.58-2.48-4.06 4.06z"/></svg>