<svg xmlns="http://www.w3.org/2000/svg" id="layers" width="24" height="24" viewBox="0 0 24 24"><path fill-rule="evenodd" d="m11.53 15.105-8-4.23v.01a1.003 1.003 0 0 1 .02-1.78l8.01-4a1 1 0 0 1 .89 0l8 3.99c.33.17.55.51.55.88.01.38-.2.73-.53.9l-8 4.23c-.15.08-.31.12-.47.12s-.32-.04-.47-.12m6.28-5.09L12 7.105l-5.81 2.91 5.81 3.08zM12 17.105l7.53-3.99h.02c.49-.25 1.09-.07 1.35.42.25.49.07 1.09-.42 1.35l-8 4.23c-.15.08-.31.12-.47.12s-.32-.04-.47-.12l-8-4.23a.997.997 0 0 1-.175-1.654.995.995 0 0 1 1.106-.116z" clip-rule="evenodd"/></svg>