<svg xmlns="http://www.w3.org/2000/svg" id="life_ring" width="24" height="24" viewBox="0 0 24 24"><path fill-rule="evenodd" d="m18.315 16.901-2.148-2.148a4.97 4.97 0 0 0 0-5.506l2.148-2.148a8.01 8.01 0 0 1 0 9.802M7.099 18.315l2.148-2.148a4.97 4.97 0 0 0 5.506 0l2.148 2.148A7.94 7.94 0 0 1 12 20a7.94 7.94 0 0 1-4.901-1.685M5.685 7.099l2.148 2.148a4.97 4.97 0 0 0 0 5.506l-2.148 2.148a8.01 8.01 0 0 1 0-9.802M9 12c0-1.654 1.346-3 3-3s3 1.346 3 3-1.346 3-3 3-3-1.346-3-3m7.901-6.315-2.148 2.148a4.97 4.97 0 0 0-5.506 0L7.099 5.685A7.93 7.93 0 0 1 12 4c1.799 0 3.504.596 4.901 1.685m2.17-.756A9.97 9.97 0 0 0 12 2a9.97 9.97 0 0 0-7.071 2.929c-3.906 3.905-3.906 10.237 0 14.142A9.97 9.97 0 0 0 12 22a9.97 9.97 0 0 0 7.071-2.929c3.906-3.905 3.906-10.237 0-14.142" clip-rule="evenodd"/></svg>