<svg xmlns="http://www.w3.org/2000/svg" id="list_numbered" width="24" height="24" viewBox="0 0 24 24"><path fill-rule="evenodd" d="M5 7.99h-.87V4.88L3 5.43v-.87l1.13-.57H5zm16-3H8v2h13zM4.51 10.75c-.06-.03-.12-.03-.19-.03-.31 0-.51.19-.58.59l-.74-.2c.04-.31.19-.6.42-.81.25-.21.57-.32.9-.31.18-.01.36.01.53.07.17.05.33.14.47.26q.18.165.27.39c.06.15.08.31.08.47 0 .25-.05.49-.16.71-.13.24-.3.45-.5.64l-.74.72h1.39v.74H3.15v-.74l1.2-1.15c.14-.12.25-.27.34-.43.07-.13.11-.28.11-.43a.54.54 0 0 0-.13-.38.4.4 0 0 0-.16-.11m16.49.24H8v2h13zM5.58 16.68l-.75.77c.26.06.5.2.67.41.17.22.25.5.24.78.01.18-.02.37-.08.54s-.15.33-.28.46c-.13.12-.29.22-.46.28-.18.06-.36.08-.54.08-.36.03-.72-.08-1-.31-.23-.23-.37-.53-.38-.86l.75-.15c.02.15.09.3.2.41.11.1.25.15.4.15.08 0 .15-.01.22-.04.06-.03.12-.07.17-.13.1-.12.15-.27.15-.42 0-.09-.01-.18-.05-.26a.5.5 0 0 0-.17-.21c-.18-.12-.4-.19-.62-.19v-.64l.65-.7H3.16v-.66h2.42zm2.42.31h13v2H8z" clip-rule="evenodd"/></svg>