<svg xmlns="http://www.w3.org/2000/svg" id="location" width="24" height="24" viewBox="0 0 24 24"><path fill-rule="evenodd" d="M16.2 5.6c-1.1-1-2.6-1.6-4.1-1.6-1.6 0-3 .6-4.1 1.6l-.1.2C5.7 8 5.6 11.6 7.7 14a271 271 0 0 0 3.617 4.028c.338.371.63.691.883.972.651-.814 1.7-1.959 3.199-3.596L16.5 14.2c2.2-2.4 2.1-6.2-.3-8.6M6.6 4.2C8.1 2.7 10.1 2 12.1 2c1.9 0 3.9.7 5.5 2.1 3.1 3.1 3.3 8.1.3 11.4l-5.8 6.4-6-6.6c-2.9-3.1-2.7-7.9.3-10.9zM10 10c0-1.1.9-2 2-2s2 .9 2 2-.9 2-2 2-2-.9-2-2" clip-rule="evenodd"/></svg>