<svg xmlns="http://www.w3.org/2000/svg" id="manual" width="24" height="24" viewBox="0 0 24 24"><path d="M22 6.974a3 3 0 0 0-.9-2.11 3.1 3.1 0 0 0-2.099-.889 3.1 3.1 0 0 0-1.089.21 2.998 2.998 0 0 0-5.407-.81 2.94 2.94 0 0 0-1.5-.4 3 3 0 0 0-2.998 3v5.786l-.26-.38A3.09 3.09 0 0 0 4.01 9.813a3 3 0 0 0-1.7 4.158l.88 1.86a11.22 11.22 0 0 0 7.587 6.136 1 1 0 0 0 .23 0h6.076A4.93 4.93 0 0 0 22 17.05zm-1.999 10.095a2.92 2.92 0 0 1-2.919 2.898h-5.997a9.2 9.2 0 0 1-6.077-4.997l-.88-1.86a1 1 0 0 1 0-.809 1 1 0 0 1 .6-.56 1.1 1.1 0 0 1 1.28.57q.035.078.08.15l2.129 3.078a1 1 0 0 0 1.789-.57V5.975a1 1 0 0 1 1.999 0v5.997a1 1 0 0 0 1.999 0V4.975a1 1 0 0 1 1.999 0v6.996a1 1 0 0 0 1.999 0V6.974c.015-.256.11-.5.27-.7a1 1 0 0 1 .73-.3 1 1 0 0 1 .71.29 1 1 0 0 1 .289.71z"/></svg>