<svg xmlns="http://www.w3.org/2000/svg" id="map" width="24" height="24" viewBox="0 0 24 24"><path d="M20 3c-.3 0-.6.1-.9.2L16 4.8c-.3.1-.6.2-.9.2s-.7-.1-1-.3L9.9 2.3c-.3-.2-.6-.3-1-.3-.3 0-.6.1-.9.2L3.1 4.7C2.4 5.1 2 5.8 2 6.6V19c0 1.2 1 2 2 2 .3 0 .6-.1.9-.2L8 19.2c.3-.1.6-.2.9-.2s.7.1 1 .3l4.1 2.5c.3.2.7.3 1 .3s.6-.1.9-.2l4.9-2.5c.7-.3 1.1-1.1 1.1-1.8V5C22 3.8 21 3 20 3M4 19V6.5l4-2v12.6l-.9.3zm6-1.9V4.6l3 1.8c.3.2.6.3 1 .4v12.5l-3-1.8c-.3-.1-.7-.3-1-.4m10 .3q0 .15 0 0l-4 2.1V6.9l.9-.3L20 5z"/></svg>