<svg xmlns="http://www.w3.org/2000/svg" id="mic_off" width="24" height="24" viewBox="0 0 24 24"><path fill-rule="evenodd" d="M10 6c0-1.1.9-2 2-2s2 .9 2 2v4c0 .3-.1.6-.2.9l1.4 1.4c.5-.6.8-1.5.8-2.3V6c0-2.2-1.8-4-4-4-1.9 0-3.5 1.4-3.9 3.2L10 7.1zm10 6-.034.1H17.9l-.127.259c-.261.534-.543 1.111-.973 1.541l1.4 1.4a10.6 10.6 0 0 0 1.766-3.2H20zm-7 5.9V20h3v2H8v-2h3v-2.1c-3.4-.4-6.1-2.7-7-5.9h2.2c.9 2.3 3.1 4 5.8 4 .214 0 .429-.029.628-.055.172-.023.333-.045.472-.045L1 3.8l1.4-1.5 19.2 19.2-1.4 1.4-5.4-5.4c-.6.2-1.2.3-1.8.4" clip-rule="evenodd"/></svg>