<svg xmlns="http://www.w3.org/2000/svg" id="microscope" width="24" height="24" viewBox="0 0 24 24"><path d="M21 15.98c0-2.89-1.89-5.33-4.49-6.18l-.23.23.67-.67c.78-.78.78-2.05 0-2.83l1.41-1.41L16.24 3l-1.41 1.41a1.983 1.983 0 0 0-2.82 0L7.06 9.36a1.983 1.983 0 0 0 0 2.82l-1.41 1.41 2.12 2.12 1.41-1.41c.39.39.9.59 1.41.59s1.02-.2 1.41-.59l2.8-2.8a4.49 4.49 0 0 1 3.93 2.97H17c-1.1 0-2 .9-2 2v2H3v2h18v-4c0-.06-.01-.11-.02-.17 0-.11.02-.22.02-.33zm-10.41-3.09-2.12-2.12 4.95-4.95 2.12 2.12zM17 18.48v-2h2v2z"/></svg>