<svg xmlns="http://www.w3.org/2000/svg" id="monitor_settings" width="24" height="24" viewBox="0 0 24 24"><path fill-rule="evenodd" d="M4 4h16a2 2 0 0 1 2 2v7h-7a1 1 0 0 1-.93-.54l-1-2.07-2.15 5a1 1 0 0 1-.83.61H10a1 1 0 0 1-.83-.45L7.46 13H4v5h10v2H4a2 2 0 0 1-2-2V6a2 2 0 0 1 2-2m11.62 7H20V6H4v5h4a1 1 0 0 1 .84.45l1 1.46 2.27-5.3A1 1 0 0 1 13 7a1 1 0 0 1 .89.55zm5.85 7.15.21.14a.52.52 0 0 1 .2.74l-.55 1a.53.53 0 0 1-.74.19l-.22-.14-.27.17v.24a.55.55 0 0 1-.55.55h-1.1a.55.55 0 0 1-.55-.55v-.24l-.27-.17-.22.14a.54.54 0 0 1-.74-.19l-.55-1a.56.56 0 0 1 .2-.74l.21-.14v-.3l-.21-.14a.52.52 0 0 1-.2-.74l.55-1a.53.53 0 0 1 .74-.19l.22.14.27-.17v-.24a.55.55 0 0 1 .55-.55h1.1a.55.55 0 0 1 .55.55v.27a.6.6 0 0 0 .104.059.5.5 0 0 1 .166.111l.22-.14a.53.53 0 0 1 .74.19l.55 1a.54.54 0 0 1-.2.74l-.21.14zm-3.164.864c.206.136.447.208.694.206A1.23 1.23 0 0 0 20.23 18a1.24 1.24 0 1 0-1.924 1.014" clip-rule="evenodd"/></svg>