<svg xmlns="http://www.w3.org/2000/svg" id="mpr_coronal" width="24" height="24" viewBox="0 0 24 24"><path fill-rule="evenodd" d="m19 5.003-6.5-2.9a.6.6 0 0 0-.4-.1.6.6 0 0 0-.4.1L5 5.003a1.12 1.12 0 0 0 0 1.9l6.5 2.9c.257.1.543.1.8 0l6.7-2.9a1.12 1.12 0 0 0 0-1.9m-7 2.8-4.1-1.8 4.1-1.9 4.1 1.8zm-1.6 3.6-6-2.9a.6.6 0 0 0-.4-.1 1 1 0 0 0-1 1v8.1a1 1 0 0 0 .6.9l6 2.9a1 1 0 0 0 1.3-.5.6.6 0 0 0 .1-.4v-8.1a1 1 0 0 0-.6-.9m-5.4-.4 4 1.9v5.9l-4-1.9zm14.6-2.5a.6.6 0 0 1 .4-.1 1 1 0 0 1 1 1v8.1a1 1 0 0 1-.6.9l-6 2.9c-.1.1-.2.1-.4.1a.94.94 0 0 1-1-1v-8.1a1 1 0 0 1 .6-.9z" clip-rule="evenodd"/></svg>