<svg xmlns="http://www.w3.org/2000/svg" id="my_workplace" width="24" height="24" viewBox="0 0 24 24"><path fill-rule="evenodd" d="M12 6a2 2 0 1 0 0-4 2 2 0 0 0 0 4M9.293 21.707A1 1 0 0 1 9 21v-4h2v4a1 1 0 0 1-1.707.707m4 0A1 1 0 0 1 13 21v-4h2v4a1 1 0 0 1-1.707.707M18 9.35A6.2 6.2 0 0 1 19 13a2 2 0 0 1 2 2v7h-2v-7H5v7H3v-7a2 2 0 0 1 2-2 6.2 6.2 0 0 1 1-3.65A6.12 6.12 0 0 1 9 7h6a6.12 6.12 0 0 1 3 2.35M7 13h2V9.1a4.16 4.16 0 0 0-1.55 1.67A4.1 4.1 0 0 0 7 13m8 0h2a4.24 4.24 0 0 0-.44-2.24A4.3 4.3 0 0 0 15 9.1z" clip-rule="evenodd"/></svg>