<svg xmlns="http://www.w3.org/2000/svg" id="navigation" width="28" height="28" viewBox="0 0 28 28"><g filter="url(#filter0_d_6934_4045)"><path stroke="#fff" d="m24.354 12.354.353-.354-.353-.354-3-3-.854-.853V10.5h-5v-5h2.707l-.853-.854-3-3L14 1.293l-.354.353-3 3-.853.854H12.5v5h-5V7.793l-.854.853-3 3-.353.354.353.354 3 3 .786.786.067-1.11q.046-.765.024-1.53H12.5v5H9.793l.853.854 3 3 .354.353.354-.353 3-3 .786-.787-1.11-.066q-.765-.046-1.53-.024V13.5h5v2.707l.854-.853z"/></g><defs><filter id="filter0_d_6934_4045" width="28" height="28" x="0" y="0" color-interpolation-filters="sRGB" filterUnits="userSpaceOnUse"><feFlood flood-opacity="0" result="BackgroundImageFix"/><feColorMatrix in="SourceAlpha" result="hardAlpha" values="0 0 0 0 0 0 0 0 0 0 0 0 0 0 0 0 0 0 127 0"/><feOffset dy="2"/><feGaussianBlur stdDeviation="1"/><feColorMatrix values="0 0 0 0 0 0 0 0 0 0 0 0 0 0 0 0 0 0 0.25 0"/><feBlend in2="BackgroundImageFix" result="effect1_dropShadow_6934_4045"/><feBlend in="SourceGraphic" in2="effect1_dropShadow_6934_4045" result="shape"/></filter></defs></svg>