<svg xmlns="http://www.w3.org/2000/svg" id="nfc_rfid" width="24" height="24" viewBox="0 0 24 24"><path fill-rule="evenodd" d="M18.719 12.046c0-3.963-1.659-7.558-4.332-10.046l-1.29 1.29c2.304 2.212 3.779 5.254 3.779 8.756s-1.475 6.544-3.78 8.664L14.388 22a13.65 13.65 0 0 0 4.331-9.954m-10.138 0a3.78 3.78 0 0 0-1.29-2.857l-1.29 1.29c.46.369.736.922.736 1.567S6.461 13.244 6 13.613l1.29 1.29c.738-.737 1.29-1.751 1.29-2.857zm1.382 0c0 1.567-.645 2.95-1.659 3.871l1.29 1.29a7.3 7.3 0 0 0 2.12-5.16c0-2.028-.737-3.964-2.12-5.254l-1.29 1.29c1.014 1.014 1.659 2.396 1.659 3.963m2.652 3.39a8.8 8.8 0 0 0 .666-3.39c0-2.488-1.014-4.7-2.58-6.36l1.29-1.29c1.935 1.936 3.133 4.7 3.133 7.65a10.66 10.66 0 0 1-3.133 7.557l-1.29-1.29a8.8 8.8 0 0 0 1.914-2.876" clip-rule="evenodd"/></svg>