<svg xmlns="http://www.w3.org/2000/svg" id="notification_alarm" width="24" height="24" viewBox="0 0 24 24"><path fill-rule="evenodd" d="M19 18v-7c0-3.2-2.1-5.8-5-6.7V4c0-1.1-.9-2-2-2s-2 .9-2 2v.3c-2.9.9-5 3.5-5 6.7v7H3v2h18v-2zm-2 0H7v-7c0-2.8 2.2-5 5-5s5 2.2 5 5zM0 12c0 1.9.7 3.7 2.1 5l1.4-1.4c-1-1-1.5-2.3-1.5-3.6s.5-2.6 1.5-3.6L2.1 7C.7 8.3 0 10.1 0 12m20.5 3.6 1.4 1.4c1.4-1.3 2.1-3.1 2.1-5s-.8-3.7-2.1-5l-1.4 1.4Q22 9.9 22 12c0 1.4-.6 2.6-1.5 3.6M12 23c1.4 0 2.6-.8 3-2H9c.4 1.2 1.6 2 3 2" clip-rule="evenodd"/></svg>