<svg xmlns="http://www.w3.org/2000/svg" id="nurse" width="24" height="24" viewBox="0 0 24 24"><path fill-rule="evenodd" d="M4.057 8.94A16.5 16.5 0 0 1 11.717 7a16.5 16.5 0 0 1 7.64 1.94l.19-.68a1.61 1.61 0 0 0-.6-1.75A12.3 12.3 0 0 0 11.717 4a12.3 12.3 0 0 0-7.25 2.51 1.65 1.65 0 0 0-.6 1.75zm6.66 3.06v1h-1v2h1v1h2v-1h1v-2h-1v-1zm1-3a15.13 15.13 0 0 1 8.88 3.09 2 2 0 0 1 .76 2.09l-1.13 4a2 2 0 0 1-1.92 1.45q-.18.015-.36 0a35 35 0 0 0-6.23-.63 36 36 0 0 0-6.23.7q-.18.015-.36 0a2 2 0 0 1-1.92-1.45l-1.13-4a2 2 0 0 1 .74-2.16 15.13 15.13 0 0 1 8.9-3.09m-.01 8c2.215.026 4.423.247 6.6.66l1.13-3.96a13.1 13.1 0 0 0-7.72-2.7 13.2 13.2 0 0 0-7.72 2.66l1.12 4a37.7 37.7 0 0 1 6.59-.66" clip-rule="evenodd"/></svg>