<svg xmlns="http://www.w3.org/2000/svg" id="order_approval" width="24" height="24" viewBox="0 0 24 24"><path fill-rule="evenodd" d="M5 6v14h14v-1h2v1c0 1.1-.9 2-2 2H5c-1.1 0-2-.9-2-2V6c0-1.1.9-2 2-2h4.18C9.6 2.84 10.69 2 12 2s2.41.84 2.82 2H19c1.1 0 2 .9 2 2v1h-2V6zm2 2h2v2H7zm0 4h2v2H7zm2 4H7v2h2zm10.95-3.97-1.06-1.06-2.469 2.468-1.31-1.317-1.063 1.058 2.37 2.383zM12 13c0-2.75 2.25-5 5-5s5 2.25 5 5-2.25 5-5 5-5-2.25-5-5m9 0c0-2.21-1.79-4-4-4s-4 1.79-4 4 1.79 4 4 4 4-1.79 4-4" clip-rule="evenodd"/></svg>