<svg xmlns="http://www.w3.org/2000/svg" id="order_missed" width="24" height="24" viewBox="0 0 24 24"><path fill-rule="evenodd" d="M10.273 2.553A3 3 0 0 1 12 2a3 3 0 0 1 2.82 2H19a2 2 0 0 1 2 2v1h-2V6H5v14h14v-1h2v1a2 2 0 0 1-2 2H5a2 2 0 0 1-2-2V6a2 2 0 0 1 2-2h4.18a3 3 0 0 1 1.093-1.447M7 8h2v2H7zm0 4h2v2H7zm0 4h2v2H7zm10-8a5 5 0 1 0 0 10 5 5 0 0 0 0-10m0 9a4 4 0 1 1 0-8 4 4 0 0 1 0 8m-.53-2.1h1.01v1.01h-1.01zm0-4.81h1.06A1.47 1.47 0 0 1 19 11.56v.35a1.29 1.29 0 0 1-.73 1.17l-.61.3a.34.34 0 0 0-.2.3v.46h-1v-.61a1 1 0 0 1 .5-.86l.71-.35a.58.58 0 0 0 .31-.46v-.3a.46.46 0 0 0-.46-.46h-1.06a.46.46 0 0 0-.46.46v.55h-1v-.55a1.47 1.47 0 0 1 1.47-1.47" clip-rule="evenodd"/></svg>