<svg xmlns="http://www.w3.org/2000/svg" id="parameters" width="24" height="24" viewBox="0 0 24 24"><path fill-rule="evenodd" d="M9.82 4a3 3 0 0 0-5.64 0H2v2h2.18a3 3 0 0 0 5.64 0H22V4zM7 6a1 1 0 1 1 0-2 1 1 0 0 1 0 2m10 3a3 3 0 0 0-2.82 2H2v2h12.18a3 3 0 0 0 5.64 0H22v-2h-2.18A3 3 0 0 0 17 9m0 4a1 1 0 1 1 0-2 1 1 0 0 1 0 2m-7.727 3.553A3 3 0 0 1 11 16a3 3 0 0 1 2.82 2H22v2h-8.18a3 3 0 0 1-5.64 0H2v-2h6.18a3 3 0 0 1 1.093-1.447m1.171 3.278a1 1 0 1 0 1.111-1.663 1 1 0 0 0-1.11 1.663" clip-rule="evenodd"/></svg>