<svg xmlns="http://www.w3.org/2000/svg" id="parcel" width="24" height="24" viewBox="0 0 24 24"><path d="m20.445 6.927-7.44-3.592-.43-.21c-.36-.17-.77-.17-1.13 0l-.43.21-7.45 3.592c-.34.17-.56.52-.56.9v8.345c0 .38.22.73.56.9l7.43 3.593.43.21c.36.17.78.17 1.14 0l.43-.21 7.44-3.592a1 1 0 0 0 .56-.9V7.827c0-.38-.22-.73-.56-.9zm-6.83 3.142-1.63.78-2.12-1.03 5.99-2.902 2.12 1.031-4.37 2.111zm-1.59-5.003 2.12 1.03L8.155 9l-2.12-1.031 6-2.902zm-1.02 13.378-6-2.902V9.699l2.26 1.1v2.212l1.5.72v-2.21l1.37.66.45.22.42.2zm8-2.902-6.01 2.912V12.6l4.87-2.362 1.13-.55v5.853z"/></svg>