<svg xmlns="http://www.w3.org/2000/svg" id="patient" width="24" height="24" viewBox="0 0 24 24"><path fill-rule="evenodd" d="M16 3h4a2 2 0 0 1 2 2v5c0 2-1.9 4-3 4v1h-2v-1c-1.1 0-3-2-3-4V5a2 2 0 0 1 2-2m1.18 9h1.64A2.9 2.9 0 0 0 20 10h-4a2.9 2.9 0 0 0 1.18 2M16 8h4V5h-4zm-7.62 7h.12a3.48 3.48 0 0 0 3.5-3.33v-.23A3.47 3.47 0 0 0 8.62 8H8.5A3.47 3.47 0 0 0 5 11.44v.12A3.48 3.48 0 0 0 8.38 15m3.11 2H5.58a2.56 2.56 0 0 0-2.34 1.47L2 21h13l-1.17-2.53A2.69 2.69 0 0 0 11.49 17M17 19h2v2h-2zm2-3h-2v2h2z" clip-rule="evenodd"/></svg>