<svg xmlns="http://www.w3.org/2000/svg" id="pie_settings" width="24" height="24" viewBox="0 0 24 24"><path fill-rule="evenodd" d="M8.275 2.72A10 10 0 0 1 12.11 2a10 10 0 0 1 9.88 10.08 6 6 0 0 1-.03.508c-.015.165-.03.328-.03.492h-2L13 13l-.11 7v2h-1A10 10 0 0 1 8.275 2.72M11 14.41V11l.12-6.93a8 8 0 0 0-.18 15.86zm6-8.67a8 8 0 0 0-3.92-1.65L13 9.6zm1.36 1.49-3.94 3.86 5.51.06a8 8 0 0 0-1.57-3.92m2.03 11.02.22.14a.53.53 0 0 1 .2.81l-.56.95a.52.52 0 0 1-.74.18l-.22-.14-.28.17v.24a.54.54 0 0 1-.56.54h-1.09a.54.54 0 0 1-.54-.55v-.25l-.27-.17-.22.14a.53.53 0 0 1-.74-.2l-.54-1a.55.55 0 0 1 .2-.73l.22-.14v-.3l-.22-.14a.52.52 0 0 1-.18-.74l.56-1a.51.51 0 0 1 .74-.19l.21.14.096-.057c.056-.035.114-.071.184-.103v-.25a.56.56 0 0 1 .56-.54h1.08a.55.55 0 0 1 .54.56v.27q.143.075.27.17l.22-.13a.52.52 0 0 1 .74.2l.54 1a.53.53 0 0 1-.2.74l-.22.13zm-3.16.83c.203.137.444.21.69.21a1.23 1.23 0 0 0 1.24-1.22 1.24 1.24 0 1 0-1.93 1.01" clip-rule="evenodd"/></svg>