<svg xmlns="http://www.w3.org/2000/svg" id="pills" width="24" height="24" viewBox="0 0 24 24"><path fill-rule="evenodd" d="M9.332 3.386A6.34 6.34 0 0 0 3 9.718c0 1.354.398 2.66 1.142 3.721A4.33 4.33 0 0 0 3 16.387c0 2.295 1.773 4.236 4.046 4.236h9.908c2.273 0 4.046-1.941 4.046-4.236s-1.773-4.236-4.046-4.236H15.15c.324-.74.515-1.56.515-2.433a6.34 6.34 0 0 0-6.332-6.332m-4.34 6.332a4.33 4.33 0 0 1 5.139-4.263L7.26 12.15h-.214c-.43 0-.844.073-1.23.203-.52-.716-.823-1.642-.823-2.636m4.43 2.433 2.528-5.892a4.32 4.32 0 0 1 1.72 3.459c0 .9-.295 1.724-.791 2.433zm-4.43 4.236c0-1.297.95-2.242 2.053-2.242h3.957v4.485H7.046c-1.104 0-2.053-.945-2.053-2.243m11.961 2.243h-3.957v-4.485h3.957c1.104 0 2.053.945 2.053 2.242s-.95 2.243-2.053 2.243" clip-rule="evenodd"/></svg>