<svg xmlns="http://www.w3.org/2000/svg" id="pin" width="24" height="24" viewBox="0 0 24 24"><path d="M15.05 17.45c.42-.42.71-.95.82-1.54l.47-2.35c.04-.19.13-.37.27-.51l3.11-3.11.71.71 1.42-1.42-7.09-7.09-1.42 1.42.71.71-3.11 3.11c-.14.14-.32.23-.51.27l-2.35.48c-.58.11-1.11.4-1.53.82l-2.41 2.41 3.54 3.54-3.54 3.54 1.42 1.42 3.54-3.54 3.54 3.54zm-2.4-.43-5.67-5.67.99-.99c.14-.14.32-.23.51-.27l2.35-.47c.58-.12 1.12-.4 1.54-.82l3.11-3.11 2.83 2.83-3.11 3.11c-.42.42-.71.95-.82 1.54l-.47 2.35c-.04.19-.13.37-.27.51z"/></svg>