<svg xmlns="http://www.w3.org/2000/svg" id="pin_slash" width="24" height="24" viewBox="0 0 24 24"><path fill-rule="evenodd" d="m15.5 5.67-2.8 2.81-1.42-1.42 2.8-2.8-.71-.71 1.42-1.41 7.07 7.07-1.41 1.41-.71-.7-2.8 2.8-1.42-1.42 2.8-2.8zM2.82 4.32 4.23 2.9l16.59 16.61-1.41 1.41-3.99-3.99c-.11.18-.24.35-.39.5l-2.4 2.4-3.54-3.53-3.53 3.53-1.42-1.41 3.54-3.54-3.54-3.53 2.4-2.4c.16-.15.33-.28.52-.39zm10.79 11.7c.14-.14.24-.32.28-.51l.02-.1-5.34-5.34-.1.02q-.3.06-.51.27l-.99.99 5.66 5.66z" clip-rule="evenodd"/></svg>