<svg xmlns="http://www.w3.org/2000/svg" id="plate_management" width="24" height="24" viewBox="0 0 24 24"><path fill-rule="evenodd" d="M20 4.5v15H4V8.41L7.78 4.5zm0-2H7.78a2 2 0 0 0-1.43.61L2.56 7A2 2 0 0 0 2 8.41V19.5a2 2 0 0 0 2 2h16a2 2 0 0 0 2-2v-15a2 2 0 0 0-2-2m-10.5 9a2.5 2.5 0 1 0 0-5 2.5 2.5 0 0 0 0 5m7.389 5.579a2.5 2.5 0 1 1-2.778-4.157 2.5 2.5 0 0 1 2.778 4.157M15.5 6.5A2.5 2.5 0 0 0 13.19 8a2.5 2.5 0 0 0 4.38 2.365A2.5 2.5 0 0 0 18 9a2.49 2.49 0 0 0-2.5-2.5m0 3.33a.83.83 0 0 1-.5-.14.8.8 0 0 1-.31-.37.87.87 0 0 1-.05-.48.84.84 0 0 1 .66-.66.87.87 0 0 1 .48.05.8.8 0 0 1 .37.31.83.83 0 0 1-.69 1.29zm-7.38 3.073A2.5 2.5 0 0 1 9.5 12.5 2.49 2.49 0 0 1 12 15a2.5 2.5 0 0 1-1.54 2.27A2.5 2.5 0 0 1 7.19 14a2.5 2.5 0 0 1 .93-1.097M9 15.69a.83.83 0 0 0 .5.14h-.04a.83.83 0 0 0 .69-1.29.8.8 0 0 0-.37-.31.87.87 0 0 0-.48-.05.84.84 0 0 0-.66.66.87.87 0 0 0 .05.48.8.8 0 0 0 .31.37" clip-rule="evenodd"/></svg>