<svg xmlns="http://www.w3.org/2000/svg" id="plate_settings" width="24" height="24" viewBox="0 0 24 24"><path fill-rule="evenodd" d="M20 2c.53 0 1.03.21 1.41.59.38.37.59.88.59 1.41v9.5h-2V4H7.78L4 7.91V19h10v2H4c-.53 0-1.03-.21-1.41-.59C2.21 20.04 2 19.53 2 19V7.91c-.01-.53.2-1.03.56-1.41l3.79-3.89c.18-.19.4-.35.65-.45S7.51 2 7.78 2zm-3.54 8.77c-.46.2-.96.25-1.45.15l-.01-.01c-.48-.09-.93-.33-1.28-.68s-.58-.79-.68-1.28c-.09-.49-.04-.99.15-1.45.2-.45.52-.83.93-1.1.41-.26.89-.4 1.38-.4.33 0 .66.06.96.19.3.12.58.31.81.54s.41.51.54.81c.13.31.19.63.19.96-.01.49-.16.97-.43 1.37s-.66.71-1.11.9m-1.59-2.86A.825.825 0 0 0 15 9.19c.14.1.31.14.48.14.15-.01.29-.05.41-.12a.9.9 0 0 0 .3-.32c.07-.13.1-.28.1-.43a.9.9 0 0 0-.14-.42.826.826 0 0 0-1.28-.13M9.5 6c.67 0 1.3.26 1.77.73S12 7.83 12 8.5A2.487 2.487 0 0 1 9.5 11 2.487 2.487 0 0 1 7 8.5c0-.67.26-1.3.73-1.77S8.83 6 9.5 6m6 6c.67 0 1.3.26 1.77.73.22.22.4.49.52.77H16c-1.1 0-2 .9-2 2v.99l-.064-.049a2 2 0 0 1-.206-.171c-.47-.47-.73-1.1-.73-1.77s.26-1.3.73-1.77 1.1-.73 1.77-.73m-6 0c.33 0 .66.06.96.19.3.12.58.31.81.54s.41.51.54.81c.13.31.19.63.19.96a2.53 2.53 0 0 1-1.91 2.4c-.6.15-1.24.07-1.79-.23-.55-.29-.96-.78-1.17-1.37a2.54 2.54 0 0 1 .06-1.8c.2-.45.52-.83.93-1.1.41-.26.89-.4 1.38-.4m.39 3.21a.9.9 0 0 0 .3-.32c.07-.13.1-.28.1-.43a.9.9 0 0 0-.14-.42.826.826 0 0 0-1.28-.13.825.825 0 0 0 .13 1.28c.14.1.31.14.48.14.15-.01.29-.05.41-.12m11.57 3.44.22.14v.01c.27.16.35.49.19.74l-.55.96c-.16.27-.49.35-.74.19l-.22-.14-.06.04c-.062.04-.128.083-.21.12v.25c0 .3-.25.55-.55.55h-1.1c-.3 0-.55-.25-.55-.55v-.25l-.135-.08-.135-.08-.22.14c-.27.17-.6.06-.74-.19l-.55-.96c-.14-.27-.06-.6.19-.74l.22-.14v-.3l-.22-.14a.526.526 0 0 1-.19-.74l.55-.96a.526.526 0 0 1 .74-.19l.22.14.061-.04a1.4 1.4 0 0 1 .21-.12v-.25c0-.3.25-.55.55-.55h1.1c.3 0 .55.25.55.55v.27q.041.025.091.048a.6.6 0 0 1 .178.112l.22-.14a.525.525 0 0 1 .74.19l.55.96c.17.27.06.6-.19.74l-.22.14zm-3.33.71a1.23 1.23 0 1 0 1.74-1.74 1.23 1.23 0 0 0-1.74 1.74" clip-rule="evenodd"/></svg>