<svg xmlns="http://www.w3.org/2000/svg" id="pressure" width="24" height="24" viewBox="0 0 24 24"><path fill-rule="evenodd" d="M6.767 6.817A7.33 7.33 0 0 0 4.62 12a7.34 7.34 0 0 0 7.33 7.33V22A10 10 0 1 1 22 12c0 .171-.013.34-.025.507a7 7 0 0 0-.025.493h-2.74q.066-.499.07-1A7.33 7.33 0 0 0 6.767 6.817M19.63 14.8a2.37 2.37 0 0 1 1.62.63l.06.07a2.35 2.35 0 0 1-.09 3.3L17.95 22l-1.24-1.2-2-2a2.301 2.301 0 0 1 1.59-4c.622 0 1.22.24 1.67.67a2.4 2.4 0 0 1 .66-.44 2.3 2.3 0 0 1 1-.23m-5.11-3.48q.096.333.1.68a2.8 2.8 0 0 1-.2 1 2.65 2.65 0 0 1-2.47 1.67 2.67 2.67 0 0 1 0-5.34q.347.004.68.1l2.2-2.2 1.89 1.89z" clip-rule="evenodd"/></svg>