<svg xmlns="http://www.w3.org/2000/svg" id="rack_move" width="24" height="24" viewBox="0 0 24 24"><path fill-rule="evenodd" d="M6 17h7v2H6c-.53 0-1.03-.21-1.41-.59C4.21 18.04 4 17.53 4 17v-4H2v-2h2c.53 0 1.03.21 1.41.59.38.37.59.88.59 1.41zm12 2h-3v-2h3v-3l4 4-4 4zm0-13h3v6h-3zm-5-3h3v2h-3zm5 0h3v2h-3zM8.252 14.334A1.5 1.5 0 0 1 8 13.5V6h3v7.5a1.5 1.5 0 0 1-1.208 1.471 1.5 1.5 0 0 1-1.54-.637M8 3h3v2H8zm7.074 11.886A1.5 1.5 0 0 1 13 13.5V6h3v7.5a1.5 1.5 0 0 1-.926 1.386" clip-rule="evenodd"/></svg>