<svg xmlns="http://www.w3.org/2000/svg" id="remote_access_disabled" width="24" height="24" viewBox="0 0 24 24"><path fill-rule="evenodd" d="m13.13 13.13-2.05-2.05-1.72-1.72L7 7 5 5 3.5 3.5 2.09 4.91l.59.6A2 2 0 0 0 2 7v10a2 2 0 0 0 2 2h4v2h8v-2h.17l2.92 2.91 1.41-1.41L19 19zM4 17V7h.17l3.16 3.16a10 10 0 0 0-1.66 1.1l1.43 1.43a7.5 7.5 0 0 1 1.75-1l1.56 1.55a6.2 6.2 0 0 0-1.88.88L10 15.56a4 4 0 0 1 2.2-.56l2 2zM20 5H7.83l2 2H20v10h-.17l1.49 1.49A2 2 0 0 0 22 17V7a2 2 0 0 0-2-2m-1.67 6.26-1.43 1.43a7.8 7.8 0 0 0-2.76-1.39L11.84 9a10 10 0 0 1 6.49 2.26" clip-rule="evenodd"/></svg>