<svg xmlns="http://www.w3.org/2000/svg" id="robotic_arm" width="24" height="24" viewBox="0 0 24 24"><path d="m21.75 10.36-1.4-1.63a1.92 1.92 0 0 0-.047-1.593A2 2 0 0 0 18.07 6.05l-1.19-1.39A2.1 2.1 0 0 0 17 4a2 2 0 0 0-2-2 2 2 0 0 0-1.72 1H9.72A2 2 0 0 0 8 2a2 2 0 0 0-2 2 2 2 0 0 0 1 1.72V11H6a2 2 0 0 0-2 2v2a2 2 0 0 0-2 2v3a2 2 0 0 0 2 2h8a2 2 0 0 0 2-2v-3a2 2 0 0 0-2-2v-2a2 2 0 0 0-2-2H9V5.72c.3-.17.55-.42.72-.72h3.56A2 2 0 0 0 15 6a1.5 1.5 0 0 0 .37 0l1.23 1.4a1.9 1.9 0 0 0 .11 1.48l-1.42 1.41A1 1 0 0 0 15 11v4h2v-3.59L18.41 10h.18L20 11.41V15h2v-4a1 1 0 0 0-.25-.64M12 17v3H4v-3zm-2-2H6v-2h4z"/></svg>