<svg xmlns="http://www.w3.org/2000/svg" id="ruler" width="24" height="24" viewBox="0 0 24 24"><path d="m21.685 6.83-4.24-4.24c-.39-.39-.9-.59-1.41-.59s-1.02.2-1.41.59L2.585 14.6c-.78.78-.78 2.05 0 2.83l4.24 4.24c.39.39.9.59 1.41.59s1.02-.2 1.41-.59l12.02-12.02c.78-.78.78-2.05 0-2.83zM8.245 20.26l-4.24-4.24 1.06-1.06 2.83 2.83 1.41-1.41-2.83-2.83 1.41-1.41 2.12 2.12 1.41-1.41-2.12-2.12 1.41-1.41 2.83 2.83 1.41-1.41-2.83-2.83 1.41-1.41 2.12 2.12 1.41-1.41-2.12-2.12 1.06-1.06 4.24 4.24-12.02 12.02z"/></svg>