<svg xmlns="http://www.w3.org/2000/svg" id="scale" width="24" height="24" viewBox="0 0 24 24"><path fill-rule="evenodd" d="M4.01 2h15.58a2 2 0 0 1 2 2.2l-1.6 16a2 2 0 0 1-2 1.8H5.61a2 2 0 0 1-2-1.8l-1.6-16a2 2 0 0 1 2-2.2m1.6 18h12.38l1.6-16H4.01zm2.241-6.225a1 1 0 0 1-.331-.515L6.19 9.75A1.62 1.62 0 0 1 6.57 8a8.2 8.2 0 0 1 5.23-2 8.2 8.2 0 0 1 5.23 2 1.62 1.62 0 0 1 .38 1.73l-1.33 3.53a1 1 0 0 1-.9.74H8.42a1 1 0 0 1-.569-.225M15.44 9.28A6.1 6.1 0 0 0 11.8 8a6.1 6.1 0 0 0-3.62 1.28l1 2.72h1.62l1-3 1 3h1.64z" clip-rule="evenodd"/></svg>