<svg xmlns="http://www.w3.org/2000/svg" id="settings_admin" width="24" height="24" viewBox="0 0 24 24"><path d="M14.99 21h-1.455l-.942-1.927a1.3 1.3 0 0 0-.478-.54c-.206-.13-.443-.2-.684-.2H5.559c-.241 0-.478.07-.684.2-.205.131-.37.318-.478.54L3.455 21H2l1.228-2.527c.215-.443.547-.816.958-1.076s.884-.398 1.367-.397h5.884c.988 0 1.884.573 2.325 1.473zM8.474 9.565h.122a1.907 1.907 0 0 1 1.838 1.896v.175a1.93 1.93 0 0 1-1.943 1.808h-.105a1.9 1.9 0 0 1-1.837-1.896v-.079c0-1.048.866-1.904 1.925-1.904m0-1.556A3.47 3.47 0 0 0 5 11.46v.087A3.473 3.473 0 0 0 8.369 15h.157A3.476 3.476 0 0 0 12 11.67v-.218A3.473 3.473 0 0 0 8.631 8h-.157zm9.266 3.096h-1.48a.74.74 0 0 1-.74-.74v-.333c-.111-.074-.26-.148-.37-.222l-.297.185a.72.72 0 0 1-.999-.26l-.74-1.295c-.185-.37-.074-.814.259-.999l.296-.185V6.85l-.296-.185c-.37-.222-.481-.666-.26-1l.741-1.295c.222-.37.666-.48 1-.259l.296.185c.11-.074.222-.148.37-.222V3.74c0-.407.333-.74.74-.74h1.48c.407 0 .74.333.74.74v.37c.111.074.26.111.37.222l.297-.185a.72.72 0 0 1 .999.26l.74 1.295a.72.72 0 0 1-.259.999l-.296.185v.37l.296.185c.37.222.481.666.26 1l-.741 1.295c-.222.37-.666.481-1 .259l-.296-.185a3 3 0 0 1-.37.222v.333c0 .407-.333.74-.74.74M17 5.37c-.925 0-1.665.74-1.665 1.665S16.075 8.7 17 8.7a1.66 1.66 0 0 0 1.666-1.666c0-.925-.74-1.664-1.666-1.664m0 2.59a.916.916 0 0 1-.925-.925c0-.518.407-.925.925-.925s.925.407.925.925A.915.915 0 0 1 17 7.96"/></svg>