<svg xmlns="http://www.w3.org/2000/svg" id="settings" width="24" height="24" viewBox="0 0 24 24"><path fill-rule="evenodd" d="M14 3.9V3h-4v2.2l-1.1.5c-.209.14-.418.23-.593.306A4 4 0 0 0 8.1 6.1l-1 .7L6 6.2l-.8-.5-2 3.5.8.5 1.1.7-.1 1.2v.8l.1 1.3-1.1.6-.8.5 2 3.5.8-.5 1.1-.6 1 .7c.15.05.275.125.4.2s.25.15.4.2l1.1.6V21h4v-2.2l1.1-.5c.21-.07.419-.188.594-.287q.115-.066.206-.113l1-.7 1.1.6.8.3 2-3.5-.8-.5-1.1-.6.1-1.2v-.8l-.1-1.2 1.1-.6.8-.5-2-3.5-.8.5-1.1.6-1-.7c-.15-.05-.275-.125-.4-.2s-.25-.15-.4-.2L14 5.1zM10 1h4c1.1 0 2 .9 2 2v.9c.4.2.7.4 1 .6l.8-.5c.3-.2.7-.3 1-.3.7 0 1.3.4 1.7 1l2 3.5c.6.9.3 2.1-.7 2.7l-.8.5v1.2l.8.5c.9.5 1.3 1.7.7 2.7l-2 3.5c-.3.6-1 1-1.7 1-.3 0-.7-.1-1-.3l-.8-.5c-.15.1-.325.2-.5.3s-.35.2-.5.3v.9c0 1.1-.9 2-2 2h-4c-1.1 0-2-.9-2-2v-.9c-.4-.2-.7-.4-1-.6l-.8.4c-.3.2-.7.3-1 .3-.7 0-1.3-.4-1.7-1l-2-3.5c-.6-.9-.3-2.1.7-2.7l.8-.4v-1.2l-.8-.5c-.9-.5-1.3-1.7-.7-2.7l2-3.5c.3-.6 1-1 1.7-1 .3 0 .7.1 1 .3l.8.5c.15-.1.325-.2.5-.3s.35-.2.5-.3V3c0-1.1.9-2 2-2M7.5 12c0 2.5 2 4.5 4.5 4.5s4.5-2 4.5-4.5-2-4.5-4.5-4.5-4.5 2-4.5 4.5m2 0c0-1.4 1.1-2.5 2.5-2.5s2.5 1.1 2.5 2.5-1.1 2.5-2.5 2.5-2.5-1.1-2.5-2.5" clip-rule="evenodd"/></svg>