<svg xmlns="http://www.w3.org/2000/svg" id="share" width="24" height="24" viewBox="0 0 24 24"><path fill-rule="evenodd" d="M17.5 20c-.827 0-1.5-.673-1.5-1.5s.673-1.5 1.5-1.5 1.5.673 1.5 1.5-.673 1.5-1.5 1.5M5 12c0-.827.673-1.5 1.5-1.5S8 11.173 8 12s-.673 1.5-1.5 1.5S5 12.827 5 12m12.5-8c.827 0 1.5.673 1.5 1.5S18.327 7 17.5 7 16 6.327 16 5.5 16.673 4 17.5 4m0 11c-.912 0-1.735.357-2.358.929l-5.278-3.015c.08-.293.136-.596.136-.914s-.056-.621-.136-.914l5.278-3.015A3.47 3.47 0 0 0 17.5 9 3.5 3.5 0 1 0 14 5.5c0 .296.048.579.117.853L8.808 9.387A3.47 3.47 0 0 0 6.5 8.5a3.5 3.5 0 1 0 0 7c.888 0 1.69-.342 2.308-.887l5.309 3.034A3.5 3.5 0 0 0 14 18.5a3.5 3.5 0 1 0 3.5-3.5" clip-rule="evenodd"/></svg>