<svg xmlns="http://www.w3.org/2000/svg" id="social_slack" width="24" height="24" viewBox="0 0 24 24"><path fill-rule="evenodd" d="M9.361 6.202a2.106 2.106 0 0 1-2.1-2.101C7.26 2.945 8.205 2 9.36 2s2.101.945 2.101 2.101v2.101zM4.101 16.74a2.106 2.106 0 0 0 2.101-2.101v-2.101H4.101A2.106 2.106 0 0 0 2 14.638c0 1.157.945 2.101 2.101 2.101m5.26-4.202a2.106 2.106 0 0 0-2.1 2.1V19.9c0 1.156.944 2.101 2.1 2.101s2.101-.945 2.101-2.1V14.64a2.105 2.105 0 0 0-2.1-2.101m2.101-3.177a2.106 2.106 0 0 0-2.1-2.1H4.1A2.106 2.106 0 0 0 2 9.36c0 1.157.945 2.101 2.101 2.101h5.26a2.105 2.105 0 0 0 2.101-2.1m6.336 0c0-1.156.945-2.1 2.101-2.1S22 8.205 22 9.36s-.945 2.101-2.1 2.101h-2.102zm-3.16 2.101a2.106 2.106 0 0 0 2.101-2.1V4.1A2.106 2.106 0 0 0 14.64 2a2.106 2.106 0 0 0-2.101 2.101v5.26c0 1.157.944 2.101 2.1 2.101m0 6.336c1.157 0 2.101.945 2.101 2.101A2.106 2.106 0 0 1 14.64 22a2.106 2.106 0 0 1-2.101-2.1v-2.102zm-2.1-3.16c0 1.157.944 2.101 2.1 2.101H19.9A2.106 2.106 0 0 0 22 14.64a2.106 2.106 0 0 0-2.1-2.101h-5.261a2.105 2.105 0 0 0-2.101 2.1" clip-rule="evenodd"/></svg>