<svg xmlns="http://www.w3.org/2000/svg" id="social_instagram" width="24" height="24" viewBox="0 0 24 24"><path fill-rule="evenodd" d="M11.93 4.63h3.63a5.1 5.1 0 0 1 1.72.37 3.1 3.1 0 0 1 1.67 1.67 5 5 0 0 1 .31 1.67c.05 1 .06 1.23.06 3.64s0 2.68-.06 3.63c.013.58-.075 1.16-.26 1.71a3 3 0 0 1-.68 1 3 3 0 0 1-1 .66 5.1 5.1 0 0 1-1.68.31c-.362 0-.627.008-.954.017-.522.014-1.2.033-2.676.033-2.4 0-2.7 0-3.65-.05A5 5 0 0 1 6.65 19a2.9 2.9 0 0 1-1-.66 3 3 0 0 1-.69-1 5.3 5.3 0 0 1-.31-1.67v-7.3c0-.567.09-1.131.27-1.67a3 3 0 0 1 .69-1 2.8 2.8 0 0 1 1-.66 5 5 0 0 1 1.67-.32H12zm0-1.63H8.21A6.7 6.7 0 0 0 6 3.47a4.7 4.7 0 0 0-1.56 1 4.6 4.6 0 0 0-1 1.59A7.4 7.4 0 0 0 3 8.29v7.43a7.4 7.4 0 0 0 .42 2.18 4.5 4.5 0 0 0 1 1.59c.45.447.993.788 1.59 1a6.4 6.4 0 0 0 2.24.51h3.68c2.41 0 2.75 0 3.71-.06a6.3 6.3 0 0 0 2.18-.42 4.3 4.3 0 0 0 1.6-1 4.5 4.5 0 0 0 1-1.59 6.5 6.5 0 0 0 .51-2.21c.05-1 .06-1.27.06-3.71 0-1.5-.023-2.198-.04-2.737-.011-.338-.02-.613-.02-.983a6.8 6.8 0 0 0-.42-2.18 4.5 4.5 0 0 0-1-1.59 4.7 4.7 0 0 0-1.6-1 6.5 6.5 0 0 0-2.18-.42 32 32 0 0 0-3.8-.1m0 4.38a4.6 4.6 0 0 0-2.57.8 4.53 4.53 0 0 0-1.69 2.08 4.62 4.62 0 0 0 1 5 4.64 4.64 0 0 0 5 1A4.65 4.65 0 0 0 16.59 12a4.63 4.63 0 0 0-2.88-4.28 4.55 4.55 0 0 0-1.78-.34m0 7.62a3 3 0 0 1-2.78-1.85A3.13 3.13 0 0 1 9 11.41a3 3 0 0 1 .8-1.53 3 3 0 0 1 1.54-.82 2.93 2.93 0 0 1 1.73.17A3 3 0 0 1 14.93 12a3 3 0 0 1-3 3m5.73-7.2a1.1 1.1 0 0 0 .19-.6 1.07 1.07 0 0 0-.32-.72 1.05 1.05 0 0 0-.76-.32 1 1 0 0 0-.6.18c-.18.12-.32.29-.4.49a1 1 0 0 0-.06.62c.039.209.14.4.29.55.154.138.345.229.55.26.211.04.43.02.63-.06a1 1 0 0 0 .48-.4" clip-rule="evenodd"/></svg>