<svg xmlns="http://www.w3.org/2000/svg" id="social_drive" width="24" height="24" viewBox="0 0 24 24"><path fill-rule="evenodd" d="M8.209 3.055a1 1 0 0 1 .866-.5h5.85a1 1 0 0 1 .866.5l6.825 11.82a1 1 0 0 1 0 1l-2.925 5.07a1 1 0 0 1-.866.5H5.175a1 1 0 0 1-.866-.5l-2.925-5.07a1 1 0 0 1 0-1zm1.443 1.5-6.247 10.82 2.348 4.07h12.494l2.348-4.07-6.247-10.82z" clip-rule="evenodd"/><path fill-rule="evenodd" d="M1.25 15.375a1 1 0 0 1 1-1h13.645a1 1 0 1 1 0 2H2.25a1 1 0 0 1-1-1" clip-rule="evenodd"/><path fill-rule="evenodd" d="M11.5 7.759a1 1 0 0 1 1.366.366l6.825 11.82a1 1 0 0 1-1.732 1l-6.825-11.82a1 1 0 0 1 .366-1.366" clip-rule="evenodd"/><path fill-rule="evenodd" d="M15.425 2.689a1 1 0 0 1 .366 1.366l-6.82 11.82a1 1 0 1 1-1.732-1l6.82-11.82a1 1 0 0 1 1.366-.366" clip-rule="evenodd"/></svg>