<svg xmlns="http://www.w3.org/2000/svg" id="social_google_plus" width="24" height="24" viewBox="0 0 24 24"><path fill-rule="evenodd" d="M8.58 13.13v-1.46l5.19.05v.56a4.997 4.997 0 0 1-5.07 5.24c-.74.03-1.477-.09-2.17-.35A5.4 5.4 0 0 1 4.68 16a5.6 5.6 0 0 1-1.24-1.85 5.47 5.47 0 0 1 0-4.3 5.6 5.6 0 0 1 1.24-1.8 5.4 5.4 0 0 1 1.85-1.17 5.5 5.5 0 0 1 2.17-.35 5.57 5.57 0 0 1 3.89 1.55l-1.22 1a4 4 0 1 0-2.7 6.91c.812.007 1.6-.277 2.22-.8a3.45 3.45 0 0 0 1.17-2.06zm10.3-3.61v2.1H21v1.34h-2.12v2.1h-1.36v-2.1h-2.13v-1.34h2.13v-2.1z" clip-rule="evenodd"/></svg>