<svg xmlns="http://www.w3.org/2000/svg" id="social_linkedin" width="24" height="24" viewBox="0 0 24 24"><path fill-rule="evenodd" d="M7.36 4.58a2 2 0 0 0-1-.54 2 2 0 0 0-2 .83 1.95 1.95 0 0 0-.19 1.85q.151.359.42.64c.181.184.4.327.64.42.244.102.506.153.77.15a2 2 0 0 0 1.1-.32c.32-.22.573-.524.73-.88.15-.36.189-.757.11-1.14a2 2 0 0 0-.58-1.01m.26 4.75H4.31V20h3.31zm6.66.13A3.67 3.67 0 0 1 16.12 9C18.38 9 20 10.39 20 13.25V20h-3.33v-5.59c0-1.55-.48-2.4-1.79-2.4s-2 .89-2 2.4V20H9.71V9.33h3.19v1.43a3.6 3.6 0 0 1 1.38-1.3" clip-rule="evenodd"/></svg>