<svg xmlns="http://www.w3.org/2000/svg" id="structure" width="24" height="24" viewBox="0 0 24 24"><path d="M21.8 15h-1.3v-2a2 2 0 0 0-2-2H13V9h.8A1.2 1.2 0 0 0 15 7.8V4.2A1.2 1.2 0 0 0 13.8 3h-3.6A1.2 1.2 0 0 0 9 4.2v3.6A1.2 1.2 0 0 0 10.2 9h.8v2H5.5a2 2 0 0 0-2 2v2H2.2A1.2 1.2 0 0 0 1 16.2v3.6A1.2 1.2 0 0 0 2.2 21h3.6A1.2 1.2 0 0 0 7 19.8v-3.6A1.2 1.2 0 0 0 5.8 15h-.3v-2H11v2h-.8A1.2 1.2 0 0 0 9 16.2v3.6a1.2 1.2 0 0 0 1.2 1.2h3.6a1.2 1.2 0 0 0 1.2-1.2v-3.6a1.2 1.2 0 0 0-1.2-1.2H13v-2h5.5v2h-.3a1.2 1.2 0 0 0-1.2 1.2v3.6a1.2 1.2 0 0 0 1.2 1.2h3.6a1.2 1.2 0 0 0 1.2-1.2v-3.6a1.2 1.2 0 0 0-1.2-1.2"/></svg>