<svg xmlns="http://www.w3.org/2000/svg" id="sun" width="24" height="24" viewBox="0 0 24 24"><path d="M11 5V2h2v3zm0 17v-3h2v3zm8-9v-2h3v2zM2 13v-2h3v2zm15.7-5.3-1.4-1.4 1.75-1.8 1.45 1.45zM5.95 19.5 4.5 18.05l1.8-1.75 1.4 1.4zm12.1 0-1.75-1.8 1.4-1.4 1.8 1.75zM6.3 7.7 4.5 5.95 5.95 4.5 7.7 6.3zM12 18q-2.5 0-4.25-1.75T6 12t1.75-4.25T12 6t4.25 1.75T18 12t-1.75 4.25T12 18m0-2q1.675 0 2.838-1.162Q16 13.676 16 12q0-1.675-1.162-2.838Q13.676 8 12 8q-1.675 0-2.838 1.162Q8 10.325 8 12t1.162 2.838Q10.325 16 12 16"/></svg>