<svg xmlns="http://www.w3.org/2000/svg" id="support_technical" width="24" height="24" viewBox="0 0 24 24"><path d="M22 5.927a3 3 0 0 0-2-2.82v2.82h-2v-2.82a3 3 0 0 0 0 5.64v5.18a1 1 0 0 0 2 0v-5.18a3 3 0 0 0 2-2.82m-7.01 15.18h-1.455l-.942-1.927a1.3 1.3 0 0 0-.478-.54c-.206-.13-.443-.2-.684-.2H5.559c-.241 0-.478.07-.684.2-.205.131-.37.318-.478.54l-.942 1.927H2l1.228-2.527a2.64 2.64 0 0 1 .958-1.077c.41-.26.884-.397 1.367-.396h5.884c.988 0 1.884.573 2.325 1.473zM8.474 9.671h.122a1.907 1.907 0 0 1 1.838 1.896v.175a1.93 1.93 0 0 1-1.943 1.81h-.105a1.9 1.9 0 0 1-1.837-1.897v-.079c0-1.048.866-1.905 1.925-1.905m0-1.555A3.47 3.47 0 0 0 5 11.567v.088a3.473 3.473 0 0 0 3.369 3.452h.157A3.476 3.476 0 0 0 12 11.777v-.218a3.47 3.47 0 0 0-3.369-3.452h-.157z"/></svg>