<svg xmlns="http://www.w3.org/2000/svg" id="table_favourite" width="24" height="24" viewBox="0 0 24 24"><path fill-rule="evenodd" d="M10 19h3v2H5a2 2 0 0 1-2-2V5a2 2 0 0 1 2-2h14a2 2 0 0 1 2 2v8h-2v-3h-9zm9-14h-9v3h9zM5 19h3v-9H5zM5 8h3V5H5zm12.692 7.207A.33.33 0 0 1 18 15c.126 0 .254.068.309.207l.654 1.601 1.727.126c.297.021.42.392.191.586l-1.323 1.116.415 1.677a.335.335 0 0 1-.325.414.33.33 0 0 1-.174-.052L18 19.766l-1.473.91a.33.33 0 0 1-.174.052.335.335 0 0 1-.325-.414l.415-1.677-1.323-1.116a.332.332 0 0 1 .188-.586l1.73-.126z" clip-rule="evenodd"/></svg>