<svg xmlns="http://www.w3.org/2000/svg" id="target_virtual" width="24" height="24" viewBox="0 0 24 24"><path fill-rule="evenodd" d="M12 6.005A6 6 0 0 0 8.53 7.11L7.11 5.7A7.9 7.9 0 0 1 11 4.07V2h2v2.07a7.9 7.9 0 0 1 3.89 1.63l-1.42 1.41A6 6 0 0 0 12 6.005M7.11 15.47 5.7 16.89A7.9 7.9 0 0 1 4.07 13H2v-2h2.07A7.9 7.9 0 0 1 5.7 7.11l1.41 1.42a6 6 0 0 0 0 6.94M19.93 11a7.9 7.9 0 0 0-1.63-3.89l-1.41 1.42a6 6 0 0 1 0 6.94l1.41 1.42A7.9 7.9 0 0 0 19.93 13H22v-2zM12 17.995a6 6 0 0 0 3.47-1.105l1.42 1.41A7.9 7.9 0 0 1 13 19.93V22h-2v-2.07a7.9 7.9 0 0 1-3.89-1.63l1.42-1.41A6 6 0 0 0 12 17.995" clip-rule="evenodd"/></svg>