<svg xmlns="http://www.w3.org/2000/svg" id="text_bold" width="24" height="24" viewBox="0 0 24 24"><path d="M7 19V5h6.28a4.6 4.6 0 0 1 3.07 1 3.2 3.2 0 0 1 1.13 2.56A3.06 3.06 0 0 1 17 10.3a3.16 3.16 0 0 1-1.32 1.1A3.61 3.61 0 0 1 18 14.9a4 4 0 0 1-.6 2.21 3.8 3.8 0 0 1-1.64 1.41 5.5 5.5 0 0 1-2.36.48zm6.24-8.66a1.57 1.57 0 0 0 1-.33 1.15 1.15 0 0 0 .39-.93 1.15 1.15 0 0 0-.39-.93 1.57 1.57 0 0 0-1-.33h-3v2.54zm-.08 5.74a1.8 1.8 0 0 0 1.26-.42 1.46 1.46 0 0 0 .46-1.14 1.49 1.49 0 0 0-.46-1.16 1.8 1.8 0 0 0-1.26-.42h-3v3.14z"/></svg>