<svg xmlns="http://www.w3.org/2000/svg" id="thermometer_levels" width="24" height="24" viewBox="0 0 24 24"><path fill-rule="evenodd" d="M15 4v9.01c1.21.92 2 2.35 2 3.98 0 2.76-2.24 5-5 5-.35 0-.71-.03-1.07-.11-1.94-.4-3.48-2-3.84-3.95-.37-2.01.48-3.83 1.91-4.91V4c0-1.1.9-2 2-2h2c1.1 0 2 .9 2 2m-2 4V4h-2v4zm-1.66 11.93c.22.05.44.07.66.07v-.01c1.65 0 3-1.35 3-3 0-.93-.44-1.8-1.21-2.38l-.79-.6V9.99h-2v4.02l-.79.6c-.93.71-1.36 1.81-1.15 2.96.21 1.16 1.15 2.13 2.28 2.36M17 2h4v2h-4zm0 4h4v2h-4zm4 4h-4v2h4z" clip-rule="evenodd"/></svg>