<svg xmlns="http://www.w3.org/2000/svg" id="thermal_block" width="24" height="24" viewBox="0 0 24 24"><path fill-rule="evenodd" d="M13.18 10h-2.52a2.42 2.42 0 0 0 .51-3.45A4.29 4.29 0 0 1 10.82 2h2.52a2.41 2.41 0 0 0-.51 3.45 4.29 4.29 0 0 1 .35 4.55M5 12h14a2 2 0 0 1 2 2v6a2 2 0 0 1-2 2H5a2 2 0 0 1-2-2v-6a2 2 0 0 1 2-2m12 8h2v-6H5v6h2v-4h2v4h2v-4h2v4h2v-4h2zM5.66 10h2.52a4.29 4.29 0 0 0-.35-4.55A2.41 2.41 0 0 1 8.34 2H5.82a4.29 4.29 0 0 0 .35 4.55A2.42 2.42 0 0 1 5.66 10m12.52 0h-2.52a2.42 2.42 0 0 0 .51-3.45A4.29 4.29 0 0 1 15.82 2h2.52a2.41 2.41 0 0 0-.51 3.45 4.29 4.29 0 0 1 .35 4.55" clip-rule="evenodd"/></svg>