<svg xmlns="http://www.w3.org/2000/svg" id="tip" width="24" height="24" viewBox="0 0 24 24"><path fill-rule="evenodd" d="M11 2h2v2h-2zm9 9h2v2h-2zM4 11H2v2h2zm.232-5.36 1.414-1.414L7.06 5.64 5.646 7.054zM18.36 4.231l-1.415 1.415L18.36 7.06l1.414-1.414zm-4.05 4.506A4 4 0 0 0 12 8a4 4 0 0 0-2.51 7.11A4 4 0 0 1 11 18.23V20h2v-1.77a4 4 0 0 1 1.5-3.11 4 4 0 0 0-.189-6.383M8.118 7.413A6 6 0 0 1 12 6a6 6 0 0 1 3.75 10.68 2 2 0 0 0-.75 1.55V20a2 2 0 0 1-2 2h-2a2 2 0 0 1-2-2v-1.77a2 2 0 0 0-.77-1.61A6 6 0 0 1 6.07 11a6 6 0 0 1 2.048-3.587" clip-rule="evenodd"/></svg>