<svg xmlns="http://www.w3.org/2000/svg" id="tumor_board" width="24" height="24" viewBox="0 0 24 24"><path fill-rule="evenodd" d="M3.11 4h17.78C22.05 4 23 4.9 23 6v9h-2V6c0 .012-.014.01-.039.006L20.89 6H3.11c-.07 0-.11.04-.11.04V15H1V6c0-1.1.95-2 2.11-2M8.5 15h-.12c-.9-.03-1.75-.4-2.38-1.04s-1-1.5-1-2.4v-.12c.01-.46.1-.91.28-1.33s.43-.8.76-1.12c.32-.32.71-.57 1.13-.74S8.04 8 8.5 8h.12c.9.028 1.756.4 2.39 1.04.63.64.99 1.5.99 2.4v.23c-.04.9-.43 1.75-1.08 2.37S9.4 15 8.5 15m-1.38-4.12c-.08.17-.12.37-.12.56l.01.01v.12c.01.38.17.73.43 1s.61.42.99.44h.08a1.47 1.47 0 0 0 1.5-1.36v-.2c-.01-.38-.17-.73-.43-1s-.61-.42-.99-.44h-.08q-.3-.015-.57.09c-.18.07-.35.18-.49.31s-.25.29-.33.47M11.49 17c.48.01.96.15 1.37.41.42.26.75.63.97 1.06L15 21H2l1.24-2.53c.2-.45.54-.82.95-1.08.42-.26.9-.39 1.39-.39zm7 0c.48.01.96.15 1.37.41.42.26.75.63.97 1.06L22 21h-4.8l-1.6-3.46q-.15-.285-.36-.54zm-3.11-2a3.45 3.45 0 0 1-2.1-.81 5.44 5.44 0 0 0 .72-2.52v-.23c0-.93-.25-1.84-.71-2.65.62-.51 1.4-.79 2.21-.79h.12c.9.028 1.756.4 2.39 1.04.63.64.99 1.5.99 2.4v.23c-.04.9-.43 1.75-1.08 2.37S16.4 15 15.5 15z" clip-rule="evenodd"/></svg>