<svg xmlns="http://www.w3.org/2000/svg" id="user_group" width="24" height="24" viewBox="0 0 24 24"><path fill-rule="evenodd" d="M8.5 13h-.12A3.48 3.48 0 0 1 5 9.56v-.12A3.47 3.47 0 0 1 8.5 6h.12A3.47 3.47 0 0 1 12 9.44v.23A3.48 3.48 0 0 1 8.5 13M7.118 8.877A1.5 1.5 0 0 0 7 9.44v.12A1.48 1.48 0 0 0 8.42 11h.08A1.48 1.48 0 0 0 10 9.64v-.2A1.48 1.48 0 0 0 8.58 8H8.5a1.45 1.45 0 0 0-1.382.877M15.38 13a3.48 3.48 0 0 1-2.1-.81A5.44 5.44 0 0 0 14 9.67v-.23a5.4 5.4 0 0 0-.71-2.65A3.5 3.5 0 0 1 15.5 6h.12A3.47 3.47 0 0 1 19 9.44v.23A3.48 3.48 0 0 1 15.5 13zm4.483 2.412c.412.258.746.624.967 1.058L22 19h-4.8l-1.6-3.46a3.4 3.4 0 0 0-.36-.54h3.25c.487.01.961.153 1.373.412M11.49 15H5.58a2.56 2.56 0 0 0-2.34 1.47L2 19h13l-1.17-2.53A2.69 2.69 0 0 0 11.49 15" clip-rule="evenodd"/></svg>