<svg xmlns="http://www.w3.org/2000/svg" id="user_assign" width="22" height="24" viewBox="0 0 22 24"><path d="M12.834 14H6.848c-.679 0-1.348.2-1.925.59a3.95 3.95 0 0 0-1.357 1.62L1.834 20h2.053l1.329-2.89c.156-.33.385-.61.678-.81s.624-.3.963-.3h5.977zm-1.971-2h.165c1.952 0 3.556-1.68 3.639-3.8v-.25c0-1.03-.376-2.01-1.036-2.75-.659-.735-1.552-1.165-2.493-1.2h-.165c-.963 0-1.889.42-2.567 1.16S7.343 6.9 7.333 7.95v.1c0 1.03.376 2.01 1.036 2.75s1.55 1.16 2.494 1.2M8.956 7.96c0-1.2.908-2.18 2.017-2.18h.128c1.072.05 1.925 1 1.925 2.17v.2a2.36 2.36 0 0 1-.642 1.48c-.376.39-.88.6-1.393.59h-.11a1.9 1.9 0 0 1-1.366-.66c-.357-.4-.559-.94-.559-1.51zM20.166 16h-2.75v-2l-2.75 3 2.75 3v-2h2.75z"/></svg>