<svg xmlns="http://www.w3.org/2000/svg" id="user" width="24" height="24" viewBox="0 0 24 24"><path fill-rule="evenodd" d="M12.15 5.779H12a2.19 2.19 0 0 0-2.22 2.179v.09a2.18 2.18 0 0 0 2.1 2.168H12a2.2 2.2 0 0 0 2.25-2.109v-.16a2.19 2.19 0 0 0-2.1-2.168M9.172 5.17A4 4 0 0 1 12 4h.15A4 4 0 0 1 16 7.948v.34a3.997 3.997 0 0 1-4 3.807h-.15A4 4 0 0 1 8 8.097v-.1c0-1.06.421-2.076 1.172-2.826M19.76 19.99H22l-1.89-3.788a4 4 0 0 0-3.58-2.208H7.47a4 4 0 0 0-3.58 2.208L2 20h2.24l1.45-2.898a2 2 0 0 1 1.83-1.1h9a2 2 0 0 1 1.79 1.1z" clip-rule="evenodd"/></svg>