<svg xmlns="http://www.w3.org/2000/svg" id="video_off" width="24" height="24" viewBox="0 0 24 24"><path fill-rule="evenodd" d="m21.49 20.99-1.41 1.41-3.15-3.15c-.28.15-.6.24-.93.24H3c-.53 0-1.03-.22-1.41-.59S1 18.02 1 17.49v-12c0-.53.21-1.03.59-1.41.02-.03.09-.08.09-.08l-.59-.59L2.5 2zM3 5.5v12h12.17l-12-12zm19.57.53c.14.14.25.31.32.49.08.18.11.38.11.58v8.8c0 .2-.04.4-.11.58a1.43 1.43 0 0 1-.81.81c-.18.08-.38.11-.58.11-.24-.02-.48-.09-.7-.2l-.63-.36L16 12.67V5.5H8.83l-2-2H16c.53 0 1.03.22 1.41.59s.59.88.59 1.41v1.9l2.8-1.6c.22-.11.46-.18.7-.2.2 0 .4.04.58.11s.35.18.49.32M18 13.4l3 1.7V8l-3 1.7z" clip-rule="evenodd"/></svg>