<svg xmlns="http://www.w3.org/2000/svg" id="video_recording" width="24" height="24" viewBox="0 0 24 24"><path fill-rule="evenodd" d="M20 15.34V17H4V7h16v1.66c.32-.1.65-.16 1-.16q.512.01 1 .16V7c0-1.1-.9-2-2-2H4c-1.1 0-2 .9-2 2v10c0 1.1.9 2 2 2h16c1.1 0 2-.9 2-2v-1.66c-.32.1-.65.16-1 .16s-.68-.07-1-.16m-4.34-4.63c-.19.13-.34.3-.44.52h.01c-.1.22-.15.47-.15.74v.05c0 .27.05.52.15.74s.25.39.44.52c.2.13.42.19.67.19s.48-.05.65-.17.33-.28.47-.49l.84.6q-.69 1.08-2.01 1.08c-.45 0-.86-.11-1.22-.32s-.64-.5-.84-.88c-.2-.37-.3-.8-.3-1.28v-.04c0-.48.1-.9.3-1.28s.48-.67.84-.88.77-.32 1.22-.32.85.09 1.18.28c.34.19.61.46.82.81l-.84.6c-.13-.21-.29-.38-.47-.49s-.39-.17-.65-.17-.48.06-.67.19m-6.41.18c0-.27-.06-.51-.19-.7s-.3-.34-.52-.44q-.33-.15-.72-.15H5.7v4.81h1.1v-1.97h.79c.15 0 .25.03.32.1s.11.18.13.32l.18 1.55h1.09l-.19-1.52c-.06-.53-.29-.83-.68-.89.24-.09.43-.22.58-.41s.23-.42.23-.69zm-1.23.48c-.09.08-.22.13-.37.13H6.8v-.97h.85c.15 0 .27.04.37.13.09.08.14.2.14.35s-.05.28-.14.36m13.52-.76h.01c.55.22.95.76.95 1.39s-.39 1.17-.95 1.39h-.01c-.17.06-.35.1-.54.1s-.37-.04-.54-.1h-.01c-.55-.22-.95-.76-.95-1.39s.39-1.17.95-1.39h.01c.17-.06.35-.1.54-.1s.37.04.54.1m-8-.01v-1h-3.52v4.8h3.52v-1h-2.43v-.98h1.97v-.98h-1.97v-.84z" clip-rule="evenodd"/></svg>