<svg xmlns="http://www.w3.org/2000/svg" id="visibility_off" width="24" height="24" viewBox="0 0 24 24"><path fill-rule="evenodd" d="m18.12 18.12-1.45-1.45-1.13-1.13-1.42-1.42L2.41 2.41 1 3.83l3.31 3.31A14.8 14.8 0 0 0 1 12s3 8 11 8a10.8 10.8 0 0 0 4.3-.87L20.17 23l1.41-1.42zm-5.96-3.13A1 1 0 0 1 12 15a3.01 3.01 0 0 1-3-3 1 1 0 0 1 .01-.16zM12 18c-5.28 0-7.94-4.27-8.81-6a12.4 12.4 0 0 1 2.55-3.43l1.6 1.6A5.1 5.1 0 0 0 7 12a5 5 0 0 0 5 5c.626 0 1.246-.115 1.83-.34l.91.91A8.8 8.8 0 0 1 12 18m0-12c5.28 0 7.94 4.27 8.81 6a12.4 12.4 0 0 1-2.55 3.43l1.43 1.43A14.8 14.8 0 0 0 23 12s-3-8-11-8a10.8 10.8 0 0 0-4.3.87l1.56 1.56A8.8 8.8 0 0 1 12 6m3 6a3.01 3.01 0 0 0-3-3 1 1 0 0 0-.16.01l-1.67-1.67A5.1 5.1 0 0 1 12 7a5 5 0 0 1 5 5c0 .626-.115 1.246-.34 1.83l-1.67-1.67A1 1 0 0 0 15 12" clip-rule="evenodd"/></svg>