<svg xmlns="http://www.w3.org/2000/svg" id="autoqc_pack" width="24" height="24" viewBox="0 0 24 24"><path fill-rule="evenodd" d="M8 2h8v2H8zm12 4c.53 0 1.03.21 1.41.59.38.37.59.88.59 1.41v12c0 .53-.21 1.03-.59 1.41-.37.38-.88.59-1.41.59H4c-.53 0-1.03-.21-1.41-.59C2.21 21.04 2 20.53 2 20V8c0-.53.21-1.03.59-1.41C2.96 6.21 3.47 6 4 6zM8.94 17.39c.05-.12.06-.26.06-.39v-4H7v4c0 .27.1.52.29.71.19.18.44.29.71.29q.195.015.39-.06c.12-.05.23-.13.33-.22s.17-.21.22-.33M7 11v1h2v-1a.9.9 0 0 0-.06-.39 1.1 1.1 0 0 0-.22-.33c-.09-.1-.2-.17-.33-.22-.12-.05-.26-.06-.39-.06-.27 0-.52.1-.71.29-.18.19-.29.44-.29.71m5.94 6.39c.05-.12.06-.26.06-.39v-4h-2v4c0 .27.1.53.29.71s.44.29.71.29c.13.01.27-.01.39-.06s.24-.13.33-.22c.1-.09.17-.21.22-.33M11 11v1h2v-1c0-.27-.1-.53-.29-.71S12.27 10 12 10s-.53.1-.71.29-.29.44-.29.71m4.29-.71c-.18.19-.29.44-.29.71v1h2v-1c0-.27-.1-.53-.29-.71S16.27 10 16 10s-.53.1-.71.29m1.65 7.1c.05-.12.06-.26.06-.39v-4h-2v4q-.015.195.06.39c.05.12.13.24.22.33.09.1.21.17.33.22s.26.06.39.06c.13.01.27-.01.39-.06s.24-.13.33-.22c.1-.09.17-.2.22-.33" clip-rule="evenodd"/></svg>