<svg xmlns="http://www.w3.org/2000/svg" id="book_research" width="24" height="24" viewBox="0 0 24 24"><path fill-rule="evenodd" d="M17 20.004H8c-1.1 0-2-.9-2-2a1.003 1.003 0 0 1 1.78-.63c.35.44.94.63 1.51.63H19c1.1 0 2-.9 2-2v-11c0-1.1-.9-2-2-2H9.178a2.9 2.9 0 0 0-2.018-1 3.003 3.003 0 0 0-3.16 3v13c0 2.21 1.79 4 4 4h9zm-9-15c0-.55-.45-1-1-1s-1 .45-1 1v10.17a3 3 0 0 1 2 0zm5 9c.55 0 1-.45 1-1v-4h-2v4c0 .55.45 1 1 1m-1-6h2v-1h-2zm4 6c.55 0 1-.45 1-1v-4h-2v4c0 .55.45 1 1 1m-1-6h2v-1h-2z" clip-rule="evenodd"/></svg>