<svg xmlns="http://www.w3.org/2000/svg" id="brightness" width="24" height="24" viewBox="0 0 24 24"><path d="M12 7c.55 0 1-.45 1-1V5c0-.55-.45-1-1-1s-1 .45-1 1v1c0 .55.45 1 1 1m0 10c-.55 0-1 .45-1 1v1c0 .55.45 1 1 1s1-.45 1-1v-1c0-.55-.45-1-1-1m6-6h1c.55 0 1 .45 1 1s-.45 1-1 1h-1c-.55 0-1-.45-1-1s.45-1 1-1M7 12c0-.55-.45-1-1-1H5c-.55 0-1 .45-1 1s.45 1 1 1h1c.55 0 1-.45 1-1m9.245-3.24h-.005.01zm.705-.29a1.02 1.02 0 0 1-.705.29 1.02 1.02 0 0 1-.705-.29c-.39-.4-.39-1.03 0-1.42l.71-.71a.996.996 0 0 1 1.41 0c.39.4.39 1.03 0 1.42zm-9.9 7.07-.71.71c-.39.39-.39 1.02 0 1.42.2.19.45.29.71.29s.51-.1.71-.29l.71-.71a1.008 1.008 0 0 0-.323-1.636 1 1 0 0 0-1.087.216zm8.49 1.42a1.008 1.008 0 0 1 .323-1.636.995.995 0 0 1 1.087.216h.01l.71.71c.39.4.39 1.03 0 1.42-.2.19-.45.29-.71.29s-.51-.09-.71-.29zM7.76 6.34a.996.996 0 0 0-1.41 0c-.39.39-.39 1.02 0 1.42l.71.71c.2.2.45.29.71.29s.51-.1.71-.29c.39-.39.39-1.02 0-1.42l-.71-.71zM15 12a3 3 0 1 1-6 0 3 3 0 0 1 6 0"/></svg>