<svg xmlns="http://www.w3.org/2000/svg" id="brightness_up" width="24" height="24" viewBox="0 0 24 24"><path d="M12 7c.55 0 1-.45 1-1V3c0-.55-.45-1-1-1s-1 .45-1 1v3c0 .55.45 1 1 1m0 8a3 3 0 1 0 0-6 3 3 0 0 0 0 6m-1 3c0-.55.45-1 1-1s1 .45 1 1v3c0 .55-.45 1-1 1s-1-.45-1-1zm10-7h-3c-.55 0-1 .45-1 1s.45 1 1 1h3c.55 0 1-.45 1-1s-.45-1-1-1M6 11c.55 0 1 .45 1 1s-.45 1-1 1H3c-.55 0-1-.45-1-1s.45-1 1-1zm10.245-2.24c.258-.001.506-.101.705-.29l2.12-2.12a.997.997 0 1 0-1.41-1.41l-2.12 2.12a.997.997 0 0 0 .705 1.7M4.93 17.66l2.12-2.12h.01a.997.997 0 1 1 1.41 1.41l-2.12 2.12c-.2.19-.45.29-.71.29a.996.996 0 0 1-.71-1.7m10.61-2.12a.994.994 0 0 0 0 1.41l2.12 2.12c.19.2.45.29.71.29s.51-.1.71-.29a.994.994 0 0 0 0-1.41l-2.12-2.12h-.01a.994.994 0 0 0-1.41 0M4.93 4.93a.996.996 0 0 1 1.41 0h.01l2.12 2.12c.39.39.39 1.02 0 1.41-.2.19-.45.29-.71.29s-.52-.09-.71-.29L4.93 6.34a.996.996 0 0 1 0-1.41"/></svg>