<svg xmlns="http://www.w3.org/2000/svg" id="chart_factor_parallelism" width="24" height="24" viewBox="0 0 24 24"><path fill-rule="evenodd" d="M10 11c0 1.1-.9 2-2 2s-2-.9-2-2 .9-2 2-2c.29 0 .57.07.82.18l4.19-3-.004-.026a1 1 0 0 1-.016-.164c0-1.1.9-2 2-2s2 .9 2 2-.9 2-2 2c-.29 0-.57-.07-.82-.18l-4.19 3 .004.026c.008.06.016.112.016.164M4 4H2v14c0 1.1.9 2 2 2h18v-2H4zm9.82 8.18c-.25-.11-.53-.18-.82-.18-1.1 0-2 .9-2 2s.9 2 2 2 2-.9 2-2c0-.052-.008-.105-.016-.164l-.004-.026 4.19-3c.25.11.53.18.82.18 1.1 0 2-.9 2-2s-.9-2-2-2-2 .9-2 2q.002.077.016.164l.004.026z" clip-rule="evenodd"/></svg>