<svg xmlns="http://www.w3.org/2000/svg" id="cleaning" width="24" height="24" viewBox="0 0 24 24"><path d="M21.33 2.9a21.6 21.6 0 0 1-4.5.4 32 32 0 0 1-5-.4 32 32 0 0 0-5-.4 11.5 11.5 0 0 0-1.9.1l-2.7.4a16 16 0 0 1 .4 3.1 27.5 27.5 0 0 1-.11 3.9c.17-.47.35-.94.56-1.4a1.8 1.8 0 0 1 .27-.39 1.34 1.34 0 0 1 .92-.41c.326.006.639.13.88.35.252.24.417.556.47.9l-.09.82-.53 3.2a.4.4 0 0 0 .11.3.42.42 0 0 0 .54 0l5.6-5.6a1.304 1.304 0 1 1 1.85 1.84l-3.65 3.65a.56.56 0 0 0-.07.78.52.52 0 0 0 .55 0h.06a.4.4 0 0 0 .13-.09l4.28-4.28a1.29 1.29 0 1 1 1.83 1.82L12 15.79a.62.62 0 0 0-.19.51.38.38 0 0 0 .11.24.56.56 0 0 0 .78-.08l3-3a1.292 1.292 0 0 1 1.82 1.83l-6.37 6.36q-.166.166-.36.3l.94.13a32 32 0 0 0 5 .4q.954.03 1.9-.1l2.7-.4a16 16 0 0 1-.4-3.1 31 31 0 0 1 .4-6.4c.62-3.163.62-6.417 0-9.58"/></svg>