<svg xmlns="http://www.w3.org/2000/svg" id="clock_programmable_timer" width="24" height="24" viewBox="0 0 24 24"><path d="M20 12c0-.34-.03-.67-.07-1h2.02c-.2-2.01-1-3.85-2.21-5.33L18.31 7.1c-.41-.53-.89-1-1.41-1.41l1.43-1.43A10 10 0 0 0 13 2.05v2.02c-.33-.04-.66-.07-1-.07s-.67.03-1 .07V2.05c-2.01.2-3.85 1-5.33 2.21L7.1 5.69c-.53.41-1 .89-1.41 1.41L4.26 5.67A10 10 0 0 0 2.05 11h2.02c-.04.33-.07.66-.07 1s.03.67.07 1H2.05c.2 2.01 1 3.85 2.21 5.33l1.43-1.43c.41.53.89 1 1.41 1.41l-1.43 1.43A10 10 0 0 0 11 21.95v-2.02c.33.04.66.07 1 .07s.67-.03 1-.07v2.02c2.01-.2 3.85-1 5.33-2.21l-1.43-1.43c.53-.41 1-.89 1.41-1.41l1.43 1.43A10 10 0 0 0 21.95 13h-2.02c.04-.33.07-.66.07-1m-5.71 3.71L11 12.42V6h2v5.59l2.71 2.71-1.41 1.41z"/></svg>