<svg xmlns="http://www.w3.org/2000/svg" id="cloud_storage" width="24" height="24" viewBox="0 0 24 24"><path fill-rule="evenodd" d="M22.77 11.15c-.24-.09-.5-.15-.77-.15H7c-1.1 0-2 .9-2 2v3.75l-.11-.03C2.56 15.98 1 13.89 1 11.52c0-2.77 2.14-5.07 4.9-5.43 1.04-2.81 4.24-4.56 7.48-3.97 1.79.33 3.37 1.34 4.32 2.77.63.96.96 2.04.96 3.14 1.94.04 3.55 1.35 4.11 3.12M9 13h12c1.1 0 2 .9 2 2v4c0 1.1-.9 2-2 2H9c-1.1 0-2-.9-2-2v-4c0-1.1.9-2 2-2m6 4c0 1.1.9 2 2 2s2-.9 2-2-.9-2-2-2-2 .9-2 2" clip-rule="evenodd"/></svg>