<svg xmlns="http://www.w3.org/2000/svg" id="comment_warning_settings" width="24" height="24" viewBox="0 0 24 24"><path fill-rule="evenodd" d="M16 14.107c-1.1 0-2 .9-2 2v2h-2.3l-6.7 5v-5H4c-1.1 0-2-.9-2-2v-12c0-1.1.9-2 2-2h16c1.1 0 2 .9 2 2v10zm-5 0h2v-2h-2zm0-8v4h2v-4zm10.46 13.15.22.14v.01c.27.16.35.49.19.74l-.55.96c-.16.27-.49.35-.74.19l-.22-.14q-.03.018-.06.04a2 2 0 0 1-.21.12v.25c0 .3-.25.55-.55.55h-1.1c-.3 0-.55-.25-.55-.55v-.25c-.04-.025-.088-.053-.135-.08s-.095-.055-.135-.08l-.22.14c-.27.17-.6.06-.74-.19l-.55-.96c-.14-.27-.06-.6.19-.74l.22-.14v-.3l-.22-.14a.526.526 0 0 1-.19-.74l.55-.96a.526.526 0 0 1 .74-.19l.22.14.061-.04c.061-.04.127-.083.209-.12v-.25c0-.3.25-.55.55-.55h1.1c.3 0 .55.25.55.55v.27q.043.025.092.048c.06.029.126.06.178.112l.22-.14a.525.525 0 0 1 .74.19l.55.96c.17.27.06.6-.19.74l-.22.14zm-3.33.71a1.23 1.23 0 1 0 1.74-1.74 1.23 1.23 0 0 0-1.74 1.74" clip-rule="evenodd"/></svg>