<svg xmlns="http://www.w3.org/2000/svg" id="cut" width="24" height="24" viewBox="0 0 24 24"><path fill-rule="evenodd" d="M8.92 15.29c.05.23.09.46.09.7V16c0 1.66-1.34 3-3 3s-3-1.34-3-3 1.34-3 3-3c.69 0 1.31.24 1.82.63L10.38 12l-2.55-1.63c-.51.39-1.13.63-1.82.63-1.66 0-3-1.34-3-3s1.34-3 3-3 3 1.34 3 3c0 .24-.04.47-.09.7l2.39 1.52.93.59 6.01-3.83c.93-.6 2.17-.32 2.76.61zm-2.91-8.3c-.55 0-1 .45-1 1s.45 1 1 1 1-.45 1-1-.45-1-1-1m0 8c-.55 0-1 .45-1 1s.45 1 1 1 1-.45 1-1-.45-1-1-1m7.168-1.225-.008.005v-.01zm1.852-1.185-1.852 1.185L18.25 17c.93.6 2.17.32 2.76-.61z" clip-rule="evenodd"/></svg>