<svg xmlns="http://www.w3.org/2000/svg" id="data_integration" width="24" height="24" viewBox="0 0 24 24"><path fill-rule="evenodd" d="M20 8.5c0 1.38-3.58 2.5-8 2.5S4 9.88 4 8.5v-3C4 4.12 7.58 3 12 3s8 1.12 8 2.5zM12 18q1.11 0 2.13-.09a4.86 4.86 0 0 0 .24 2.98c-.75.07-1.54.11-2.37.11-4.42 0-8-1.12-8-2.5v-2.42c0-.1.12-.14.17-.06C4.94 17.15 8.15 18 12 18m7.78-3.92c.14-.19.22-.38.22-.58v-2.42c0-.1-.12-.14-.17-.06C19.06 12.15 15.85 13 12 13s-7.06-.85-7.83-1.98c-.05-.08-.17-.04-.17.06v2.42c0 1.38 3.58 2.5 8 2.5 1.14 0 2.22-.08 3.19-.21C16.11 14.7 17.46 14 19 14c.26 0 .503.037.753.076zm1.68 5.07.22.14v.01c.27.16.35.49.19.74l-.55.96c-.16.27-.49.35-.74.19l-.22-.14-.06.04c-.062.04-.128.083-.21.12v.25c0 .3-.25.55-.55.55h-1.1c-.3 0-.55-.25-.55-.55v-.25c-.04-.025-.088-.053-.135-.08s-.095-.055-.135-.08l-.22.14c-.27.17-.6.06-.74-.19l-.55-.96c-.14-.27-.06-.6.19-.74l.22-.14v-.3l-.22-.14a.526.526 0 0 1-.19-.74l.55-.96c.16-.27.49-.35.74-.19l.22.14.06-.04c.062-.04.128-.083.21-.12v-.25c0-.3.25-.55.55-.55h1.1c.3 0 .55.25.55.55v.27q.043.025.092.048a.6.6 0 0 1 .178.112l.22-.14c.27-.17.6-.06.74.19l.55.96c.17.27.06.6-.19.74l-.22.14zm-3.69-.16a1.23 1.23 0 1 0 2.46 0 1.23 1.23 0 1 0-2.46 0" clip-rule="evenodd"/></svg>