<svg xmlns="http://www.w3.org/2000/svg" id="data_maintenance" width="24" height="24" viewBox="0 0 24 24"><path d="M11 3C6.58 3 3 4.12 3 5.5v3C3 9.88 6.58 11 11 11s8-1.12 8-2.5v-3C19 4.12 15.42 3 11 3m3.88 18.53 3.01-3.01c.9.35 1.95.17 2.68-.56s.91-1.78.56-2.68l-1.62 1.62-1.41-1.41 1.62-1.62c-.9-.35-1.95-.17-2.68.56s-.91 1.78-.56 2.68l-3.01 3.01a.997.997 0 0 0 1.41 1.41M11 13c-3.85 0-7.06-.85-7.83-1.98-.05-.08-.17-.04-.17.06v2.42c0 1.38 3.58 2.5 8 2.5zm0 5c-3.85 0-7.06-.85-7.83-1.98-.05-.08-.17-.04-.17.06v2.42c0 1.38 3.58 2.5 8 2.5z"/></svg>