<svg xmlns="http://www.w3.org/2000/svg" id="data_share" width="24" height="24" viewBox="0 0 24 24"><path d="M3.17 15.13a.1.1 0 0 0-.11-.06.09.09 0 0 0-.06.12v2.42c0 1.38 3.58 2.5 8 2.5v-3c-3.85 0-7.06-.85-7.83-1.98m0-5a.1.1 0 0 0-.12-.06.1.1 0 0 0 0 .12v2.42c0 1.38 3.58 2.5 8 2.5v-3c-3.9 0-7.11-.85-7.88-1.98M19 7.61v-3c0-1.38-3.58-2.5-8-2.5s-8 1.12-8 2.5v3c0 1.38 3.58 2.5 8 2.5s8-1.11 8-2.5m1.26 10.71a1.5 1.5 0 0 0-.79-.23 1.4 1.4 0 0 0-.95.37l-2.15-1.22c.08-.24.08-.5 0-.74l2.15-1.23c.258.242.597.377.95.38a1.42 1.42 0 0 0 .28-2.82 1.5 1.5 0 0 0-.82.08 1.43 1.43 0 0 0-.64.53 1.47 1.47 0 0 0-.24.79q.002.174.05.34l-2.16 1.24a1.38 1.38 0 0 0-.93-.37 1.43 1.43 0 0 0-1.43 1.43A1.44 1.44 0 0 0 15 18.29a1.4 1.4 0 0 0 .93-.36l2.16 1.23a1.3 1.3 0 0 0-.05.35 1.42 1.42 0 1 0 2.43-1 1.2 1.2 0 0 0-.22-.18z"/></svg>