<svg xmlns="http://www.w3.org/2000/svg" id="data" width="24" height="24" viewBox="0 0 24 24"><path fill-rule="evenodd" d="M4 5.5C4 4.12 7.58 3 12 3s8 1.12 8 2.5v3c0 1.38-3.58 2.5-8 2.5S4 9.88 4 8.5zm15.83 5.52C19.06 12.15 15.85 13 12 13s-7.06-.85-7.83-1.98c-.05-.08-.17-.04-.17.06v2.42c0 1.38 3.58 2.5 8 2.5s8-1.12 8-2.5v-2.42c0-.1-.12-.14-.17-.06m0 5C19.06 17.15 15.85 18 12 18s-7.06-.85-7.83-1.98c-.05-.08-.17-.04-.17.06v2.42c0 1.38 3.58 2.5 8 2.5s8-1.12 8-2.5v-2.42c0-.1-.12-.14-.17-.06" clip-rule="evenodd"/></svg>