<svg xmlns="http://www.w3.org/2000/svg" id="drug_and_syringe" width="24" height="24" viewBox="0 0 24 24"><path fill-rule="evenodd" d="M3.214 6.043A4 4 0 1 0 8.871 11.7l2.828-2.829a4 4 0 0 0-5.657-5.656zm6.364 2.121.707-.707A2 2 0 1 0 7.457 4.63l-.707.707zm8.693 2.756 2.3 2.29 1.41-1.41-6-6-1.41 1.41 2.29 2.3-1.59 1.58-1.8-1.79-1.41 1.41-4.305 4.266a2 2 0 0 0 0 2.83l.42.42L6.1 20.262l1.42 1.42 2.056-2.046.4.4a2 2 0 0 0 1.41.59 2 2 0 0 0 1.42-.6l4.265-4.306 1.41-1.41-1.79-1.8z" clip-rule="evenodd"/></svg>