<svg xmlns="http://www.w3.org/2000/svg" id="easter_egg" width="24" height="24" viewBox="0 0 24 24"><path fill-rule="evenodd" d="M15.305 3.059a9.6 9.6 0 0 1 2.53 2.71 14.8 14.8 0 0 1 2.286 7.675 8.63 8.63 0 0 1-2.36 6.351 8 8 0 0 1-5.695 2.202 8 8 0 0 1-5.696-2.16 8.63 8.63 0 0 1-2.36-6.351 14.8 14.8 0 0 1 2.286-7.718 9.6 9.6 0 0 1 2.529-2.71A5.64 5.64 0 0 1 12.065 2c1.163.01 2.295.38 3.24 1.059M5.195 13.644h13.762v-.762H5.196zm11.878 1.663a2.44 2.44 0 0 1 1.567.667q.16-.573.232-1.164H5.3q.074.59.234 1.164a2.44 2.44 0 0 1 1.567-.667 2.17 2.17 0 0 1 1.672.826c.307.317.476.475.826.475s.519-.158.826-.475a2.117 2.117 0 0 1 3.324 0c.307.317.466.475.825.475.36 0 .53-.158.826-.475a2.17 2.17 0 0 1 1.673-.826M5.565 10.436c-.106.434-.202.868-.265 1.302h13.529a14 14 0 0 0-.264-1.302c-.422.367-.956.58-1.514.603a2.18 2.18 0 0 1-1.672-.836c-.307-.318-.477-.465-.827-.465s-.52.148-.825.465a2.12 2.12 0 0 1-1.662.836 2.2 2.2 0 0 1-1.673-.836c-.297-.318-.455-.465-.814-.465-.361 0-.53.148-.826.465a2.18 2.18 0 0 1-1.674.837 2.47 2.47 0 0 1-1.513-.604m3.929-6.384A8.5 8.5 0 0 0 7.27 6.445l-.001-.042a13.2 13.2 0 0 0-1.343 2.773c.292.355.7.595 1.153.678.36 0 .519-.159.826-.476a2.117 2.117 0 0 1 3.334 0c.308.317.467.476.827.476s.519-.159.826-.476a2.12 2.12 0 0 1 3.334 0c.306.317.466.476.826.476a2.02 2.02 0 0 0 1.153-.678 13.2 13.2 0 0 0-1.344-2.774 8.5 8.5 0 0 0-2.223-2.393 4.5 4.5 0 0 0-2.572-.878 4.5 4.5 0 0 0-2.572.921m2.57 16.78a6.9 6.9 0 0 0 4.88-1.864c.518-.52.94-1.125 1.25-1.789a1.92 1.92 0 0 0-1.142-.73c-.361 0-.52.148-.826.466a2.117 2.117 0 0 1-3.334 0c-.307-.318-.467-.466-.827-.466s-.52.148-.825.466a2.118 2.118 0 0 1-3.335 0c-.306-.318-.466-.466-.826-.466a1.86 1.86 0 0 0-1.144.73 6.4 6.4 0 0 0 1.25 1.789 6.9 6.9 0 0 0 4.88 1.864M7.305 9.487a.5.5 0 0 1-.224.04.59.59 0 0 1-.54-.358.6.6 0 0 1-.044-.223.58.58 0 0 1 .17-.402.6.6 0 0 1 .413-.18.55.55 0 0 1 .413.18.58.58 0 0 1 .17.402.58.58 0 0 1-.17.412.5.5 0 0 1-.188.129m9.972-.001a.6.6 0 0 1-.224.041.54.54 0 0 1-.414-.169.58.58 0 0 1-.17-.412.58.58 0 0 1 .17-.402.55.55 0 0 1 .413-.18.6.6 0 0 1 .413.18.58.58 0 0 1 .128.626.57.57 0 0 1-.316.316m-4.987 0a.6.6 0 0 1-.223.041.54.54 0 0 1-.414-.169.583.583 0 0 1 0-.815.55.55 0 0 1 .528-.166.57.57 0 0 1 .298.167.58.58 0 0 1 .17.402.58.58 0 0 1-.359.54M6.666 16.95a.63.63 0 0 1 .413-.17.582.582 0 1 1-.413.17m10.163-.126a.583.583 0 0 1 .635.95.58.58 0 1 1-.635-.95m-5.062.039a.59.59 0 0 1 .585-.006.583.583 0 1 1-.774.827.585.585 0 0 1 .189-.821" clip-rule="evenodd"/></svg>