<svg xmlns="http://www.w3.org/2000/svg" id="face_id_android" width="24" height="24" viewBox="0 0 24 24"><path fill-rule="evenodd" d="M12 2C6.48 2 2 6.48 2 12s4.48 10 10 10 10-4.48 10-10S17.52 2 12 2m0 18c-4.41 0-8-3.59-8-8s3.59-8 8-8 8 3.59 8 8-3.59 8-8 8m-4-9c.55 0 1-.45 1-1V9c0-.55-.45-1-1-1s-1 .45-1 1v1c0 .55.45 1 1 1m8-3c-.55 0-1 .45-1 1v1c0 .55.45 1 1 1s1-.45 1-1V9c0-.55-.45-1-1-1m-.82 6.4a3.96 3.96 0 0 1-6.36 0c-.33-.44-.96-.53-1.4-.2s-.53.96-.19 1.4c1.15 1.52 2.89 2.4 4.78 2.4s3.62-.87 4.78-2.4a1 1 0 0 0-.542-1.57.995.995 0 0 0-1.048.37zm-3.47-.69c-.2.19-.45.29-.71.29h.01a.996.996 0 0 1-.71-1.7l.41-.41c.18-.19.29-.45.29-.71V9.01c0-.55.45-1 1-1s1 .45 1 1v2.17c0 .8-.31 1.55-.88 2.12z" clip-rule="evenodd"/></svg>