<svg xmlns="http://www.w3.org/2000/svg" id="file_google_drive" width="24" height="24" viewBox="0 0 24 24"><path d="M19.4 7.1 15 2.6c-.3-.4-.8-.6-1.4-.6H6c-1.1 0-2 .9-2 2v16c0 1.1.9 2 2 2h12c1.1 0 2-.9 2-2V8.5c0-.5-.2-1-.6-1.4m-8.71 5.25a.68.68 0 0 1 .6-.34h1.42c.12 0 .24.03.35.09l-1.87 3.23H8.97zM10.05 18a.73.73 0 0 1-.35-.09.75.75 0 0 1-.25-.25l-.3-.51-.42-.72a.73.73 0 0 1-.09-.35h3.73L13.48 18h-3.44zm5.22-1.58-.59 1.02-.12.21c-.06.11-.15.19-.25.25l-1.87-3.23.22-.38.89-1.55 1.71 2.98a.73.73 0 0 1 0 .7zM13 9V4l5 5z"/></svg>