<svg xmlns="http://www.w3.org/2000/svg" id="file_word" width="24" height="24" viewBox="0 0 24 24"><path d="M19.4 7.1 15 2.6c-.3-.4-.8-.6-1.4-.6H6c-1.1 0-2 .9-2 2v16c0 1.1.9 2 2 2h12c1.1 0 2-.9 2-2V8.5c0-.5-.2-1-.6-1.4m-4.48 10.34c-.03.17-.13.33-.27.43a.67.67 0 0 1-.5.11h-.49c-.15.02-.3-.02-.42-.1a.6.6 0 0 1-.24-.37c-.28-1-.62-1.98-1-3.14-.36 1.14-.7 2.14-1 3.14-.03.15-.11.28-.24.37-.12.09-.27.12-.42.1h-.49a.66.66 0 0 1-.77-.54c-.52-1.63-1.69-5.21-1.76-5.45h1c.4 0 .58-.01.68.5s.81 2.72 1 3.33h.15c.06-.16.13-.32.18-.49.3-.92.59-1.85.87-2.78.1-.34.21-.55.65-.55h.3c.44 0 .55.21.69.55.23.93.94 3.11 1 3.27H14c.17-.61.91-2.94 1-3.33s.28-.5.68-.5h1c-.07.24-1.24 3.82-1.76 5.45M13 9V4l5 5z"/></svg>