<svg xmlns="http://www.w3.org/2000/svg" id="file_pdf" width="24" height="24" viewBox="0 0 24 24"><path fill-rule="evenodd" d="m15 2.6 4.4 4.5c.4.4.6.9.6 1.4V20c0 1.1-.9 2-2 2H6c-1.1 0-2-.9-2-2V4c0-1.1.9-2 2-2h7.6c.6 0 1.1.2 1.4.6m-2.08 12.23c1.59 1.35 3 1.26 3.11.37-.81.1-1.62-.1-2.3-.55 1.09-.2 2.08-.13 2.41.61.01-.18-.02-.37-.08-.54s-.16-.33-.28-.47-.27-.25-.44-.33-.35-.13-.53-.13h-.13c-.56.03-1.12.16-1.64.37a6 6 0 0 1-.61-.6c-.13-.14-.25-.28-.36-.44.93-2.07-.07-2.33-.07-2.33.02.56-.09 1.12-.31 1.64-.42-.82-.51-1.77-.26-2.66.59-.17.72.9.72.9.05-.1.09-.21.1-.32.01-.12 0-.23-.03-.34a.9.9 0 0 0-.16-.3.9.9 0 0 0-.26-.21l-.15-.06c-1.21-.47-1.27 1.8-.23 3.65a17.1 17.1 0 0 1-2.81 4.09c-.26.28-.12-1 1-1.44 0 0-2 .2-1.66 1.71.25 1.19 1.42.2 2.74-1.83.73-.31 1.47-.57 2.23-.79M13 4v5h5zm-1.45 10.11.22-.41.23.3c.13.15.27.3.41.44-.432.152-.85.348-1.216.52l-.194.09z" clip-rule="evenodd"/></svg>