<svg xmlns="http://www.w3.org/2000/svg" id="file_figma" width="24" height="24" viewBox="0 0 24 24"><path fill-rule="evenodd" d="m15 2.6 4.4 4.5c.4.4.6.9.6 1.4V20c0 1.1-.9 2-2 2H6c-1.1 0-2-.9-2-2V4c0-1.1.9-2 2-2h7.6c.6 0 1.1.2 1.4.6m-2.03 13.52c.62 0 1.12-.5 1.12-1.12v-.01c0-.39-.2-.74-.51-.94.3-.2.51-.55.51-.94 0-.62-.5-1.12-1.12-1.12h-1.93c-.62 0-1.12.5-1.12 1.12 0 .39.2.74.51.94-.31.2-.51.55-.51.94s.2.74.51.94a1.12 1.12 0 0 0 .62 2.06c.63 0 1.14-.5 1.14-1.13v-1.04c.2.18.48.3.78.3M13 4v5h5zm-1.97 11.76a.76.76 0 0 1-.75-.755.75.75 0 0 1 .75-.755h.78v1.51zm-.75-.755V15v.01zm.75-1.125a.76.76 0 0 1-.75-.755.75.75 0 0 1 .75-.755h.78v1.51zm-.75-.755v-.005.01zm.76 4.505c-.42 0-.76-.33-.76-.75s.33-.76.75-.76h.78v.74c0 .43-.35.77-.77.77m1.14-2.62c0-.42.34-.76.78-.76.41 0 .75.34.75.76s-.34.76-.78.76c-.41 0-.75-.34-.75-.76m0-2.64h.78v-.01c.41 0 .75.34.75.76s-.33.76-.75.76h-.78z" clip-rule="evenodd"/></svg>