<svg xmlns="http://www.w3.org/2000/svg" id="file_google_forms" width="24" height="24" viewBox="0 0 24 24"><path d="M19.4 7.1 15 2.6c-.3-.4-.8-.6-1.4-.6H6c-1.1 0-2 .9-2 2v16c0 1.1.9 2 2 2h12c1.1 0 2-.9 2-2V8.5c0-.5-.2-1-.6-1.4M8.88 18c-.38 0-.69-.31-.69-.69s.31-.69.69-.69.69.31.69.69-.31.69-.69.69m0-2.31c-.38 0-.69-.31-.69-.69s.31-.69.69-.69.69.31.69.69-.31.69-.69.69m0-2.31c-.38 0-.69-.31-.69-.69s.31-.69.69-.69.69.31.69.69-.31.69-.69.69m6.92 4.38h-5.08v-.92h5.08zm0-2.31h-5.08v-.92h5.08zm0-2.31h-5.08v-.92h5.08zM12.99 4l5 5h-5z"/></svg>