<svg xmlns="http://www.w3.org/2000/svg" id="fluid_pack" width="22" height="24" viewBox="0 0 22 24"><path fill-rule="evenodd" d="M7.334 2h7.333v2H7.334zm11 4c.485 0 .944.21 1.292.59.348.37.54.88.54 1.41v12a2.2 2.2 0 0 1-.567 1.38c-.34.36-.789.58-1.265.62H3.667a1.88 1.88 0 0 1-1.265-.62c-.33-.37-.532-.86-.569-1.38V8c0-.53.193-1.03.541-1.41.34-.38.807-.59 1.293-.59zM11 18a2.56 2.56 0 0 0 1.88-.85 3.05 3.05 0 0 0 .778-2.05c0-2.2-2.658-5.4-2.658-5.4s-2.658 3.2-2.658 5.4c0 .77.284 1.51.779 2.05s1.173.85 1.88.85" clip-rule="evenodd"/></svg>