<svg xmlns="http://www.w3.org/2000/svg" id="folder_shared" width="24" height="24" viewBox="0 0 24 24"><path fill-rule="evenodd" d="M15.6 7H19c1.7 0 3 1.3 3 3v10c0 1.1-.9 2-2 2H4c-1.1 0-2-.9-2-2V5c0-1.1.9-2 2-2h7.7c1.2 0 2.2.7 2.7 1.7zM4 5v2h9.4l-.7-1.4q-.3-.6-.9-.6zm10.435 9.77h.065a1.874 1.874 0 0 0 1.885-1.794v-.124A1.87 1.87 0 0 0 14.565 11H14.5a1.87 1.87 0 0 0-1.885 1.852v.065a1.874 1.874 0 0 0 1.82 1.852m1.675 1.076h-3.182a1.38 1.38 0 0 0-1.26.792L11 18h7l-.63-1.362a1.45 1.45 0 0 0-1.26-.792" clip-rule="evenodd"/></svg>