<svg xmlns="http://www.w3.org/2000/svg" id="globe" width="24" height="24" viewBox="0 0 24 24"><path fill-rule="evenodd" d="M12 2C6.477 2 2 6.477 2 12s4.477 10 10 10 10-4.477 10-10S17.523 2 12 2m6.918 6h-2.373l-2.024-3.587A8.03 8.03 0 0 1 18.918 8M20 12a8 8 0 0 1-.263 2h-2.764l.023-4h2.741A8 8 0 0 1 20 12M9.723 16h4.554L12 19.984zm-5.46-2a7.74 7.74 0 0 1 0-4h2.764L7 14zM9 14v-4h6v4zm5.277-6H9.723L12 4.016zm-4.81-3.582L7.42 8H5.082a8.04 8.04 0 0 1 4.385-3.582M5.082 16h2.373l2.024 3.587A8.03 8.03 0 0 1 5.082 16m9.451 3.582L16.58 16h2.338a8.03 8.03 0 0 1-4.385 3.582" clip-rule="evenodd"/></svg>