<svg xmlns="http://www.w3.org/2000/svg" id="group_work" width="24" height="24" viewBox="0 0 24 24"><path fill-rule="evenodd" d="M7.06 3.32c.69.29 1.27.78 1.7 1.38.46.65.74 1.45.74 2.31 0 .59-.14 1.15-.37 1.66.4.29.73.65.98 1.09l.03.05.02.05.63 1.27.95 1.92c.045 0 .087-.008.13-.015q.063-.014.13-.015.052.001.105.01t.105.01l1.02-1.95.66-1.27c.24-.46.58-.84.98-1.13-.24-.51-.38-1.07-.38-1.67 0-.86.28-1.65.74-2.31.43-.6 1.01-1.08 1.7-1.38a9.96 9.96 0 0 0-4.94-1.32c-1.8 0-3.48.48-4.94 1.31zM21.8 14h-7.18c.84.73 1.38 1.8 1.38 3 0 .59-.14 1.15-.37 1.66.1.067.186.154.27.24l.05.05c.11.1.22.22.32.33.12.15.24.3.34.47l.03.05.02.05.39.78c.88-.51 1.67-1.16 2.35-1.92A10 10 0 0 0 21.8 14M9.38 14C8.54 14.73 8 15.8 8 17l-.01.01c0 .6.14 1.16.38 1.67-.11.09-.21.19-.31.29-.12.11-.23.23-.33.35l-.013.015c-.116.146-.24.3-.327.475l-.43.83a10 10 0 0 1-2.44-2.01A9.97 9.97 0 0 1 2.2 14zM12 19a2 2 0 1 0 0-4 2 2 0 0 0 0 4m-1.57 1h3.19c.53 0 1.02.3 1.26.73l.63 1.27h-7l.66-1.27c.25-.46.74-.73 1.26-.73M18.5 9a2 2 0 1 0 0-4 2 2 0 0 0 0 4m-2.83 1.73c.25-.46.74-.73 1.26-.73h3.19c.53 0 1.02.3 1.26.73l.63 1.27h-7zM5.5 9a2 2 0 1 0 0-4 2 2 0 0 0 0 4m1.61 1c.53 0 1.02.3 1.26.73h.01L9.01 12h-7l.66-1.27c.25-.46.74-.73 1.26-.73z" clip-rule="evenodd"/></svg>