<svg xmlns="http://www.w3.org/2000/svg" id="handshake" width="24" height="24" viewBox="0 0 24 24"><path fill-rule="evenodd" d="m13.315 10.055-3.18-3.18c-.78-.78-2.05-.78-2.83 0l-4.59 4.6c-.04.04-.07.08-.1.12-1.07-2.23-.78-4.91 1.16-6.84a6.01 6.01 0 0 1 7.14-1.01c.494.273.948.613 1.35 1.01l3.18 3.18c.59.58.59 1.53 0 2.12a1.52 1.52 0 0 1-2.13 0m-.81-6.4c2.19-1.02 4.86-.75 6.69.97l-.01.01a5.997 5.997 0 0 1 .13 8.61l-6.71 6.71c-.58.59-1.53.58-2.12 0a1.49 1.49 0 0 1 0-2.12l2.65-2.65c.29-.29.29-.77 0-1.06a.754.754 0 0 0-1.06 0l-2.65 2.65c-.58.59-1.53.58-2.12 0a1.49 1.49 0 0 1 0-2.12l2.65-2.65c.29-.29.29-.77 0-1.06a.754.754 0 0 0-1.06 0l-2.65 2.65c-.58.59-1.54.59-2.12 0s-.58-1.53 0-2.12l3.89-3.89a.996.996 0 0 1 1.41 0l3.18 3.18a2.5 2.5 0 0 0 3.54 0c.97-.98.97-2.57 0-3.54l-3.18-3.18a6 6 0 0 0-.28-.24q-.092-.075-.18-.15" clip-rule="evenodd"/></svg>