<svg xmlns="http://www.w3.org/2000/svg" id="hand_volunteers" width="24" height="24" viewBox="0 0 24 24"><path fill-rule="evenodd" d="M16.823 11a4.5 4.5 0 1 0-4.483-4.5 4.49 4.49 0 0 0 4.483 4.5m0 0h.017-.02zM14.34 5.5h1.5V4h2v1.5h1.5v2h-1.5V9h-2V7.5h-1.5zM5 12.02H2v9h3zm13.89 4.91c.195.01.386.06.56.15a3.24 3.24 0 0 1 1.23 1.39L13.93 21 7 19.26v-7.22h2.87l3.88 1c.18.05 2.57.72 3.12 2.34a17 17 0 0 1-2.75.68l-2.81-.94-.63 1.9 3.14 1h.17a16.2 16.2 0 0 0 4.32-1 1.4 1.4 0 0 1 .58-.09" clip-rule="evenodd"/></svg>