<svg xmlns="http://www.w3.org/2000/svg" id="images" width="24" height="24" viewBox="0 0 24 24"><path fill-rule="evenodd" d="m8.005.75 13.7 2.886a2.006 2.006 0 0 1 1.545 2.37l-2.886 13.699a2 2 0 0 1-1.374 1.5A2.007 2.007 0 0 1 17 23H3c-1.1 0-2-.9-2-2V7c0-1.1.9-2 2-2h2.066l.57-2.705A2.006 2.006 0 0 1 8.006.75M7.11 5H17c1.1 0 2 .9 2 2v4.242l1.056.222 1.237-5.87-13.7-2.887zM19 13.286v3.19l.643-3.054zM17 15h-3l-3.1 3.5 2.5 2.5h3.1c.298 0 .498-.198.5-.495zm-8-3.5c0-.8-.7-1.5-1.5-1.5S6 10.7 6 11.5 6.7 13 7.5 13 9 12.3 9 11.5m-6 9c0 .3.2.5.5.5h7.1L8 18H3z" clip-rule="evenodd"/></svg>