<svg xmlns="http://www.w3.org/2000/svg" id="keyboard_hide" width="24" height="24" viewBox="0 0 24 24"><path fill-rule="evenodd" d="M2 3.42 3.42 2l19 19L21 22.42l-2.05-2.05H3.82A1.83 1.83 0 0 1 2 18.55V5.82a1.82 1.82 0 0 1 .86-1.54zm7.86 7.86h-.58v1.82h1.81v-.59zM6.21 7.64h-.57v1.82h1.82v-.59zm1.25 3.64H5.64v1.81h1.82zm0 3.63v1.82h7.82l-1.82-1.82zm5.45-7.24v1l-2.85-2.85L8.21 4h12a1.82 1.82 0 0 1 1.82 1.82v11.94l-1.82-1.82-2.81-2.82h1v-1.81h-1.82v1l-2.85-2.85h1V7.67zm5.46 0h-1.82v1.79h1.82z" clip-rule="evenodd"/></svg>