<svg xmlns="http://www.w3.org/2000/svg" id="manual" width="24" height="24" viewBox="0 0 24 24"><path d="M21.949 6.101c0-.47-.188-.917-.529-1.246a1.8 1.8 0 0 0-1.222-.505c-.494 0-.94.188-1.27.529-.399.411-.48 1.022-.493 1.199V12a.59.59 0 0 1-.587.588.59.59 0 0 1-.588-.588V3.763A1.76 1.76 0 0 0 15.498 2a1.76 1.76 0 0 0-1.763 1.763v8.225c0 .33-.258.588-.587.588a.58.58 0 0 1-.588-.588v-7.05a1.76 1.76 0 0 0-1.763-1.763 1.76 1.76 0 0 0-1.762 1.763v10.576a.59.59 0 0 1-.412.564c-.058.023-.117.023-.176.023a.58.58 0 0 1-.482-.258l-2.503-3.62s-.035-.059-.047-.082c-.317-.67-.998-1.116-1.703-1.116-.189 0-.365.035-.53.094-.481.176-.857.517-1.045.987s-.188.975.035 1.433l1.034 2.186a11.46 11.46 0 0 0 7.591 6.252l.07.023h7.087a4.025 4.025 0 0 0 4.018-4.019V6.101z"/></svg>