<svg xmlns="http://www.w3.org/2000/svg" id="monitor_settings" width="24" height="24" viewBox="0 0 24 24"><path fill-rule="evenodd" d="M4 4h16c1.1 0 2 .9 2 2v9.29a1.5 1.5 0 0 0-1.11-.51c-.27-.46-.77-.77-1.34-.77h-1.1c-.56 0-1.05.3-1.32.74-.54 0-1.03.28-1.32.76l-.55.95c-.21.33-.28.73-.19 1.12.04.15.09.3.17.43-.23.44-.25.98-.01 1.47l.03.02v.02l.27.48H4c-1.1 0-2-.9-2-2V6c0-1.1.9-2 2-2m11 9h5v-2h-4.38L13.9 7.55c-.17-.35-.54-.55-.92-.55-.39.02-.74.25-.89.61l-2.27 5.3-.98-1.46a1 1 0 0 0-.83-.45h-4v2h3.46l1.7 2.55c.18.28.5.45.83.45h.09c.37-.03.69-.26.83-.6l2.15-5.02 1.04 2.07c.16.34.51.55.89.55m6.46 5.15.22.14v.01c.27.16.35.49.19.74l-.55.96c-.16.27-.49.35-.74.19l-.22-.14-.061.04c-.061.04-.127.083-.209.12v.25c0 .3-.25.55-.55.55h-1.1c-.3 0-.55-.25-.55-.55v-.25c-.04-.025-.088-.053-.135-.08s-.095-.055-.135-.08l-.22.14c-.27.17-.6.06-.74-.19l-.55-.96c-.14-.27-.06-.6.19-.74l.22-.14v-.3l-.22-.14a.526.526 0 0 1-.19-.74l.55-.96c.16-.27.49-.35.74-.19l.22.14.06-.04c.062-.04.128-.083.21-.12v-.25c0-.3.25-.55.55-.55h1.1c.3 0 .55.25.55.55v.27q.043.025.092.048a.6.6 0 0 1 .178.112l.22-.14c.27-.17.6-.06.74.19l.55.96c.17.27.06.6-.19.74l-.22.14zm-3.69-.16a1.23 1.23 0 1 0 2.46 0 1.23 1.23 0 1 0-2.46 0" clip-rule="evenodd"/></svg>