<svg xmlns="http://www.w3.org/2000/svg" id="monitor_add" width="24" height="24" viewBox="0 0 24 24"><path fill-rule="evenodd" d="M16 16c-.55 0-1 .45-1 1v3H4c-1.1 0-2-.9-2-2V6c0-1.1.9-2 2-2h16c1.1 0 2 .9 2 2v10h-1v-1c0-.55-.45-1-1-1h-2c-.55 0-1 .45-1 1v1zm-2.93-5.62 1.04 2.07c.16.34.51.55.89.55h5v-2h-4.38L13.9 7.55c-.17-.35-.54-.55-.92-.55-.39.02-.74.25-.89.61l-2.27 5.3-.98-1.46a1 1 0 0 0-.83-.45h-4v2h3.46l1.7 2.55c.18.28.5.45.83.45h.09c.37-.03.69-.26.83-.6zM18 15h2v2h2v2h-2v2h-2v-2h-2v-2h2z" clip-rule="evenodd"/></svg>