<svg xmlns="http://www.w3.org/2000/svg" id="monitor_code" width="24" height="24" viewBox="0 0 24 24"><path fill-rule="evenodd" d="M20 4H4c-1.1 0-2 .9-2 2v12c0 1.1.9 2 2 2h9.59l-.29-.29a.996.996 0 0 1 0-1.41l3-3c.2-.2.45-.29.71-.29s.51.1.71.29l.29.29.29-.29c.2-.2.45-.29.71-.29s.51.1.71.29l2.29 2.29V6c0-1.1-.9-2-2-2zm0 9h-5c-.38 0-.73-.21-.89-.55l-1.04-2.07-2.15 5.02c-.14.34-.46.57-.83.6H10c-.33 0-.65-.17-.83-.45L7.47 13H4.01v-2h4c.33 0 .65.17.83.45l.98 1.46 2.27-5.3c.15-.36.5-.59.89-.61.38 0 .75.2.92.55L15.62 11H20zm-3 3-3 3 3 3 .71-.71-2.3-2.29 2.3-2.29zm3.59 3-2.3-2.29L19 16l3 3-3 3-.71-.71z" clip-rule="evenodd"/></svg>