<svg xmlns="http://www.w3.org/2000/svg" id="mpr" width="24" height="24" viewBox="0 0 24 24"><path d="m21.607 18.2-2.49-1.94v-7.1a.8.8 0 0 0 0-.26v-.08a1 1 0 0 0-.12-.16l-.06-.08-.1-.12-.09-.07-.08-.07-5.67-2.83V4a1 1 0 1 0-2 0v1.49l-5.57 2.79-.08.07-.09.07-.1.12-.16.12a1 1 0 0 0 0 .16v.08a1.2 1.2 0 0 0 0 .26v7.1l-2.61 1.94a1 1 0 0 0 .61 1.79 1 1 0 0 0 .61-.21l2.33-1.84 5.61 2.81a.9.9 0 0 0 .4.09q.209-.007.4-.09l5.71-2.81 2.33 1.81a1 1 0 0 0 .61.21 1 1 0 0 0 .62-1.78zm-9.61-7.09-.33-.17-3.56-1.77 3.89-1.94 3.89 1.94-3.56 1.77zm-5.12-.33 4.12 2.06v5.42l-4.12-2.06zm10.25 5.42-4.13 2.06v-5.42l4.12-2.06z"/></svg>