<svg xmlns="http://www.w3.org/2000/svg" id="mpr_axial" width="24" height="24" viewBox="0 0 24 24"><path fill-rule="evenodd" d="m19 4.998-6.59-2.91a1 1 0 0 0-.82 0l-6.54 2.91a1 1 0 0 0 0 1.83l6.54 2.92a1 1 0 0 0 .82 0L19 6.828a1 1 0 0 0 0-1.83m-8.57 6.34-6-2.89a.9.9 0 0 0-.43-.09 1 1 0 0 0-1 1v8.07a1 1 0 0 0 .57.89l6 2.89a1 1 0 0 0 1.33-.46.9.9 0 0 0 .1-.44v-8.06a1 1 0 0 0-.57-.91M9 18.728l-4-1.93v-5.86l4 1.94zm10.57-10.28a1 1 0 0 1 .43-.09 1 1 0 0 1 1.01 1v8.07a1 1 0 0 1-.57.89l-6 2.89a.86.86 0 0 1-.44.1 1 1 0 0 1-1-1v-8.06a1 1 0 0 1 .57-.91zM15 18.728l4-1.93v-5.86l-4 1.94z" clip-rule="evenodd"/></svg>