<svg xmlns="http://www.w3.org/2000/svg" id="mpr_saggital" width="24" height="24" viewBox="0 0 24 24"><path fill-rule="evenodd" d="m18.94 4.998-6.54-2.91a1 1 0 0 0-.82 0L5 4.998a1 1 0 0 0 0 1.83l6.54 2.91a1 1 0 0 0 .82 0l6.54-2.91a1 1 0 0 0 .04-1.83M12 7.728l-4.08-1.81L12 4.108l4.08 1.81zm-1.57 3.62-6-2.89a1 1 0 0 0-1.33.46 1 1 0 0 0-.1.44v8.07a1 1 0 0 0 .57.9l6 2.89a1 1 0 0 0 1.33-.46c.066-.137.1-.288.1-.44v-8.07a1 1 0 0 0-.57-.9m9.14-2.89a1 1 0 0 1 .816-.027 1 1 0 0 1 .624.927v8.07a1 1 0 0 1-.57.9l-6 2.89a1 1 0 0 1-1.44-.9v-8.07a1 1 0 0 1 .57-.9zM15 18.728l4-1.93v-5.85l-4 1.93z" clip-rule="evenodd"/></svg>