<svg xmlns="http://www.w3.org/2000/svg" id="nfc_rfid_off" width="24" height="24" viewBox="0 0 24 24"><path fill-rule="evenodd" d="M16.516 12.502v-.548a11.7 11.7 0 0 0-3.744-8.584L14.05 2c2.649 2.466 4.293 6.027 4.384 9.954 0 .823-.091 1.553-.183 2.283zm3.196 8.493-2.831-2.831A14.6 14.6 0 0 1 14.141 22l-1.369-1.37a11.4 11.4 0 0 0 2.74-3.836l-1.279-1.278a10 10 0 0 1-2.648 4.019l-1.279-1.28c1.187-1.095 2.009-2.556 2.374-4.2l-1.37-1.37c-.182 1.735-.913 3.288-2.1 4.475l-1.278-1.279c1.004-1.004 1.644-2.374 1.644-3.927 0-.365 0-.821-.092-1.187L3 4.283l1.279-1.277 16.712 16.619zM6.927 9.123c.822.64 1.279 1.735 1.279 2.831 0 1.186-.457 2.191-1.28 2.831L5.65 13.507a1.95 1.95 0 0 0 .73-1.553c0-.639-.274-1.187-.73-1.552zm7.854 1.736L12.133 8.21c-.457-.913-1.096-1.826-1.736-2.466l1.279-1.278c1.735 1.643 2.83 3.927 3.105 6.393" clip-rule="evenodd"/></svg>