<svg xmlns="http://www.w3.org/2000/svg" id="nurse" width="24" height="24" viewBox="0 0 24 24"><path fill-rule="evenodd" d="M11.726 7a16.5 16.5 0 0 0-7.66 1.94l-.19-.68a1.65 1.65 0 0 1 .6-1.75A12.3 12.3 0 0 1 11.726 4a12.3 12.3 0 0 1 7.23 2.51 1.61 1.61 0 0 1 .6 1.75l-.19.68A16.5 16.5 0 0 0 11.726 7m0 2a15.16 15.16 0 0 1 8.89 3.09 2 2 0 0 1 .75 2.09l-1.13 4a2 2 0 0 1-1.92 1.45q-.18.015-.36 0a35 35 0 0 0-6.23-.63c-2.095.039-4.183.26-6.24.66q-.18.015-.36 0a2 2 0 0 1-1.92-1.41l-1.13-4a2 2 0 0 1 .74-2.16A15.16 15.16 0 0 1 11.726 9m1 6h1.5v-2h-1.5v-1.5h-2V13h-1.5v2h1.5v1.5h2z" clip-rule="evenodd"/></svg>