<svg xmlns="http://www.w3.org/2000/svg" id="order_approval" width="24" height="24" viewBox="0 0 24 24"><path fill-rule="evenodd" d="M17 7c-3.31 0-6 2.69-6 6s2.69 6 6 6a5.98 5.98 0 0 0 4-1.54V20c0 1.1-.9 2-2 2H5c-1.1 0-2-.9-2-2V6c0-1.1.9-2 2-2h4.18C9.6 2.84 10.69 2 12 2a2.99 2.99 0 0 1 2.82 2H19c1.1 0 2 .9 2 2v2.54A5.93 5.93 0 0 0 17 7M7 18h2v-2H7zm0-4h2v-2H7zm0-4h2V8H7zm10-2.107c-2.75 0-5 2.25-5 5s2.25 5 5 5 5-2.25 5-5-2.25-5-5-5m-.58 5.44 2.47-2.47 1.06 1.06-3.53 3.53-2.38-2.38 1.06-1.06z" clip-rule="evenodd"/></svg>