<svg xmlns="http://www.w3.org/2000/svg" id="order_missed" width="24" height="24" viewBox="0 0 24 24"><path fill-rule="evenodd" d="M17 7c-3.31 0-6 2.69-6 6s2.69 6 6 6a5.98 5.98 0 0 0 4-1.54V20c0 1.1-.9 2-2 2H5c-1.1 0-2-.9-2-2V6c0-1.1.9-2 2-2h4.18C9.6 2.84 10.69 2 12 2a2.99 2.99 0 0 1 2.82 2H19c1.1 0 2 .9 2 2v2.54A5.93 5.93 0 0 0 17 7M7 18h2v-2H7zm0-4h2v-2H7zm0-4h2V8H7zm5 3c0-2.75 2.25-5 5-5s5 2.25 5 5-2.25 5-5 5-5-2.25-5-5m4.5 2v1h1v-1zm1.8-1.8c.45-.25.7-.65.7-1.15v-.35c0-.8-.65-1.45-1.45-1.45H16.5c-.8 0-1.45.65-1.45 1.45v.55h1v-.55c0-.25.2-.45.45-.45h1.05c.25 0 .45.2.45.45v.3c0 .2-.15.35-.3.45l-.7.35c-.3.15-.5.5-.5.85v.6h1v-.45c0-.15.1-.25.2-.3z" clip-rule="evenodd"/></svg>