<svg xmlns="http://www.w3.org/2000/svg" id="parcel" width="24" height="24" viewBox="0 0 24 24"><path d="M20.57 8.718c.2-.096.43.05.43.261v7.435c0 .346-.22.52-.561.683l-7.277 3.372c-.2.096-.43-.049-.43-.26v-7.242c0-.366.21-.703.561-.867zM3 8.988c0-.21.23-.356.43-.26l3.3 1.542v2.63l1.502.693v-2.63l2.436 1.137c.34.164.561.5.562.867v7.223c0 .212-.232.356-.432.26l-7.235-3.353A.97.97 0 0 1 3 16.23zm16.707-2.032c.23.106.23.414 0 .52l-7.286 3.4c-.27.126-.592.126-.872 0l-2.716-1.26 8.288-3.854v-.01zm-8.118-3.362c.28-.125.592-.125.862 0l2.956 1.368L7.11 8.815l-2.826-1.31a.282.282 0 0 1 0-.52z"/></svg>