<svg xmlns="http://www.w3.org/2000/svg" id="pie_settings" width="24" height="24" viewBox="0 0 24 24"><path fill-rule="evenodd" d="M11 21.95c-5.05-.5-9-4.76-9-9.95s3.95-9.45 9-9.95zm2-19.9v7.54l5.33-5.33A10 10 0 0 0 13 2.05M21.95 11c-.2-2.01-1-3.85-2.21-5.33L14.41 11zM13 21.95c1-.1 1.96-.36 2.86-.73a1.49 1.49 0 0 1-1.05-.74l-.55-.96v-.02l-.03-.02c-.24-.49-.22-1.03.01-1.47-.08-.13-.13-.28-.17-.43-.09-.39-.02-.79.19-1.12l.55-.95c.29-.48.78-.76 1.32-.76.27-.44.76-.74 1.32-.74h1.1c.57 0 1.07.31 1.34.77.55 0 1.05.31 1.31.77l.09.16c.34-.85.57-1.75.66-2.7H13zm7.46-3.8.22.14v.01c.27.16.35.49.19.74l-.55.96c-.16.27-.49.35-.74.19l-.22-.14-.061.04c-.061.04-.127.083-.209.12v.25c0 .3-.25.55-.55.55h-1.1c-.3 0-.55-.25-.55-.55v-.25c-.04-.025-.088-.052-.135-.08l-.135-.08-.22.14c-.27.17-.6.06-.74-.19l-.55-.96c-.14-.27-.06-.6.19-.74l.22-.14v-.3l-.22-.14a.526.526 0 0 1-.19-.74l.55-.96c.16-.27.49-.35.74-.19l.22.14.06-.04a2 2 0 0 1 .21-.12v-.25c0-.3.25-.55.55-.55h1.1c.3 0 .55.25.55.55v.27q.043.025.092.048c.06.029.126.06.178.112l.22-.14c.27-.17.6-.06.74.19l.55.96c.17.27.06.6-.19.74l-.22.14zm-3.69-.16a1.23 1.23 0 1 0 2.46 0 1.23 1.23 0 1 0-2.46 0" clip-rule="evenodd"/></svg>