<svg xmlns="http://www.w3.org/2000/svg" id="plate_management" width="24" height="24" viewBox="0 0 24 24"><path fill-rule="evenodd" d="M20 2.5H7.78c-.54 0-1.06.22-1.44.61L2.56 7.02C2.2 7.39 2 7.89 2 8.41V19.5c0 1.1.9 2 2 2h16c1.1 0 2-.9 2-2v-15c0-1.1-.9-2-2-2M12 9a2.5 2.5 0 0 1-5 0 2.5 2.5 0 0 1 5 0m6 6a2.5 2.5 0 0 1-5 0 2.5 2.5 0 0 1 5 0m-2.5-8.5c-.49 0-.98.15-1.39.42s-.73.67-.92 1.12c-.19.46-.24.96-.14 1.44s.33.93.68 1.28.8.59 1.28.68c.48.1.99.05 1.44-.14.46-.19.85-.51 1.12-.92s.42-.89.42-1.39c0-.66-.26-1.3-.73-1.77s-1.1-.73-1.77-.73zm0 3.33a.83.83 0 0 1-.46-.14.86.86 0 0 1-.31-.37.8.8 0 0 1-.05-.48c.03-.16.11-.31.23-.43s.27-.2.43-.23.33-.02.48.05c.15.06.28.17.37.31s.14.3.14.46c0 .22-.09.43-.24.59-.16.16-.37.24-.59.24m-6 2.67c-.49 0-.98.15-1.39.42s-.73.67-.92 1.12c-.19.46-.24.96-.14 1.44s.33.93.68 1.28.8.59 1.28.68c.48.1.99.05 1.44-.14.46-.19.85-.51 1.12-.92s.42-.89.42-1.39c0-.66-.26-1.3-.73-1.77s-1.1-.73-1.77-.73zm0 3.33a.83.83 0 0 1-.46-.14.86.86 0 0 1-.31-.37.825.825 0 0 1 .18-.91c.12-.12.27-.2.43-.23s.33-.02.48.05c.15.06.28.17.37.31s.14.3.14.46c0 .22-.09.43-.24.59-.16.16-.37.24-.59.24" clip-rule="evenodd"/></svg>