<svg xmlns="http://www.w3.org/2000/svg" id="plate_settings" width="24" height="24" viewBox="0 0 24 24"><path fill-rule="evenodd" d="M14 16.49a2.5 2.5 0 0 1-1-1.99 2.5 2.5 0 0 1 2.5-2.5c1.02 0 1.9.62 2.29 1.5H22V4c0-1.1-.9-2-2-2H7.78c-.54 0-1.06.22-1.44.61L2.56 6.52C2.2 6.89 2 7.39 2 7.91V19c0 1.1.9 2 2 2h10zm-.81-8.95a2.505 2.505 0 0 1 4.08-.81c.47.47.73 1.1.73 1.77 0 .49-.15.98-.42 1.39s-.67.73-1.12.92c-.46.19-.96.24-1.44.14-.49-.1-.93-.33-1.28-.68s-.59-.8-.68-1.28c-.1-.49-.05-.99.14-1.44zm-1.61 8.35c-.27.41-.67.73-1.12.92-.46.19-.96.24-1.44.14s-.93-.33-1.28-.68-.59-.8-.68-1.28c-.1-.48-.05-.99.14-1.44s.51-.85.92-1.12a2.505 2.505 0 0 1 3.16.31c.47.47.73 1.1.73 1.77 0 .49-.15.98-.42 1.39zM9.5 11a2.5 2.5 0 1 1 0-5 2.5 2.5 0 0 1 0 5m6.32-3.27a.825.825 0 0 0-.91.18c-.12.12-.2.27-.23.43s-.02.33.05.48c.06.15.17.28.31.37s.3.14.46.14c.22 0 .43-.09.59-.24.16-.16.24-.37.24-.59a.83.83 0 0 0-.14-.46.86.86 0 0 0-.37-.31m-6 6a.825.825 0 0 0-.91.18c-.12.12-.2.27-.23.43s-.02.33.05.48.17.28.31.37.3.14.46.14c.22 0 .43-.09.59-.24.16-.16.24-.37.24-.59a.83.83 0 0 0-.14-.46.86.86 0 0 0-.37-.31m11.64 4.92.22.14v.01c.27.16.35.49.19.74l-.55.96c-.16.27-.49.35-.74.19l-.22-.14-.06.04c-.062.04-.128.083-.21.12v.25c0 .3-.25.55-.55.55h-1.1c-.3 0-.55-.25-.55-.55v-.25c-.04-.025-.088-.053-.135-.08s-.095-.055-.135-.08l-.22.14c-.27.17-.6.06-.74-.19l-.55-.96c-.14-.27-.06-.6.19-.74l.22-.14v-.3l-.22-.14a.526.526 0 0 1-.19-.74l.55-.96a.526.526 0 0 1 .74-.19l.22.14.061-.04c.061-.04.127-.083.209-.12v-.25c0-.3.25-.55.55-.55h1.1c.3 0 .55.25.55.55v.27q.043.025.092.048c.06.029.126.06.178.112l.22-.14a.525.525 0 0 1 .74.19l.55.96c.17.27.06.6-.19.74l-.22.14zm-3.33.71a1.23 1.23 0 1 0 1.74-1.74 1.23 1.23 0 0 0-1.74 1.74" clip-rule="evenodd"/></svg>