<svg xmlns="http://www.w3.org/2000/svg" id="plex" width="24" height="24" viewBox="0 0 24 24"><path fill-rule="evenodd" d="M20 3h-3a2 2 0 0 0-1.5.69A2 2 0 0 0 14 3h-4a2 2 0 0 0-1.5.69A2 2 0 0 0 7 3H4a2 2 0 0 0-2 2v14a2 2 0 0 0 2 2h3a2 2 0 0 0 1.5-.69A2 2 0 0 0 10 21h4a2 2 0 0 0 1.5-.69A2 2 0 0 0 17 21h3a2 2 0 0 0 2-2V5a2 2 0 0 0-2-2M7 19H4V5h3zm7 0h-4a1 1 0 0 1-1-1v-1h6v1a1 1 0 0 1-1 1m6 0h-3V5h3zM6.13 6.41H4.88v.5h1.25zM4.88 17.09h1.25v.5H4.88zm1.25-8.55H4.88v.5h1.25zm-1.25 2.14h1.25v.5H4.88zm1.25 4.27H4.88v.5h1.25zm-1.25-2.14h1.25v.5H4.88zm14.25-6.4h-1.25v.5h1.25zm-1.25 10.68h1.25v.5h-1.25zm1.25-8.55h-1.25v.5h1.25zm-1.25 2.14h1.25v.5h-1.25zm1.25 4.27h-1.25v.5h1.25zm-1.25-2.14h1.25v.5h-1.25z" clip-rule="evenodd"/></svg>