<svg xmlns="http://www.w3.org/2000/svg" id="pressure" width="24" height="24" viewBox="0 0 24 24"><path fill-rule="evenodd" d="M12.63 9.43a2.5 2.5 0 0 0-.68-.1v-.01a2.67 2.67 0 1 0 0 5.34V22A10 10 0 1 1 22 11.97c0 .171-.013.34-.025.507a7 7 0 0 0-.025.493h-7.53c.127-.318.195-.657.2-1a2.6 2.6 0 0 0-.1-.68L17.8 8l-1.85-1.85zm7 5.37a2.37 2.37 0 0 1 1.62.63l.06.07a2.35 2.35 0 0 1-.09 3.3L17.95 22l-1.25-1.2-2-2a2.3 2.3 0 0 1 1.59-4c.622 0 1.22.24 1.67.67a2.42 2.42 0 0 1 1.67-.67" clip-rule="evenodd"/></svg>