<svg xmlns="http://www.w3.org/2000/svg" id="processing" width="24" height="24" viewBox="0 0 24 24"><path fill-rule="evenodd" d="m17.87 4-.23 1.56a11 11 0 0 1-2.89 5.11L13.41 12l1.36 1.33a11 11 0 0 1 2.89 5.11v.11l.21 1.45H20v2H4v-2h2.13l.23-1.56a11 11 0 0 1 2.89-5.11L10.59 12l-1.36-1.33a11 11 0 0 1-2.89-5.11v-.11L6.13 4H4V2h16v2zm-2.18 14.88a8.94 8.94 0 0 0-2.36-4.13L12 13.41l-1.33 1.34a8.94 8.94 0 0 0-2.36 4.13L8.15 20h7.7zM8.31 5.12a8.94 8.94 0 0 0 2.36 4.13L12 10.59l1.33-1.34a8.94 8.94 0 0 0 2.36-4.13L15.85 4h-7.7zM12 9s-2-2-2-3h4c0 1-2 3-2 3" clip-rule="evenodd"/></svg>