<svg xmlns="http://www.w3.org/2000/svg" id="remote_access_disabled" width="24" height="24" viewBox="0 0 24 24"><path fill-rule="evenodd" d="M13.13 13.13 19 19l1.5 1.5-1.41 1.41L16.18 19h-.17v2h-8v-2h-4c-1.1 0-2-.9-2-2V7c0-.59.27-1.12.68-1.49l-.59-.59 1.41-1.41 1.5 1.5 2 2 2.36 2.36 1.72 1.72zm-7.46-1.87 1.43 1.43v-.01a7.8 7.8 0 0 1 1.75-1l-1.52-1.52c-.58.31-1.14.67-1.66 1.1m2.86 2.86 1.45 1.45a3.9 3.9 0 0 1 2.22-.54l-1.79-1.79c-.66.18-1.3.47-1.88.88M7.83 5H20c1.1 0 2 .9 2 2v10c0 .59-.27 1.12-.68 1.49l-7.18-7.18c.98.26 1.92.72 2.76 1.37l1.43-1.43a9.94 9.94 0 0 0-6.49-2.24z" clip-rule="evenodd"/></svg>