<svg xmlns="http://www.w3.org/2000/svg" id="repeat_off" width="24" height="24" viewBox="0 0 24 24"><path d="M18.69 7.64a7.96 7.96 0 0 0-2.89-2.67A7.9 7.9 0 0 0 11.99 4c-1.48 0-2.87.41-4.06 1.11L6.48 3.66A9.9 9.9 0 0 1 11.99 2c1.59 0 3.16.38 4.58 1.11s2.64 1.79 3.56 3.09l1.86-1.86V10h-5.66zM7.65 14l-2.36 2.36a8.05 8.05 0 0 0 2.89 2.67c1.17.64 2.48.97 3.81.97 1.48 0 2.86-.41 4.05-1.12L5.11 7.94c-.38.63-.68 1.32-.87 2.06H2.19c.26-1.27.78-2.44 1.48-3.49L2.09 4.93 3.5 3.52l16.98 16.97-1.41 1.41-1.56-1.56A9.9 9.9 0 0 1 12 22c-1.59 0-3.16-.38-4.58-1.11a9.9 9.9 0 0 1-3.56-3.09L2 19.66V14h5.66zm11.23 2.06c.38-.64.67-1.32.86-2.06h2.05a9.9 9.9 0 0 1-1.47 3.51l-1.45-1.45z"/></svg>