<svg xmlns="http://www.w3.org/2000/svg" id="rfid" width="24" height="24" viewBox="0 0 24 24"><path d="M21.41 2.59C21.03 2.21 20.53 2 20 2H4c-.53 0-1.04.21-1.41.59C2.21 2.97 2 3.47 2 4v16c0 .53.21 1.04.59 1.41.38.38.88.59 1.41.59h16c.53 0 1.04-.21 1.41-.59.38-.38.59-.88.59-1.41V4c0-.53-.21-1.04-.59-1.41M19 17c0 1.1-.9 2-2 2H7c-1.1 0-2-.9-2-2V7c0-1.1.9-2 2-2h2v2H7v10h10V7h-4v3.28c.3.17.55.43.73.73s.27.64.27.99c0 .53-.21 1.04-.59 1.41a1.983 1.983 0 0 1-2.82 0c-.38-.38-.59-.88-.59-1.41 0-.35.1-.69.27-.99.18-.3.43-.55.73-.73V7c0-.53.21-1.04.59-1.41.38-.38.88-.59 1.41-.59h4c1.1 0 2 .9 2 2z"/></svg>