<svg xmlns="http://www.w3.org/2000/svg" id="robotic_arm" width="24" height="24" viewBox="0 0 24 24"><path d="m21.75 10.36-1.4-1.64c.09-.22.14-.46.14-.72 0-1.1-.9-2-2-2-.15 0-.29.02-.43.05l-1.19-1.39c.07-.21.12-.43.12-.66 0-1.1-.9-2-2-2-.74 0-1.38.4-1.72 1H9.72C9.37 2.4 8.74 2 8 2c-1.1 0-2 .9-2 2 0 .74.4 1.38 1 1.72V11H6c-1.1 0-2 .9-2 2v2c-1.1 0-2 .9-2 2v3c0 1.1.9 2 2 2h8c1.1 0 2-.9 2-2v-3c0-1.1-.9-2-2-2v-2c0-1.1-.9-2-2-2H9V5.72c.3-.17.55-.42.72-.72h3.55c.35.6.98 1 1.72 1 .13 0 .25-.01.37-.04l1.23 1.44c-.06.19-.1.39-.1.6 0 .32.08.61.21.88l-1.42 1.42a1 1 0 0 0-.29.71v4h2v-3.59l1.41-1.41h.17l1.41 1.41v3.59h2v-4c0-.24-.1-.46-.25-.64zM10 15H6v-2h4z"/></svg>