<svg xmlns="http://www.w3.org/2000/svg" id="settings" width="24" height="24" viewBox="0 0 24 24"><path d="M14 23h-4c-1.1 0-2-.9-2-2v-.9c-.3-.2-.7-.4-1-.6l-.8.5c-1 .6-2.2.2-2.7-.7l-2-3.5c-.5-1-.2-2.2.7-2.7l.8-.5v-1.1l-.8-.5c-1-.6-1.3-1.8-.7-2.7l2-3.5c.6-1 1.8-1.3 2.7-.7l.8.5c.3-.2.6-.4 1-.6v-.9c0-1.1.9-2 2-2h4c1.1 0 2 .9 2 2v1c.3.2.7.3 1 .6l.8-.5c1-.6 2.2-.2 2.7.7l2 3.5c.6 1 .2 2.2-.7 2.7l-.8.5v1l.8.5c1 .6 1.3 1.8.7 2.7l-2 3.5c-.6 1-1.8 1.3-2.7.7l-.8-.5c-.3.2-.6.4-1 .6v.9c0 1.1-.9 2-2 2M12 7.5c-2.5 0-4.5 2-4.5 4.5s2 4.5 4.5 4.5 4.5-2 4.5-4.5-2-4.5-4.5-4.5m0 7c-1.4 0-2.5-1.1-2.5-2.5s1.1-2.5 2.5-2.5 2.5 1.1 2.5 2.5-1.1 2.5-2.5 2.5"/></svg>