<svg xmlns="http://www.w3.org/2000/svg" id="settings_admin" width="24" height="24" viewBox="0 0 24 24"><path fill-rule="evenodd" d="M15.737 10.888a.74.74 0 0 0 .523.217h1.48c.407 0 .74-.333.74-.74v-.333q.192-.099.37-.222l.296.185c.334.222.778.111 1-.259l.74-1.295c.222-.334.11-.778-.26-1l-.295-.185v-.37l.296-.185a.72.72 0 0 0 .259-.999l-.74-1.295a.72.72 0 0 0-1-.26l-.296.185a.8.8 0 0 0-.234-.149 1 1 0 0 1-.136-.073v-.37a.74.74 0 0 0-.74-.74h-1.48a.74.74 0 0 0-.74.74v.334c-.148.074-.26.148-.37.222l-.296-.185c-.334-.221-.778-.111-1 .259l-.741 1.295c-.221.334-.11.778.26 1l.296.185v.406l-.296.185c-.333.185-.444.629-.26.999l.74 1.295a.72.72 0 0 0 1 .26l.297-.185c.056.037.121.075.187.112.064.037.128.073.183.11v.333c0 .196.079.384.217.523m-.402-3.853c0-.925.74-1.665 1.665-1.665.926 0 1.666.739 1.666 1.664A1.66 1.66 0 0 1 17 8.7c-.925 0-1.665-.74-1.665-1.665m1.31.857c.112.046.233.07.355.068a.916.916 0 0 0 .925-.925A.916.916 0 0 0 17 6.11a.916.916 0 0 0-.925.925.915.915 0 0 0 .57.857M5.57 17h5.91c.98 0 1.89.6 2.34 1.47L14.99 21H2l1.23-2.53C3.69 17.53 4.6 17 5.57 17m2.92-2h-.12v.01c-1.86-.06-3.38-1.57-3.38-3.44v-.12c0-1.92 1.58-3.44 3.5-3.44h.12c1.86.06 3.38 1.57 3.38 3.44v.23c-.06 1.86-1.63 3.32-3.5 3.32" clip-rule="evenodd"/></svg>