<svg xmlns="http://www.w3.org/2000/svg" id="social_whatsapp" width="24" height="24" viewBox="0 0 24 24"><path fill-rule="evenodd" d="M7.737 4.158A8.77 8.77 0 0 1 12.16 3 8.79 8.79 0 1 1 8 19.5L3.3 21h-.08a.2.2 0 0 1-.16-.07.24.24 0 0 1-.06-.24l1.53-4.48A8.77 8.77 0 0 1 7.737 4.158M8.31 17.57a7 7 0 0 0 3.85 1.15l.03.08a7 7 0 1 0-7-7 6.9 6.9 0 0 0 1.33 4.08.2.2 0 0 1 0 .21l-.75 2.23 2.34-.75h.07a.3.3 0 0 1 .13 0m6.43-4.97c.23.08 1.58.74 1.58.74a.9.9 0 0 1 .41.35 1.9 1.9 0 0 1-.11 1.2A2.28 2.28 0 0 1 15 16.03h-.48a6 6 0 0 1-2.21-.56 8.6 8.6 0 0 1-3.67-3.19.1.1 0 0 1 0-.05 4.16 4.16 0 0 1-.91-2.31 2.3 2.3 0 0 1 .84-1.94 3 3 0 0 1 1.1-.28h.1c.26 0 .44.16.59.5.019.054.118.284.232.552.184.428.408.951.408.988a.64.64 0 0 1 0 .58v.06a1.8 1.8 0 0 1-.21.33l-.11.13-.22.25c-.03.03-.08.1-.08.1A7 7 0 0 0 13 13.52l.29.07h.05l.04-.046c.151-.177.492-.572.61-.754a.54.54 0 0 1 .44-.26.8.8 0 0 1 .31.07" clip-rule="evenodd"/></svg>