<svg xmlns="http://www.w3.org/2000/svg" id="social_google_plus" width="24" height="24" viewBox="0 0 24 24"><path d="M20 2H4c-1.1 0-2 .9-2 2v16c0 1.1.9 2 2 2h16c1.1 0 2-.9 2-2V4c0-1.1-.9-2-2-2m-6.72 12.07c-.21.57-.54 1.09-.96 1.52-.42.44-.93.78-1.49 1.01s-1.16.35-1.77.34c-.66.03-1.31-.08-1.92-.31s-1.17-.59-1.65-1.04c-.47-.45-.85-1-1.11-1.6s-.39-1.25-.39-1.91.13-1.3.39-1.91c.26-.6.63-1.15 1.11-1.6.47-.45 1.03-.81 1.65-1.04.61-.23 1.27-.34 1.92-.31 1.29 0 2.53.5 3.46 1.4l-1.08.86c-.66-.6-1.51-.94-2.4-.94-.94 0-1.84.37-2.51 1.04-.66.66-1.04 1.57-1.04 2.51s.37 1.84 1.04 2.51c.66.66 1.57 1.04 2.51 1.04.72 0 1.42-.25 1.98-.72.55-.47.92-1.12 1.03-1.83H8.96v-1.3h4.59v.5c.04.61-.06 1.21-.27 1.78m6.71-1.13H18.1v1.86h-1.21v-1.86H15v-1.19h1.89V9.89h1.21v1.86h1.89z"/></svg>