<svg xmlns="http://www.w3.org/2000/svg" id="social_wechat" width="24" height="24" viewBox="0 0 24 24"><path d="M9.5 4C5.3 4 2 6.7 2 10a5.68 5.68 0 0 0 2.8 4.7L4 17l2.5-1.5c.934.32 1.913.489 2.9.5a4.8 4.8 0 0 1-.4-2c0-3.3 3.1-6 7-6h.6a7.72 7.72 0 0 0-7.1-4m-3 2.5a.94.94 0 0 1 1 1 .94.94 0 0 1-1 1 .94.94 0 0 1-1-1 .94.94 0 0 1 1-1m5 0a.94.94 0 0 1 1 1 1 1 0 0 1-2 0 .94.94 0 0 1 1-1M16 9c-3.3 0-6 2.2-6 5s2.7 5 6 5a5.8 5.8 0 0 0 1.9-.3L20 20l-.6-1.9A4.75 4.75 0 0 0 22 14c0-2.8-2.7-5-6-5m-2 2.5a1 1 0 1 1-1 1 .94.94 0 0 1 1-1m4 0a1 1 0 1 1-1 1 .94.94 0 0 1 1-1"/></svg>