<svg xmlns="http://www.w3.org/2000/svg" id="social_youtube" width="24" height="24" viewBox="0 0 24 24"><path fill-rule="evenodd" d="M20 6.63c.278.276.478.622.58 1A23.3 23.3 0 0 1 21 12a24.3 24.3 0 0 1-.37 4.35A2.25 2.25 0 0 1 19 18c-2.322.28-4.66.407-7 .38-2.34.027-4.678-.1-7-.38a2.25 2.25 0 0 1-1-.59 2.2 2.2 0 0 1-.58-1A23.5 23.5 0 0 1 3 12a23.3 23.3 0 0 1 .35-4.34 2.23 2.23 0 0 1 .59-1 2.3 2.3 0 0 1 1-.58c2.322-.28 4.66-.407 7-.38 2.34-.028 4.678.099 7 .38a2.23 2.23 0 0 1 1.06.55m-9.89 2.7v5.35L14.84 12z" clip-rule="evenodd"/></svg>