<svg xmlns="http://www.w3.org/2000/svg" id="social_linkedin" width="24" height="24" viewBox="0 0 24 24"><path d="M20 2H4c-1.1 0-2 .9-2 2v16c0 1.1.9 2 2 2h16c1.1 0 2-.9 2-2V4c0-1.1-.9-2-2-2M8.17 19H5.28V9.66h2.89zm.14-11.61a1.744 1.744 0 0 1-2.26.93c-.21-.09-.4-.21-.56-.37s-.28-.35-.37-.56-.13-.43-.13-.66c0-.34.1-.67.29-.96s.46-.5.77-.63c.32-.13.66-.16 1-.1.33.07.64.23.88.47s.4.55.47.88.03.68-.1 1zM19.01 19h-2.88v-4.89c0-1.35-.41-2.1-1.57-2.1s-1.76.78-1.76 2.1L12.78 19h-2.77V9.66h2.79v1.26c.3-.48.71-.87 1.2-1.14s1.05-.41 1.61-.4c1.98 0 3.4 1.21 3.4 3.71z"/></svg>