<svg xmlns="http://www.w3.org/2000/svg" id="social_instagram" width="24" height="24" viewBox="0 0 24 24"><path fill-rule="evenodd" d="M20.5 6.11c.27.7.41 1.43.42 2.18 0 .37.009.645.02.983.017.539.04 1.238.04 2.737 0 2.44-.01 2.71-.06 3.71-.04.76-.21 1.51-.51 2.21-.21.6-.56 1.14-1 1.59-.45.45-1 .79-1.6 1-.7.27-1.43.42-2.18.42-.96.06-1.3.06-3.71.06H8.25c-.77-.03-1.52-.21-2.23-.51-.6-.21-1.14-.55-1.59-1a4.5 4.5 0 0 1-1-1.59 6.8 6.8 0 0 1-.42-2.18V8.29a6.8 6.8 0 0 1 .42-2.18c.23-.59.57-1.14 1.02-1.59s.98-.81 1.57-1.05c.7-.26 1.44-.41 2.19-.42C9.17 3 9.44 3 11.92 3s2.79 0 3.8.1c.75.01 1.48.16 2.18.42.6.22 1.14.56 1.6 1 .44.45.79.99 1 1.59m-6.76 10.17c.84-.35 1.56-.95 2.07-1.71l.01-.01c.5-.76.77-1.66.77-2.57 0-.61-.13-1.22-.36-1.78s-.58-1.07-1.01-1.5-.94-.77-1.51-1c-.56-.23-1.17-.34-1.78-.34-.92.01-1.81.29-2.57.8-.76.52-1.34 1.24-1.69 2.09-.35.84-.43 1.77-.25 2.67.19.89.63 1.72 1.28 2.36.65.65 1.47 1.08 2.37 1.26s1.83.08 2.67-.27m3.44-8.08c.19-.08.36-.22.48-.4l.01.01c.12-.18.18-.39.18-.6 0-.28-.12-.56-.32-.76-.2-.21-.47-.32-.76-.32-.21 0-.42.06-.6.18-.18.11-.32.28-.4.48-.08.19-.1.41-.06.62.05.21.15.4.3.55a1 1 0 0 0 .55.3c.21.04.42.02.62-.06m-5.84.86c.58-.12 1.18-.06 1.73.17l-.01.01c.55.22 1.02.61 1.35 1.1.33.5.51 1.08.51 1.67 0 .79-.32 1.56-.88 2.12a3 3 0 0 1-3.79.37c-.49-.33-.87-.8-1.1-1.35-.23-.54-.29-1.15-.17-1.73.11-.59.4-1.12.82-1.54s.96-.7 1.54-.82" clip-rule="evenodd"/></svg>