<svg xmlns="http://www.w3.org/2000/svg" id="table_favourite" width="24" height="24" viewBox="0 0 24 24"><path fill-rule="evenodd" d="M5 3h14c1.1 0 2 .9 2 2v8h-6c-1.1 0-2 .9-2 2v6H5c-1.1 0-2-.9-2-2V5c0-1.1.9-2 2-2m5 7h9V8h-9V5H8v3H5v2h3v9h2zm7.692 5.207A.33.33 0 0 1 18 15c.126 0 .254.068.309.207l.654 1.601 1.727.126c.297.021.42.392.191.586l-1.323 1.116.415 1.677a.335.335 0 0 1-.325.414.33.33 0 0 1-.174-.052L18 19.766l-1.473.91a.33.33 0 0 1-.174.052.335.335 0 0 1-.325-.414l.415-1.677-1.323-1.116a.332.332 0 0 1 .188-.586l1.73-.126z" clip-rule="evenodd"/></svg>