<svg xmlns="http://www.w3.org/2000/svg" id="task_pending" width="24" height="24" viewBox="0 0 24 24"><path fill-rule="evenodd" d="M20 13a6.6 6.6 0 0 0-2.7-.6 6.34 6.34 0 0 0-5.4 9.6H4a2 2 0 0 1-2-2V6a2 2 0 0 1 2-2h3.3A3.85 3.85 0 0 1 11 1a3.76 3.76 0 0 1 3.7 3H18a2 2 0 0 1 2 2zm-8.057-9.73A1.78 1.78 0 0 0 9.4 4h3.2a1.8 1.8 0 0 0-.657-.73M16 11V9H6v2zM6 15h5v-2H6zm9.556.59A3.5 3.5 0 0 1 17.5 15a3.54 3.54 0 0 1 3.5 3.5 3.5 3.5 0 1 1-5.444-2.91M17 18.9l1.5 1.5.7-.7-1.2-1.2v-1.8h-1z" clip-rule="evenodd"/></svg>