<svg xmlns="http://www.w3.org/2000/svg" id="text_strike_through" width="24" height="24" viewBox="0 0 24 24"><path d="M22 11h-8q-.54-.204-1.1-.35a8.1 8.1 0 0 1-2.32-.81A1.27 1.27 0 0 1 10 8.72a1.17 1.17 0 0 1 .59-1 2.7 2.7 0 0 1 1.51-.39c.55 0 1.089.16 1.55.46a3.1 3.1 0 0 1 1.11 1.28l2-1.29a5 5 0 0 0-1.86-2.09A5.45 5.45 0 0 0 12 5a5.6 5.6 0 0 0-2.31.46 3.9 3.9 0 0 0-1.64 1.3 3.26 3.26 0 0 0-.6 1.94 3.52 3.52 0 0 0 .79 2.3H2v2h10.32c.504.14.988.345 1.44.61a1.46 1.46 0 0 1 .74 1.28 1.51 1.51 0 0 1-.65 1.27 2.92 2.92 0 0 1-1.74.47 3.17 3.17 0 0 1-3-2.24L7 15.59a4.82 4.82 0 0 0 1.8 2.47 5.53 5.53 0 0 0 3.31.94 5.9 5.9 0 0 0 2.54-.52A4.1 4.1 0 0 0 16.4 17a4 4 0 0 0 .6-2.2 3.75 3.75 0 0 0-.39-1.8H22z"/></svg>