<svg xmlns="http://www.w3.org/2000/svg" id="text_superscript" width="24" height="24" viewBox="0 0 24 24"><path d="m19.625 8.08-1.47 1.45h2.85V11h-5.02V9.53l2.39-2.3q.48-.465.69-.87c.14-.27.21-.55.21-.85 0-.33-.09-.59-.26-.78s-.41-.28-.71-.28c-.62 0-1 .4-1.16 1.19l-1.47-.41c.1-.67.38-1.21.85-1.62s1.06-.61 1.78-.61c.83 0 1.48.22 1.94.66.47.43.7 1.01.7 1.72 0 .55-.1 1.03-.31 1.42-.21.4-.55.82-1.01 1.28M10.385 10h3.88l-3.66 5.3 3.94 5.7h-3.9l-1.86-3.02L6.965 21h-3.97l3.88-5.85L3.235 10h3.91l1.66 2.6z"/></svg>