<svg xmlns="http://www.w3.org/2000/svg" id="thermal_block" width="24" height="24" viewBox="0 0 24 24"><path fill-rule="evenodd" d="M13.18 10h-2.51c.56-.47 1.67-1.7.5-3.45-1.14-1.71-.99-3.32-.35-4.55h2.51c-.56.47-1.67 1.7-.5 3.45 1.14 1.71.99 3.32.35 4.55M5 12h14c1.1 0 2 .9 2 2v6c0 1.1-.9 2-2 2H5c-1.1 0-2-.9-2-2v-6c0-1.1.9-2 2-2m2 8h2v-4H7zm4 0h2v-4h-2zm4 0h2v-4h-2zM5.67 10h2.51c.64-1.23.79-2.84-.35-4.55-1.17-1.75-.06-2.98.5-3.45H5.82c-.64 1.23-.79 2.84.35 4.55 1.17 1.75.06 2.98-.5 3.45m12.51 0h-2.51c.56-.47 1.67-1.7.5-3.45-1.14-1.71-.99-3.32-.35-4.55h2.51c-.56.47-1.67 1.7-.5 3.45 1.14 1.71.99 3.32.35 4.55" clip-rule="evenodd"/></svg>