<svg xmlns="http://www.w3.org/2000/svg" id="user_assign" width="22" height="24" viewBox="0 0 22 24"><path d="M10.808 12.01h.137c.944 0 1.852-.39 2.54-1.1a4.1 4.1 0 0 0 1.127-2.71v-.25a4.17 4.17 0 0 0-1.033-2.752C12.92 4.46 12.025 4.03 11.083 4h-.138a3.4 3.4 0 0 0-1.398.295 3.6 3.6 0 0 0-1.188.856c-.34.368-.61.805-.796 1.287s-.282 1-.284 1.522v.1c0 1.03.375 2.02 1.035 2.75.66.74 1.55 1.17 2.494 1.2M12.834 14H6.848c-.679 0-1.348.2-1.925.59a3.95 3.95 0 0 0-1.357 1.62L1.834 20h11zm7.333 2h-2.75v-2l-2.75 3 2.75 3v-2h2.75z"/></svg>