<svg xmlns="http://www.w3.org/2000/svg" id="user_group" width="24" height="24" viewBox="0 0 24 24"><path fill-rule="evenodd" d="M15.39 12.99c-.8-.02-1.53-.33-2.11-.8h.01c.42-.74.69-1.59.72-2.52v-.23c0-.97-.27-1.86-.71-2.65.6-.49 1.37-.79 2.21-.79h.12c1.86.06 3.38 1.57 3.38 3.44v.23c-.06 1.86-1.63 3.32-3.5 3.32zm3.1 2.01c.98 0 1.89.6 2.34 1.47L22 19h-4.8l-1.6-3.46c-.1-.2-.23-.37-.36-.54zm-7 0H5.58c-.97 0-1.88.53-2.34 1.47L2.01 19H15l-1.17-2.53c-.45-.87-1.36-1.47-2.34-1.47M8.5 13h-.12v.01C6.52 12.95 5 11.44 5 9.57v-.12c0-1.92 1.58-3.44 3.5-3.44h.12C10.48 6.07 12 7.58 12 9.45v.23C11.94 11.54 10.37 13 8.5 13" clip-rule="evenodd"/></svg>