<svg xmlns="http://www.w3.org/2000/svg" id="video_recording" width="24" height="24" viewBox="0 0 24 24"><path fill-rule="evenodd" d="M20 5H4c-1.1 0-2 .9-2 2v10c0 1.1.9 2 2 2h16c1.1 0 2-.9 2-2V7c0-1.1-.9-2-2-2M6.22 14.4l-.18-1.55c-.02-.15-.06-.25-.13-.32s-.18-.1-.32-.1H4.8v1.97H3.7V9.59h2.12q.405 0 .72.15c.22.1.39.24.52.44.13.19.19.43.19.7s-.08.5-.23.69-.35.33-.58.41c.39.06.62.36.68.89l.19 1.52H6.22zm5.32-3.8H9.12v.84h1.97v.98H9.12v.98h2.42v1H8.02V9.59h3.52zm2.75 3.9c-.45 0-.86-.11-1.22-.32s-.64-.5-.84-.88-.3-.8-.3-1.28v-.04c0-.48.1-.91.3-1.28.2-.38.48-.67.84-.88s.76-.32 1.22-.32.85.09 1.18.28.61.46.82.81l-.84.6c-.14-.22-.3-.38-.47-.49-.18-.11-.4-.17-.65-.17s-.47.06-.67.19c-.19.13-.34.3-.44.52s-.15.47-.15.74v.05c0 .28.05.52.15.74s.25.39.44.52.41.19.67.19.47-.06.65-.17.34-.28.47-.49l.84.6q-.675 1.08-2.01 1.08zm4.71-1c-.83 0-1.5-.67-1.5-1.5s.67-1.5 1.5-1.5 1.5.67 1.5 1.5-.67 1.5-1.5 1.5M5.65 10.53H4.8v.97h.85c.15 0 .27-.04.37-.13.09-.08.14-.21.14-.36s-.05-.27-.14-.35a.55.55 0 0 0-.37-.13" clip-rule="evenodd"/></svg>