<svg xmlns="http://www.w3.org/2000/svg" id="visibility_off" width="24" height="24" viewBox="0 0 24 24"><path fill-rule="evenodd" d="m2 3.83 1.41-1.42 19.17 19.17L21.17 23l-3.87-3.87A10.8 10.8 0 0 1 13 20c-8 0-11-8-11-8a14.8 14.8 0 0 1 3.31-4.86zM8 12a5 5 0 0 0 5 5c.626 0 1.246-.115 1.83-.34l-1.67-1.67A1 1 0 0 1 13 15a3.01 3.01 0 0 1-3-3 1 1 0 0 1 .01-.16l-1.67-1.67A5.1 5.1 0 0 0 8 12m16 0a14.8 14.8 0 0 1-3.31 4.86l-3.03-3.03c.225-.584.34-1.204.34-1.83a5 5 0 0 0-5-5c-.626 0-1.246.115-1.83.34L8.7 4.87A10.8 10.8 0 0 1 13 4c8 0 11 8 11 8m-8.01.16A1 1 0 0 0 16 12a3.01 3.01 0 0 0-3-3 1 1 0 0 0-.16.01z" clip-rule="evenodd"/></svg>