<svg xmlns="http://www.w3.org/2000/svg" id="wifi_off" width="24" height="24" viewBox="0 0 24 24"><path fill-rule="evenodd" d="m19.173 22.003 1.41-1.42L2.41 2.41 1 3.83l3.43 3.43a15.6 15.6 0 0 0-3.28 2.6l1.42 1.42A13 13 0 0 1 5.9 8.73l2.63 2.63a9.5 9.5 0 0 0-3.49 2.39l1.42 1.42a7.5 7.5 0 0 1 3.66-2.22l3.71 3.71a3.99 3.99 0 0 0-4.9.98L12 20.71l2.94-2.94zM22.85 9.86l-1.42 1.42A12.9 12.9 0 0 0 12 7.21a12 12 0 0 0-1.83.13l-1.7-1.7c1.155-.286 2.34-.43 3.53-.43 4.1.001 8.021 1.681 10.85 4.65m-3.89 3.89-1.19 1.19-4.08-4.08a9.44 9.44 0 0 1 5.27 2.89" clip-rule="evenodd"/></svg>