<svg><symbol xmlns="http://www.w3.org/2000/svg" id="add_documents" fill="none" viewBox="0 0 164 164"><g clip-path="url(#clip0_3452_265)"><g clip-path="url(#clip1_3452_265)"><path fill="#706B69" d="M129.29 143.99H18.45c-.97-.08-2.33-.48-3.53-1.56-1-.91-1.7-2.15-1.9-3.57l-.16-1.08v-.02l-.04-.3L.04 50.54c-.29-1.97 1.14-3.74 3.01-3.74h51.52c.73 0 1.43.26 1.98.75l15.42 13.52c.55.48 1.25.75 1.98.75l45.76-7.62c1.5 0 2.78 1.16 3.01 2.74l1.76 11.98 10.08 68.55c.5 3.42-2 6.52-5.26 6.52z"/><path fill="#C2BAB5" d="M131.61 136.18H22.7L8.92 31.62h109.29z"/><path fill="#DBD6D1" d="M130.06 144H22.53L25.9 20h108.11z"/><path fill="#fff" d="M131.61 140.45H22.32L39.7 38.89h109.28z"/><path fill="#DBD6D1" d="M161.75 58.81c1.56 0 2.65 1.54 2.12 3.01l-2.42 7.1-27.04 73.03a3.01 3.01 0 0 1-2.85 2.01c-.6 0-1.18 0-1.54.04H18.67c-1.18 0-2.21-.36-3.09-1.04.67.2 1.16.22 1.55.22 1.78 0 3.41-1.18 4.1-2.69l.13-.31s.03-.08.04-.1l.88-2.15 27.31-67.12a3 3 0 0 1 2.78-1.87h44.07s.09 0 .14-.02c.68-.02 1.34-.29 1.85-.74l10.54-8.63c.55-.48 1.25-.74 1.97-.74h50.82z"/><path fill="#706B69" d="M137.72 136.5c14.514 0 26.28-11.766 26.28-26.28s-11.766-26.28-26.28-26.28-26.28 11.766-26.28 26.28 11.766 26.28 26.28 26.28"/><path fill="#fff" d="M149.74 108.22h-10.02V98.2h-4v10.02h-10.01v4h10.01v10.01h4v-10.01h10.02z"/></g></g><defs><clipPath id="clip0_3452_265"><path fill="#fff" d="M0 0h164v164H0z"/></clipPath><clipPath id="clip1_3452_265"><path fill="#fff" d="M0 0h164v164H0z"/></clipPath></defs></symbol><symbol xmlns="http://www.w3.org/2000/svg" id="authorisation" fill="none" viewBox="0 0 165 164"><g clip-path="url(#clip0_3452_272)"><g clip-path="url(#clip1_3452_272)"><path fill="#706B69" d="M121.57 122.78V140h6.24v-10.99h6.47v6.22h6.24v-6.22h5.24V140H152v-17.22z"/><path fill="#DBD6D1" d="M118.41 113.77v-1.62h-5.15v1.62H62.61c-2.21-11.83-12.62-20.82-25.09-20.82-14.54 0-26.28 12.22-25.49 26.92.7 12.99 11.25 23.48 24.25 24.1 12.78.61 23.64-8.23 26.2-20.12h50.77v1.62h5.15v-1.62h34.02c2.78 0 5.04-2.26 5.04-5.04s-2.26-5.04-5.04-5.04H118.4zm-80.88 20.35c-8.62 0-15.64-7.01-15.64-15.64s7.01-15.64 15.64-15.64 15.64 7.01 15.64 15.64-7.01 15.64-15.64 15.64"/><path fill="#C2BAB5" d="M113.13 113.77h-2.52v10.08h2.52z"/><path fill="#706B69" d="M111.93 47.99v8.99h-5.99v-8.99c0-3.31-2.69-5.99-6-5.99H81.95c-3.31 0-5.99 2.69-5.99 5.99v8.99h-6v-8.99c0-6.59 5.4-11.99 11.99-11.99h17.99c6.6 0 11.99 5.4 11.99 11.99"/><path fill="#DBD6D1" d="M112 56.98H69.97c-1.65 0-3.15.66-4.22 1.74a5.96 5.96 0 0 0-1.74 4.22v27.04c0 3.3 2.67 5.97 5.97 5.97h42.03c3.29 0 5.97-2.67 5.97-5.97V62.94c0-3.29-2.67-5.97-5.97-5.97z"/><path fill="#312F2E" d="M95.64 74.22c0 2.12-1.32 3.94-3.18 4.68v5.65h-3.68V78.9a5.035 5.035 0 0 1-3.18-4.68c0-2.77 2.25-5.03 5.02-5.03s5.03 2.25 5.03 5.03z"/><path fill="#fff" d="M13.59 93.43c-.42 0-.84.21-1.07.64L1.31 115.44c-.42.8.16 1.75 1.07 1.75h22.49c.9 0 1.49-.96 1.07-1.75L14.66 94.06c-.23-.43-.65-.64-1.07-.64z"/><path fill="#312F2E" d="M14.42 102.48h-2.26v5.66h2.26zm-2.25 10.19h2.26v-2.26h-2.26z"/><path fill="#EAE8E5" d="M24.87 118.37H2.38c-.84 0-1.6-.44-2.03-1.15s-.46-1.58-.07-2.32L11.5 93.53c.41-.78 1.22-1.27 2.1-1.27s1.69.48 2.1 1.27l11.28 21.38c.39.74.37 1.61-.07 2.32-.43.72-1.19 1.15-2.03 1.15zM13.59 94.6h-.02L2.35 115.98l22.52.04-11.28-21.43z"/><path fill="#fff" d="M50.38 13.13c-.42 0-.84.21-1.07.64L38.09 35.14c-.42.8.16 1.75 1.07 1.75h22.49c.9 0 1.49-.96 1.07-1.75L51.44 13.76c-.23-.43-.65-.64-1.07-.64z"/><path fill="#312F2E" d="M51.22 22.19h-2.26v5.66h2.26zm-2.26 10.19h2.26v-2.26h-2.26z"/><path fill="#EAE8E5" d="M61.66 38.07H39.17c-.84 0-1.6-.44-2.03-1.15s-.46-1.58-.07-2.32l11.22-21.37c.41-.78 1.22-1.27 2.1-1.27s1.69.49 2.1 1.27l11.28 21.38c.39.74.36 1.61-.07 2.32-.43.72-1.19 1.15-2.03 1.15zM50.38 14.3h-.02L39.14 35.68l22.52.04-11.28-21.43z"/><path fill="#fff" d="M150.34 74.93c-.42 0-.84.21-1.07.64l-11.22 21.37c-.42.8.16 1.75 1.07 1.75h22.49c.9 0 1.49-.96 1.07-1.75L151.4 75.56c-.23-.43-.65-.64-1.07-.64z"/><path fill="#312F2E" d="M151.18 83.99h-2.26v5.66h2.26zm-2.26 10.19h2.26v-2.26h-2.26z"/><path fill="#EAE8E5" d="M161.62 99.88h-22.49c-.84 0-1.6-.44-2.03-1.15s-.46-1.58-.07-2.32l11.22-21.37c.41-.78 1.22-1.27 2.1-1.27s1.69.49 2.1 1.27l11.28 21.38c.39.74.36 1.61-.07 2.32-.43.72-1.19 1.15-2.03 1.15zm-11.28-23.77h-.02L139.1 97.49l22.52.04-11.28-21.43z"/></g></g><defs><clipPath id="clip0_3452_272"><path fill="#fff" d="M0 0h165v164H0z"/></clipPath><clipPath id="clip1_3452_272"><path fill="#fff" d="M0 0h164.08v164H0z"/></clipPath></defs></symbol><symbol xmlns="http://www.w3.org/2000/svg" id="drag_and_drop" fill="none" viewBox="0 0 164 164"><g clip-path="url(#clip0_3452_260)"><g clip-path="url(#clip1_3452_260)"><path fill="#9D948E" d="M114.06 110.13h-5.24v1.75h4.21l2.15 3.93 1.53-.84-2.52-4.6-.13.07zm-10.49 0h-5.24v1.75h5.24zm-10.49 0h-5.24v1.75h5.24zm-10.49 0h-5.24v1.75h5.24zm-10.49 0h-5.24v1.75h5.24zm-10.49 0h-5.24v1.75h5.24zm-10.49 0h-5.24v1.75h5.24zm-9.17 2.23-1.25 2.28v.02h-.02c-.63 1.15-1.25 2.29-1.25 2.29l1.53.84 2.52-4.6-1.53-.84zm-5.03 9.2-2.52 4.6 1.53.84 2.52-4.6zm-5.03 9.2-2.52 4.6 1.53.84 2.52-4.6zm3.28 5.63h-5.24v1.75h5.24zm10.49 0h-5.24v1.75h5.24zm10.49 0h-5.24v1.75h5.24zm10.49 0H61.4v1.75h5.24zm10.49 0h-5.24v1.75h5.24zm10.49 0h-5.24v1.75h5.24zm10.49 0h-5.24v1.75h5.24zm10.49 0h-5.24v1.75h5.24zm10.49 0h-5.24v1.75h5.24zm9.34 0h-4.1v1.75h5.05l-.96-1.75zm-4.17-7.62-1.53.84 2.52 4.6 1.53-.84zm-5.03-9.2-1.53.84 2.52 4.6 1.53-.84-1.02-1.87-.03-.06s0-.02-.01-.03c0 0 0-.02-.01-.03 0 0 0-.02-.01-.03v-.01l-1.41-2.58z"/><path fill="#706B69" d="M60.25 60.68 24.98 78.5c-.95.48-2.12.09-2.59-.87L.2 32.94c-.48-.96-.09-2.14.86-2.62L36.34 12.5c.95-.48 2.12-.09 2.59.87l22.18 44.7c.48.96.09 2.14-.86 2.62z"/><path fill="#C2BAB5" d="m55.19 56.56-13.35-7.2-.9 5.94-12.64-6.82-3.54 23.45z"/><path fill="#DBD6D1" d="m115.37 30.14-.05 16.2-.15 47.75c0 1.18-.95 2.13-2.12 2.13l-28.71-.07-34.62-.09c-1.17 0-2.11-.96-2.1-2.14l.19-79.79c0-1.18.95-2.13 2.12-2.13l47.55.16 17.88 17.98z"/><path fill="#EAE8E5" d="M115.34 30.14H97.48V12.12z"/><path fill="#C2BAB5" d="M82.48 32.15H43.41v17.62h39.07z"/><path fill="#544F4F" d="M50.93 42.71v3.52h-2.48V35.87h4.1c.79 0 1.48.15 2.08.44s1.07.71 1.4 1.25.5 1.15.5 1.83c0 1.01-.36 1.82-1.08 2.42s-1.7.91-2.95.91h-1.58zm0-1.93h1.62c.48 0 .85-.12 1.1-.36s.38-.58.38-1.02c0-.48-.13-.87-.39-1.16s-.61-.44-1.06-.44h-1.65v2.99zm8.37 5.44V35.86h3.31c.91 0 1.72.21 2.45.62.72.42 1.29 1 1.7 1.76s.61 1.6.62 2.54v.48q0 1.425-.6 2.55t-1.68 1.77c-.72.42-1.53.64-2.42.64zm2.48-8.43v6.51h.86c.71 0 1.26-.25 1.64-.76s.57-1.27.57-2.27v-.45c0-1-.19-1.75-.57-2.26s-.94-.76-1.66-.76h-.83zm14.78 4.31h-3.99v4.13h-2.48V35.87h6.87v1.93h-4.39v2.38h3.99z"/><path fill="#EAE8E5" d="M130.5 151.77 73.58 128.2a3.06 3.06 0 0 1-1.65-3.97l29.33-72.13a3.01 3.01 0 0 1 3.94-1.66l56.92 23.57a3.06 3.06 0 0 1 1.65 3.97l-29.33 72.13a3.01 3.01 0 0 1-3.94 1.66"/><path fill="#C2BAB5" d="m112.63 109.9-17.47-7.23L96.65 99l17.47 7.23zm21.79 4.74-17.47-7.23-1.49 3.67 17.47 7.23zm-22.83-2.18-17.47-7.23-1.49 3.67 17.47 7.23zm20.3 8.4-17.47-7.23-1.49 3.67 17.47 7.23zm-22.83-2.18-17.47-7.23-1.49 3.67 17.47 7.23zm20.3 8.4-17.47-7.23-1.49 3.67 17.47 7.23zm-22.83-2.18-17.47-7.23-1.49 3.67 17.47 7.23zm20.3 8.4-17.47-7.23-1.49 3.67 17.47 7.23z"/></g></g><defs><clipPath id="clip0_3452_260"><path fill="#fff" d="M0 0h164v164H0z"/></clipPath><clipPath id="clip1_3452_260"><path fill="#fff" d="M0 0h164v164H0z"/></clipPath></defs></symbol><symbol xmlns="http://www.w3.org/2000/svg" id="empty_box" fill="none" viewBox="0 0 164 164"><g clip-path="url(#clip0_3452_257)"><g clip-path="url(#clip1_3452_257)"><path fill="#706B69" d="m82 84-54.66 33.9L82 152l54.67-34.1z"/><path fill="#9D948E" d="M136.67 118.1 82 84V29.48l54.67 33.9z"/><path fill="#9D948E" d="m82 152 54.67-34.1V63.38L82 97.48z"/><path fill="#C2BAB5" d="M27.34 118.1 82 84V29.48l-54.66 34.1z"/><path fill="#C2BAB5" d="m82 152-54.66-34.1V63.58L82 97.48z"/><path fill="#DBD6D1" d="M0 46.1 54.67 12 82 29.48l-54.66 34.1zm82 51.38 54.67-34.1L164 80.66l-54.66 34.1zm0-67.98 27.34-16.95L164 46.45l-27.33 16.93zM0 80.54l27.34-16.96L82 97.48l-27.34 16.94z"/></g></g><defs><clipPath id="clip0_3452_257"><path fill="#fff" d="M0 0h164v164H0z"/></clipPath><clipPath id="clip1_3452_257"><path fill="#fff" d="M0 0h164v164H0z"/></clipPath></defs></symbol><symbol xmlns="http://www.w3.org/2000/svg" id="error" fill="none" viewBox="0 0 164 164"><g clip-path="url(#clip0_3452_267)"><g clip-path="url(#clip1_3452_267)"><path fill="#DBD6D1" d="M148.22 152H15.78c-4.3 0-7.78-3.63-7.78-8.11s3.48-8.11 7.78-8.11h132.44c4.3 0 7.78 3.63 7.78 8.11s-3.48 8.11-7.78 8.11m-25.39-47.44H40.66L53.21 73.7h57.06zm-25.1-61.71H65.76L77 15.22c.87-2.15 2.81-3.22 4.74-3.22s3.87 1.07 4.74 3.22l11.24 27.63z"/><path fill="#9D948E" d="M135.38 135.75H28.11l12.55-31.19h82.17zM110.27 73.7H53.21l12.55-30.85h31.97z"/></g></g><defs><clipPath id="clip0_3452_267"><path fill="#fff" d="M0 0h164v164H0z"/></clipPath><clipPath id="clip1_3452_267"><path fill="#fff" d="M0 0h164v164H0z"/></clipPath></defs></symbol><symbol xmlns="http://www.w3.org/2000/svg" id="file" fill="none" viewBox="0 0 164 164"><g clip-path="url(#clip0_3452_256)"><g clip-path="url(#clip1_3452_256)"><path fill="#C2BAB5" d="M131.01 12H43.24a4.81 4.81 0 0 0-4.81 4.81v112.12a4.81 4.81 0 0 0 4.81 4.81h87.77a4.81 4.81 0 0 0 4.81-4.81V16.81a4.81 4.81 0 0 0-4.81-4.81"/><path fill="#DBD6D1" d="M114.94 152H23.06c-1.69 0-3.06-1.41-3.06-3.14V60l32-32h62.94c1.69 0 3.06 1.41 3.06 3.14v117.72c0 1.73-1.37 3.14-3.06 3.14"/><path fill="#9D948E" d="M52 60 20 91.54V60z"/><path fill="#fff" d="M52 28v32H20zm33.38 60.8H71.4V74.81h-4V88.8H53.43v4H67.4v14h4v-14h13.98zm20.69 52.35L87.13 152l5.11-21.18 5.97-7.95c1.06-1.41 2.61-2.04 3.47-1.41l10.73 8.01c.85.64.69 2.3-.37 3.72l-5.97 7.95z"/><path fill="#DBD6D1" d="m105.1 139.97-11.45-8.55c-.66-.49-.79-1.42-.3-2.07l40.03-53.32a4.01 4.01 0 0 1 5.6-.8l7.42 5.54a3.97 3.97 0 0 1 .8 5.58l-40.03 53.32c-.49.65-1.42.79-2.08.3z"/><path fill="#706B69" d="m106.29 140.85-13.83-10.32 36.16-48.18 13.83 10.33z"/><path fill="#C2BAB5" d="m101.43 137.25-5.49-4.1 36.93-47.63 5.49 4.1z"/><path fill="#544F4F" d="M95.79 147.04 87.13 152l2.34-9.68z"/></g></g><defs><clipPath id="clip0_3452_256"><path fill="#fff" d="M0 0h164v164H0z"/></clipPath><clipPath id="clip1_3452_256"><path fill="#fff" d="M0 0h164v164H0z"/></clipPath></defs></symbol><symbol xmlns="http://www.w3.org/2000/svg" id="folder" fill="none" viewBox="0 0 164 164"><g clip-path="url(#clip0_3452_258)"><g clip-path="url(#clip1_3452_258)"><path fill="#706B69" d="M129.97 139.99H19.54c-.97-.08-2.32-.47-3.52-1.52a5.75 5.75 0 0 1-1.89-3.47l-.16-1.05-.04-.31-13.89-106c-.29-1.92 1.14-3.64 3-3.64h54.32c.73 0 1.43.26 1.97.73l12.37 9.52c.55.47 1.25.73 1.97.73h46.75c1.5 0 2.77 1.13 3 2.67l1.76 15.33 10.04 80.67c.5 3.33-1.99 6.36-5.24 6.36z"/><path fill="#DBD6D1" d="m163.83 60.96-28.11 76.89c-.57 1.3-1.94 2.15-3.47 2.15H20.05c-1.62.07-2.73-.45-4.02-1.43.66.36 1.43.57 2.24.57 1.77 0 3.35-.97 4.04-2.36l.13-.28s.03-.07.04-.09l.88-1.97 27.55-75.36c.25-.58.86-.96 1.54-.96h109.31c1.59 0 2.68 1.48 2.08 2.84z"/></g></g><defs><clipPath id="clip0_3452_258"><path fill="#fff" d="M0 0h164v164H0z"/></clipPath><clipPath id="clip1_3452_258"><path fill="#fff" d="M0 0h164v164H0z"/></clipPath></defs></symbol><symbol xmlns="http://www.w3.org/2000/svg" id="forbidden" fill="none" viewBox="0 0 164 164"><g clip-path="url(#clip0_3452_268)"><g clip-path="url(#clip1_3452_268)"><path fill="#9D948E" d="M36 20H8v124h28z"/><path fill="#9D948E" d="M44 136H0v8h44zM156 20h-28v124h28z"/><path fill="#9D948E" d="M164 136h-44v8h44z"/><path fill="#706B69" d="M36 62.71H8v5.28h28zM156 63h-28v5h28zM36 114.79H8v5.28h28zm120 0h-28v5.28h28z"/><path fill="#DBD6D1" d="M164 32H0v32h164zm0 52H0v32h164z"/><path fill="#F5F5F2" d="M19.42 116H0l19.82-32h19.42zm41.59 0H41.13l19.82-32h19.88zm41.58 0H82.27l19.82-32h20.32zm41.59 0H123.4l19.82-32H164zM19.42 64H0l19.82-32h19.42zm41.59 0H41.13l19.82-32h19.88zm41.58 0H82.27l19.82-32h20.32zm41.59 0H123.4l19.82-32H164z"/></g></g><defs><clipPath id="clip0_3452_268"><path fill="#fff" d="M0 0h164v164H0z"/></clipPath><clipPath id="clip1_3452_268"><path fill="#fff" d="M0 0h164v164H0z"/></clipPath></defs></symbol><symbol xmlns="http://www.w3.org/2000/svg" id="microscope" fill="none" viewBox="0 0 164 164"><g clip-path="url(#clip0_3452_262)"><g clip-path="url(#clip1_3452_262)"><path fill="#DBD6D1" d="M117.17 145.55a31.14 31.14 0 0 1 5.84 17.57H43.16c.19-8.4 3.68-16 9.23-21.54 3.81-3.8 8.58-6.63 13.93-8.08H20.58v-8.61H88.2c14.58 0 26.45-11.64 26.45-26.2 0-11.89-8.01-22.36-19.49-25.47l7.54-27.68c23.97 6.49 40.72 28.36 40.72 53.15 0 19.78-10.51 37.15-26.25 46.86"/><path fill="#706B69" d="m87.94 42.305-38.311 38.31 12.48 12.481 38.311-38.31z"/><path fill="#706B69" d="M111.915 12.328 63.259 60.984l18.456 18.455 48.656-48.656z"/><path fill="#C2BAB5" d="m62.249 59.97-4.087 4.087 20.506 20.507 4.087-4.087z"/><path fill="#DBD6D1" d="m143.42 30.53-13.05.27-18.45-18.46.97-12.34zm-43.175-19.3L56.871 54.606l31.24 31.24 43.374-43.374z"/><path fill="#706B69" d="M67.23 118.38H26.79v6.51h40.44z"/><path fill="#C2BAB5" d="M111.63 86.38c11.178 0 20.24-9.062 20.24-20.24s-9.062-20.24-20.24-20.24-20.24 9.062-20.24 20.24 9.062 20.24 20.24 20.24"/><path fill="#706B69" d="M111.63 75.05a8.91 8.91 0 1 0 0-17.82 8.91 8.91 0 0 0 0 17.82M152 152H12v12h140z"/></g></g><defs><clipPath id="clip0_3452_262"><path fill="#fff" d="M0 0h164v164H0z"/></clipPath><clipPath id="clip1_3452_262"><path fill="#fff" d="M0 0h164v164H0z"/></clipPath></defs></symbol><symbol xmlns="http://www.w3.org/2000/svg" id="no_connection" fill="none" viewBox="0 0 164 164"><g clip-path="url(#clip0_3452_269)"><g clip-path="url(#clip1_3452_269)"><path fill="#fff" d="M146.79 31.45H17.22v89.56h129.57z"/><path fill="#EAE8E5" d="M145.57 32.67v87.12H18.43V32.67h127.13m2.43-2.43H16v91.99h132v-92z"/><path fill="#DBD6D1" d="M148 30H16v9.85h132z"/><path fill="#fff" d="M129.76 36.56c.895 0 1.62-.72 1.62-1.61s-.725-1.61-1.62-1.61-1.62.72-1.62 1.61.725 1.61 1.62 1.61m12.11 0c.895 0 1.62-.72 1.62-1.61s-.725-1.61-1.62-1.61-1.62.72-1.62 1.61.725 1.61 1.62 1.61m-5.73 0c.895 0 1.62-.72 1.62-1.61s-.725-1.61-1.62-1.61-1.62.72-1.62 1.61.725 1.61 1.62 1.61"/><path fill="#312F2E" d="m69.677 112.845-14.36.096a2.227 2.227 0 0 0-2.215 2.239 2.23 2.23 0 0 0 2.245 2.211l14.36-.096a2.227 2.227 0 0 0 2.215-2.239 2.23 2.23 0 0 0-2.245-2.211m.085 12.7-14.36.095a2.227 2.227 0 0 0-2.215 2.239 2.23 2.23 0 0 0 2.244 2.211l14.36-.096a2.227 2.227 0 0 0 2.215-2.239 2.227 2.227 0 0 0-2.245-2.21"/><path fill="#DBD6D1" d="m27.96 124.29-14.36-.06c-3.66-.02-7.09-1.47-9.66-4.06A13.58 13.58 0 0 1 0 110.49C.05 103 6.18 96.93 13.69 96.93H16v6.33h-2.31c-4.03 0-7.32 3.25-7.35 7.28-.01 1.96.74 3.8 2.12 5.19a7.3 7.3 0 0 0 5.18 2.18l14.36.06z"/><path fill="#DBD6D1" d="m34.352 113.459 6.68-.044.108 16.4-6.68.044a7.82 7.82 0 0 1-7.871-7.768l-.005-.76a7.82 7.82 0 0 1 7.768-7.872"/><path fill="#706B69" d="M34.61 129.88v-16.42l9.42-.04.1 16.4z"/><path fill="#DBD6D1" d="m49.229 108.551 10.6-.071.172 26.03-10.6.07c-6.85.045-12.446-5.478-12.492-12.327l-.008-1.21c-.045-6.85 5.478-12.447 12.328-12.492"/><path fill="#706B69" d="M63.16 110.31a3.34 3.34 0 0 0-3.35-3.31h-.01a3.34 3.34 0 0 0-3.31 3.35l.05 7.86-7.89.05a3.327 3.327 0 0 0-3.3 3.35c.01 1.83 1.52 3.31 3.35 3.3l7.89-.05.05 7.83a3.34 3.34 0 0 0 3.35 3.31H60a3.34 3.34 0 0 0 3.31-3.35z"/><path fill="#DBD6D1" d="m137.53 124.15-.04-6.32 12.87-.06c4.05-.03 7.33-3.33 7.3-7.37a7.26 7.26 0 0 0-2.19-5.17 7.3 7.3 0 0 0-5.11-2.11l-2.35.02V96.8h2.35c3.62.01 7 1.41 9.57 3.93 2.6 2.56 4.05 5.98 4.07 9.62.05 7.53-6.05 13.69-13.6 13.74z"/><path fill="#DBD6D1" d="m130.454 129.295-6.68.044-.108-16.399 6.68-.045a7.82 7.82 0 0 1 7.871 7.768l.005.76a7.82 7.82 0 0 1-7.768 7.872"/><path fill="#706B69" d="m130.31 129.26-.21-16.38-6.42.04.11 16.4z"/><path fill="#DBD6D1" d="m115.595 134.211-10.599.07-.173-26.03 10.6-.07c6.85-.045 12.446 5.478 12.492 12.328l.008 1.21c.045 6.849-5.478 12.446-12.328 12.492"/><path fill="#706B69" d="M104.994 135.758h.01a3.33 3.33 0 0 0 3.308-3.352l-.148-22.339a3.33 3.33 0 0 0-3.352-3.308h-.01a3.33 3.33 0 0 0-3.308 3.352l.148 22.339a3.33 3.33 0 0 0 3.352 3.308"/></g></g><defs><clipPath id="clip0_3452_269"><path fill="#fff" d="M0 0h164v164H0z"/></clipPath><clipPath id="clip1_3452_269"><path fill="#fff" d="M0 0h164v164H0z"/></clipPath></defs></symbol><symbol xmlns="http://www.w3.org/2000/svg" id="not_found" fill="none" viewBox="0 0 164 164"><g clip-path="url(#clip0_3452_271)"><path fill="#21201F" d="M73.58 120.28h-.76c-9.19 0-16.67-7.48-16.67-16.67V82.99c0-2.08-1.69-3.78-3.78-3.78v-5.39c2.11 0 4.06.72 5.62 1.93a8.54 8.54 0 0 1-1.69-5.09V40.87c0-9.3 7.57-16.87 16.87-16.87 9.26 0 16.83 7.53 16.87 16.79l.11 33.07h29.22v5.39h-29.2l.08 24.31c.02 4.46-1.71 8.66-4.86 11.83a16.6 16.6 0 0 1-11.81 4.89m-13.89-42.8a9.1 9.1 0 0 1 1.85 5.51v20.62c0 6.22 5.06 11.29 11.29 11.29h.76c3.02 0 5.86-1.18 8-3.32 2.13-2.14 3.3-4.98 3.29-8.01l-.08-24.32H64.9a8.5 8.5 0 0 1-5.21-1.77m13.48-48.09c-6.33 0-11.49 5.15-11.49 11.49v29.79c0 1.77 1.44 3.2 3.21 3.2h19.87l-.11-33.05c-.02-6.31-5.17-11.43-11.48-11.43"/><path fill="#21201F" d="M38.44 125.29h-5.39V79.22H8.93c-3.55 0-6.67-2.01-8.13-5.26-1.46-3.24-.9-6.91 1.46-9.57l20.6-23.21c2.48-2.79 6.34-3.74 9.83-2.41s5.75 4.59 5.75 8.33v26.74h13.93v5.39H38.44zm-8.98-81.72c-.77 0-1.72.25-2.56 1.2L6.29 67.98c-.95 1.07-1.16 2.48-.58 3.78.59 1.3 1.79 2.08 3.21 2.08h24.13V47.1c0-2.26-1.74-3.09-2.27-3.29-.23-.09-.72-.24-1.32-.24m109.6 69.58h-5.39V79.22h-24.13c-3.55 0-6.67-2.01-8.13-5.26-1.46-3.24-.9-6.91 1.46-9.57l20.6-23.21c2.48-2.79 6.34-3.74 9.83-2.41s5.75 4.59 5.75 8.33v26.74h5.8v5.39h-5.8v33.92zm-8.98-69.58c-.77 0-1.72.25-2.56 1.2l-20.6 23.21c-.95 1.07-1.16 2.48-.58 3.78s1.79 2.08 3.21 2.08h24.13V47.1c0-2.26-1.74-3.09-2.27-3.29-.25-.09-.73-.24-1.33-.24"/><path fill="#21201F" d="M141.14 73.86h-2.08v5.4h2.08z"/><path fill="#EAE8E5" d="m115.09 146.72-10.32-20.24v-3.7h.82a1.43 1.43 0 1 0 0-2.86H93.61a1.43 1.43 0 1 0 0 2.86h.82v3.7l-10.32 20.24c-1.21 2.37.51 5.18 3.17 5.18h24.63c2.66 0 4.39-2.81 3.18-5.18"/><path fill="#21201F" d="M104.78 122.66H94.42v2.35h10.36zm4.46 26.05H89.23c-.61 0-1.11-.5-1.11-1.11v-.06c0-.61.5-1.11 1.11-1.11h20.01c.61 0 1.11.5 1.11 1.11v.06c-.01.61-.5 1.11-1.11 1.11"/><path fill="#EAE8E5" d="M41.2 120.77v-8.78h.86c.83 0 1.51-.67 1.51-1.51 0-.83-.67-1.51-1.51-1.51H29.44c-.83 0-1.51.67-1.51 1.51 0 .83.67 1.51 1.51 1.51h.86v8.78c-6.2 2.23-10.64 8.17-10.64 15.14 0 8.88 7.2 16.09 16.09 16.09s16.09-7.2 16.09-16.09c0-6.97-4.44-12.9-10.64-15.14"/><path fill="#21201F" d="M41.32 111.99H30.19v2.52h11.13zm3.88 31.85a12.4 12.4 0 0 1-9.46 4.36c-3.78 0-7.17-1.69-9.45-4.36zm102.33-69.97h-2.67v5.39h2.67z"/><path fill="#fff" d="M155.1 82.03a5.77 5.77 0 1 0 0-11.54 5.77 5.77 0 0 0 0 11.54"/><path fill="#21201F" d="M155.11 76.26h-.03c-.28 0-.51-.23-.51-.51v-3.6c0-.28.23-.51.51-.51h.03c.28 0 .51.23.51.51v3.6c0 .29-.23.51-.51.51"/><path fill="#21201F" d="M155.1 78.32a2.06 2.06 0 1 0 0-4.12 2.06 2.06 0 0 0 0 4.12"/><path fill="#EAE8E5" d="m153.06 146.34-11.08-21.74v-21.86h.88a1.53 1.53 0 1 0 0-3.06H130a1.53 1.53 0 1 0 0 3.06h.88v21.86l-11.08 21.74c-1.3 2.55.55 5.56 3.41 5.56h26.45c2.85 0 4.7-3.02 3.4-5.56"/><path fill="#21201F" d="M142 102.71h-11.13v2.52H142zm4.64 45.19h-20.42c-.93 0-1.68-.75-1.68-1.68v-.09c0-.93.75-1.68 1.68-1.68h20.42c.93 0 1.68.75 1.68 1.68v.09c0 .93-.75 1.68-1.68 1.68"/><path fill="#706B69" d="M38.44 125.29h-5.39V79.22H8.93c-3.55 0-6.67-2.01-8.13-5.26-1.46-3.24-.9-6.91 1.46-9.57l20.6-23.21c2.48-2.79 6.34-3.74 9.83-2.41s5.75 4.59 5.75 8.33v26.74h13.93v5.39H38.44v46.07zm-8.98-81.72c-.77 0-1.72.25-2.56 1.2L6.29 67.98c-.95 1.07-1.16 2.48-.58 3.78.59 1.3 1.79 2.08 3.21 2.08h24.13V47.1c0-2.26-1.74-3.09-2.27-3.29-.23-.09-.72-.24-1.32-.24"/><path fill="#312F2E" d="M41.26 73.86h-2.82v5.36h2.82zm-8.21-.02h-2.82v5.39h2.82z"/><path fill="#706B69" d="M73.58 120.28h-.76c-9.19 0-16.67-7.48-16.67-16.67V82.99c0-2.08-1.69-3.78-3.78-3.78v-5.39c2.11 0 4.06.72 5.62 1.93a8.54 8.54 0 0 1-1.69-5.09v-29.8c0-9.3 7.57-16.87 16.87-16.87S90 31.52 90.04 40.78l.11 33.07h29.22v5.39h-29.2l.08 24.31c.02 4.46-1.71 8.66-4.86 11.83-3.15 3.16-7.35 4.9-11.81 4.9m-13.89-42.8a9.1 9.1 0 0 1 1.85 5.51v20.62c0 6.22 5.06 11.29 11.29 11.29h.76c3.02 0 5.86-1.18 8-3.32 2.13-2.14 3.3-4.98 3.29-8.01l-.08-24.32H64.91c-1.95 0-3.76-.66-5.21-1.76zm13.49-48.1c-6.33 0-11.49 5.15-11.49 11.49v29.79c0 1.77 1.45 3.2 3.21 3.2h19.87l-.11-33.05c-.03-6.3-5.18-11.43-11.49-11.43z"/><path fill="#312F2E" d="M92.97 79.25h-2.8l-.01-5.39h2.81zm6.98-5.39h14.1v5.39h-11.37c-2.68-.75-4.12-4.28-4.12-5.39zm-15.16 5.39h-2.84v-5.39h2.82z"/><path fill="#706B69" d="M139.06 113.15h-5.39V79.22l-24.13.02c-3.55 0-6.67-2.04-8.13-5.28s-.9-6.91 1.46-9.57l20.6-23.21c2.48-2.79 6.34-3.74 9.83-2.41s5.75 4.59 5.75 8.33v26.74h8.94v5.39h-8.94v33.93zm-8.98-69.58c-.77 0-1.72.25-2.56 1.2l-20.6 23.21c-.95 1.07-1.16 2.48-.58 3.78s1.79 2.08 3.21 2.08h24.13V47.1c0-2.26-1.74-3.09-2.27-3.29-.23-.09-.72-.24-1.32-.24z"/><path fill="#312F2E" d="M133.67 73.84h-2.82v5.39h2.82zm10.86-1.23h-3.72v7.7h3.72zm10.24 12.55a8.9 8.9 0 1 0 0-17.8 8.9 8.9 0 0 0 0 17.8"/><path fill="#fff" d="M155.1 82.03a5.77 5.77 0 1 0 0-11.54 5.77 5.77 0 0 0 0 11.54"/><path fill="#706B69" d="M155.62 74.28v-2.12c0-.28-.23-.51-.51-.51h-.03c-.28 0-.51.23-.51.51v2.12a2.057 2.057 0 0 0 .52 4.05c1.14 0 2.06-.92 2.06-2.06 0-.96-.66-1.75-1.54-1.99z"/><path fill="#DBD6D1" d="m115.09 146.72-10.32-20.24v-3.7h.82a1.43 1.43 0 1 0 0-2.86H93.62a1.43 1.43 0 1 0 0 2.86h.82v3.7l-10.32 20.24c-1.21 2.37.51 5.18 3.17 5.18h24.63c2.66 0 4.38-2.81 3.17-5.18M41.2 120.77v-8.78h.86c.83 0 1.51-.67 1.51-1.51s-.67-1.51-1.51-1.51H29.44c-.83 0-1.51.67-1.51 1.51s.67 1.51 1.51 1.51h.86v8.78c-6.2 2.23-10.64 8.17-10.64 15.14 0 8.88 7.2 16.09 16.09 16.09s16.09-7.2 16.09-16.09c0-6.97-4.44-12.91-10.64-15.14m111.86 25.57-11.08-21.74v-21.86h.88c.85 0 1.53-.69 1.53-1.53s-.69-1.53-1.53-1.53H130c-.85 0-1.53.69-1.53 1.53s.69 1.53 1.53 1.53h.88v21.86l-11.08 21.74c-1.3 2.55.55 5.56 3.41 5.56h26.45c2.86 0 4.71-3.02 3.41-5.56z"/><path fill="#312F2E" d="M103.69 115.82h-8.83v4.1h8.83zm-63.45-11.1h-9.48v4.4h9.48zm100.6-9.46h-9.48v4.4h9.48z"/><path fill="#706B69" d="M45.2 143.84a12.4 12.4 0 0 1-9.46 4.36c-3.79 0-7.17-1.69-9.45-4.36zm101.44.61h-20.42a1.68 1.68 0 0 0-1.68 1.68v.09c0 .928.752 1.68 1.68 1.68h20.42a1.68 1.68 0 0 0 1.68-1.68v-.09a1.68 1.68 0 0 0-1.68-1.68m-37.41 1.99h-20a1.11 1.11 0 0 0-1.11 1.11v.05c0 .613.497 1.11 1.11 1.11h20a1.11 1.11 0 0 0 1.11-1.11v-.05a1.11 1.11 0 0 0-1.11-1.11m-4.45-23.78H94.42v2.35h10.36zm-63.46-10.67H30.19v2.52h11.13zM142 102.71h-11.13v2.52H142z"/></g><defs><clipPath id="clip0_3452_271"><path fill="#fff" d="M0 0h164v164H0z"/></clipPath></defs></symbol><symbol xmlns="http://www.w3.org/2000/svg" id="search" fill="none" viewBox="0 0 164 164"><g clip-path="url(#clip0_3452_261)"><g clip-path="url(#clip1_3452_261)"><path fill="#706B69" d="m98.915 92.5-6.217 6.215 12.181 12.186 6.217-6.215z"/><path fill="#DBD6D1" d="m99.382 111.238 11.86-11.856 38.291 38.303c3.273 3.275 3.265 8.585-.002 11.852-3.275 3.273-8.585 3.265-11.852-.003l-38.29-38.303zM62.51 104.33c23.113 0 41.85-18.732 41.85-41.84S85.623 20.65 62.51 20.65 20.66 39.382 20.66 62.49s18.737 41.84 41.85 41.84"/><path fill="#706B69" d="M62.03 12c-27.6-.03-50 22.31-50.03 49.91-.03 27.59 22.33 49.98 49.93 50.01 27.61.03 50-22.32 50.03-49.91.03-27.6-22.32-49.98-49.93-50.01m-.1 89.71c-21.96-.02-39.75-17.84-39.73-39.79.02-21.96 17.85-39.73 39.81-39.71 21.97.02 39.75 17.83 39.73 39.79-.02 21.95-17.84 39.73-39.81 39.71"/><path fill="#fff" d="M89.47 62.49S77.4 77.3 62.52 77.3 35.57 62.49 35.57 62.49s12.07-14.81 26.95-14.81 26.95 14.81 26.95 14.81"/><path fill="#DBD6D1" d="M62.51 72.87c5.733 0 10.38-4.647 10.38-10.38s-4.647-10.38-10.38-10.38-10.38 4.647-10.38 10.38 4.647 10.38 10.38 10.38"/><path fill="#312F2E" d="M62.18 68.32a5.83 5.83 0 1 0 0-11.66 5.83 5.83 0 0 0 0 11.66"/></g></g><defs><clipPath id="clip0_3452_261"><path fill="#fff" d="M0 0h164v164H0z"/></clipPath><clipPath id="clip1_3452_261"><path fill="#fff" d="M0 0h164v164H0z"/></clipPath></defs></symbol><symbol xmlns="http://www.w3.org/2000/svg" id="speech_bubble" fill="none" viewBox="0 0 164 164"><g clip-path="url(#clip0_3452_266)"><g clip-path="url(#clip1_3452_266)"><path fill="#C2BAB5" d="M152 112.08V43.87a3.91 3.91 0 0 0-3.91-3.91H56.91A3.91 3.91 0 0 0 53 43.87v68.21a3.91 3.91 0 0 0 3.91 3.91h91.18a3.91 3.91 0 0 0 3.91-3.91"/><path fill="#DBD6D1" d="M135.2 28H14.8c-1.55 0-2.8 1.25-2.8 2.8v94.36c0 1.55 1.25 2.8 2.8 2.8h24.31v24.03L68 127.96h67.2c1.55 0 2.8-1.25 2.8-2.8V30.8c0-1.55-1.25-2.8-2.8-2.8"/><path fill="#fff" d="M61 81.97a3.5 3.5 0 1 0 0-7 3.5 3.5 0 0 0 0 7m14 0a3.5 3.5 0 1 0 0-7 3.5 3.5 0 0 0 0 7m14 0a3.5 3.5 0 1 0 0-7 3.5 3.5 0 0 0 0 7"/></g></g><defs><clipPath id="clip0_3452_266"><path fill="#fff" d="M0 0h164v164H0z"/></clipPath><clipPath id="clip1_3452_266"><path fill="#fff" d="M0 0h164v164H0z"/></clipPath></defs></symbol><symbol xmlns="http://www.w3.org/2000/svg" id="unknown" fill="none" viewBox="0 0 164 164"><g clip-path="url(#clip0_3452_259)"><path fill="#706B69" d="M152 60H12l11.27-30.05A3.01 3.01 0 0 1 26.08 28h111.84c1.25 0 2.37.78 2.81 1.95z"/><path fill="#C2BAB5" d="M34 12h96c1.1 0 2 .9 2 2v57.35H32V14c0-1.1.9-2 2-2"/><path fill="#DBD6D1" d="M30 28h104c1.1 0 2 .9 2 2v67.38H28V30c0-1.1.9-2 2-2"/><path fill="#fff" d="M26 44h112c1.1 0 2 .9 2 2v71.19H24V46c0-1.1.9-2 2-2"/><path fill="#DBD6D1" d="M12 60h140v88c0 2.21-1.79 4-4 4H16c-2.21 0-4-1.79-4-4z"/><path fill="#706B69" fill-rule="evenodd" d="M78.76 115.03h5.83v5.83h-5.83zm5.83-7.07c0-.69.39-1.33 1.01-1.64l3.64-1.82a7.38 7.38 0 0 0 4.09-6.61v-2.16c0-4.63-3.86-8.39-8.61-8.39h-6.19a8.52 8.52 0 0 0-8.52 8.52V99h5.83v-3.27c0-1.41 1.25-2.56 2.78-2.56h6.1c1.53 0 2.78 1.15 2.78 2.56v1.8c0 1.11-.62 2.12-1.61 2.61l-4.1 2.05a5.47 5.47 0 0 0-3.03 4.9v3.56h5.83z" clip-rule="evenodd"/></g><defs><clipPath id="clip0_3452_259"><path fill="#fff" d="M0 0h164v164H0z"/></clipPath></defs></symbol><symbol xmlns="http://www.w3.org/2000/svg" id="upload" fill="none" viewBox="0 0 164 164"><g clip-path="url(#clip0_3452_263)"><g clip-path="url(#clip1_3452_263)"><path fill="#DBD6D1" d="M164 99c0 16.57-13.35 30-29.82 30H22.36C10.01 129 0 118.93 0 106.5S10.01 84 22.36 84c.18 0 .36 0 .54.02a52 52 0 0 1-.54-7.52c0-29 23.36-52.5 52.18-52.5 26.65 0 48.63 20.1 51.79 46.05 2.5-.68 5.13-1.05 7.84-1.05 16.47 0 29.82 13.43 29.82 30z"/><path fill="#706B69" d="M111.82 117.5 82 72.5l-29.82 45h14.91V136c0 2.21 1.79 4 4 4h21.82c2.21 0 4-1.79 4-4v-18.5z"/></g></g><defs><clipPath id="clip0_3452_263"><path fill="#fff" d="M0 0h164v164H0z"/></clipPath><clipPath id="clip1_3452_263"><path fill="#fff" d="M0 0h164v164H0z"/></clipPath></defs></symbol><symbol xmlns="http://www.w3.org/2000/svg" id="work_in_progress" fill="none" viewBox="0 0 164 164"><g clip-path="url(#clip0_3452_270)"><g clip-path="url(#clip1_3452_270)"><path fill="#DBD6D1" d="M135.98 25.54c.2 5.25-1.12 10.19-3.57 14.39-4.6 7.93-13.19 13.26-23.01 13.26-3.39 0-6.65-.63-9.63-1.8-.03-.02-.35-.14-.46-.18-.01 0-.02 0-.03-.01a8.99 8.99 0 0 0-10.17 3.43c-.61.86-1.06 1.84-1.33 2.88v.01c-.18.72-.28 1.47-.28 2.25 0 1.36.28 2.69.8 3.88.2.48.44.92.73 1.34.74 1.59 1.15 3.36 1.15 5.23 0 6.62-5.17 12.03-11.7 12.4h-3.54v-.03h-12.7c2.45-.78 4.49-2.49 5.72-4.7.81-1.45 1.28-3.13 1.28-4.91 0-2.85-1.18-5.41-3.08-7.25a9.8 9.8 0 0 0-1.99-1.49c-.28-.17-.57-.32-.87-.46-5.31-3.02-8.48-8.51-8.48-15.07 0-8.96 6.67-16.35 15.33-17.48v-.05c6.17-1.05 11.25-5.33 13.45-11.04.06-.15.12-.3.17-.45.17-.45.31-.92.43-1.39s.25-.95.43-1.4c1.16-2.97 2.85-5.69 4.95-8.03 5.21-5.84 13-9.37 21.58-8.81 13.49.87 24.3 11.98 24.82 25.48"/><path fill="#fff" d="M64.25 45.82c-.59-.78-1.09-1.62-1.48-2.54zm-5.42 8.64s-.09-.05-.14-.08c.32.14.63.3.92.48-.27-.12-.53-.26-.79-.4z"/><path fill="#9D948E" d="M122.16 82.13h-6.56c-.13-.02-.26-.03-.4-.03H35.08c-1.7 0-3.08 1.38-3.08 3.08v40.64c0 8.29 2.64 15.95 7.13 22.21 2.51 3.52 5.59 6.57 9.1 9.04A38.1 38.1 0 0 0 70.19 164h9.87c18.35 0 33.69-12.95 37.36-30.2h4.73c14.25 0 25.84-11.59 25.84-25.83s-11.59-25.84-25.84-25.84zm0 42.44h-3.88V91.36h3.88c9.16 0 16.61 7.45 16.61 16.61s-7.45 16.6-16.61 16.6"/><path fill="#544F4F" d="m56 148.01-7.76 9.06a38.3 38.3 0 0 1-9.11-9.03v-.02l16.86-.02z"/><path fill="#312F2E" d="M40.67 108.76V85.27c0-2.86 2.3-5.18 5.15-5.23.58 0 1.12.39 1.2.96.1.7-.44 1.3-1.12 1.3a2.97 2.97 0 0 0-2.97 2.97v23.49z"/><path fill="#DBD6D1" d="M37.61 107.03 24 120.63v25.07c0 1.17 1.01 2.12 2.25 2.12l29.5.19c1.24 0 2.25-.95 2.25-2.12v-36.75c0-1.17-1.01-2.12-2.25-2.12H37.6z"/><path fill="#fff" d="M37.6 120.62v-13.59L24 120.62z"/></g></g><defs><clipPath id="clip0_3452_270"><path fill="#fff" d="M0 0h164v164H0z"/></clipPath><clipPath id="clip1_3452_270"><path fill="#fff" d="M0 0h164v164H0z"/></clipPath></defs></symbol></svg>