<svg xmlns="http://www.w3.org/2000/svg" id="add_documents" width="164" height="164" fill="none" viewBox="0 0 164 164"><g clip-path="url(#clip0_3452_265)"><g clip-path="url(#clip1_3452_265)"><path fill="#706B69" d="M129.29 143.99H18.45c-.97-.08-2.33-.48-3.53-1.56-1-.91-1.7-2.15-1.9-3.57l-.16-1.08v-.02l-.04-.3L.04 50.54c-.29-1.97 1.14-3.74 3.01-3.74h51.52c.73 0 1.43.26 1.98.75l15.42 13.52c.55.48 1.25.75 1.98.75l45.76-7.62c1.5 0 2.78 1.16 3.01 2.74l1.76 11.98 10.08 68.55c.5 3.42-2 6.52-5.26 6.52z"/><path fill="#C2BAB5" d="M131.61 136.18H22.7L8.92 31.62h109.29z"/><path fill="#DBD6D1" d="M130.06 144H22.53L25.9 20h108.11z"/><path fill="#fff" d="M131.61 140.45H22.32L39.7 38.89h109.28z"/><path fill="#DBD6D1" d="M161.75 58.81c1.56 0 2.65 1.54 2.12 3.01l-2.42 7.1-27.04 73.03a3.01 3.01 0 0 1-2.85 2.01c-.6 0-1.18 0-1.54.04H18.67c-1.18 0-2.21-.36-3.09-1.04.67.2 1.16.22 1.55.22 1.78 0 3.41-1.18 4.1-2.69l.13-.31s.03-.08.04-.1l.88-2.15 27.31-67.12a3 3 0 0 1 2.78-1.87h44.07s.09 0 .14-.02c.68-.02 1.34-.29 1.85-.74l10.54-8.63c.55-.48 1.25-.74 1.97-.74h50.82z"/><path fill="#706B69" d="M137.72 136.5c14.514 0 26.28-11.766 26.28-26.28s-11.766-26.28-26.28-26.28-26.28 11.766-26.28 26.28 11.766 26.28 26.28 26.28"/><path fill="#fff" d="M149.74 108.22h-10.02V98.2h-4v10.02h-10.01v4h10.01v10.01h4v-10.01h10.02z"/></g></g><defs><clipPath id="clip0_3452_265"><path fill="#fff" d="M0 0h164v164H0z"/></clipPath><clipPath id="clip1_3452_265"><path fill="#fff" d="M0 0h164v164H0z"/></clipPath></defs></svg>