<svg xmlns="http://www.w3.org/2000/svg" id="authorisation" width="165" height="164" fill="none" viewBox="0 0 165 164"><g clip-path="url(#clip0_3452_272)"><g clip-path="url(#clip1_3452_272)"><path fill="#706B69" d="M121.57 122.78V140h6.24v-10.99h6.47v6.22h6.24v-6.22h5.24V140H152v-17.22z"/><path fill="#DBD6D1" d="M118.41 113.77v-1.62h-5.15v1.62H62.61c-2.21-11.83-12.62-20.82-25.09-20.82-14.54 0-26.28 12.22-25.49 26.92.7 12.99 11.25 23.48 24.25 24.1 12.78.61 23.64-8.23 26.2-20.12h50.77v1.62h5.15v-1.62h34.02c2.78 0 5.04-2.26 5.04-5.04s-2.26-5.04-5.04-5.04H118.4zm-80.88 20.35c-8.62 0-15.64-7.01-15.64-15.64s7.01-15.64 15.64-15.64 15.64 7.01 15.64 15.64-7.01 15.64-15.64 15.64"/><path fill="#C2BAB5" d="M113.13 113.77h-2.52v10.08h2.52z"/><path fill="#706B69" d="M111.93 47.99v8.99h-5.99v-8.99c0-3.31-2.69-5.99-6-5.99H81.95c-3.31 0-5.99 2.69-5.99 5.99v8.99h-6v-8.99c0-6.59 5.4-11.99 11.99-11.99h17.99c6.6 0 11.99 5.4 11.99 11.99"/><path fill="#DBD6D1" d="M112 56.98H69.97c-1.65 0-3.15.66-4.22 1.74a5.96 5.96 0 0 0-1.74 4.22v27.04c0 3.3 2.67 5.97 5.97 5.97h42.03c3.29 0 5.97-2.67 5.97-5.97V62.94c0-3.29-2.67-5.97-5.97-5.97z"/><path fill="#312F2E" d="M95.64 74.22c0 2.12-1.32 3.94-3.18 4.68v5.65h-3.68V78.9a5.035 5.035 0 0 1-3.18-4.68c0-2.77 2.25-5.03 5.02-5.03s5.03 2.25 5.03 5.03z"/><path fill="#fff" d="M13.59 93.43c-.42 0-.84.21-1.07.64L1.31 115.44c-.42.8.16 1.75 1.07 1.75h22.49c.9 0 1.49-.96 1.07-1.75L14.66 94.06c-.23-.43-.65-.64-1.07-.64z"/><path fill="#312F2E" d="M14.42 102.48h-2.26v5.66h2.26zm-2.25 10.19h2.26v-2.26h-2.26z"/><path fill="#EAE8E5" d="M24.87 118.37H2.38c-.84 0-1.6-.44-2.03-1.15s-.46-1.58-.07-2.32L11.5 93.53c.41-.78 1.22-1.27 2.1-1.27s1.69.48 2.1 1.27l11.28 21.38c.39.74.37 1.61-.07 2.32-.43.72-1.19 1.15-2.03 1.15zM13.59 94.6h-.02L2.35 115.98l22.52.04-11.28-21.43z"/><path fill="#fff" d="M50.38 13.13c-.42 0-.84.21-1.07.64L38.09 35.14c-.42.8.16 1.75 1.07 1.75h22.49c.9 0 1.49-.96 1.07-1.75L51.44 13.76c-.23-.43-.65-.64-1.07-.64z"/><path fill="#312F2E" d="M51.22 22.19h-2.26v5.66h2.26zm-2.26 10.19h2.26v-2.26h-2.26z"/><path fill="#EAE8E5" d="M61.66 38.07H39.17c-.84 0-1.6-.44-2.03-1.15s-.46-1.58-.07-2.32l11.22-21.37c.41-.78 1.22-1.27 2.1-1.27s1.69.49 2.1 1.27l11.28 21.38c.39.74.36 1.61-.07 2.32-.43.72-1.19 1.15-2.03 1.15zM50.38 14.3h-.02L39.14 35.68l22.52.04-11.28-21.43z"/><path fill="#fff" d="M150.34 74.93c-.42 0-.84.21-1.07.64l-11.22 21.37c-.42.8.16 1.75 1.07 1.75h22.49c.9 0 1.49-.96 1.07-1.75L151.4 75.56c-.23-.43-.65-.64-1.07-.64z"/><path fill="#312F2E" d="M151.18 83.99h-2.26v5.66h2.26zm-2.26 10.19h2.26v-2.26h-2.26z"/><path fill="#EAE8E5" d="M161.62 99.88h-22.49c-.84 0-1.6-.44-2.03-1.15s-.46-1.58-.07-2.32l11.22-21.37c.41-.78 1.22-1.27 2.1-1.27s1.69.49 2.1 1.27l11.28 21.38c.39.74.36 1.61-.07 2.32-.43.72-1.19 1.15-2.03 1.15zm-11.28-23.77h-.02L139.1 97.49l22.52.04-11.28-21.43z"/></g></g><defs><clipPath id="clip0_3452_272"><path fill="#fff" d="M0 0h165v164H0z"/></clipPath><clipPath id="clip1_3452_272"><path fill="#fff" d="M0 0h164.08v164H0z"/></clipPath></defs></svg>