<svg xmlns="http://www.w3.org/2000/svg" id="drag_and_drop" width="164" height="164" fill="none" viewBox="0 0 164 164"><g clip-path="url(#clip0_3452_260)"><g clip-path="url(#clip1_3452_260)"><path fill="#9D948E" d="M114.06 110.13h-5.24v1.75h4.21l2.15 3.93 1.53-.84-2.52-4.6-.13.07zm-10.49 0h-5.24v1.75h5.24zm-10.49 0h-5.24v1.75h5.24zm-10.49 0h-5.24v1.75h5.24zm-10.49 0h-5.24v1.75h5.24zm-10.49 0h-5.24v1.75h5.24zm-10.49 0h-5.24v1.75h5.24zm-9.17 2.23-1.25 2.28v.02h-.02c-.63 1.15-1.25 2.29-1.25 2.29l1.53.84 2.52-4.6-1.53-.84zm-5.03 9.2-2.52 4.6 1.53.84 2.52-4.6zm-5.03 9.2-2.52 4.6 1.53.84 2.52-4.6zm3.28 5.63h-5.24v1.75h5.24zm10.49 0h-5.24v1.75h5.24zm10.49 0h-5.24v1.75h5.24zm10.49 0H61.4v1.75h5.24zm10.49 0h-5.24v1.75h5.24zm10.49 0h-5.24v1.75h5.24zm10.49 0h-5.24v1.75h5.24zm10.49 0h-5.24v1.75h5.24zm10.49 0h-5.24v1.75h5.24zm9.34 0h-4.1v1.75h5.05l-.96-1.75zm-4.17-7.62-1.53.84 2.52 4.6 1.53-.84zm-5.03-9.2-1.53.84 2.52 4.6 1.53-.84-1.02-1.87-.03-.06s0-.02-.01-.03c0 0 0-.02-.01-.03 0 0 0-.02-.01-.03v-.01l-1.41-2.58z"/><path fill="#706B69" d="M60.25 60.68 24.98 78.5c-.95.48-2.12.09-2.59-.87L.2 32.94c-.48-.96-.09-2.14.86-2.62L36.34 12.5c.95-.48 2.12-.09 2.59.87l22.18 44.7c.48.96.09 2.14-.86 2.62z"/><path fill="#C2BAB5" d="m55.19 56.56-13.35-7.2-.9 5.94-12.64-6.82-3.54 23.45z"/><path fill="#DBD6D1" d="m115.37 30.14-.05 16.2-.15 47.75c0 1.18-.95 2.13-2.12 2.13l-28.71-.07-34.62-.09c-1.17 0-2.11-.96-2.1-2.14l.19-79.79c0-1.18.95-2.13 2.12-2.13l47.55.16 17.88 17.98z"/><path fill="#EAE8E5" d="M115.34 30.14H97.48V12.12z"/><path fill="#C2BAB5" d="M82.48 32.15H43.41v17.62h39.07z"/><path fill="#544F4F" d="M50.93 42.71v3.52h-2.48V35.87h4.1c.79 0 1.48.15 2.08.44s1.07.71 1.4 1.25.5 1.15.5 1.83c0 1.01-.36 1.82-1.08 2.42s-1.7.91-2.95.91h-1.58zm0-1.93h1.62c.48 0 .85-.12 1.1-.36s.38-.58.38-1.02c0-.48-.13-.87-.39-1.16s-.61-.44-1.06-.44h-1.65v2.99zm8.37 5.44V35.86h3.31c.91 0 1.72.21 2.45.62.72.42 1.29 1 1.7 1.76s.61 1.6.62 2.54v.48q0 1.425-.6 2.55t-1.68 1.77c-.72.42-1.53.64-2.42.64zm2.48-8.43v6.51h.86c.71 0 1.26-.25 1.64-.76s.57-1.27.57-2.27v-.45c0-1-.19-1.75-.57-2.26s-.94-.76-1.66-.76h-.83zm14.78 4.31h-3.99v4.13h-2.48V35.87h6.87v1.93h-4.39v2.38h3.99z"/><path fill="#EAE8E5" d="M130.5 151.77 73.58 128.2a3.06 3.06 0 0 1-1.65-3.97l29.33-72.13a3.01 3.01 0 0 1 3.94-1.66l56.92 23.57a3.06 3.06 0 0 1 1.65 3.97l-29.33 72.13a3.01 3.01 0 0 1-3.94 1.66"/><path fill="#C2BAB5" d="m112.63 109.9-17.47-7.23L96.65 99l17.47 7.23zm21.79 4.74-17.47-7.23-1.49 3.67 17.47 7.23zm-22.83-2.18-17.47-7.23-1.49 3.67 17.47 7.23zm20.3 8.4-17.47-7.23-1.49 3.67 17.47 7.23zm-22.83-2.18-17.47-7.23-1.49 3.67 17.47 7.23zm20.3 8.4-17.47-7.23-1.49 3.67 17.47 7.23zm-22.83-2.18-17.47-7.23-1.49 3.67 17.47 7.23zm20.3 8.4-17.47-7.23-1.49 3.67 17.47 7.23z"/></g></g><defs><clipPath id="clip0_3452_260"><path fill="#fff" d="M0 0h164v164H0z"/></clipPath><clipPath id="clip1_3452_260"><path fill="#fff" d="M0 0h164v164H0z"/></clipPath></defs></svg>