<svg xmlns="http://www.w3.org/2000/svg" id="empty_box" width="164" height="164" fill="none" viewBox="0 0 164 164"><g clip-path="url(#clip0_3452_257)"><g clip-path="url(#clip1_3452_257)"><path fill="#706B69" d="m82 84-54.66 33.9L82 152l54.67-34.1z"/><path fill="#9D948E" d="M136.67 118.1 82 84V29.48l54.67 33.9z"/><path fill="#9D948E" d="m82 152 54.67-34.1V63.38L82 97.48z"/><path fill="#C2BAB5" d="M27.34 118.1 82 84V29.48l-54.66 34.1z"/><path fill="#C2BAB5" d="m82 152-54.66-34.1V63.58L82 97.48z"/><path fill="#DBD6D1" d="M0 46.1 54.67 12 82 29.48l-54.66 34.1zm82 51.38 54.67-34.1L164 80.66l-54.66 34.1zm0-67.98 27.34-16.95L164 46.45l-27.33 16.93zM0 80.54l27.34-16.96L82 97.48l-27.34 16.94z"/></g></g><defs><clipPath id="clip0_3452_257"><path fill="#fff" d="M0 0h164v164H0z"/></clipPath><clipPath id="clip1_3452_257"><path fill="#fff" d="M0 0h164v164H0z"/></clipPath></defs></svg>