<svg xmlns="http://www.w3.org/2000/svg" id="error" width="164" height="164" fill="none" viewBox="0 0 164 164"><g clip-path="url(#clip0_3452_267)"><g clip-path="url(#clip1_3452_267)"><path fill="#DBD6D1" d="M148.22 152H15.78c-4.3 0-7.78-3.63-7.78-8.11s3.48-8.11 7.78-8.11h132.44c4.3 0 7.78 3.63 7.78 8.11s-3.48 8.11-7.78 8.11m-25.39-47.44H40.66L53.21 73.7h57.06zm-25.1-61.71H65.76L77 15.22c.87-2.15 2.81-3.22 4.74-3.22s3.87 1.07 4.74 3.22l11.24 27.63z"/><path fill="#9D948E" d="M135.38 135.75H28.11l12.55-31.19h82.17zM110.27 73.7H53.21l12.55-30.85h31.97z"/></g></g><defs><clipPath id="clip0_3452_267"><path fill="#fff" d="M0 0h164v164H0z"/></clipPath><clipPath id="clip1_3452_267"><path fill="#fff" d="M0 0h164v164H0z"/></clipPath></defs></svg>