<svg xmlns="http://www.w3.org/2000/svg" id="file" width="164" height="164" fill="none" viewBox="0 0 164 164"><g clip-path="url(#clip0_3452_256)"><g clip-path="url(#clip1_3452_256)"><path fill="#C2BAB5" d="M131.01 12H43.24a4.81 4.81 0 0 0-4.81 4.81v112.12a4.81 4.81 0 0 0 4.81 4.81h87.77a4.81 4.81 0 0 0 4.81-4.81V16.81a4.81 4.81 0 0 0-4.81-4.81"/><path fill="#DBD6D1" d="M114.94 152H23.06c-1.69 0-3.06-1.41-3.06-3.14V60l32-32h62.94c1.69 0 3.06 1.41 3.06 3.14v117.72c0 1.73-1.37 3.14-3.06 3.14"/><path fill="#9D948E" d="M52 60 20 91.54V60z"/><path fill="#fff" d="M52 28v32H20zm33.38 60.8H71.4V74.81h-4V88.8H53.43v4H67.4v14h4v-14h13.98zm20.69 52.35L87.13 152l5.11-21.18 5.97-7.95c1.06-1.41 2.61-2.04 3.47-1.41l10.73 8.01c.85.64.69 2.3-.37 3.72l-5.97 7.95z"/><path fill="#DBD6D1" d="m105.1 139.97-11.45-8.55c-.66-.49-.79-1.42-.3-2.07l40.03-53.32a4.01 4.01 0 0 1 5.6-.8l7.42 5.54a3.97 3.97 0 0 1 .8 5.58l-40.03 53.32c-.49.65-1.42.79-2.08.3z"/><path fill="#706B69" d="m106.29 140.85-13.83-10.32 36.16-48.18 13.83 10.33z"/><path fill="#C2BAB5" d="m101.43 137.25-5.49-4.1 36.93-47.63 5.49 4.1z"/><path fill="#544F4F" d="M95.79 147.04 87.13 152l2.34-9.68z"/></g></g><defs><clipPath id="clip0_3452_256"><path fill="#fff" d="M0 0h164v164H0z"/></clipPath><clipPath id="clip1_3452_256"><path fill="#fff" d="M0 0h164v164H0z"/></clipPath></defs></svg>