<svg xmlns="http://www.w3.org/2000/svg" id="folder" width="164" height="164" fill="none" viewBox="0 0 164 164"><g clip-path="url(#clip0_3452_258)"><g clip-path="url(#clip1_3452_258)"><path fill="#706B69" d="M129.97 139.99H19.54c-.97-.08-2.32-.47-3.52-1.52a5.75 5.75 0 0 1-1.89-3.47l-.16-1.05-.04-.31-13.89-106c-.29-1.92 1.14-3.64 3-3.64h54.32c.73 0 1.43.26 1.97.73l12.37 9.52c.55.47 1.25.73 1.97.73h46.75c1.5 0 2.77 1.13 3 2.67l1.76 15.33 10.04 80.67c.5 3.33-1.99 6.36-5.24 6.36z"/><path fill="#DBD6D1" d="m163.83 60.96-28.11 76.89c-.57 1.3-1.94 2.15-3.47 2.15H20.05c-1.62.07-2.73-.45-4.02-1.43.66.36 1.43.57 2.24.57 1.77 0 3.35-.97 4.04-2.36l.13-.28s.03-.07.04-.09l.88-1.97 27.55-75.36c.25-.58.86-.96 1.54-.96h109.31c1.59 0 2.68 1.48 2.08 2.84z"/></g></g><defs><clipPath id="clip0_3452_258"><path fill="#fff" d="M0 0h164v164H0z"/></clipPath><clipPath id="clip1_3452_258"><path fill="#fff" d="M0 0h164v164H0z"/></clipPath></defs></svg>