<svg xmlns="http://www.w3.org/2000/svg" id="forbidden" width="164" height="164" fill="none" viewBox="0 0 164 164"><g clip-path="url(#clip0_3452_268)"><g clip-path="url(#clip1_3452_268)"><path fill="#9D948E" d="M36 20H8v124h28z"/><path fill="#9D948E" d="M44 136H0v8h44zM156 20h-28v124h28z"/><path fill="#9D948E" d="M164 136h-44v8h44z"/><path fill="#706B69" d="M36 62.71H8v5.28h28zM156 63h-28v5h28zM36 114.79H8v5.28h28zm120 0h-28v5.28h28z"/><path fill="#DBD6D1" d="M164 32H0v32h164zm0 52H0v32h164z"/><path fill="#F5F5F2" d="M19.42 116H0l19.82-32h19.42zm41.59 0H41.13l19.82-32h19.88zm41.58 0H82.27l19.82-32h20.32zm41.59 0H123.4l19.82-32H164zM19.42 64H0l19.82-32h19.42zm41.59 0H41.13l19.82-32h19.88zm41.58 0H82.27l19.82-32h20.32zm41.59 0H123.4l19.82-32H164z"/></g></g><defs><clipPath id="clip0_3452_268"><path fill="#fff" d="M0 0h164v164H0z"/></clipPath><clipPath id="clip1_3452_268"><path fill="#fff" d="M0 0h164v164H0z"/></clipPath></defs></svg>