<svg xmlns="http://www.w3.org/2000/svg" id="microscope" width="164" height="164" fill="none" viewBox="0 0 164 164"><g clip-path="url(#clip0_3452_262)"><g clip-path="url(#clip1_3452_262)"><path fill="#DBD6D1" d="M117.17 145.55a31.14 31.14 0 0 1 5.84 17.57H43.16c.19-8.4 3.68-16 9.23-21.54 3.81-3.8 8.58-6.63 13.93-8.08H20.58v-8.61H88.2c14.58 0 26.45-11.64 26.45-26.2 0-11.89-8.01-22.36-19.49-25.47l7.54-27.68c23.97 6.49 40.72 28.36 40.72 53.15 0 19.78-10.51 37.15-26.25 46.86"/><path fill="#706B69" d="m87.94 42.305-38.311 38.31 12.48 12.481 38.311-38.31z"/><path fill="#706B69" d="M111.915 12.328 63.259 60.984l18.456 18.455 48.656-48.656z"/><path fill="#C2BAB5" d="m62.249 59.97-4.087 4.087 20.506 20.507 4.087-4.087z"/><path fill="#DBD6D1" d="m143.42 30.53-13.05.27-18.45-18.46.97-12.34zm-43.175-19.3L56.871 54.606l31.24 31.24 43.374-43.374z"/><path fill="#706B69" d="M67.23 118.38H26.79v6.51h40.44z"/><path fill="#C2BAB5" d="M111.63 86.38c11.178 0 20.24-9.062 20.24-20.24s-9.062-20.24-20.24-20.24-20.24 9.062-20.24 20.24 9.062 20.24 20.24 20.24"/><path fill="#706B69" d="M111.63 75.05a8.91 8.91 0 1 0 0-17.82 8.91 8.91 0 0 0 0 17.82M152 152H12v12h140z"/></g></g><defs><clipPath id="clip0_3452_262"><path fill="#fff" d="M0 0h164v164H0z"/></clipPath><clipPath id="clip1_3452_262"><path fill="#fff" d="M0 0h164v164H0z"/></clipPath></defs></svg>