<svg xmlns="http://www.w3.org/2000/svg" id="no_connection" width="164" height="164" fill="none" viewBox="0 0 164 164"><g clip-path="url(#clip0_3452_269)"><g clip-path="url(#clip1_3452_269)"><path fill="#fff" d="M146.79 31.45H17.22v89.56h129.57z"/><path fill="#EAE8E5" d="M145.57 32.67v87.12H18.43V32.67h127.13m2.43-2.43H16v91.99h132v-92z"/><path fill="#DBD6D1" d="M148 30H16v9.85h132z"/><path fill="#fff" d="M129.76 36.56c.895 0 1.62-.72 1.62-1.61s-.725-1.61-1.62-1.61-1.62.72-1.62 1.61.725 1.61 1.62 1.61m12.11 0c.895 0 1.62-.72 1.62-1.61s-.725-1.61-1.62-1.61-1.62.72-1.62 1.61.725 1.61 1.62 1.61m-5.73 0c.895 0 1.62-.72 1.62-1.61s-.725-1.61-1.62-1.61-1.62.72-1.62 1.61.725 1.61 1.62 1.61"/><path fill="#312F2E" d="m69.677 112.845-14.36.096a2.227 2.227 0 0 0-2.215 2.239 2.23 2.23 0 0 0 2.245 2.211l14.36-.096a2.227 2.227 0 0 0 2.215-2.239 2.23 2.23 0 0 0-2.245-2.211m.085 12.7-14.36.095a2.227 2.227 0 0 0-2.215 2.239 2.23 2.23 0 0 0 2.244 2.211l14.36-.096a2.227 2.227 0 0 0 2.215-2.239 2.227 2.227 0 0 0-2.245-2.21"/><path fill="#DBD6D1" d="m27.96 124.29-14.36-.06c-3.66-.02-7.09-1.47-9.66-4.06A13.58 13.58 0 0 1 0 110.49C.05 103 6.18 96.93 13.69 96.93H16v6.33h-2.31c-4.03 0-7.32 3.25-7.35 7.28-.01 1.96.74 3.8 2.12 5.19a7.3 7.3 0 0 0 5.18 2.18l14.36.06z"/><path fill="#DBD6D1" d="m34.352 113.459 6.68-.044.108 16.4-6.68.044a7.82 7.82 0 0 1-7.871-7.768l-.005-.76a7.82 7.82 0 0 1 7.768-7.872"/><path fill="#706B69" d="M34.61 129.88v-16.42l9.42-.04.1 16.4z"/><path fill="#DBD6D1" d="m49.229 108.551 10.6-.071.172 26.03-10.6.07c-6.85.045-12.446-5.478-12.492-12.327l-.008-1.21c-.045-6.85 5.478-12.447 12.328-12.492"/><path fill="#706B69" d="M63.16 110.31a3.34 3.34 0 0 0-3.35-3.31h-.01a3.34 3.34 0 0 0-3.31 3.35l.05 7.86-7.89.05a3.327 3.327 0 0 0-3.3 3.35c.01 1.83 1.52 3.31 3.35 3.3l7.89-.05.05 7.83a3.34 3.34 0 0 0 3.35 3.31H60a3.34 3.34 0 0 0 3.31-3.35z"/><path fill="#DBD6D1" d="m137.53 124.15-.04-6.32 12.87-.06c4.05-.03 7.33-3.33 7.3-7.37a7.26 7.26 0 0 0-2.19-5.17 7.3 7.3 0 0 0-5.11-2.11l-2.35.02V96.8h2.35c3.62.01 7 1.41 9.57 3.93 2.6 2.56 4.05 5.98 4.07 9.62.05 7.53-6.05 13.69-13.6 13.74z"/><path fill="#DBD6D1" d="m130.454 129.295-6.68.044-.108-16.399 6.68-.045a7.82 7.82 0 0 1 7.871 7.768l.005.76a7.82 7.82 0 0 1-7.768 7.872"/><path fill="#706B69" d="m130.31 129.26-.21-16.38-6.42.04.11 16.4z"/><path fill="#DBD6D1" d="m115.595 134.211-10.599.07-.173-26.03 10.6-.07c6.85-.045 12.446 5.478 12.492 12.328l.008 1.21c.045 6.849-5.478 12.446-12.328 12.492"/><path fill="#706B69" d="M104.994 135.758h.01a3.33 3.33 0 0 0 3.308-3.352l-.148-22.339a3.33 3.33 0 0 0-3.352-3.308h-.01a3.33 3.33 0 0 0-3.308 3.352l.148 22.339a3.33 3.33 0 0 0 3.352 3.308"/></g></g><defs><clipPath id="clip0_3452_269"><path fill="#fff" d="M0 0h164v164H0z"/></clipPath><clipPath id="clip1_3452_269"><path fill="#fff" d="M0 0h164v164H0z"/></clipPath></defs></svg>