<svg xmlns="http://www.w3.org/2000/svg" id="not_found" width="164" height="164" fill="none" viewBox="0 0 164 164"><g clip-path="url(#clip0_3452_271)"><path fill="#21201F" d="M73.58 120.28h-.76c-9.19 0-16.67-7.48-16.67-16.67V82.99c0-2.08-1.69-3.78-3.78-3.78v-5.39c2.11 0 4.06.72 5.62 1.93a8.54 8.54 0 0 1-1.69-5.09V40.87c0-9.3 7.57-16.87 16.87-16.87 9.26 0 16.83 7.53 16.87 16.79l.11 33.07h29.22v5.39h-29.2l.08 24.31c.02 4.46-1.71 8.66-4.86 11.83a16.6 16.6 0 0 1-11.81 4.89m-13.89-42.8a9.1 9.1 0 0 1 1.85 5.51v20.62c0 6.22 5.06 11.29 11.29 11.29h.76c3.02 0 5.86-1.18 8-3.32 2.13-2.14 3.3-4.98 3.29-8.01l-.08-24.32H64.9a8.5 8.5 0 0 1-5.21-1.77m13.48-48.09c-6.33 0-11.49 5.15-11.49 11.49v29.79c0 1.77 1.44 3.2 3.21 3.2h19.87l-.11-33.05c-.02-6.31-5.17-11.43-11.48-11.43"/><path fill="#21201F" d="M38.44 125.29h-5.39V79.22H8.93c-3.55 0-6.67-2.01-8.13-5.26-1.46-3.24-.9-6.91 1.46-9.57l20.6-23.21c2.48-2.79 6.34-3.74 9.83-2.41s5.75 4.59 5.75 8.33v26.74h13.93v5.39H38.44zm-8.98-81.72c-.77 0-1.72.25-2.56 1.2L6.29 67.98c-.95 1.07-1.16 2.48-.58 3.78.59 1.3 1.79 2.08 3.21 2.08h24.13V47.1c0-2.26-1.74-3.09-2.27-3.29-.23-.09-.72-.24-1.32-.24m109.6 69.58h-5.39V79.22h-24.13c-3.55 0-6.67-2.01-8.13-5.26-1.46-3.24-.9-6.91 1.46-9.57l20.6-23.21c2.48-2.79 6.34-3.74 9.83-2.41s5.75 4.59 5.75 8.33v26.74h5.8v5.39h-5.8v33.92zm-8.98-69.58c-.77 0-1.72.25-2.56 1.2l-20.6 23.21c-.95 1.07-1.16 2.48-.58 3.78s1.79 2.08 3.21 2.08h24.13V47.1c0-2.26-1.74-3.09-2.27-3.29-.25-.09-.73-.24-1.33-.24"/><path fill="#21201F" d="M141.14 73.86h-2.08v5.4h2.08z"/><path fill="#EAE8E5" d="m115.09 146.72-10.32-20.24v-3.7h.82a1.43 1.43 0 1 0 0-2.86H93.61a1.43 1.43 0 1 0 0 2.86h.82v3.7l-10.32 20.24c-1.21 2.37.51 5.18 3.17 5.18h24.63c2.66 0 4.39-2.81 3.18-5.18"/><path fill="#21201F" d="M104.78 122.66H94.42v2.35h10.36zm4.46 26.05H89.23c-.61 0-1.11-.5-1.11-1.11v-.06c0-.61.5-1.11 1.11-1.11h20.01c.61 0 1.11.5 1.11 1.11v.06c-.01.61-.5 1.11-1.11 1.11"/><path fill="#EAE8E5" d="M41.2 120.77v-8.78h.86c.83 0 1.51-.67 1.51-1.51 0-.83-.67-1.51-1.51-1.51H29.44c-.83 0-1.51.67-1.51 1.51 0 .83.67 1.51 1.51 1.51h.86v8.78c-6.2 2.23-10.64 8.17-10.64 15.14 0 8.88 7.2 16.09 16.09 16.09s16.09-7.2 16.09-16.09c0-6.97-4.44-12.9-10.64-15.14"/><path fill="#21201F" d="M41.32 111.99H30.19v2.52h11.13zm3.88 31.85a12.4 12.4 0 0 1-9.46 4.36c-3.78 0-7.17-1.69-9.45-4.36zm102.33-69.97h-2.67v5.39h2.67z"/><path fill="#fff" d="M155.1 82.03a5.77 5.77 0 1 0 0-11.54 5.77 5.77 0 0 0 0 11.54"/><path fill="#21201F" d="M155.11 76.26h-.03c-.28 0-.51-.23-.51-.51v-3.6c0-.28.23-.51.51-.51h.03c.28 0 .51.23.51.51v3.6c0 .29-.23.51-.51.51"/><path fill="#21201F" d="M155.1 78.32a2.06 2.06 0 1 0 0-4.12 2.06 2.06 0 0 0 0 4.12"/><path fill="#EAE8E5" d="m153.06 146.34-11.08-21.74v-21.86h.88a1.53 1.53 0 1 0 0-3.06H130a1.53 1.53 0 1 0 0 3.06h.88v21.86l-11.08 21.74c-1.3 2.55.55 5.56 3.41 5.56h26.45c2.85 0 4.7-3.02 3.4-5.56"/><path fill="#21201F" d="M142 102.71h-11.13v2.52H142zm4.64 45.19h-20.42c-.93 0-1.68-.75-1.68-1.68v-.09c0-.93.75-1.68 1.68-1.68h20.42c.93 0 1.68.75 1.68 1.68v.09c0 .93-.75 1.68-1.68 1.68"/><path fill="#706B69" d="M38.44 125.29h-5.39V79.22H8.93c-3.55 0-6.67-2.01-8.13-5.26-1.46-3.24-.9-6.91 1.46-9.57l20.6-23.21c2.48-2.79 6.34-3.74 9.83-2.41s5.75 4.59 5.75 8.33v26.74h13.93v5.39H38.44v46.07zm-8.98-81.72c-.77 0-1.72.25-2.56 1.2L6.29 67.98c-.95 1.07-1.16 2.48-.58 3.78.59 1.3 1.79 2.08 3.21 2.08h24.13V47.1c0-2.26-1.74-3.09-2.27-3.29-.23-.09-.72-.24-1.32-.24"/><path fill="#312F2E" d="M41.26 73.86h-2.82v5.36h2.82zm-8.21-.02h-2.82v5.39h2.82z"/><path fill="#706B69" d="M73.58 120.28h-.76c-9.19 0-16.67-7.48-16.67-16.67V82.99c0-2.08-1.69-3.78-3.78-3.78v-5.39c2.11 0 4.06.72 5.62 1.93a8.54 8.54 0 0 1-1.69-5.09v-29.8c0-9.3 7.57-16.87 16.87-16.87S90 31.52 90.04 40.78l.11 33.07h29.22v5.39h-29.2l.08 24.31c.02 4.46-1.71 8.66-4.86 11.83-3.15 3.16-7.35 4.9-11.81 4.9m-13.89-42.8a9.1 9.1 0 0 1 1.85 5.51v20.62c0 6.22 5.06 11.29 11.29 11.29h.76c3.02 0 5.86-1.18 8-3.32 2.13-2.14 3.3-4.98 3.29-8.01l-.08-24.32H64.91c-1.95 0-3.76-.66-5.21-1.76zm13.49-48.1c-6.33 0-11.49 5.15-11.49 11.49v29.79c0 1.77 1.45 3.2 3.21 3.2h19.87l-.11-33.05c-.03-6.3-5.18-11.43-11.49-11.43z"/><path fill="#312F2E" d="M92.97 79.25h-2.8l-.01-5.39h2.81zm6.98-5.39h14.1v5.39h-11.37c-2.68-.75-4.12-4.28-4.12-5.39zm-15.16 5.39h-2.84v-5.39h2.82z"/><path fill="#706B69" d="M139.06 113.15h-5.39V79.22l-24.13.02c-3.55 0-6.67-2.04-8.13-5.28s-.9-6.91 1.46-9.57l20.6-23.21c2.48-2.79 6.34-3.74 9.83-2.41s5.75 4.59 5.75 8.33v26.74h8.94v5.39h-8.94v33.93zm-8.98-69.58c-.77 0-1.72.25-2.56 1.2l-20.6 23.21c-.95 1.07-1.16 2.48-.58 3.78s1.79 2.08 3.21 2.08h24.13V47.1c0-2.26-1.74-3.09-2.27-3.29-.23-.09-.72-.24-1.32-.24z"/><path fill="#312F2E" d="M133.67 73.84h-2.82v5.39h2.82zm10.86-1.23h-3.72v7.7h3.72zm10.24 12.55a8.9 8.9 0 1 0 0-17.8 8.9 8.9 0 0 0 0 17.8"/><path fill="#fff" d="M155.1 82.03a5.77 5.77 0 1 0 0-11.54 5.77 5.77 0 0 0 0 11.54"/><path fill="#706B69" d="M155.62 74.28v-2.12c0-.28-.23-.51-.51-.51h-.03c-.28 0-.51.23-.51.51v2.12a2.057 2.057 0 0 0 .52 4.05c1.14 0 2.06-.92 2.06-2.06 0-.96-.66-1.75-1.54-1.99z"/><path fill="#DBD6D1" d="m115.09 146.72-10.32-20.24v-3.7h.82a1.43 1.43 0 1 0 0-2.86H93.62a1.43 1.43 0 1 0 0 2.86h.82v3.7l-10.32 20.24c-1.21 2.37.51 5.18 3.17 5.18h24.63c2.66 0 4.38-2.81 3.17-5.18M41.2 120.77v-8.78h.86c.83 0 1.51-.67 1.51-1.51s-.67-1.51-1.51-1.51H29.44c-.83 0-1.51.67-1.51 1.51s.67 1.51 1.51 1.51h.86v8.78c-6.2 2.23-10.64 8.17-10.64 15.14 0 8.88 7.2 16.09 16.09 16.09s16.09-7.2 16.09-16.09c0-6.97-4.44-12.91-10.64-15.14m111.86 25.57-11.08-21.74v-21.86h.88c.85 0 1.53-.69 1.53-1.53s-.69-1.53-1.53-1.53H130c-.85 0-1.53.69-1.53 1.53s.69 1.53 1.53 1.53h.88v21.86l-11.08 21.74c-1.3 2.55.55 5.56 3.41 5.56h26.45c2.86 0 4.71-3.02 3.41-5.56z"/><path fill="#312F2E" d="M103.69 115.82h-8.83v4.1h8.83zm-63.45-11.1h-9.48v4.4h9.48zm100.6-9.46h-9.48v4.4h9.48z"/><path fill="#706B69" d="M45.2 143.84a12.4 12.4 0 0 1-9.46 4.36c-3.79 0-7.17-1.69-9.45-4.36zm101.44.61h-20.42a1.68 1.68 0 0 0-1.68 1.68v.09c0 .928.752 1.68 1.68 1.68h20.42a1.68 1.68 0 0 0 1.68-1.68v-.09a1.68 1.68 0 0 0-1.68-1.68m-37.41 1.99h-20a1.11 1.11 0 0 0-1.11 1.11v.05c0 .613.497 1.11 1.11 1.11h20a1.11 1.11 0 0 0 1.11-1.11v-.05a1.11 1.11 0 0 0-1.11-1.11m-4.45-23.78H94.42v2.35h10.36zm-63.46-10.67H30.19v2.52h11.13zM142 102.71h-11.13v2.52H142z"/></g><defs><clipPath id="clip0_3452_271"><path fill="#fff" d="M0 0h164v164H0z"/></clipPath></defs></svg>