<svg xmlns="http://www.w3.org/2000/svg" id="search" width="164" height="164" fill="none" viewBox="0 0 164 164"><g clip-path="url(#clip0_3452_261)"><g clip-path="url(#clip1_3452_261)"><path fill="#706B69" d="m98.915 92.5-6.217 6.215 12.181 12.186 6.217-6.215z"/><path fill="#DBD6D1" d="m99.382 111.238 11.86-11.856 38.291 38.303c3.273 3.275 3.265 8.585-.002 11.852-3.275 3.273-8.585 3.265-11.852-.003l-38.29-38.303zM62.51 104.33c23.113 0 41.85-18.732 41.85-41.84S85.623 20.65 62.51 20.65 20.66 39.382 20.66 62.49s18.737 41.84 41.85 41.84"/><path fill="#706B69" d="M62.03 12c-27.6-.03-50 22.31-50.03 49.91-.03 27.59 22.33 49.98 49.93 50.01 27.61.03 50-22.32 50.03-49.91.03-27.6-22.32-49.98-49.93-50.01m-.1 89.71c-21.96-.02-39.75-17.84-39.73-39.79.02-21.96 17.85-39.73 39.81-39.71 21.97.02 39.75 17.83 39.73 39.79-.02 21.95-17.84 39.73-39.81 39.71"/><path fill="#fff" d="M89.47 62.49S77.4 77.3 62.52 77.3 35.57 62.49 35.57 62.49s12.07-14.81 26.95-14.81 26.95 14.81 26.95 14.81"/><path fill="#DBD6D1" d="M62.51 72.87c5.733 0 10.38-4.647 10.38-10.38s-4.647-10.38-10.38-10.38-10.38 4.647-10.38 10.38 4.647 10.38 10.38 10.38"/><path fill="#312F2E" d="M62.18 68.32a5.83 5.83 0 1 0 0-11.66 5.83 5.83 0 0 0 0 11.66"/></g></g><defs><clipPath id="clip0_3452_261"><path fill="#fff" d="M0 0h164v164H0z"/></clipPath><clipPath id="clip1_3452_261"><path fill="#fff" d="M0 0h164v164H0z"/></clipPath></defs></svg>