<svg xmlns="http://www.w3.org/2000/svg" id="speech_bubble" width="164" height="164" fill="none" viewBox="0 0 164 164"><g clip-path="url(#clip0_3452_266)"><g clip-path="url(#clip1_3452_266)"><path fill="#C2BAB5" d="M152 112.08V43.87a3.91 3.91 0 0 0-3.91-3.91H56.91A3.91 3.91 0 0 0 53 43.87v68.21a3.91 3.91 0 0 0 3.91 3.91h91.18a3.91 3.91 0 0 0 3.91-3.91"/><path fill="#DBD6D1" d="M135.2 28H14.8c-1.55 0-2.8 1.25-2.8 2.8v94.36c0 1.55 1.25 2.8 2.8 2.8h24.31v24.03L68 127.96h67.2c1.55 0 2.8-1.25 2.8-2.8V30.8c0-1.55-1.25-2.8-2.8-2.8"/><path fill="#fff" d="M61 81.97a3.5 3.5 0 1 0 0-7 3.5 3.5 0 0 0 0 7m14 0a3.5 3.5 0 1 0 0-7 3.5 3.5 0 0 0 0 7m14 0a3.5 3.5 0 1 0 0-7 3.5 3.5 0 0 0 0 7"/></g></g><defs><clipPath id="clip0_3452_266"><path fill="#fff" d="M0 0h164v164H0z"/></clipPath><clipPath id="clip1_3452_266"><path fill="#fff" d="M0 0h164v164H0z"/></clipPath></defs></svg>