<svg xmlns="http://www.w3.org/2000/svg" id="unknown" width="164" height="164" fill="none" viewBox="0 0 164 164"><g clip-path="url(#clip0_3452_259)"><path fill="#706B69" d="M152 60H12l11.27-30.05A3.01 3.01 0 0 1 26.08 28h111.84c1.25 0 2.37.78 2.81 1.95z"/><path fill="#C2BAB5" d="M34 12h96c1.1 0 2 .9 2 2v57.35H32V14c0-1.1.9-2 2-2"/><path fill="#DBD6D1" d="M30 28h104c1.1 0 2 .9 2 2v67.38H28V30c0-1.1.9-2 2-2"/><path fill="#fff" d="M26 44h112c1.1 0 2 .9 2 2v71.19H24V46c0-1.1.9-2 2-2"/><path fill="#DBD6D1" d="M12 60h140v88c0 2.21-1.79 4-4 4H16c-2.21 0-4-1.79-4-4z"/><path fill="#706B69" fill-rule="evenodd" d="M78.76 115.03h5.83v5.83h-5.83zm5.83-7.07c0-.69.39-1.33 1.01-1.64l3.64-1.82a7.38 7.38 0 0 0 4.09-6.61v-2.16c0-4.63-3.86-8.39-8.61-8.39h-6.19a8.52 8.52 0 0 0-8.52 8.52V99h5.83v-3.27c0-1.41 1.25-2.56 2.78-2.56h6.1c1.53 0 2.78 1.15 2.78 2.56v1.8c0 1.11-.62 2.12-1.61 2.61l-4.1 2.05a5.47 5.47 0 0 0-3.03 4.9v3.56h5.83z" clip-rule="evenodd"/></g><defs><clipPath id="clip0_3452_259"><path fill="#fff" d="M0 0h164v164H0z"/></clipPath></defs></svg>