<svg xmlns="http://www.w3.org/2000/svg" id="upload" width="164" height="164" fill="none" viewBox="0 0 164 164"><g clip-path="url(#clip0_3452_263)"><g clip-path="url(#clip1_3452_263)"><path fill="#DBD6D1" d="M164 99c0 16.57-13.35 30-29.82 30H22.36C10.01 129 0 118.93 0 106.5S10.01 84 22.36 84c.18 0 .36 0 .54.02a52 52 0 0 1-.54-7.52c0-29 23.36-52.5 52.18-52.5 26.65 0 48.63 20.1 51.79 46.05 2.5-.68 5.13-1.05 7.84-1.05 16.47 0 29.82 13.43 29.82 30z"/><path fill="#706B69" d="M111.82 117.5 82 72.5l-29.82 45h14.91V136c0 2.21 1.79 4 4 4h21.82c2.21 0 4-1.79 4-4v-18.5z"/></g></g><defs><clipPath id="clip0_3452_263"><path fill="#fff" d="M0 0h164v164H0z"/></clipPath><clipPath id="clip1_3452_263"><path fill="#fff" d="M0 0h164v164H0z"/></clipPath></defs></svg>