<svg xmlns="http://www.w3.org/2000/svg" id="work_in_progress" width="164" height="164" fill="none" viewBox="0 0 164 164"><g clip-path="url(#clip0_3452_270)"><g clip-path="url(#clip1_3452_270)"><path fill="#DBD6D1" d="M135.98 25.54c.2 5.25-1.12 10.19-3.57 14.39-4.6 7.93-13.19 13.26-23.01 13.26-3.39 0-6.65-.63-9.63-1.8-.03-.02-.35-.14-.46-.18-.01 0-.02 0-.03-.01a8.99 8.99 0 0 0-10.17 3.43c-.61.86-1.06 1.84-1.33 2.88v.01c-.18.72-.28 1.47-.28 2.25 0 1.36.28 2.69.8 3.88.2.48.44.92.73 1.34.74 1.59 1.15 3.36 1.15 5.23 0 6.62-5.17 12.03-11.7 12.4h-3.54v-.03h-12.7c2.45-.78 4.49-2.49 5.72-4.7.81-1.45 1.28-3.13 1.28-4.91 0-2.85-1.18-5.41-3.08-7.25a9.8 9.8 0 0 0-1.99-1.49c-.28-.17-.57-.32-.87-.46-5.31-3.02-8.48-8.51-8.48-15.07 0-8.96 6.67-16.35 15.33-17.48v-.05c6.17-1.05 11.25-5.33 13.45-11.04.06-.15.12-.3.17-.45.17-.45.31-.92.43-1.39s.25-.95.43-1.4c1.16-2.97 2.85-5.69 4.95-8.03 5.21-5.84 13-9.37 21.58-8.81 13.49.87 24.3 11.98 24.82 25.48"/><path fill="#fff" d="M64.25 45.82c-.59-.78-1.09-1.62-1.48-2.54zm-5.42 8.64s-.09-.05-.14-.08c.32.14.63.3.92.48-.27-.12-.53-.26-.79-.4z"/><path fill="#9D948E" d="M122.16 82.13h-6.56c-.13-.02-.26-.03-.4-.03H35.08c-1.7 0-3.08 1.38-3.08 3.08v40.64c0 8.29 2.64 15.95 7.13 22.21 2.51 3.52 5.59 6.57 9.1 9.04A38.1 38.1 0 0 0 70.19 164h9.87c18.35 0 33.69-12.95 37.36-30.2h4.73c14.25 0 25.84-11.59 25.84-25.83s-11.59-25.84-25.84-25.84zm0 42.44h-3.88V91.36h3.88c9.16 0 16.61 7.45 16.61 16.61s-7.45 16.6-16.61 16.6"/><path fill="#544F4F" d="m56 148.01-7.76 9.06a38.3 38.3 0 0 1-9.11-9.03v-.02l16.86-.02z"/><path fill="#312F2E" d="M40.67 108.76V85.27c0-2.86 2.3-5.18 5.15-5.23.58 0 1.12.39 1.2.96.1.7-.44 1.3-1.12 1.3a2.97 2.97 0 0 0-2.97 2.97v23.49z"/><path fill="#DBD6D1" d="M37.61 107.03 24 120.63v25.07c0 1.17 1.01 2.12 2.25 2.12l29.5.19c1.24 0 2.25-.95 2.25-2.12v-36.75c0-1.17-1.01-2.12-2.25-2.12H37.6z"/><path fill="#fff" d="M37.6 120.62v-13.59L24 120.62z"/></g></g><defs><clipPath id="clip0_3452_270"><path fill="#fff" d="M0 0h164v164H0z"/></clipPath><clipPath id="clip1_3452_270"><path fill="#fff" d="M0 0h164v164H0z"/></clipPath></defs></svg>