<svg xmlns="http://www.w3.org/2000/svg" id="bold" viewBox="0 0 24 24"><path d="M7 19V5h6.28a4.59 4.59 0 0 1 3.07 1 3.2 3.2 0 0 1 1.13 2.56A3.06 3.06 0 0 1 17 10.3a3.16 3.16 0 0 1-1.32 1.1A3.61 3.61 0 0 1 18 14.9a4 4 0 0 1-.6 2.21 3.82 3.82 0 0 1-1.64 1.41 5.47 5.47 0 0 1-2.36.48H7Zm6.24-8.66a1.57 1.57 0 0 0 1-.33 1.15 1.15 0 0 0 .39-.93 1.15 1.15 0 0 0-.39-.93 1.57 1.57 0 0 0-1-.33h-3v2.54l3-.02Zm-.08 5.74a1.81 1.81 0 0 0 1.26-.42 1.458 1.458 0 0 0 .46-1.14 1.491 1.491 0 0 0-.46-1.16 1.81 1.81 0 0 0-1.26-.42h-3v3.14h3Z"></path></svg>
