<svg width="243" height="243" viewBox="0 0 243 243" fill="none" xmlns="http://www.w3.org/2000/svg">
<g clip-path="url(#clip0_101:947)">
<path d="M74.0447 140.328H167.782L239.785 214.322C244.719 219.393 241.126 227.901 234.051 227.901H162.639C160.479 227.901 158.411 227.028 156.905 225.481L74.0447 140.328Z" fill="#0066CC"/>
<path d="M8.22193 85.3087C1.05026 85.3346 -2.5301 76.6384 2.58093 71.6074L56.9014 18.1374C58.3905 16.6717 60.394 15.0078 62.4834 15L201.63 15.0002L136.34 84.845L8.22193 85.3087Z" fill="#0066CC"/>
<path d="M210.065 23.0151V144.983C210.065 149.402 206.483 152.983 202.065 152.983H58.0159C50.5648 152.983 47.1599 143.693 52.8464 138.878L196.895 16.9097C202.094 12.5078 210.065 16.203 210.065 23.0151Z" fill="#00E5EF"/>
<path d="M210.065 23.0151V144.983C210.065 149.402 206.483 152.983 202.065 152.983H58.0159C50.5648 152.983 47.1599 143.693 52.8464 138.878L196.895 16.9097C202.094 12.5078 210.065 16.203 210.065 23.0151Z" fill="url(#paint0_linear_101:947)"/>
<path opacity="0.1" d="M86.7363 153.02L110.851 177.769L187.001 159.77L180.655 153.02H86.7363Z" fill="black"/>
</g>
<defs>
<linearGradient id="paint0_linear_101:947" x1="123.126" y1="152.983" x2="123.126" y2="5.75886" gradientUnits="userSpaceOnUse">
<stop stop-color="#00BBFF"/>
<stop offset="1" stop-color="#00E5EF"/>
</linearGradient>
<clipPath id="clip0_101:947">
<rect width="243" height="243" fill="white"/>
</clipPath>
</defs>
</svg>
